<?xml version="1.0" encoding="UTF-8" standalone="no"?>
<svg
   xmlns:dc="http://purl.org/dc/elements/1.1/"
   xmlns:cc="http://creativecommons.org/ns#"
   xmlns:rdf="http://www.w3.org/1999/02/22-rdf-syntax-ns#"
   xmlns:svg="http://www.w3.org/2000/svg"
   xmlns="http://www.w3.org/2000/svg"
   xmlns:sodipodi="http://sodipodi.sourceforge.net/DTD/sodipodi-0.dtd"
   xmlns:inkscape="http://www.inkscape.org/namespaces/inkscape"
   width="210mm"
   height="297mm"
   viewBox="0 0 210 297"
   version="1.1"
   id="svg8"
   inkscape:version="1.0.2 (e86c870879, 2021-01-15)"
   sodipodi:docname="banan.svg">
  <defs
     id="defs2" />
  <sodipodi:namedview
     id="base"
     pagecolor="#ffffff"
     bordercolor="#666666"
     borderopacity="1.0"
     inkscape:pageopacity="0.0"
     inkscape:pageshadow="2"
     inkscape:zoom="1.1313708"
     inkscape:cx="327.78544"
     inkscape:cy="350.03603"
     inkscape:document-units="mm"
     inkscape:current-layer="layer1"
     inkscape:document-rotation="0"
     showgrid="false"
     inkscape:window-width="1920"
     inkscape:window-height="1049"
     inkscape:window-x="1920"
     inkscape:window-y="0"
     inkscape:window-maximized="1" />
  <metadata
     id="metadata5">
    <rdf:RDF>
      <cc:Work
         rdf:about="">
        <dc:format>image/svg+xml</dc:format>
        <dc:type
           rdf:resource="http://purl.org/dc/dcmitype/StillImage" />
        <dc:title></dc:title>
      </cc:Work>
    </rdf:RDF>
  </metadata>
  <g
     inkscape:label="Layer 1"
     inkscape:groupmode="layer"
     id="layer1">
    <g
       aria-label="Banan"
       id="text1226"
       style="font-style:normal;font-variant:normal;font-weight:bold;font-stretch:normal;font-size:5.64444px;line-height:1.25;font-family:sans-serif;-inkscape-font-specification:'sans-serif, Bold';font-variant-ligatures:normal;font-variant-caps:normal;font-variant-numeric:normal;font-variant-east-asian:normal;fill:#000000;fill-opacity:1;stroke:none;stroke-width:0.264583">
      <path
         d="m 91.373114,37.489436 q 0.221916,0.116856 0.387897,0.07967 0.165982,-0.03719 0.266144,-0.227405 0.09888,-0.187775 0.03563,-0.345675 -0.06197,-0.160338 -0.283883,-0.277194 l -0.519429,-0.273521 -0.405786,0.77061 z m -0.806836,1.609123 q 0.282882,0.14896 0.487245,0.103946 0.206802,-0.04373 0.333931,-0.285154 0.124561,-0.236548 0.04476,-0.428082 -0.07852,-0.193973 -0.363839,-0.344217 l -0.551132,-0.290214 -0.502096,0.953507 z m 1.562611,-0.849828 q 0.256162,0.247023 0.297429,0.570892 0.04127,0.323869 -0.139797,0.667717 -0.277372,0.526745 -0.769531,0.597757 -0.492159,0.07101 -1.218873,-0.311659 l -1.558289,-0.820561 1.91721,-3.640884 1.409532,0.742228 q 0.758416,0.399366 0.976678,0.807092 0.220701,0.40901 -0.04512,0.913808 -0.13997,0.265811 -0.363219,0.388096 -0.221964,0.119845 -0.506025,0.08551 z"
         style="font-style:normal;font-variant:normal;font-weight:bold;font-stretch:normal;font-size:5.64444px;font-family:sans-serif;-inkscape-font-specification:'sans-serif, Bold';font-variant-ligatures:normal;font-variant-caps:normal;font-variant-numeric:normal;font-variant-east-asian:normal;stroke-width:0.264583"
         id="path1231" />
      <path
         d="m 94.404763,40.757182 q -0.245604,-0.186982 -0.434039,-0.198813 -0.186242,-0.01016 -0.309784,0.152112 -0.113525,0.149116 -0.07995,0.309766 0.03743,0.160126 0.215056,0.295354 0.221482,0.168619 0.492994,0.125925 0.273182,-0.04489 0.455156,-0.283911 l 0.06845,-0.08991 z m 1.42489,0.61717 -1.066802,1.401255 -0.791632,-0.602685 0.277134,-0.364019 q -0.328175,0.103472 -0.604001,0.05628 -0.274156,-0.04938 -0.557039,-0.264744 -0.381562,-0.290491 -0.451969,-0.693947 -0.06654,-0.403979 0.203913,-0.759227 0.328889,-0.431999 0.778521,-0.408364 0.451826,0.02531 1.087763,0.509456 l 0.4627,0.352262 0.04675,-0.0614 q 0.141907,-0.186396 0.06009,-0.383774 -0.08014,-0.199571 -0.391534,-0.436638 -0.252182,-0.191991 -0.507676,-0.306834 -0.255494,-0.114843 -0.518686,-0.155876 l 0.45577,-0.598659 q 0.298928,0.13059 0.576676,0.29355 0.279417,0.160768 0.533792,0.354428 0.664445,0.505855 0.757954,0.992713 0.09737,0.486334 -0.351722,1.076221 z"
         style="font-style:normal;font-variant:normal;font-weight:bold;font-stretch:normal;font-size:5.64444px;font-family:sans-serif;-inkscape-font-specification:'sans-serif, Bold';font-variant-ligatures:normal;font-variant-caps:normal;font-variant-numeric:normal;font-variant-east-asian:normal;stroke-width:0.264583"
         id="path1233" />
      <path
         d="m 98.953583,44.345848 -1.363705,1.293586 -0.682832,-0.719844 0.221952,-0.21054 0.821823,-0.779566 q 0.289937,-0.275029 0.386636,-0.393347 0.0986,-0.116319 0.120236,-0.197628 0.03015,-0.108377 -1.38e-4,-0.2164 -0.02829,-0.109919 -0.115542,-0.2019 -0.212437,-0.223951 -0.507791,-0.186906 -0.293355,0.03515 -0.599289,0.325352 l -1.101762,1.045111 -0.679038,-0.715845 2.239516,-2.124364 0.679038,0.715845 -0.327929,0.311068 q 0.349594,-0.02392 0.614179,0.07079 0.266584,0.09281 0.475227,0.312766 0.36797,0.387916 0.319697,0.813586 -0.04638,0.42767 -0.500278,0.858233 z"
         style="font-style:normal;font-variant:normal;font-weight:bold;font-stretch:normal;font-size:5.64444px;font-family:sans-serif;-inkscape-font-specification:'sans-serif, Bold';font-variant-ligatures:normal;font-variant-caps:normal;font-variant-numeric:normal;font-variant-east-asian:normal;stroke-width:0.264583"
         id="path1235" />
      <path
         d="m 100.086,46.723187 q -0.173957,-0.254994 -0.349005,-0.325745 -0.173495,-0.06848 -0.341974,0.04646 -0.154817,0.105618 -0.173716,0.268646 -0.01507,0.163751 0.110741,0.348167 0.156874,0.229949 0.42797,0.275213 0.273374,0.04371 0.521534,-0.125588 l 0.0934,-0.06368 z m 1.15696,1.03569 -1.454828,0.992497 -0.560707,-0.8219 0.377938,-0.257832 q -0.344058,-0.0055 -0.590852,-0.137403 -0.244518,-0.133458 -0.444882,-0.427157 -0.270257,-0.396151 -0.209606,-0.801188 0.06448,-0.404314 0.433311,-0.655933 0.448516,-0.305981 0.867658,-0.141517 0.420698,0.166741 0.871128,0.826993 l 0.32772,0.48039 0.0637,-0.04349 q 0.19352,-0.132022 0.17825,-0.345138 -0.013,-0.214669 -0.23355,-0.537965 -0.17862,-0.261824 -0.38475,-0.451497 -0.20613,-0.189672 -0.44288,-0.311747 l 0.62154,-0.424025 q 0.24237,0.218335 0.45442,0.460691 0.21432,0.240802 0.39449,0.504903 0.47062,0.68985 0.40554,1.181316 -0.0613,0.49219 -0.67369,0.910002 z"
         style="font-style:normal;font-variant:normal;font-weight:bold;font-stretch:normal;font-size:5.64444px;font-family:sans-serif;-inkscape-font-specification:'sans-serif, Bold';font-variant-ligatures:normal;font-variant-caps:normal;font-variant-numeric:normal;font-variant-east-asian:normal;stroke-width:0.264583"
         id="path1237" />
      <path
         d="m 103.27199,51.559407 -1.70115,0.799472 -0.42201,-0.897966 0.27687,-0.13012 1.02518,-0.481793 q 0.36168,-0.169975 0.49067,-0.251909 0.13015,-0.07944 0.17625,-0.149828 0.0627,-0.09341 0.0679,-0.205479 0.008,-0.113242 -0.0462,-0.227982 -0.13129,-0.279367 -0.42333,-0.33702 -0.28953,-0.05883 -0.67117,0.120528 l -1.37439,0.645908 -0.41966,-0.892978 2.79367,-1.312915 0.41967,0.892977 -0.40908,0.192248 q 0.3394,0.08716 0.56082,0.260225 0.2239,0.171891 0.35285,0.446269 0.22742,0.483904 0.0478,0.872837 -0.17843,0.391426 -0.74464,0.657526 z"
         style="font-style:normal;font-variant:normal;font-weight:bold;font-stretch:normal;font-size:5.64444px;font-family:sans-serif;-inkscape-font-specification:'sans-serif, Bold';font-variant-ligatures:normal;font-variant-caps:normal;font-variant-numeric:normal;font-variant-east-asian:normal;stroke-width:0.264583"
         id="path1239" />
    </g>
  </g>
</svg>
