<?xml version="1.0" encoding="utf-8"?>
<!-- Generator: Adobe Illustrator 25.4.1, SVG Export Plug-In . SVG Version: 6.00 Build 0)  -->
<svg version="1.1" id="Layer_1" xmlns="http://www.w3.org/2000/svg" xmlns:xlink="http://www.w3.org/1999/xlink" x="0px" y="0px"
	 viewBox="0 0 575 575" style="enable-background:new 0 0 575 575;" xml:space="preserve">
<style type="text/css">
	.st0{fill:#010101;}
</style>
<g>
	<path class="st0" d="M346.53,508.12c-4.32,0-8.75-1-13.01-3.01c-3.47-1.64-6.71-2.68-9.38-3c-24.52-2.95-54.17-24.84-59.23-52.74
		c-1.42-7.82-5.8-14.23-10.88-21.65c-2.52-3.68-5.12-7.48-7.54-11.71c-1.79-3.14-3.7-6.36-5.54-9.47
		c-5.26-8.89-10.71-18.07-15.13-28c-6.23-13.97-22.44-24.12-36.15-22.65c-0.92,0.1-1.52,0.25-1.87,0.36
		c-0.37,1.44-0.8,2.63-1.15,3.59l-0.24,0.67c-3.41,9.87-8.37,20.51-19.25,24.55c-10.8,4-21.15-0.65-29.86-5.72
		c-9.43-5.5-19.39-11.52-28.32-19.36c-6.48-5.69-11.54-14.44-13.89-24.01c-2.72-11.13-7.13-18.2-15.19-24.4
		c-12.14-9.34-22.87-20.1-33.24-30.51c-2.84-2.85-5.68-5.7-8.55-8.52c-5.82-5.72-7.99-13.25-5.8-20.16
		c2.25-7.12,8.4-12.02,16.89-13.43c3.24-0.54,6.18-0.5,8.53-0.47c0.48,0.01,0.95,0.01,1.42,0.01c12.46,0.01,24.91,0.02,37.37,0.04
		c16.7,0.02,33.41,0.04,50.11,0.04c0.25,0,0.46,0,0.68,0c0-0.3,0.01-0.61,0.01-0.94c0.11-16.95,0.09-34.21,0.06-50.91
		c-0.01-7.17-0.02-14.34-0.02-21.51c0-0.92,0.08-1.83,0.24-2.71c0-5.88,0.02-11.77,0.03-17.65c0.04-17.05,0.08-34.69-0.15-51.97
		c-0.04-3.08-0.17-12.46,6.87-19.4c4.65-4.58,11.11-6.79,19.22-6.57c23.11,0.64,47.94,1.11,80.51,1.52
		c14.51,0.19,23.48,9.57,23.41,24.48c-0.04,7.66-0.04,15.86,0,25.81c0.03,8.28-6.66,15.03-14.94,15.06c-0.02,0-0.04,0-0.06,0
		c-8.26,0-14.97-6.68-15-14.94c-0.03-7.68-0.04-14.33-0.02-20.5c-27.54-0.37-49.53-0.79-69.94-1.32c0.17,16.04,0.13,32.21,0.1,47.89
		c-0.02,6.76-0.03,13.52-0.03,20.28c0,0.92-0.08,1.82-0.24,2.7c0,6.26,0.01,12.51,0.02,18.77c0.02,16.76,0.05,34.08-0.07,51.16
		c-0.05,7.13-0.11,16.9-7.04,23.82c-6.93,6.93-16.64,6.91-23.66,6.92c-16.71,0-33.43-0.02-50.14-0.04
		c-6.64-0.01-13.27-0.02-19.91-0.02c7.08,6.95,14.1,13.49,21.62,19.28c13.44,10.34,21.72,23.38,26.04,41.05
		c0.94,3.86,2.99,7.24,4.53,8.59c6.93,6.07,15.48,11.23,23.65,16c1.59,0.92,2.83,1.58,3.8,2.04c0.5-1.11,1.12-2.65,1.84-4.75
		c0.12-0.35,0.24-0.69,0.37-1.04c0.13-0.35,0.3-0.82,0.34-0.99c3.29-12.82,13.38-21.07,27.67-22.61
		c26.56-2.87,55.26,14.44,66.77,40.26c3.72,8.34,8.49,16.4,13.54,24.93c1.9,3.21,3.87,6.54,5.78,9.88c1.81,3.17,3.97,6.32,6.25,9.65
		c6.13,8.96,13.08,19.12,15.64,33.24c2.04,11.25,17.35,26.39,33.29,28.3c4.52,0.54,9.24,1.78,14.08,3.69
		c-0.25-1.09-0.54-2.22-0.83-3.38c-1-3.99-2.14-8.5-2.56-13.42c-0.79-9.13-1.36-18.86,1.1-28.53c6.63-26.02,26.37-39.27,43.79-50.96
		l2.76-1.85c61.8-41.68,127.48-107.67,127.48-147.88c0-20.86-4.88-37.35-14.11-47.69c-8.5-9.52-20.99-14.35-37.11-14.35
		c-24.92,0-47.34,12.96-60,34.67c-2.69,4.61-7.62,7.45-12.96,7.45c0,0,0,0,0,0c-5.34,0-10.27-2.84-12.96-7.45
		c-13.12-22.52-36.07-36.5-59.9-36.5c-35.3,0-54.74,21.77-54.74,61.31c0,38.65,49.1,79.43,103.81,121.3
		c6.58,5.04,7.83,14.45,2.79,21.03c-5.03,6.58-14.45,7.83-21.03,2.8c-63.23-48.4-115.58-92.72-115.58-145.12
		c0-28.25,8.27-51.68,23.92-67.75c15.01-15.41,36.04-23.56,60.83-23.56c27.49,0,53.98,12.53,72.94,33.69
		c18.59-20.24,44.61-31.85,72.88-31.85c24.69,0,45.26,8.43,59.49,24.36c14.42,16.15,21.74,38.92,21.74,67.67
		c0,27.36-17.05,59.72-50.69,96.18c-24.63,26.7-57.44,54.61-90.01,76.58l-2.82,1.89c-17.14,11.5-27.83,19.27-31.44,33.46
		c-1.3,5.12-0.85,11.96-0.28,18.53c0.22,2.53,0.97,5.53,1.77,8.71c0.99,3.93,2.11,8.38,2.55,13.22
		c0.93,10.14-3.16,19.44-10.93,24.87C357.21,506.54,351.96,508.12,346.53,508.12z M247.47,92.13
		C247.47,92.13,247.47,92.13,247.47,92.13C247.47,92.13,247.47,92.13,247.47,92.13z"/>
</g>
</svg>
