<?xml version="1.0" encoding="UTF-8" standalone="no"?>
<svg
   xmlns:dc="http://purl.org/dc/elements/1.1/"
   xmlns:cc="http://creativecommons.org/ns#"
   xmlns:rdf="http://www.w3.org/1999/02/22-rdf-syntax-ns#"
   xmlns:svg="http://www.w3.org/2000/svg"
   xmlns="http://www.w3.org/2000/svg"
   xmlns:sodipodi="http://sodipodi.sourceforge.net/DTD/sodipodi-0.dtd"
   xmlns:inkscape="http://www.inkscape.org/namespaces/inkscape"
   version="1.0"
   width="1000.000000pt"
   height="1000.000000pt"
   viewBox="0 0 1000.000000 1000.000000"
   preserveAspectRatio="xMidYMid meet"
   id="svg16"
   sodipodi:docname="FILLED-HIBISCUS.svg"
   inkscape:version="1.0.1 (3bc2e813f5, 2020-09-07)"
   inkscape:export-filename="C:\Users\user\Desktop\svg business\hibuscus svg\FILLED-HIBISCUS.png"
   inkscape:export-xdpi="300"
   inkscape:export-ydpi="300">
  <metadata
     id="metadata22">
    <rdf:RDF>
      <cc:Work
         rdf:about="">
        <dc:format>image/svg+xml</dc:format>
        <dc:type
           rdf:resource="http://purl.org/dc/dcmitype/StillImage" />
      </cc:Work>
    </rdf:RDF>
  </metadata>
  <defs
     id="defs20" />
  <sodipodi:namedview
     pagecolor="#ffffff"
     bordercolor="#666666"
     borderopacity="1"
     objecttolerance="10"
     gridtolerance="10"
     guidetolerance="10"
     inkscape:pageopacity="0"
     inkscape:pageshadow="2"
     inkscape:window-width="1366"
     inkscape:window-height="705"
     id="namedview18"
     showgrid="false"
     inkscape:zoom="0.4035"
     inkscape:cx="666.66667"
     inkscape:cy="666.66667"
     inkscape:window-x="-8"
     inkscape:window-y="-8"
     inkscape:window-maximized="1"
     inkscape:current-layer="g14" />
  <g
     transform="translate(0.000000,1000.000000) scale(0.100000,-0.100000)"
     fill="#000000"
     stroke="none"
     id="g14">
    <path
       d="m 5299.446,7721.4452 c -12.0585,-7.3691 -23.4471,-16.078 -25.4569,-19.4276 -2.6796,-4.0195 -14.0682,-1.3398 -29.4763,6.6992 -32.156,18.0878 -66.9917,12.7284 -97.138,-14.7382 -18.7576,-16.7479 -21.4373,-22.7771 -20.7674,-52.9234 v -33.4959 l -17.4178,9.3789 c -33.4959,17.4178 -63.6422,18.7577 -95.7982,4.6894 -37.5153,-16.7479 -54.9332,-42.2048 -54.9332,-79.7201 v -28.8065 l -34.1657,4.0195 c -24.787,3.3496 -40.865,1.3399 -58.2828,-7.369 -24.117,-11.3886 -44.8845,-42.8747 -44.8845,-69.0015 0,-18.7577 18.7577,-69.0014 30.1463,-81.7299 8.7089,-10.0487 6.0293,-14.7381 -32.156,-45.5543 -66.3218,-53.5934 -215.0434,-209.684 -294.7635,-308.8318 -125.9444,-158.1004 -269.3069,-376.4933 -393.2415,-600.2456 -70.3413,-125.9444 -106.5168,-202.9849 -136.6631,-290.744 -26.1268,-75.0307 -30.1463,-107.8566 -13.3984,-123.9346 25.4569,-25.4569 53.5934,0 85.7494,76.3705 75.7006,184.2272 102.4973,244.5197 135.3233,305.4822 76.3705,143.3622 333.6189,520.5255 450.8544,660.5381 29.4763,35.5056 98.4778,110.5363 153.411,166.8094 l 99.1477,101.8274 26.1268,-6.0293 c 56.273,-14.7382 98.4778,16.7479 107.1867,77.7104 4.6894,31.4861 6.0292,34.1657 19.4276,30.1462 28.1365,-10.0487 79.0502,-11.3886 98.4778,-3.3495 29.4763,12.0585 51.5836,42.8746 56.9429,77.7103 l 4.6894,30.8162 29.4764,-4.0195 c 52.2535,-6.6992 102.4973,27.4666 102.4973,70.3413 0,12.7284 4.0195,20.0975 12.7284,22.7772 25.4569,8.039 54.2633,40.8649 54.2633,62.3023 0,24.7869 -22.7772,53.5933 -50.9137,65.6518 -29.4764,12.7284 -42.2048,12.0585 -66.9917,-3.3496 z"
       id="path4"
       style="stroke-width:0.669917" />
    <path
       id="path12"
       d="m 3861.0168,5816.4777 c -145.372,-119.9152 -282.0351,-306.1521 -436.7859,-593.5465 -31.4861,-58.9527 -61.6324,-109.8664 -66.9917,-113.216 -18.0878,-11.3886 -31.4861,0.6699 -31.4861,28.1365 0,83.7397 141.3525,349.6967 275.3359,517.8459 25.4568,32.156 81.06,91.1087 123.2647,131.9736 84.4096,81.06 85.0795,79.7202 -16.7479,38.1853 -92.4485,-38.1853 -190.9263,-94.4583 -332.2788,-188.2467 -372.4739,-249.2091 -493.059,-367.1145 -553.3515,-542.6328 -38.1853,-110.5363 -37.5153,-202.3149 0.6699,-280.6952 26.7967,-53.5933 57.6129,-88.429 125.2745,-141.3525 66.3218,-51.5836 81.06,-71.6811 135.9932,-184.2272 66.9917,-135.9931 127.2842,-191.5962 225.0921,-207.0043 73.6909,-12.0585 147.3817,1.3398 227.7718,41.5348 127.2842,62.9722 154.0809,69.0015 263.2774,54.2633 67.6616,-8.7089 89.7688,-9.3788 117.2354,-2.6796 71.0112,16.078 137.333,79.0502 166.8094,158.7703 11.3886,32.156 14.7381,53.5933 14.0682,113.216 0,61.6323 -5.3593,100.4875 -34.1657,241.1701 -64.982,317.5407 -84.4096,458.2232 -92.4486,669.917 -4.0195,96.468 3.3496,219.0629 15.4081,256.5782 6.0293,21.4374 -37.5154,-35.5056 -78.3803,-101.1575 -109.1965,-174.8483 -177.528,-338.308 -241.1701,-572.779 -6.0293,-24.117 -10.0488,-28.8064 -22.1073,-26.7967 -13.3983,2.0098 -14.7382,6.6992 -16.7479,44.8845 -2.6797,54.2632 12.7284,129.2939 45.5544,229.1116 55.6031,166.1394 117.2354,290.744 204.9946,413.3388 26.7966,37.5153 48.234,68.3315 46.8942,68.3315 -0.67,0 -30.1463,-23.4471 -64.982,-52.9234 z m 275.3359,89.0989 c 0,-12.0585 61.6324,-85.0794 117.9054,-140.6825 76.3705,-75.0308 187.5767,-162.12 294.0936,-231.1214 115.2257,-74.3608 133.9834,-88.4291 135.9931,-104.5071 4.6894,-30.8162 -46.2243,-28.1365 -123.2647,7.3691 -125.2745,58.2828 -247.1994,146.7118 -362.4251,261.9376 -65.6519,66.3218 -79.7201,78.3803 -74.3608,61.6323 17.4178,-52.9234 115.2257,-242.5099 158.1004,-306.822 84.4095,-125.9444 205.6645,-249.2091 324.2398,-328.2593 79.7202,-52.9234 98.4778,-81.0599 60.2926,-89.7689 -38.1853,-8.039 -133.3135,35.5056 -221.0726,101.8274 -150.7314,112.5461 -287.3944,300.1228 -369.7942,506.4573 -8.039,20.7674 -18.0878,40.195 -22.1073,42.8747 -9.3788,6.0292 -1.3398,-197.6256 12.0585,-282.705 40.8649,-263.2774 99.1477,-522.5353 143.3622,-637.0911 39.5252,-102.4973 130.6339,-221.7425 212.3637,-278.0156 125.9444,-86.4192 235.1409,-88.429 388.5519,-5.3593 69.6714,37.5154 95.7981,43.5446 222.4125,49.5739 89.0989,4.0195 141.3524,15.4081 195.6157,43.5446 56.943,28.8064 112.5461,118.5753 127.9542,204.9946 4.6894,28.8064 6.6991,74.3608 4.0195,123.9346 -6.6992,119.2453 4.6894,161.45 67.6616,259.9278 14.7382,22.1073 30.1463,53.5934 34.8357,70.3413 20.7674,74.3608 -11.3886,170.8289 -77.7104,231.1214 -65.6519,59.6226 -105.8469,74.3608 -367.7844,130.6338 -414.6787,89.7689 -671.9268,176.8581 -823.998,278.6855 -35.5056,24.117 -56.9429,34.8357 -56.9429,29.4763 z m -1413.5249,1081.916 c -81.06,-8.7089 -126.6143,-44.2145 -178.8678,-139.3427 -44.8845,-80.3901 -76.3706,-109.1965 -183.5573,-164.7996 -105.177,-54.9332 -162.1199,-105.8469 -198.2954,-176.8581 -18.7577,-36.8455 -22.1073,-49.5739 -22.1073,-91.7786 0,-73.6909 10.7187,-111.2063 60.2925,-213.7036 51.5836,-106.5168 60.2926,-138.6728 60.2926,-229.7815 0,-107.8566 24.7869,-172.8386 90.4388,-239.8303 48.9039,-49.5739 124.6045,-89.099 214.3734,-110.5363 84.4095,-20.7674 215.0434,-20.7674 304.8122,0 209.0141,48.234 541.9629,160.1102 679.9658,228.4417 90.4388,44.2145 222.4125,125.2745 215.7133,131.9736 -2.0098,1.3399 -25.4569,-3.3495 -52.9235,-10.7186 -81.0599,-22.1073 -154.0809,-33.4959 -269.9765,-41.5349 -173.5085,-12.7284 -301.4627,6.0293 -301.4627,44.2145 0,12.7285 6.0293,13.3984 117.2355,17.4179 131.3037,4.6894 244.5197,18.0877 367.1145,43.5446 121.9249,24.7869 121.9249,24.7869 32.156,42.2048 -283.3748,52.9234 -649.1495,208.3442 -683.9852,290.074 -9.3789,22.7772 -6.6992,38.8552 6.0292,38.8552 4.6895,0 32.156,-13.3983 60.9625,-29.4763 73.0209,-42.2048 196.2857,-91.7787 368.4543,-148.7216 154.0809,-50.2438 377.1633,-113.216 383.1926,-107.1867 2.0097,1.3398 -11.3886,10.7186 -29.4764,20.0975 -131.3037,67.6616 -361.7552,272.6562 -568.0896,507.1272 -44.2145,49.5738 -112.5461,127.2842 -152.0712,172.1686 -123.2647,138.0029 -204.3247,180.8776 -320.2203,168.1492 z m 2291.7861,160.7801 c -19.4276,-3.3496 -54.2633,-16.078 -76.3705,-27.4666 -74.3608,-40.195 -109.8664,-83.7396 -232.4612,-286.7245 -198.9654,-330.2691 -360.4154,-541.2929 -529.2345,-692.6942 -24.117,-21.4373 -40.195,-40.195 -36.1755,-41.5348 8.7089,-3.3496 131.9736,47.5641 223.7523,93.1184 64.312,32.156 144.0321,82.3998 377.1633,241.8401 89.7688,60.9624 113.2159,68.3315 117.2354,38.8552 2.6797,-19.4276 -26.7967,-47.5642 -142.6923,-135.3233 -118.5753,-89.0989 -266.627,-185.567 -362.4251,-235.1409 -44.2145,-22.7771 -81.06,-42.2047 -83.0697,-44.2145 -3.3496,-2.6796 8.7089,-2.0097 127.2842,12.0585 138.6728,16.078 259.9278,49.5739 455.5436,126.6143 198.9653,78.3803 207.6743,80.3901 217.0531,56.2731 6.6992,-18.0878 -28.8064,-43.5446 -125.2745,-89.7689 -160.1101,-75.7006 -300.1228,-125.9444 -436.1159,-155.4208 -54.2633,-12.0585 -93.7884,-14.7381 -198.2955,-16.078 -71.6811,-1.3398 -131.9736,-2.0097 -133.9834,-2.6796 -8.039,-2.0098 104.5071,-50.9137 180.8776,-78.3803 105.8469,-37.5154 156.7606,-49.5739 334.9585,-78.3803 352.3764,-57.6129 529.2344,-66.9917 652.4992,-34.1658 152.7411,40.195 283.3749,133.9834 318.8805,229.1116 26.7967,71.0112 30.1462,113.8859 16.7479,206.3345 -14.7382,101.1574 -12.0585,131.3037 20.7674,231.1213 24.117,71.6812 25.4569,83.0698 26.1268,157.4305 0,93.7884 -7.3691,113.8859 -66.3218,176.1882 -50.2438,53.5934 -93.7884,79.0502 -193.606,111.2062 -134.6533,43.5446 -152.0712,54.2633 -216.3832,135.3233 -48.9039,62.3023 -89.7689,91.7786 -142.0224,102.4973 -39.5251,8.039 -43.5446,8.039 -94.4583,0 z m -1179.7239,726.19 c -45.5543,-8.039 -125.2744,-54.9332 -178.1979,-103.8371 -101.1575,-93.7884 -115.8956,-103.1672 -209.684,-132.6436 -157.4305,-48.9039 -221.7425,-109.8664 -256.5782,-239.8303 -32.156,-123.2647 -10.0488,-293.4236 56.273,-425.3973 59.6226,-119.9151 280.6952,-456.8834 373.8137,-570.7693 45.5544,-55.6031 192.9361,-200.9751 198.9653,-195.6157 2.0098,2.0097 -6.0292,28.1365 -16.7479,57.6128 -56.273,146.7119 -101.8274,423.3876 -101.8274,613.644 0,100.4876 6.0293,139.3427 22.7772,156.7606 8.7089,8.039 13.3984,8.7089 22.7772,3.3496 9.3788,-6.0293 12.7284,-26.1268 19.4276,-117.2355 12.7284,-174.1784 48.234,-390.5616 97.138,-595.5562 l 15.408,-63.6421 4.6895,120.585 c 6.0292,148.0517 16.078,258.588 32.156,355.056 14.7382,86.4193 39.5251,175.5183 55.6031,200.3052 13.3983,19.4276 42.8747,24.117 49.5738,6.6992 2.0098,-5.3593 -4.0195,-57.6129 -13.3983,-115.2257 -10.0487,-57.6129 -20.7674,-135.3233 -24.7869,-172.1687 -8.039,-81.06 -26.7967,-376.4934 -26.1268,-418.6981 v -30.1463 l 20.7674,46.8942 c 11.3886,26.1268 64.982,134.6533 119.2453,241.1701 99.1477,196.9556 168.1491,314.861 306.822,525.8849 102.4973,156.0906 138.0029,224.4222 148.7215,288.0643 14.0683,82.3998 -10.7186,171.4987 -62.9722,223.0823 -32.8259,32.826 -52.9234,42.8747 -131.9736,62.3023 -101.8274,24.787 -125.2745,39.5251 -217.0531,134.6533 -71.0112,73.6909 -86.4193,86.4193 -133.9834,109.1965 -71.6811,34.1658 -120.5851,44.2145 -170.8289,35.5056 z"
       style="stroke-width:0.669917" />
  </g>
</svg>
