<?xml version="1.0" encoding="UTF-8" standalone="no"?>
<svg
   xmlns:dc="http://purl.org/dc/elements/1.1/"
   xmlns:cc="http://creativecommons.org/ns#"
   xmlns:rdf="http://www.w3.org/1999/02/22-rdf-syntax-ns#"
   xmlns:svg="http://www.w3.org/2000/svg"
   xmlns="http://www.w3.org/2000/svg"
   xmlns:sodipodi="http://sodipodi.sourceforge.net/DTD/sodipodi-0.dtd"
   xmlns:inkscape="http://www.inkscape.org/namespaces/inkscape"
   version="1.0"
   width="1000.000000pt"
   height="1000.000000pt"
   viewBox="0 0 1000.000000 1000.000000"
   preserveAspectRatio="xMidYMid meet"
   id="svg6"
   sodipodi:docname="HIBISCUS.svg"
   inkscape:version="1.0.1 (3bc2e813f5, 2020-09-07)"
   inkscape:export-filename="C:\Users\user\Desktop\svg business\hibuscus svg\HIBISCUS.png"
   inkscape:export-xdpi="300"
   inkscape:export-ydpi="300">
  <metadata
     id="metadata12">
    <rdf:RDF>
      <cc:Work
         rdf:about="">
        <dc:format>image/svg+xml</dc:format>
        <dc:type
           rdf:resource="http://purl.org/dc/dcmitype/StillImage" />
      </cc:Work>
    </rdf:RDF>
  </metadata>
  <defs
     id="defs10" />
  <sodipodi:namedview
     pagecolor="#ffffff"
     bordercolor="#666666"
     borderopacity="1"
     objecttolerance="10"
     gridtolerance="10"
     guidetolerance="10"
     inkscape:pageopacity="0"
     inkscape:pageshadow="2"
     inkscape:window-width="1366"
     inkscape:window-height="705"
     id="namedview8"
     showgrid="false"
     inkscape:zoom="0.4035"
     inkscape:cx="666.66667"
     inkscape:cy="666.66667"
     inkscape:window-x="-8"
     inkscape:window-y="-8"
     inkscape:window-maximized="1"
     inkscape:current-layer="svg6" />
  <g
     transform="matrix(0.0644658,0,0,-0.0644658,72.163571,716.2823)"
     fill="#000000"
     stroke="none"
     id="g4">
    <path
       d="m 4643,7975 c -100,-22 -212,-87 -316,-182 -131,-121 -156,-137 -249,-163 -259,-71 -413,-213 -474,-435 -9,-34 -19,-117 -21,-188 -13,-314 63,-497 426,-1041 150,-225 145,-216 132,-216 -13,0 -247,251 -466,500 -208,237 -283,307 -378,353 -89,44 -140,56 -237,57 -172,0 -314,-80 -385,-217 -36,-70 -83,-140 -112,-167 -15,-15 -77,-52 -138,-82 -127,-65 -154,-82 -214,-138 -112,-106 -173,-221 -179,-341 -7,-127 16,-216 100,-385 l 72,-145 7,-150 c 10,-188 32,-265 112,-378 132,-188 461,-306 771,-277 116,11 324,61 558,134 80,25 149,46 153,46 15,0 -11,-23 -88,-77 -150,-105 -339,-256 -407,-324 -121,-121 -207,-259 -261,-419 -44,-131 -52,-293 -20,-396 39,-128 113,-228 249,-335 40,-32 81,-68 91,-81 11,-13 49,-85 85,-160 53,-109 80,-151 132,-206 115,-125 201,-162 374,-162 126,0 202,20 335,85 157,76 177,80 319,60 169,-23 266,-3 366,76 106,84 171,204 193,357 l 12,87 50,-74 c 67,-100 184,-218 272,-275 211,-135 394,-140 638,-15 l 120,61 140,9 c 187,12 283,31 371,73 122,58 193,146 250,311 27,76 28,89 29,275 1,217 -4,196 86,345 89,146 99,264 38,411 -58,140 -194,256 -359,308 -41,13 -163,43 -270,66 -226,48 -544,124 -580,139 -38,15 -8,13 151,-9 223,-32 422,-50 557,-50 284,0 530,94 708,270 71,71 122,161 145,260 15,65 15,213 0,289 -19,96 -13,149 31,286 39,123 41,137 42,255 1,151 -12,195 -85,292 -89,119 -220,204 -374,243 -126,33 -185,65 -246,136 -94,111 -153,165 -214,195 -50,24 -74,29 -158,32 -90,4 -97,6 -83,21 8,9 21,29 29,44 14,27 19,29 84,30 90,3 140,33 174,106 21,43 28,50 54,51 67,1 170,78 190,141 4,13 27,42 51,65 71,69 81,159 27,242 -51,78 -150,117 -236,92 -23,-7 -51,-12 -62,-12 -11,0 -47,1 -80,3 -94,3 -185,-48 -215,-120 -9,-23 -16,-26 -44,-23 -58,7 -118,-16 -163,-64 -23,-24 -46,-58 -51,-76 -7,-27 -14,-34 -38,-36 -16,-1 -39,-5 -51,-7 -33,-7 -94,-64 -109,-102 -15,-35 -18,-146 -4,-178 7,-17 -8,-36 -88,-117 -53,-54 -100,-98 -103,-98 -4,0 1,22 12,49 72,190 17,440 -122,553 -62,50 -95,65 -217,97 -59,16 -121,35 -137,44 -17,8 -84,71 -150,139 -101,104 -133,130 -200,165 -136,70 -247,92 -352,68 z m 149,-106 c 29,-6 87,-27 128,-45 66,-31 90,-50 200,-163 143,-146 177,-168 329,-205 118,-29 148,-44 197,-93 77,-77 115,-210 94,-333 -16,-95 -61,-182 -216,-420 -220,-338 -317,-502 -464,-795 -81,-159 -161,-321 -178,-360 l -31,-70 v 45 c -1,63 27,504 39,625 6,55 22,171 37,257 14,86 23,164 20,172 -10,26 -54,19 -74,-10 -24,-37 -61,-170 -83,-299 -24,-144 -39,-309 -48,-530 l -7,-180 -23,95 c -73,306 -126,628 -145,889 -10,136 -15,166 -29,175 -14,8 -21,7 -34,-5 -25,-26 -34,-84 -34,-234 0,-284 68,-697 152,-916 16,-44 28,-83 25,-86 -9,-8 -229,209 -297,292 -153,187 -470,675 -566,870 -76,156 -113,353 -95,508 31,265 132,383 403,468 140,44 167,61 315,200 95,90 221,154 310,158 12,1 46,-4 75,-10 z m 2154,-313 c 56,-56 45,-105 -34,-148 -25,-13 -32,-24 -32,-46 0,-68 -72,-114 -162,-105 l -55,6 -7,-48 c -11,-68 -24,-92 -62,-110 -32,-15 -38,-15 -98,3 -36,11 -67,17 -70,14 -4,-3 -6,-15 -6,-27 0,-32 -50,-103 -80,-114 -18,-6 -37,-4 -59,5 -18,8 -43,14 -56,14 -48,0 -371,-316 -506,-496 -210,-279 -554,-900 -710,-1280 l -74,-181 -45,5 c -25,2 -47,6 -49,9 -9,7 116,304 205,483 199,404 373,682 623,995 110,137 324,361 417,437 58,47 63,53 49,68 -25,28 -48,108 -41,144 4,18 16,42 29,53 40,36 70,36 161,-2 18,-8 19,-5 12,43 -17,127 75,188 194,128 54,-26 59,-23 57,45 -2,57 0,62 30,89 46,41 97,49 147,21 l 40,-21 35,24 c 54,37 104,35 147,-8 z m -678,-682 c 32,-9 28,-16 -25,-44 -27,-14 -79,-57 -118,-96 -69,-70 -89,-101 -320,-474 -143,-230 -265,-411 -367,-542 -105,-134 -188,-232 -188,-222 0,16 197,376 303,554 138,232 206,334 306,458 83,103 354,372 374,372 7,0 22,-3 35,-6 z m 304,-85 c 78,-16 139,-60 212,-153 96,-121 122,-137 323,-202 149,-48 214,-86 289,-166 88,-93 99,-123 99,-263 -1,-111 -3,-128 -39,-235 -49,-152 -53,-188 -31,-346 21,-147 16,-197 -25,-307 -41,-110 -183,-233 -342,-296 -244,-98 -445,-99 -1048,-5 -290,46 -389,67 -530,116 -141,49 -302,119 -294,127 3,3 69,4 147,3 306,-8 592,67 994,258 144,69 197,107 187,134 -14,36 -27,33 -324,-84 -343,-135 -486,-171 -825,-205 -50,-5 -49,-5 75,61 152,81 371,223 545,354 173,131 217,173 213,202 -6,44 -41,33 -175,-58 -348,-238 -467,-313 -563,-361 -137,-68 -321,-144 -334,-139 -6,2 18,30 54,62 252,226 478,522 780,1019 57,94 126,204 154,245 109,163 216,230 393,249 7,0 36,-4 65,-10 z M 3209,6526 c 75,-27 167,-103 279,-228 59,-67 161,-183 227,-257 308,-350 652,-656 848,-757 27,-14 47,-28 44,-30 -9,-9 -342,85 -572,160 -257,85 -441,159 -550,222 -43,24 -84,44 -91,44 -19,0 -23,-24 -9,-58 52,-122 598,-354 1021,-433 134,-26 134,-26 -48,-63 -183,-38 -352,-58 -548,-65 -166,-6 -175,-7 -175,-26 0,-94 517,-97 853,-4 41,11 76,18 79,15 10,-10 -182,-127 -322,-196 -264,-130 -881,-326 -1135,-360 -230,-32 -505,43 -647,174 -99,92 -143,205 -143,368 0,136 -13,184 -90,343 -73,150 -90,213 -91,320 -1,57 4,77 33,134 54,108 138,183 297,266 160,83 207,125 275,248 27,48 65,104 85,124 85,86 239,109 380,59 z M 5205,4890 c 117,-80 308,-162 595,-257 125,-41 346,-96 635,-159 391,-84 451,-106 549,-195 99,-90 147,-234 116,-345 -7,-25 -30,-72 -52,-105 -93,-145 -111,-213 -101,-393 7,-140 -7,-228 -53,-321 -84,-168 -185,-217 -479,-234 l -170,-10 -120,-60 c -155,-78 -215,-95 -320,-89 -126,7 -244,68 -366,191 -126,126 -210,285 -270,511 -106,401 -185,897 -177,1106 l 3,85 19,-40 c 11,-22 43,-91 73,-154 161,-344 405,-614 671,-743 81,-39 158,-55 177,-36 21,20 -11,57 -102,120 -284,195 -481,427 -638,753 -124,256 -124,254 18,111 172,-173 354,-305 541,-392 115,-53 191,-57 184,-11 -3,24 -31,45 -203,156 -159,103 -325,233 -439,345 -84,83 -176,192 -176,210 0,8 32,-8 85,-44 z m -469,-112 c -131,-183 -223,-369 -306,-617 -49,-149 -72,-261 -68,-342 3,-56 6,-64 24,-67 18,-3 24,7 43,75 105,368 216,619 388,876 62,92 94,130 80,95 -18,-47 -29,-236 -23,-383 12,-315 41,-524 138,-1000 61,-301 68,-417 30,-525 -41,-118 -143,-218 -247,-241 -44,-10 -76,-9 -177,4 -85,11 -137,13 -168,7 -55,-10 -141,-43 -195,-74 -112,-64 -254,-94 -367,-76 -148,23 -238,105 -339,309 -82,168 -104,198 -203,275 -101,79 -147,131 -187,211 -57,117 -58,254 -1,419 90,262 273,441 829,811 208,140 356,223 493,280 152,62 151,64 25,-57 -192,-185 -356,-411 -485,-671 -81,-162 -112,-251 -108,-304 3,-33 6,-38 28,-38 26,0 22,-6 167,260 194,358 399,629 602,797 52,43 96,78 97,78 2,0 -30,-46 -70,-102 z"
       id="path2" />
  </g>
</svg>
