<svg xmlns="http://www.w3.org/2000/svg" xmlns:xlink="http://www.w3.org/1999/xlink" width="940" zoomAndPan="magnify" viewBox="0 0 705 591.000005" height="788" preserveAspectRatio="xMidYMid meet" version="1.0"><defs><clipPath id="a788235960"><path d="M 84.691406 22.679688 L 645.328125 22.679688 L 645.328125 566.984375 L 84.691406 566.984375 Z M 84.691406 22.679688 " clip-rule="nonzero"/></clipPath></defs><g clip-path="url(#a788235960)"><path fill="#100f0d" d="M 216.050781 533.367188 C 212.128906 542.183594 203.855469 553.832031 193.507812 556.441406 C 197.101562 559.925781 201.238281 562.210938 206.359375 561.558594 C 209.300781 561.125 210.0625 566.347656 207.121094 566.78125 C 195.140625 568.527344 187.953125 558.730469 182.074219 549.585938 C 174.554688 537.828125 169.332031 526.511719 167.804688 512.578125 C 166.824219 503.765625 166.714844 494.835938 164.753906 486.128906 C 163.230469 479.273438 159.527344 473.066406 157.894531 466.214844 C 156.039062 458.265625 158.761719 449.015625 167.695312 447.488281 C 169.21875 447.273438 169.980469 449.449219 168.347656 449.886719 C 153.425781 453.695312 165.078125 472.632812 167.695312 480.90625 C 170.527344 489.832031 170.851562 499.1875 171.941406 508.335938 C 173.359375 519.871094 176.300781 529.992188 182.289062 540.003906 C 184.683594 544.035156 187.519531 549.257812 191.113281 553.722656 C 196.121094 552.199219 200.261719 550.238281 204.289062 546.214844 C 208.429688 542.078125 211.261719 536.960938 214.851562 532.386719 C 215.398438 531.519531 216.488281 532.609375 216.050781 533.367188 Z M 298.714844 520.742188 C 314.835938 511.601562 328.5625 497.558594 336.402344 480.90625 C 337.058594 479.597656 338.796875 480.578125 338.582031 481.773438 C 335.203125 499.410156 314.730469 514.648438 299.699219 522.375 C 298.609375 523.027344 297.628906 521.394531 298.714844 520.742188 Z M 554.558594 390.238281 C 542.792969 387.078125 530.925781 387.625 518.945312 387.191406 C 509.902344 386.863281 499.554688 386.320312 491.820312 381.09375 C 490.949219 380.441406 491.496094 379.027344 492.582031 379.355469 C 503.914062 382.183594 514.367188 384.035156 526.023438 384.578125 C 535.933594 385.011719 545.628906 385.667969 555.101562 388.824219 C 555.863281 389.039062 555.535156 390.457031 554.558594 390.238281 Z M 470.800781 452.167969 C 464.59375 450.210938 457.1875 447.382812 452.722656 442.375 C 452.179688 441.722656 452.828125 440.742188 453.597656 441.179688 C 456.320312 442.699219 458.820312 444.878906 461.542969 446.398438 C 464.59375 448.144531 467.753906 449.664062 471.128906 450.863281 C 471.890625 451.191406 471.566406 452.386719 470.800781 452.167969 Z M 543.230469 195.730469 C 546.496094 190.726562 553.03125 186.046875 559.347656 187.894531 C 560.332031 188.222656 560.4375 189.636719 559.347656 189.855469 C 556.738281 190.398438 554.121094 190.511719 551.507812 191.597656 C 548.894531 192.792969 546.277344 194.425781 544.429688 196.601562 C 543.882812 197.257812 542.792969 196.386719 543.230469 195.730469 Z M 509.574219 259.40625 C 488.226562 281.394531 469.710938 307.300781 439.4375 316.769531 C 438.671875 316.984375 438.347656 315.789062 439.109375 315.570312 C 454.792969 309.800781 467.753906 299.679688 479.078125 287.597656 C 488.554688 277.476562 496.941406 265.828125 508.160156 257.554688 C 509.25 256.792969 510.449219 258.539062 509.574219 259.40625 Z M 415.476562 188.222656 C 411.226562 191.378906 409.703125 202.15625 408.285156 207.054688 C 406.542969 213.257812 404.800781 219.355469 403.273438 225.558594 C 403.058594 226.316406 401.863281 225.992188 402.078125 225.230469 C 404.144531 215.542969 406.324219 205.964844 408.941406 196.496094 C 410.03125 192.6875 410.351562 186.808594 415.039062 186.699219 C 415.910156 186.589844 416.019531 187.789062 415.476562 188.222656 Z M 456.425781 132.710938 C 463.503906 121.171875 469.933594 109.3125 472.65625 95.921875 C 475.15625 83.1875 476.246094 69.910156 479.625 57.394531 C 479.953125 56.304688 481.804688 56.523438 481.691406 57.71875 C 480.714844 71 477.773438 85.039062 474.832031 98.097656 C 471.890625 111.378906 464.808594 122.261719 457.515625 133.472656 C 457.082031 134.128906 455.878906 133.472656 456.425781 132.710938 Z M 409.265625 244.386719 C 414.058594 216.195312 423.421875 189.527344 433.769531 162.972656 C 438.78125 149.910156 444.011719 136.847656 448.472656 123.675781 C 453.15625 109.964844 456.425781 96.03125 460.566406 82.101562 C 460.890625 81.011719 462.742188 81.226562 462.632812 82.425781 C 459.691406 109.964844 447.277344 136.957031 437.257812 162.535156 C 426.691406 189.3125 415.691406 216.410156 410.574219 244.820312 C 410.351562 245.582031 409.15625 245.253906 409.265625 244.386719 Z M 197.320312 275.1875 C 211.367188 278.019531 225.308594 281.5 239.140625 284.878906 C 250.359375 287.703125 262.886719 289.992188 273.234375 295.328125 C 274.433594 295.976562 273.558594 297.609375 272.359375 297.394531 C 260.378906 295.328125 248.511719 290.648438 236.636719 287.488281 C 223.347656 284.003906 209.953125 280.523438 196.882812 276.496094 C 196.121094 276.167969 196.449219 275.082031 197.320312 275.1875 Z M 177.714844 227.625 C 176.410156 227.191406 176.953125 225.339844 178.261719 225.558594 C 189.695312 228.0625 200.042969 234.046875 209.519531 240.683594 C 209.953125 241.011719 209.519531 241.773438 209.082031 241.445312 C 199.386719 235.027344 188.714844 231.214844 177.714844 227.625 Z M 156.804688 222.941406 C 181.527344 230.890625 206.25 242.316406 228.46875 255.59375 C 229.121094 255.921875 228.6875 257.011719 227.921875 256.792969 C 227.160156 256.578125 226.398438 256.359375 225.636719 256.140625 C 225.308594 256.035156 225.308594 255.488281 225.746094 255.488281 C 221.714844 255.488281 214.636719 250.265625 210.824219 248.519531 C 205.160156 245.800781 199.5 243.1875 193.726562 240.683594 C 181.3125 235.242188 168.675781 230.671875 156.148438 225.664062 C 154.515625 224.902344 155.171875 222.398438 156.804688 222.941406 Z M 254.71875 122.15625 C 255.480469 162.316406 262.996094 200.523438 281.402344 236.660156 C 281.835938 237.636719 280.527344 238.402344 279.984375 237.53125 C 260.925781 202.804688 249.488281 162.101562 251.882812 122.261719 C 251.996094 120.304688 254.605469 120.304688 254.71875 122.15625 Z M 278.789062 64.46875 C 281.402344 72.632812 281.617188 81.554688 282.816406 89.9375 C 284.234375 99.84375 286.414062 109.746094 289.136719 119.433594 C 289.351562 120.414062 287.9375 120.738281 287.71875 119.867188 C 284.558594 110.289062 281.945312 100.714844 280.203125 90.695312 C 278.679688 81.445312 278.132812 72.195312 275.519531 63.164062 C 275.082031 61.53125 277.371094 60.875 278.023438 62.292969 C 278.351562 61.851562 278.789062 61.636719 279.441406 61.746094 C 291.964844 63.921875 301.660156 72.738281 305.472656 84.820312 C 305.796875 85.691406 304.382812 86.019531 304.164062 85.148438 C 300.242188 74.152344 290.332031 66.316406 278.789062 64.46875 Z M 350.449219 151.871094 C 344.683594 135.433594 340.324219 119.867188 329.757812 105.5 C 329.324219 104.847656 330.414062 103.980469 330.847656 104.628906 C 341.304688 117.691406 351.324219 134.457031 352.195312 151.542969 C 352.304688 152.632812 350.777344 152.738281 350.449219 151.871094 Z M 344.136719 316.769531 C 345.660156 317.746094 347.078125 318.617188 348.601562 319.492188 C 349.253906 319.816406 349.90625 320.035156 350.5625 320.140625 C 352.523438 324.171875 354.261719 328.199219 356.007812 332.222656 C 351.976562 327.109375 347.949219 321.996094 344.136719 316.769531 Z M 367.441406 325.582031 C 367.988281 328.632812 368.421875 331.789062 368.75 334.835938 C 367.769531 333.746094 366.898438 332.65625 365.921875 331.570312 C 363.414062 325.910156 360.910156 320.25 358.730469 314.59375 C 354.484375 303.707031 350.34375 292.824219 346.421875 281.9375 C 348.054688 284.660156 350.128906 287.054688 352.628906 288.6875 C 353.9375 289.558594 355.246094 289.773438 356.335938 289.558594 C 356.769531 290.320312 357.207031 290.96875 357.75 291.625 C 357.75 291.734375 357.859375 291.734375 357.96875 291.839844 C 357.640625 292.386719 357.53125 293.148438 357.75 294.019531 C 360.253906 304.796875 365.59375 314.480469 367.441406 325.582031 Z M 405.128906 327.214844 C 402.078125 330.589844 398.917969 333.640625 395.542969 336.6875 C 398.050781 332.984375 400.335938 329.175781 402.40625 325.261719 C 403.382812 325.910156 404.257812 326.566406 405.128906 327.214844 Z M 429.308594 305.125 L 429.308594 305.011719 L 429.414062 305.125 C 429.414062 305.011719 429.414062 305.011719 429.308594 305.125 Z M 356.335938 317.53125 C 356.335938 317.53125 356.441406 317.53125 356.335938 317.53125 C 356.335938 317.53125 356.441406 317.640625 356.441406 317.746094 C 356.441406 317.640625 356.441406 317.640625 356.335938 317.53125 Z M 374.851562 312.304688 C 374.851562 311.433594 374.851562 310.671875 374.738281 309.800781 C 375.175781 311.542969 375.5 313.175781 375.9375 314.917969 C 375.613281 313.9375 375.175781 313.066406 374.851562 312.304688 Z M 397.722656 297.609375 C 398.15625 297.609375 398.59375 297.503906 399.027344 297.394531 C 398.371094 298.808594 397.613281 300.332031 396.960938 301.746094 C 397.066406 300.332031 397.394531 299.027344 397.722656 297.609375 Z M 343.59375 301.746094 C 343.371094 301.53125 343.480469 301.53125 343.59375 301.746094 Z M 342.9375 88.304688 C 343.046875 76.546875 341.304688 64.796875 339.453125 53.257812 C 339.34375 52.277344 337.601562 52.496094 337.707031 53.472656 C 338.910156 63.378906 339.234375 73.28125 339.671875 83.300781 C 339.125 82.425781 338.582031 81.667969 338.035156 80.902344 C 331.5 71.871094 323.117188 63.921875 313.53125 58.699219 C 313.640625 58.585938 313.746094 58.480469 313.859375 58.371094 C 313.964844 58.152344 314.1875 57.9375 314.292969 57.71875 C 315.054688 56.632812 313.640625 55.542969 312.550781 55.976562 C 316.035156 54.128906 317.886719 49.664062 320.71875 46.292969 C 323.332031 43.242188 326.382812 40.523438 329.433594 37.90625 C 332.703125 35.082031 338.910156 28.332031 343.480469 28.113281 C 347.726562 27.894531 349.039062 33.121094 351.324219 36.167969 C 361.5625 50.101562 377.902344 61.417969 376.15625 80.683594 C 376.046875 81.667969 376.589844 82.425781 377.355469 82.859375 C 369.621094 98.972656 366.789062 117.257812 364.503906 135.105469 C 364.394531 134.671875 364.285156 134.234375 364.066406 133.800781 C 366.570312 125.203125 364.503906 114.640625 364.066406 106.15625 C 363.304688 92.441406 362.871094 78.835938 359.386719 65.445312 C 359.058594 64.25 357.3125 64.796875 357.53125 65.988281 C 360.148438 78.179688 360.363281 90.589844 360.910156 102.996094 C 361.234375 110.511719 362.757812 119.539062 361.996094 127.703125 C 360.035156 122.804688 357.859375 118.019531 355.789062 113.335938 C 351.761719 104.847656 347.726562 96.359375 342.9375 88.304688 Z M 637.765625 218.808594 C 637.660156 218.808594 637.550781 218.914062 637.4375 218.914062 C 637.550781 217.9375 637.550781 216.851562 637.660156 215.867188 C 637.765625 214.777344 635.917969 214.457031 635.699219 215.652344 C 634.394531 221.964844 631.558594 227.625 629.707031 233.828125 C 628.949219 236.226562 632.648438 237.855469 633.738281 235.570312 C 635.917969 231.214844 636.789062 226.101562 637.222656 221.203125 C 637.4375 221.421875 637.765625 221.53125 638.09375 221.636719 C 646.046875 222.507812 637.332031 240.355469 635.699219 242.535156 C 635.480469 242.863281 635.261719 243.078125 635.042969 243.40625 C 634.066406 242.972656 632.867188 244.167969 633.304688 245.253906 C 630.582031 247.871094 627.3125 249.832031 624.152344 251.898438 C 619.25 255.160156 614.023438 258.539062 613.261719 264.742188 C 613.042969 266.261719 615.222656 266.808594 616.09375 265.9375 C 621.429688 260.820312 626.441406 256.90625 632.433594 252.65625 C 633.519531 251.898438 634.5 251.136719 635.371094 250.265625 C 636.675781 254.726562 636.570312 259.515625 634.5 263.757812 C 632.214844 268.550781 627.53125 271.160156 624.808594 275.515625 C 621.429688 280.738281 620.339844 285.3125 614.679688 289.015625 C 609.992188 292.058594 604.546875 293.910156 599.429688 295.976562 C 589.410156 300.003906 579.390625 303.8125 569.367188 307.40625 C 569.367188 307.40625 569.367188 307.40625 569.480469 307.300781 C 575.46875 303.8125 581.023438 299.355469 586.792969 295.433594 C 593.328125 290.96875 600.191406 286.835938 606.507812 282.046875 C 607.269531 281.5 606.621094 280.414062 605.746094 280.851562 C 599.101562 284.332031 592.023438 288.25 585.269531 292.496094 C 591.589844 286.183594 597.90625 279.980469 605.09375 274.644531 C 606.398438 273.664062 605.308594 271.921875 603.898438 272.578125 C 591.371094 278.234375 582.332031 288.792969 572.203125 297.722656 C 566.210938 303.054688 559.785156 307.625 552.597656 311.214844 C 546.0625 314.59375 538.984375 316.332031 532.558594 319.816406 C 532.558594 319.816406 532.558594 319.816406 532.449219 319.816406 C 525.367188 322.101562 518.179688 324.277344 511.097656 326.453125 C 522.429688 315.027344 529.835938 297.609375 543.667969 289.664062 C 544.429688 289.230469 543.773438 288.140625 543.011719 288.574219 C 533.425781 293.800781 526.785156 301.964844 520.140625 310.457031 C 514.585938 317.53125 509.25 323.734375 502.605469 329.070312 C 500.972656 329.503906 499.339844 330.046875 497.707031 330.480469 C 501.078125 327.328125 504.128906 323.628906 506.742188 319.925781 C 518.722656 303.054688 526.566406 284.878906 543.882812 272.359375 C 544.644531 271.816406 543.882812 270.617188 543.121094 271.160156 C 529.726562 280.195312 520.902344 291.515625 512.625 305.230469 C 506.089844 316.007812 499.230469 326.238281 489.425781 332.769531 C 482.128906 334.835938 474.722656 336.792969 467.316406 338.753906 C 456.640625 341.476562 445.859375 344.195312 435.082031 346.589844 C 429.195312 347.894531 422.335938 349.421875 416.019531 349.09375 C 417.761719 348.117188 419.503906 347.136719 421.246094 346.15625 C 433.007812 339.082031 444.660156 331.679688 456.320312 324.605469 C 457.1875 324.0625 456.425781 322.753906 455.554688 323.1875 C 445.535156 328.957031 435.402344 334.617188 425.382812 340.5 C 420.59375 343.324219 415.800781 346.15625 410.792969 348.335938 C 409.15625 347.894531 407.523438 347.246094 406.109375 346.375 C 410.246094 341.148438 413.730469 335.601562 416.886719 329.613281 C 417 329.394531 417.109375 329.070312 417.214844 328.847656 C 417.871094 328.199219 418.414062 327.542969 418.851562 326.671875 C 420.59375 326.238281 422.117188 324.820312 421.246094 322.753906 C 421.246094 322.644531 421.136719 322.539062 421.136719 322.429688 C 424.734375 318.183594 428.546875 314.15625 432.792969 310.566406 C 434.207031 309.367188 433.992188 307.625 433.117188 306.429688 C 433.992188 306.429688 434.859375 306.320312 435.730469 305.886719 C 438.453125 304.578125 441.503906 301.3125 443.898438 297.394531 C 445.425781 295.976562 446.839844 294.457031 448.257812 292.929688 C 455.117188 285.636719 461.765625 278.234375 468.515625 270.945312 C 469.277344 270.074219 468.078125 268.878906 467.210938 269.640625 C 460.566406 276.386719 454.03125 283.894531 446.839844 290.535156 C 448.910156 283.894531 447.824219 277.476562 439.871094 276.496094 C 433.335938 275.625 428.21875 281.175781 425.058594 286.183594 C 421.574219 291.625 419.722656 298.15625 420.8125 304.578125 C 421.246094 306.863281 422.988281 307.84375 424.839844 307.734375 C 421.355469 310.238281 418.199219 312.960938 415.253906 315.898438 C 413.1875 314.699219 410.898438 313.9375 408.503906 313.503906 C 415.476562 299.570312 421.136719 284.984375 426.472656 270.398438 C 426.910156 269.3125 425.167969 268.878906 424.839844 269.964844 C 419.066406 284.550781 413.078125 299.136719 405.671875 313.066406 C 404.90625 312.960938 404.257812 312.847656 403.496094 312.847656 C 398.484375 312.414062 396.089844 319.378906 399.460938 322.539062 C 399.574219 322.644531 399.789062 322.863281 399.898438 322.972656 C 396.195312 328.847656 392.164062 334.511719 388.136719 340.058594 C 388.464844 335.488281 389.335938 331.023438 390.53125 326.671875 C 391.839844 321.773438 393.472656 317.097656 394.671875 312.199219 C 398.15625 306.101562 401.097656 299.679688 403.929688 293.148438 C 410.679688 277.585938 417 261.910156 423.535156 246.238281 C 423.863281 245.367188 422.335938 244.710938 421.898438 245.582031 C 415.691406 259.515625 409.484375 273.339844 403.273438 287.269531 C 403.820312 277.257812 404.90625 260.058594 393.691406 259.734375 C 387.703125 259.515625 386.390625 264.957031 386.390625 269.640625 C 386.390625 275.84375 385.628906 285.203125 389.226562 290.535156 C 389.769531 291.296875 390.53125 291.734375 391.292969 291.953125 C 391.292969 293.257812 391.949219 294.5625 392.820312 295.542969 C 390.097656 300.660156 386.503906 305.339844 383.996094 310.566406 C 383.667969 311.328125 383.347656 312.089844 383.019531 312.742188 C 383.019531 310.34375 382.90625 307.84375 382.800781 305.339844 C 382.144531 286.835938 381.273438 268.332031 381.273438 249.71875 C 381.386719 212.058594 384.757812 174.402344 395.648438 138.371094 C 395.976562 137.28125 394.238281 136.738281 393.910156 137.9375 C 383.453125 171.136719 379.207031 205.75 378.335938 240.46875 C 377.902344 258.101562 378.222656 275.730469 378.988281 293.367188 C 379.207031 299.355469 379.535156 305.445312 379.640625 311.433594 C 375.175781 292.714844 369.078125 273.992188 367.441406 254.945312 C 364.609375 220.765625 369.839844 186.046875 377.027344 152.632812 C 377.132812 151.976562 376.15625 151.648438 376.046875 152.304688 C 369.949219 179.082031 364.609375 205.964844 364.066406 233.394531 C 362.324219 203.132812 365.046875 172.875 368.859375 142.941406 C 372.34375 115.625 374.957031 83.078125 397.066406 63.597656 C 402.183594 59.027344 408.070312 55.542969 414.710938 53.582031 C 419.503906 52.167969 424.511719 51.625 428.980469 49.230469 C 420.050781 59.351562 413.730469 72.847656 409.808594 85.039062 C 409.484375 86.125 411.121094 86.5625 411.554688 85.476562 C 414.710938 77.203125 418.523438 69.253906 423.421875 61.964844 C 427.890625 55.214844 433.554688 49.664062 438.347656 43.242188 C 438.671875 42.804688 438.453125 42.15625 438.019531 41.828125 C 439 40.851562 439.980469 39.976562 441.070312 39.105469 C 449.238281 32.359375 458.820312 34.207031 465.683594 41.609375 L 465.792969 41.71875 C 466.121094 43.351562 468.40625 43.351562 468.621094 41.609375 C 468.515625 38.34375 469.820312 36.167969 472.546875 34.863281 C 474.289062 32.464844 476.46875 32.140625 478.96875 33.992188 C 483.21875 35.1875 484.742188 36.710938 487.25 40.304688 C 490.082031 44.332031 492.148438 48.902344 493.457031 53.472656 C 496.179688 62.835938 496.289062 72.738281 494.328125 82.210938 C 492.367188 92.007812 488.449219 101.257812 483.765625 110.070312 C 479.40625 118.128906 473.632812 125.746094 470.800781 134.5625 C 470.039062 137.066406 473.746094 138.589844 475.050781 136.304688 C 475.269531 135.976562 475.378906 135.648438 475.59375 135.324219 C 475.8125 135.648438 476.355469 135.867188 476.792969 135.542969 C 484.199219 130.535156 490.515625 123.027344 498.46875 118.671875 C 494.761719 129.011719 488.226562 137.394531 482.457031 146.644531 C 476.355469 156.546875 471.238281 166.78125 466.335938 177.339844 C 465.898438 178.210938 467.210938 179.082031 467.753906 178.097656 C 473.746094 166.566406 480.386719 155.242188 487.464844 144.359375 C 492.695312 136.410156 500.863281 127.925781 500.753906 117.800781 C 500.753906 117.691406 500.753906 117.585938 500.644531 117.472656 C 502.0625 116.820312 503.585938 116.273438 505.109375 115.839844 C 520.035156 111.921875 530.269531 121.285156 533.535156 135 C 533.863281 136.523438 536.371094 136.632812 536.695312 135 C 538.984375 122.589844 527.4375 112.25 515.894531 110.945312 C 500.863281 109.3125 487.359375 121.394531 477.558594 131.953125 C 491.171875 108.765625 506.742188 82.644531 499.117188 54.777344 C 496.722656 46.070312 490.625 32.792969 481.148438 29.527344 C 474.507812 27.246094 466.988281 32.140625 466.011719 38.777344 C 462.085938 34.097656 456.207031 31.597656 449.890625 31.921875 C 439.4375 32.464844 434.640625 42.371094 425.601562 46.070312 C 415.582031 50.207031 406.109375 50.753906 397.066406 57.609375 C 390.859375 62.398438 385.628906 68.382812 381.492188 75.023438 C 381.058594 66.75 377.246094 59.351562 372.128906 52.601562 C 368.75 48.246094 364.832031 44.222656 361.234375 40.085938 C 357.097656 35.40625 354.375 29.855469 350.449219 25.171875 C 344.683594 18.425781 335.3125 27.023438 330.523438 31.160156 C 322.460938 38.128906 313.3125 45.855469 310.261719 56.523438 C 310.261719 56.632812 310.261719 56.738281 310.261719 56.738281 C 302.207031 53.039062 293.382812 51.191406 283.90625 52.277344 C 282.164062 52.496094 282.054688 55.214844 283.90625 55.105469 C 331.066406 52.929688 351.761719 113.449219 361.996094 149.582031 C 362.109375 149.910156 362.324219 150.238281 362.542969 150.453125 C 359.058594 177.449219 356.878906 204.660156 358.183594 231.871094 C 359.273438 254.726562 365.046875 277.148438 367.878906 299.679688 C 366.355469 297.175781 364.9375 294.671875 363.957031 291.953125 C 363.632812 290.863281 362.871094 290.207031 362.109375 289.992188 C 366.355469 280.851562 361.667969 260.492188 350.777344 258.644531 C 344.027344 257.449219 341.519531 263.109375 341.957031 268.550781 C 331.390625 238.292969 321.808594 207.597656 313.53125 176.683594 C 313.203125 175.59375 311.570312 176.03125 311.898438 177.121094 C 319.953125 209.230469 328.996094 241.011719 339.886719 272.359375 C 343.808594 283.679688 347.949219 294.890625 352.195312 305.992188 C 350.890625 304.140625 349.363281 302.507812 347.839844 300.875 C 339.886719 284.984375 332.589844 268.878906 325.945312 252.441406 C 312.660156 219.355469 302.421875 185.175781 293.925781 150.5625 C 293.710938 149.910156 292.726562 150.128906 292.835938 150.886719 C 299.589844 187.460938 310.480469 223.054688 324.421875 257.449219 C 329.757812 270.511719 335.53125 283.460938 341.738281 296.089844 C 341.519531 295.976562 341.304688 295.761719 341.191406 295.652344 C 338.910156 294.128906 334.984375 295 333.789062 297.609375 C 333.351562 298.484375 333.136719 299.355469 332.917969 300.226562 C 319.410156 279.652344 308.085938 257.449219 301.660156 233.609375 C 301.332031 232.519531 299.804688 232.960938 300.027344 234.046875 C 306.015625 259.625 317.453125 282.917969 332.046875 304.6875 C 338.910156 314.917969 346.316406 324.820312 354.046875 334.402344 C 355.574219 336.25 356.984375 338.210938 358.511719 340.171875 C 353.066406 337.882812 347.292969 335.921875 341.957031 333.640625 C 340.757812 333.097656 339.671875 334.835938 340.871094 335.488281 C 348.054688 338.867188 355.460938 343.21875 362.976562 346.15625 C 363.195312 346.484375 363.414062 346.808594 363.742188 347.027344 C 364.503906 348.335938 365.375 349.640625 366.242188 350.945312 C 366.027344 350.945312 365.699219 350.945312 365.375 351.054688 C 364.066406 351.382812 362.757812 351.816406 361.453125 352.25 C 352.628906 349.207031 343.265625 347.246094 334.441406 344.085938 C 321.808594 339.734375 309.390625 334.617188 297.519531 328.523438 C 296.648438 328.085938 295.777344 329.394531 296.757812 329.9375 C 314.1875 339.84375 334.007812 349.3125 354.046875 354.210938 C 347.078125 355.296875 340.648438 355.953125 333.246094 354.753906 C 325.726562 353.449219 318.433594 351.054688 311.242188 348.660156 C 309.9375 348.222656 309.5 350.183594 310.695312 350.617188 C 319.085938 353.882812 329.539062 358.128906 339.671875 359 C 339.015625 359.21875 338.363281 359.433594 337.707031 359.546875 C 326.382812 362.484375 315.707031 362.484375 304.273438 360.195312 C 284.339844 356.28125 266.585938 351.925781 246.003906 353.664062 C 208.863281 356.929688 160.835938 369.230469 137.417969 330.589844 C 136.761719 329.503906 134.695312 330.15625 135.238281 331.570312 C 149.832031 371.84375 202.222656 364.765625 235.222656 360.742188 C 246.546875 359.324219 257.875 358.234375 269.308594 359.21875 C 278.894531 359.980469 288.152344 362.589844 297.519531 364.660156 C 249.382812 371.296875 208.757812 403.628906 172.816406 434.539062 C 170.089844 436.824219 174.011719 440.632812 176.734375 438.457031 C 214.964844 406.453125 253.515625 373.367188 304.601562 366.183594 C 304.929688 366.292969 305.363281 366.292969 305.691406 366.398438 C 310.808594 367.269531 315.707031 367.597656 320.609375 367.488281 C 313.746094 370.210938 307.105469 373.367188 300.679688 376.523438 C 287.609375 382.949219 274.105469 390.023438 262.773438 399.378906 C 257.875 403.40625 253.84375 407.980469 250.359375 413.203125 C 245.894531 420.0625 240.773438 424.085938 234.566406 429.207031 C 224.65625 437.257812 216.269531 448.578125 212.566406 460.878906 C 212.351562 461.636719 213.441406 462.074219 213.875 461.421875 C 220.296875 447.488281 228.144531 437.371094 240.449219 428.335938 C 250.25 421.148438 254.71875 410.160156 263.976562 402.316406 C 284.777344 384.6875 310.808594 375.433594 335.859375 365.53125 C 346.09375 363.460938 356.117188 359.980469 366.242188 356.386719 C 366.679688 356.386719 367.117188 356.28125 367.332031 355.953125 C 368.097656 355.515625 368.644531 354.753906 368.75 353.992188 C 369.40625 354.753906 369.949219 355.515625 370.710938 356.28125 C 355.460938 361.285156 340.429688 367.382812 326.710938 375.546875 C 309.9375 385.558594 297.628906 399.054688 287.824219 415.816406 C 282.054688 425.71875 276.71875 435.625 269.53125 444.660156 C 262.339844 453.695312 254.0625 461.859375 246.660156 470.671875 C 234.785156 484.824219 224.546875 501.476562 224.765625 520.523438 C 224.765625 521.394531 226.070312 521.394531 226.070312 520.523438 C 227.160156 498.101562 240.992188 481.125 255.480469 465.230469 C 268.546875 450.976562 279.441406 436.714844 289.136719 419.953125 C 299.15625 402.644531 311.023438 388.710938 328.34375 378.371094 C 341.519531 370.429688 355.894531 365.09375 370.277344 359.867188 C 368.964844 361.066406 367.660156 362.265625 366.355469 363.355469 C 357.859375 370.863281 349.800781 378.59375 341.957031 386.757812 C 326.488281 402.863281 312.984375 420.171875 300.570312 438.675781 C 300.027344 439.4375 301.222656 440.089844 301.765625 439.324219 C 313.859375 422.890625 327.144531 407 341.191406 392.199219 C 347.621094 385.449219 354.261719 378.917969 361.125 372.605469 C 365.265625 368.796875 369.511719 364.445312 374.195312 360.851562 C 370.820312 373.039062 366.027344 384.6875 359.492188 395.570312 C 355.460938 402.429688 350.777344 408.847656 345.550781 414.835938 C 341.738281 419.300781 336.621094 423.21875 334.222656 428.660156 C 331.285156 435.515625 330.957031 442.699219 327.035156 449.449219 C 323.117188 456.195312 317.671875 462.074219 311.898438 467.40625 C 300.570312 477.859375 287.71875 486.457031 277.371094 498.101562 C 276.71875 498.867188 277.804688 500.0625 278.566406 499.300781 C 289.242188 487.4375 302.96875 479.054688 314.730469 468.390625 C 325.402344 458.699219 332.261719 447.925781 335.746094 433.882812 C 337.925781 425.285156 345.660156 419.625 351.105469 412.984375 C 355.460938 407.652344 359.273438 401.996094 362.757812 396.007812 C 368.964844 385.339844 373.761719 373.914062 377.027344 362.046875 C 377.132812 362.15625 377.355469 362.375 377.460938 362.484375 C 377.789062 362.917969 378.117188 363.246094 378.550781 363.460938 C 379.535156 364.332031 380.402344 365.203125 381.386719 366.078125 C 381.492188 366.183594 381.601562 366.183594 381.710938 366.183594 C 380.625 375.433594 376.265625 385.011719 373.433594 393.394531 C 369.730469 404.277344 365.808594 415.054688 361.453125 425.71875 C 361.125 426.589844 362.652344 427.246094 362.976562 426.375 C 368.097656 414.730469 373 403.082031 377.246094 391.109375 C 380.296875 382.402344 384.980469 372.605469 384.871094 363.132812 C 386.390625 362.589844 387.917969 361.828125 389.441406 360.957031 C 387.808594 381.316406 386.832031 401.449219 380.945312 421.257812 C 374.632812 442.265625 361.34375 460.550781 358.183594 482.539062 C 357.859375 484.605469 360.910156 485.476562 361.34375 483.40625 C 365.699219 460.878906 380.078125 441.828125 386.613281 419.84375 C 389.988281 408.527344 392.164062 396.660156 393.582031 384.578125 C 394.128906 387.734375 394.671875 390.890625 395.328125 393.832031 C 399.140625 411.246094 403.601562 428.550781 408.285156 445.75 C 408.613281 447.054688 410.574219 446.511719 410.351562 445.207031 C 407.523438 428.878906 404.363281 412.660156 400.878906 396.332031 C 399.246094 388.824219 397.9375 381.316406 397.722656 373.585938 C 397.503906 366.945312 398.484375 360.523438 399.027344 353.992188 C 399.246094 353.992188 399.574219 353.882812 399.789062 353.882812 C 400.007812 355.734375 400.226562 357.691406 400.550781 359.546875 C 399.789062 362.699219 400.445312 365.53125 401.75 368.253906 C 403.382812 379.027344 405.453125 389.800781 409.375 399.597656 C 414.605469 412.441406 423.644531 422.78125 434.96875 430.617188 C 435.949219 431.273438 436.820312 429.75 435.949219 428.984375 C 417.109375 415.488281 410.464844 395.679688 406.542969 374.671875 C 408.71875 376.851562 411.121094 378.808594 413.402344 380.550781 C 419.503906 385.125 425.824219 389.367188 432.464844 393.175781 C 439.109375 396.988281 448.367188 399.816406 452.070312 407 C 452.507812 407.871094 453.703125 407.109375 453.269531 406.238281 C 449.019531 397.640625 438.671875 394.375 431.046875 389.476562 C 421.898438 383.597656 409.808594 376.738281 405.234375 366.511719 C 404.691406 362.8125 404.144531 359 403.601562 355.296875 C 410.03125 362.15625 416.78125 368.6875 424.621094 373.800781 C 436.167969 381.316406 449.671875 384.578125 462.527344 389.257812 C 490.734375 399.597656 517.746094 414.183594 541.816406 432.144531 C 542.46875 432.578125 543.011719 431.601562 542.46875 431.054688 C 520.46875 414.183594 496.941406 400.140625 471.34375 389.585938 C 458.058594 384.140625 443.570312 380.660156 431.046875 373.800781 C 422.117188 368.902344 414.605469 361.941406 407.523438 354.648438 C 438.566406 364.878906 472.546875 368.03125 504.785156 369.992188 C 522.316406 371.082031 541.488281 373.800781 558.914062 371.625 C 576.667969 369.34375 589.957031 354.863281 608.6875 360.089844 C 611.195312 360.851562 612.5 357.367188 610.433594 355.953125 C 597.25 347.351562 582.113281 357.476562 569.589844 362.484375 C 552.378906 369.34375 530.597656 365.3125 512.515625 364.332031 C 483.21875 362.8125 454.683594 359.652344 426.257812 354.210938 C 437.257812 352.90625 448.585938 349.09375 457.082031 346.917969 C 486.160156 339.625 515.023438 331.136719 543.339844 321.339844 C 557.28125 316.550781 571.113281 311.433594 584.835938 306.101562 C 596.050781 301.746094 609.667969 298.15625 619.46875 290.863281 C 623.0625 288.140625 625.136719 285.09375 627.203125 281.066406 C 630.144531 275.1875 635.371094 271.378906 638.421875 265.71875 C 641.796875 259.296875 641.472656 252.332031 638.203125 246.453125 C 640.054688 244.386719 641.578125 242.101562 642.667969 239.488281 C 644.847656 235.242188 649.203125 216.195312 637.765625 218.808594 Z M 565.339844 436.058594 C 568.933594 431.707031 570.238281 428.007812 570.566406 422.453125 C 570.785156 419.082031 570.894531 415.921875 573.835938 413.855469 C 574.925781 413.097656 576.339844 414.183594 576.339844 415.273438 C 576.449219 417.667969 575.578125 419.953125 575.25 422.347656 C 574.925781 424.523438 574.707031 426.808594 574.050781 428.984375 C 572.746094 432.6875 570.351562 436.058594 566.972656 438.128906 C 565.554688 438.890625 564.359375 437.148438 565.339844 436.058594 Z M 439.761719 466.972656 C 451.851562 474.15625 463.175781 470.34375 476.140625 471.328125 C 482.347656 471.871094 487.683594 474.59375 493.671875 476.226562 C 500.207031 477.964844 506.636719 477.53125 512.953125 475.789062 C 503.914062 469.800781 495.851562 463.054688 485.613281 458.8125 C 484.960938 458.484375 485.398438 457.394531 486.046875 457.722656 C 496.394531 461.859375 508.054688 466.648438 515.78125 475.027344 C 525.585938 471.871094 534.515625 467.40625 542.90625 461.859375 C 542.792969 461.75 542.683594 461.53125 542.578125 461.316406 C 537.566406 445.09375 521.667969 438.457031 508.054688 430.402344 C 507.179688 429.855469 507.941406 428.660156 508.8125 429.09375 C 522.429688 435.84375 541.816406 443.355469 544.972656 460.332031 C 547.039062 458.917969 549 457.394531 551.074219 455.761719 C 552.597656 454.5625 554.339844 455.980469 553.6875 457.722656 C 548.566406 469.476562 532.230469 474.699219 521.230469 478.945312 C 514.042969 481.667969 506.417969 483.628906 498.574219 482.863281 C 490.515625 482.101562 483.546875 477.640625 475.59375 476.769531 C 467.644531 475.898438 459.691406 477.746094 451.742188 476.332031 C 445.859375 475.242188 440.414062 472.742188 435.625 469.039062 C 426.039062 461.75 418.304688 450.863281 412.53125 440.523438 C 411.769531 439.21875 413.730469 438.019531 414.605469 439.324219 C 421.898438 449.664062 428.546875 460.332031 439.761719 466.972656 Z M 604.113281 405.804688 C 605.203125 414.074219 598.125 421.367188 593.222656 427.027344 C 591.371094 429.09375 589.082031 431.160156 587.558594 433.449219 C 583.746094 438.78125 585.269531 440.742188 584.398438 445.855469 C 583.855469 449.121094 582.546875 452.167969 580.480469 454.890625 C 578.082031 458.050781 574.707031 460.769531 570.894531 461.75 C 566.539062 474.375 554.230469 481.449219 541.816406 484.824219 C 523.84375 489.613281 504.457031 490.808594 486.046875 493.203125 C 470.582031 495.273438 453.597656 497.882812 438.890625 491.027344 C 426.039062 485.039062 416.019531 471.109375 411.988281 457.828125 C 411.226562 455.21875 414.710938 454.238281 416.019531 456.089844 C 425.277344 468.496094 429.742188 482.429688 445.972656 487.542969 C 459.257812 491.679688 473.851562 489.175781 487.25 487.4375 C 502.605469 485.476562 518.289062 484.171875 533.535156 481.558594 C 547.261719 479.164062 560.109375 474.050781 567.300781 462.074219 C 566.539062 462.074219 565.882812 461.964844 565.121094 461.859375 C 564.144531 461.636719 563.816406 460.003906 564.792969 459.570312 C 568.5 457.828125 572.527344 456.632812 575.46875 453.695312 C 580.585938 448.578125 579.0625 443.679688 580.371094 437.476562 C 581.570312 431.925781 586.472656 428.007812 590.0625 423.980469 C 592.023438 421.804688 593.984375 419.515625 595.617188 417.234375 C 598.230469 413.53125 600.410156 407.542969 598.667969 402.972656 C 597.46875 399.925781 593.328125 397.640625 591.371094 395.027344 C 587.882812 390.128906 587.230469 384.46875 589.515625 378.917969 C 589.84375 378.050781 591.589844 378.050781 591.371094 379.136719 C 590.28125 388.167969 594.09375 392.089844 599.757812 397.964844 C 601.9375 400.25 603.675781 402.644531 604.113281 405.804688 Z M 617.074219 369.664062 C 618.054688 373.257812 615.550781 375.546875 612.828125 377.394531 C 607.597656 380.875 601.824219 385.011719 596.050781 387.519531 C 594.640625 388.167969 592.785156 386.320312 594.199219 385.125 C 597.25 382.621094 600.734375 380.769531 604.113281 378.699219 C 606.074219 377.503906 612.609375 374.785156 613.699219 371.84375 C 610.105469 371.625 607.054688 369.558594 605.53125 366.183594 C 605.09375 365.3125 605.855469 364.550781 606.621094 364.550781 C 600.847656 361.613281 593.222656 366.835938 588.429688 369.992188 C 582.980469 373.585938 578.734375 378.15625 574.269531 382.835938 C 573.617188 383.492188 572.417969 382.621094 572.964844 381.859375 C 577.535156 374.238281 584.726562 368.144531 592.566406 364.007812 C 597.796875 361.285156 604.332031 358.234375 609.34375 362.8125 C 610.539062 363.898438 608.90625 366.078125 607.597656 365.09375 C 607.597656 365.09375 607.488281 365.09375 607.488281 364.988281 C 609.230469 367.488281 612.066406 368.796875 615.113281 368.359375 C 615.878906 368.253906 616.855469 368.6875 617.074219 369.664062 Z M 361.886719 489.722656 C 364.503906 502.675781 360.253906 517.042969 353.285156 527.925781 C 351.324219 531.082031 347.839844 537.503906 343.699219 537.941406 C 339.671875 538.375 338.148438 531.625 335.3125 531.296875 C 335.3125 531.734375 335.203125 532.0625 334.984375 532.496094 C 325.292969 548.0625 304.707031 553.613281 288.046875 558.074219 C 276.933594 561.125 265.390625 564.171875 253.738281 564.171875 C 241.863281 564.277344 230.429688 560.363281 218.558594 560.035156 C 217.253906 560.035156 217.253906 558.074219 218.558594 557.964844 C 228.90625 556.988281 238.8125 558.835938 249.160156 559.054688 C 260.378906 559.273438 271.269531 556.875 282.054688 553.9375 C 300.789062 548.933594 317.34375 543.710938 331.066406 529.449219 C 332.046875 528.472656 333.246094 528.578125 334.113281 529.121094 C 336.074219 528.253906 336.402344 528.253906 338.691406 529.230469 C 341.085938 530.210938 339.886719 531.296875 342.503906 531.84375 C 346.316406 532.609375 347.511719 528.578125 349.472656 525.53125 C 356.335938 514.320312 357.425781 502.78125 358.074219 490.046875 C 358.183594 488.199219 361.453125 487.542969 361.886719 489.722656 Z M 243.171875 229.910156 C 244.371094 229.910156 245.570312 229.910156 246.875 229.910156 C 248.070312 230.015625 249.382812 229.800781 250.472656 229.910156 C 250.578125 229.910156 250.792969 229.910156 250.90625 229.910156 C 256.351562 238.292969 262.339844 246.453125 269.09375 253.964844 C 269.636719 254.507812 270.183594 254.835938 270.835938 254.945312 C 272.359375 257.773438 273.992188 260.492188 275.628906 263.214844 C 266.585938 255.273438 257.765625 247.214844 249.160156 238.507812 C 246.4375 235.785156 243.714844 232.960938 240.886719 230.238281 C 241.535156 230.015625 242.300781 229.910156 243.171875 229.910156 Z M 94.398438 240.46875 C 97.121094 231.976562 97.664062 222.941406 104.089844 216.195312 C 112.585938 207.382812 125.328125 204.222656 134.585938 196.167969 C 135.023438 196.386719 135.566406 196.496094 136.21875 196.277344 C 151.683594 191.378906 166.167969 190.398438 181.746094 195.296875 C 196.230469 199.867188 208.972656 208.574219 220.410156 218.265625 C 240.339844 235.027344 257.328125 257.226562 280.09375 270.398438 C 282.601562 274.210938 285.214844 277.910156 288.046875 281.613281 C 295.671875 291.734375 304.054688 301.3125 313.3125 310.023438 C 322.460938 318.730469 332.808594 328.523438 344.136719 334.289062 C 346.53125 335.488281 349.472656 332.335938 347.183594 330.265625 C 337.601562 321.667969 326.816406 314.699219 317.558594 305.773438 C 307.867188 296.523438 298.828125 286.398438 290.875 275.515625 C 275.84375 254.945312 264.191406 231.976562 256.566406 207.597656 C 251.996094 192.902344 248.945312 177.773438 246.660156 162.535156 C 244.480469 147.625 241.214844 131.296875 245.027344 116.386719 C 248.183594 104.085938 255.152344 93.199219 259.402344 81.339844 C 261.140625 76.546875 262.453125 71.542969 262.773438 66.429688 C 262.996094 63.8125 261.90625 59.898438 262.667969 57.394531 C 266.042969 45.855469 273.34375 55.433594 275.957031 58.808594 C 276.933594 60.113281 278.894531 58.480469 278.246094 57.066406 C 275.410156 51.839844 268.660156 43.894531 262.125 48.574219 C 255.695312 53.144531 258.964844 66.535156 257.441406 72.957031 C 255.261719 81.988281 250.90625 90.261719 246.984375 98.753906 C 245.675781 93.746094 243.609375 88.628906 242.191406 83.84375 C 241.863281 82.753906 240.125 83.1875 240.449219 84.277344 C 241.976562 90.261719 242.847656 97.121094 245.132812 102.996094 C 244.804688 103.867188 244.371094 104.628906 244.042969 105.5 C 243.0625 108.003906 242.191406 110.617188 241.429688 113.121094 C 235.875 101.910156 227.707031 88.742188 227.597656 76.332031 C 227.597656 75.242188 225.855469 75.242188 225.855469 76.332031 C 225.527344 90.375 233.480469 105.066406 240.015625 117.257812 C 240.125 117.472656 240.230469 117.585938 240.339844 117.691406 C 238.8125 124.875 238.597656 132.277344 239.140625 140.003906 C 241.101562 167.324219 246.003906 194.097656 254.933594 219.355469 C 244.480469 193.449219 232.824219 167.757812 226.945312 140.546875 C 226.726562 139.460938 224.984375 139.898438 225.199219 140.984375 C 228.578125 158.945312 234.566406 175.921875 241.101562 193.011719 C 243.609375 199.652344 245.894531 206.726562 248.398438 213.800781 C 245.675781 209.015625 243.0625 204.222656 240.558594 199.324219 C 231.410156 181.691406 221.28125 163.734375 217.574219 143.925781 C 213.984375 125.09375 212.675781 103.433594 214.746094 84.386719 C 215.835938 74.371094 219.320312 63.8125 227.160156 57.175781 C 235.546875 50.101562 246.875 50.316406 255.371094 56.847656 C 256.679688 57.9375 258.09375 55.761719 257.113281 54.671875 C 246.003906 41.609375 226.511719 48.246094 217.6875 60.441406 C 204.726562 78.289062 207.996094 105.066406 209.300781 125.636719 C 210.0625 137.28125 211.695312 148.929688 215.398438 160.035156 C 219.210938 171.136719 224.765625 181.691406 229.996094 192.144531 C 235.875 203.894531 242.082031 215.652344 249.054688 226.75 C 248.617188 226.535156 248.292969 226.429688 247.75 226.316406 C 246.4375 226.101562 245.027344 225.882812 243.609375 225.882812 C 241.757812 225.773438 239.140625 225.558594 237.507812 226.644531 C 230.320312 219.570312 222.914062 212.824219 214.746094 206.726562 C 193.070312 190.511719 160.394531 177.554688 134.367188 191.703125 C 133.605469 192.144531 133.277344 192.792969 133.277344 193.554688 C 120.96875 203.242188 102.894531 205.75 95.484375 220.875 C 91.453125 229.148438 89.386719 238.835938 86.117188 247.433594 C 83.066406 255.707031 85.246094 261.804688 89.496094 269.199219 C 91.128906 272.03125 95.59375 269.421875 93.851562 266.589844 C 90.472656 260.929688 88.511719 255.816406 90.691406 249.285156 C 91.78125 246.453125 93.308594 243.621094 94.398438 240.46875 Z M 125.109375 325.804688 C 112.585938 321.996094 104.414062 309.148438 99.949219 295.21875 C 99.84375 295.105469 99.625 295.105469 99.515625 295 C 98.535156 294.457031 98.640625 293.367188 99.1875 292.714844 C 96.464844 283.246094 95.375 273.339844 95.703125 265.71875 C 96.03125 259.40625 97.664062 253.527344 100.605469 247.871094 C 104.527344 240.578125 106.703125 233.9375 108.660156 225.882812 C 110.949219 216.304688 114.546875 207.160156 124.566406 203.679688 C 126.089844 203.132812 126.632812 205.421875 125.21875 206.070312 C 112.472656 211.296875 113.347656 226.644531 110.40625 237.636719 C 108.660156 244.0625 105.394531 249.285156 103.109375 255.050781 C 133.386719 265.9375 163.664062 276.929688 193.941406 287.925781 C 209.300781 293.472656 224.765625 299.136719 240.125 304.796875 C 254.828125 310.238281 269.308594 316.332031 284.667969 319.816406 C 285.429688 319.925781 285.101562 321.011719 284.339844 320.90625 C 253.195312 315.027344 222.914062 301.636719 193.179688 290.96875 C 162.796875 280.085938 132.40625 269.199219 102.019531 258.210938 C 101.148438 260.929688 100.605469 263.871094 100.492188 267.023438 C 100.386719 276.277344 102.019531 285.964844 105.617188 294.78125 C 116.285156 300.550781 127.503906 305.339844 139.15625 308.824219 C 150.269531 312.199219 161.707031 313.9375 173.03125 316.441406 C 183.921875 318.945312 192.308594 323.734375 201.675781 329.71875 C 212.351562 336.46875 224.109375 341.367188 236.417969 344.085938 C 237.074219 344.195312 236.855469 345.285156 236.089844 345.175781 C 224.765625 342.890625 214.203125 339.410156 204.070312 333.746094 C 192.527344 327.214844 182.722656 321.230469 169.546875 318.617188 C 147.765625 314.265625 127.289062 309.148438 107.683594 299.355469 C 112.148438 308.390625 118.464844 316.332031 126.960938 321.882812 C 128.921875 323.082031 127.617188 326.566406 125.109375 325.804688 Z M 527.875 166.566406 C 528.746094 168.304688 529.726562 170.695312 531.03125 172.441406 C 524.277344 175.707031 517.960938 179.625 512.1875 184.628906 C 500.429688 194.863281 491.277344 207.488281 477.558594 215 C 481.042969 209.558594 484.527344 204.222656 488.335938 198.996094 C 498.796875 184.742188 513.058594 173.3125 524.496094 159.8125 C 525.367188 162.210938 526.785156 164.386719 527.875 166.566406 Z M 535.605469 139.132812 C 521.882812 161.230469 500.101562 176.03125 484.414062 196.496094 C 476.03125 207.382812 468.734375 219.132812 461.324219 230.671875 C 452.828125 243.734375 442.8125 256.683594 435.949219 270.511719 C 434.859375 272.792969 437.910156 275.515625 439.652344 273.339844 C 441.722656 270.726562 443.792969 268.113281 445.644531 265.285156 C 445.972656 265.613281 446.621094 265.71875 447.167969 265.285156 C 458.929688 255.488281 472.980469 248.519531 484.308594 238.179688 C 495.960938 227.40625 501.953125 211.625 515.347656 202.699219 C 516.328125 202.046875 515.457031 200.523438 514.367188 201.066406 C 501.191406 209.449219 494.984375 223.597656 484.089844 234.371094 C 474.179688 244.277344 460.019531 249.503906 449.890625 259.082031 C 455.117188 251.023438 460.019531 242.644531 465.136719 234.699219 C 468.300781 229.695312 471.457031 224.6875 474.613281 219.675781 C 474.832031 219.675781 475.050781 219.675781 475.269531 219.675781 C 487.359375 215.761719 496.289062 206.941406 505.109375 198.347656 C 516.984375 186.699219 528.964844 178.097656 544.863281 172.65625 C 551.398438 170.480469 558.257812 167.871094 565.121094 166.671875 C 574.707031 165.039062 577.429688 174.726562 583.527344 179.625 C 592.566406 187.023438 605.746094 188.550781 613.371094 197.691406 C 612.714844 197.691406 612.171875 197.691406 611.519531 197.691406 C 604.113281 197.363281 597.035156 196.714844 589.628906 197.800781 C 558.152344 202.261719 534.515625 225.558594 515.78125 249.503906 C 515.023438 250.480469 516.328125 252.007812 517.199219 250.917969 C 532.121094 233.066406 549.546875 216.089844 571.65625 207.816406 C 579.390625 204.875 587.339844 203.242188 595.507812 202.917969 C 586.578125 211.839844 577.863281 220.003906 567.410156 227.515625 C 557.933594 234.371094 548.242188 241.121094 540.070312 249.390625 C 530.703125 258.859375 525.695312 270.289062 519.8125 282.046875 C 512.296875 297.285156 500.972656 309.039062 484.851562 315.027344 C 483.980469 315.351562 484.414062 316.660156 485.179688 316.332031 C 496.941406 312.199219 507.179688 305.339844 514.695312 295.328125 C 524.390625 282.261719 528.308594 266.046875 539.527344 253.855469 C 548.894531 243.621094 560.65625 236.003906 571.875 227.839844 C 581.460938 220.875 592.566406 213.144531 598.773438 202.699219 C 600.628906 202.699219 602.480469 202.699219 604.441406 202.917969 C 609.992188 203.351562 615.550781 204.117188 621.101562 203.242188 C 623.28125 202.917969 639.074219 199.324219 639.617188 204.4375 C 639.183594 204.117188 638.527344 204.117188 638.09375 204.660156 C 627.3125 217.175781 616.640625 228.382812 602.480469 237.203125 C 601.496094 237.855469 602.371094 239.269531 603.351562 238.726562 C 616.640625 231.648438 629.492188 221.746094 638.09375 209.230469 C 638.3125 211.078125 640.816406 212.601562 642.339844 210.863281 C 647.570312 204.765625 642.996094 196.601562 635.480469 195.296875 C 630.253906 194.320312 624.808594 195.84375 619.363281 196.929688 C 619.363281 196.929688 619.363281 196.820312 619.25 196.820312 C 612.390625 184.957031 598.339844 183.652344 588.105469 176.03125 C 582.660156 172.007812 580.585938 164.167969 574.164062 161.445312 C 568.0625 158.945312 560.980469 161.554688 554.992188 163.300781 C 548.351562 165.253906 541.921875 167.433594 535.605469 170.152344 C 535.058594 167.871094 533.425781 165.582031 532.121094 163.84375 C 530.488281 161.554688 528.523438 159.164062 526.023438 157.746094 C 530.488281 152.304688 534.410156 146.535156 537.460938 140.003906 C 538.003906 139.027344 536.371094 137.9375 535.605469 139.132812 " fill-opacity="1" fill-rule="nonzero"/></g></svg>