<?xml version="1.0" encoding="UTF-8" standalone="no"?>
<svg
   xmlns:dc="http://purl.org/dc/elements/1.1/"
   xmlns:cc="http://creativecommons.org/ns#"
   xmlns:rdf="http://www.w3.org/1999/02/22-rdf-syntax-ns#"
   xmlns:svg="http://www.w3.org/2000/svg"
   xmlns="http://www.w3.org/2000/svg"
   xmlns:sodipodi="http://sodipodi.sourceforge.net/DTD/sodipodi-0.dtd"
   xmlns:inkscape="http://www.inkscape.org/namespaces/inkscape"
   width="210mm"
   height="297mm"
   viewBox="0 0 210 297"
   version="1.1"
   id="svg8"
   inkscape:version="1.0.2 (e86c870879, 2021-01-15)"
   sodipodi:docname="soccerballanchorcmbd.svg">
  <defs
     id="defs2" />
  <sodipodi:namedview
     id="base"
     pagecolor="#ffffff"
     bordercolor="#666666"
     borderopacity="1.0"
     inkscape:pageopacity="0.0"
     inkscape:pageshadow="2"
     inkscape:zoom="1.1313708"
     inkscape:cx="186.96528"
     inkscape:cy="505.21396"
     inkscape:document-units="mm"
     inkscape:current-layer="layer1"
     inkscape:document-rotation="0"
     showgrid="false"
     inkscape:window-width="1920"
     inkscape:window-height="1049"
     inkscape:window-x="1920"
     inkscape:window-y="0"
     inkscape:window-maximized="1" />
  <metadata
     id="metadata5">
    <rdf:RDF>
      <cc:Work
         rdf:about="">
        <dc:format>image/svg+xml</dc:format>
        <dc:type
           rdf:resource="http://purl.org/dc/dcmitype/StillImage" />
        <dc:title></dc:title>
      </cc:Work>
    </rdf:RDF>
  </metadata>
  <g
     inkscape:label="Layer 1"
     inkscape:groupmode="layer"
     id="layer1">
    <g
       id="g973"
       transform="matrix(0.27460763,0,0,0.27460763,88.481824,40.402517)"
       style="stroke-width:3.64156">
      <path
         id="path961"
         style="font-variant-ligatures:normal;font-variant-position:normal;font-variant-caps:normal;font-variant-numeric:normal;font-variant-alternates:normal;font-variant-east-asian:normal;font-feature-settings:normal;font-variation-settings:normal;text-indent:0;text-decoration:none;text-decoration-line:none;text-decoration-style:solid;text-decoration-color:#000000;text-transform:none;text-orientation:mixed;white-space:normal;shape-padding:0;shape-margin:0;inline-size:0;isolation:auto;mix-blend-mode:normal;stroke-width:13.261"
         d="m 110.32917,79.046575 c -20.473999,0 -37.085999,16.612 -37.085999,37.085995 0,20.474 16.612,37.084 37.085999,37.084 20.474,0 37.086,-16.61 37.086,-37.084 0,-20.473995 -16.612,-37.085995 -37.086,-37.085995 z m 0,1.3223 c 3.5662,0 6.9399,0.68171 10.189,1.6524 l 0.82031,7.8848 -11.754,5.2227 -8.5996,-9.5664 2.6094,-4.5156 c 2.1848,-0.4167 4.4278,-0.67774 6.7344,-0.67774 z m -8.5254,1.1348 -2.445299,4.2266 9.884799,10.998 13.512,-6.0039 -0.86328,-8.2773 c 7.9593,2.7331 14.608,8.1149 18.91,15.189 l -4.8242,-1.0684 -7.5039,12.737995 9.7969,11.074 7.7305,-3.3613 c -0.18654,7.4883 -2.6658,14.364 -6.7715,20.027 l -1.7168,-4.541 -14.768,0.70313 -3.8965,14.262 3.4043,2.2344 c -3.7462,1.3311 -7.7196,2.1894 -11.924,2.1894 -4.0544,0 -7.8852,-0.82066 -11.517999,-2.0625 l 4.187499,-2.0957 -2.209,-14.619 -14.585999,-2.418 -3.8652,7.4531 c -4.5878,-5.8227 -7.4333,-13.031 -7.668,-20.967 l 3.625,3.3301 12.877,-7.2656 -2.9297,-14.491995 -8.4668,-0.97461 c 4.8356,-8.0357 12.672,-13.981 22.026999,-16.279 z m 34.826,16.564 5.0078,1.1113 c 2.662,4.905095 4.3012,10.429995 4.3965,16.382995 l -7.4102,3.2227 -8.5234,-9.6348 6.5293,-11.081995 z m -57.532999,0.9668 8.0391,0.92578 2.5508,12.606995 -11.203,6.3223 -3.8398,-3.5274 c 0.12827,-5.9352 1.7737,-11.445 4.4531,-16.327995 z m 30.302999,0.4082 -15.386999,12.427995 7.066399,18.473 19.752,-1.0098 0.125,-0.46485 5.0156,-18.633 -16.572,-10.792995 z m 0.082,1.634795 14.963,9.7422 -4.6406,17.242 -17.832,0.91211 -6.378899,-16.678 13.888999,-11.219 z m -22.544999,31.082 12.689,2.1035 1.921899,12.719 -4.562499,2.2832 c -5.3828,-2.1689 -10.019,-5.6638 -13.73,-10.004 l 3.6816,-7.1016 z m 49.679999,1.7129 1.6445,4.3477 c -3.7817,4.775 -8.6516,8.6317 -14.371,10.979 l -3.5117,-2.3066 3.3887,-12.408 12.85,-0.61133 z m 2.01625,5.18135 0.027,0.0713 M 98.928854,518.05195 c -5.120033,-4.63585 -20.798836,-16.40089 -34.841811,-26.14454 -14.042894,-9.74368 -26.79699,-19.25693 -28.342377,-21.1406 -3.283172,-4.00171 -3.990177,-48.79071 -0.80131,-50.76217 1.104685,-0.68298 6.289534,0.26911 11.521912,2.11585 5.232353,1.84675 9.934538,3.35767 10.44928,3.35767 0.514731,0 0.640423,-7.74961 0.279307,-17.22134 l -0.6565,-17.22133 -32.331483,-14.33424 C 6.4235364,368.81742 -8.3718869,362.65379 -8.6728829,363.00429 c -0.301012,0.35068 -3.7247691,6.31665 -7.6083611,13.25797 -7.707324,13.77569 -7.649697,13.97824 5.944794,20.88507 l 7.3055695,3.7117 v 22.42825 c 0,21.07524 -0.2766128,22.4283 -4.5853134,22.4283 -7.0909901,0 -20.3085251,-7.57157 -38.4352461,-22.01727 -26.414562,-21.05058 -50.648449,-52.54049 -60.30712,-78.3641 -4.68644,-12.52992 -6.11323,-27.78889 -2.59837,-27.78889 1.08418,0 13.954796,7.05854 28.601414,15.68558 23.699694,13.95948 26.868073,15.25857 28.791978,11.80517 1.189028,-2.13424 20.199217,-35.14665 42.2449191,-73.36096 C 12.727025,233.46084 30.494117,201.95156 30.163711,201.65451 29.833348,201.35744 19.447705,198.39444 7.0844648,195.07003 -22.286493,187.17232 -25.965116,184.76926 -25.075141,174.06156 l 0.689573,-8.29677 48.328993,-1.26277 c 26.580914,-0.69452 50.106448,-2.07042 52.27894,-3.05756 3.54271,-1.60972 3.223982,-2.62191 -3.091003,-9.81669 -9.633581,-10.97567 -13.222207,-20.56512 -13.222207,-35.33219 0,-30.054185 21.069761,-51.514607 50.576805,-51.514607 16.55409,0 28.7409,5.82199 40.18668,19.198242 9.11825,10.65611 11.38702,19.136935 9.90421,37.023045 -0.82514,9.95372 -2.85309,14.96095 -10.38755,25.64832 l -9.36216,13.27997 8.43189,2.34243 c 4.63756,1.28834 28.40981,2.34808 52.82719,2.35496 l 44.3952,0.0135 v 9.98599 c 0,5.56248 -1.24469,10.75619 -2.80979,11.72464 -1.54545,0.95626 -20.00597,5.86525 -41.02348,10.90886 l -38.21362,9.17021 -0.58337,109.68231 -0.58349,109.68235 5.07917,-1.46471 c 6.63045,-1.91203 69.42663,-30.48538 73.07689,-33.25122 1.5454,-1.17094 2.80983,-6.3334 2.80983,-11.47204 0,-12.45373 4.42613,-18.10318 20.57018,-26.25532 7.42631,-3.75004 24.48658,-13.34056 37.9118,-21.31222 23.81762,-14.14258 31.43238,-17.05328 31.43238,-12.01493 0,5.4457 -13.47079,42.03864 -19.27347,52.35569 -7.59942,13.5116 -29.70958,37.46265 -44.79056,48.51966 -10.51019,7.70587 -28.13199,18.43882 -83.17074,50.657 -26.68232,15.61913 -50.5676,33.04424 -62.83427,45.8397 -4.88712,5.09778 -10.45054,9.22716 -12.3632,9.17644 -1.91266,-0.0506 -7.66672,-3.88511 -12.786826,-8.52096 z m 27.592966,-10.67673 c 16.94844,-15.85968 33.88748,-27.24924 81.00096,-54.46385 49.55029,-28.62218 65.08227,-39.51463 82.04688,-57.53864 15.77698,-16.76228 27.55178,-36.67848 33.70605,-57.0112 l 3.87637,-12.80718 -20.1261,12.07967 c -11.06928,6.64381 -26.35323,15.19554 -33.96424,19.00381 -19.77651,9.89546 -21.7057,12.06485 -21.7057,24.40795 0,7.25992 -1.22574,11.59694 -3.93379,13.91869 -4.67915,4.0118 -63.19486,31.53675 -75.39597,35.46519 -16.06751,5.17331 -15.08032,12.50478 -15.08032,-111.99875 0,-88.4124 0.61021,-112.7319 2.87592,-114.61287 1.58175,-1.31315 20.54805,-6.81238 42.14734,-12.22047 37.43534,-9.37316 39.27145,-10.08912 39.27145,-15.31436 v -5.48152 l -48.329,-1.12431 c -60.5805,-1.40931 -65.16424,-3.16438 -52.00871,-19.91383 19.96671,-25.42126 20.28075,-48.67638 0.88752,-65.709505 -19.86405,-17.446637 -43.844993,-17.54962 -62.034364,-0.26634 -10.095812,9.59287 -13.505222,18.107595 -13.392898,33.447815 0.108555,14.8503 4.13632,23.98117 15.139208,34.32123 15.078787,14.17048 3.087168,18.12063 -55.009371,18.12063 h -45.178701 l 0.711288,6.18366 c 0.663182,5.76563 2.154798,6.58524 22.0659016,12.12497 11.7450744,3.26776 24.1364054,6.57559 27.5362854,7.35081 3.599947,0.8208 6.181601,2.92114 6.181601,5.02905 0,4.91662 -87.547356,155.94531 -90.397411,155.94531 -1.935074,0 -29.047631,-15.59462 -46.500528,-26.7462 l -5.398271,-3.44925 1.62448,8.91407 c 5.331011,29.2533 47.540651,79.35365 85.136664,101.05229 l 10.7768021,6.21985 -0.661417,-17.62161 -0.661431,-17.62169 -9.5533941,-6.40926 c -6.033445,-4.04773 -9.553409,-8.10265 -9.553409,-11.00519 0,-5.66951 13.361122,-31.17714 17.07824,-32.60404 1.4900681,-0.57195 15.4393778,4.59532 30.998508,11.48282 15.559164,6.88757 29.178247,12.52281 30.264629,12.52281 1.086383,0 4.640534,2.09721 7.898066,4.66043 5.650196,4.44591 5.922777,5.63608 5.922777,25.85886 0,23.95086 -0.162304,24.11517 -17.700247,17.92536 l -9.274058,-3.27311 0.0346,18.4512 c 0.01784,10.14815 0.777586,19.51049 1.685904,20.80521 0.908307,1.29465 15.529674,12.31197 32.491974,24.48282 16.962253,12.1709 32.544962,24.01288 34.628222,26.31566 2.08327,2.30274 4.26077,4.18677 4.83884,4.18677 0.57806,0 7.34294,-5.88767 15.03304,-13.08376 z M 104.20394,496.7501 c -3.22576,-6.8001 -3.62652,-24.18469 -3.61534,-156.83992 0.0109,-96.48188 0.8396,-152.17123 2.35347,-157.62435 1.84998,-6.66344 3.44044,-8.43224 7.58227,-8.43224 11.24703,0 11.40635,2.30909 11.40635,165.27212 0,140.06938 -0.2804,151.16976 -3.99144,157.96419 -5.11002,9.35589 -9.18369,9.25509 -13.73531,-0.33976 z M 116.5788,347.09585 c 0.50996,-111.34035 0.004,-149.9497 -2.06076,-156.72835 l -2.73743,-8.9944 -2.82418,8.9944 c -3.83806,12.22329 -4.43148,291.39904 -0.64255,302.27157 6.68627,19.1865 7.58267,3.40045 8.26492,-145.54322 z M 33.830433,328.12686 C 14.006188,319.69544 7.9800809,316.11412 7.9800809,312.76395 c 0,-0.91949 10.4552051,-20.46057 23.2337751,-43.42475 12.778545,-22.96415 23.867177,-43.40415 24.641337,-45.4223 0.83191,-2.16863 2.821396,-3.12665 4.864486,-2.34236 2.984971,1.14585 3.456859,9.12094 3.456859,58.42572 V 337.099 l -5.0577,-0.1839 c -2.781689,-0.10123 -14.161493,-4.05582 -25.288405,-8.78817 z m 23.587772,-47.17058 -0.0095,-47.78272 -21.324436,38.22621 c -11.728483,21.0244 -21.334371,38.73214 -21.346494,39.35051 -0.02003,1.04939 37.299554,17.19796 41.000922,17.74128 0.927265,0.13619 1.682332,-21.25473 1.677983,-47.53528 z" />
    </g>
  </g>
</svg>
