<svg xmlns="http://www.w3.org/2000/svg" xmlns:xlink="http://www.w3.org/1999/xlink" width="940" zoomAndPan="magnify" viewBox="0 0 705 591.000005" height="788" preserveAspectRatio="xMidYMid meet" version="1.0"><defs><clipPath id="c085e0c67e"><path d="M 448 240 L 624.140625 240 L 624.140625 390 L 448 390 Z M 448 240 " clip-rule="nonzero"/></clipPath><clipPath id="883a644037"><path d="M 59.59375 151 L 217 151 L 217 281 L 59.59375 281 Z M 59.59375 151 " clip-rule="nonzero"/></clipPath><clipPath id="ed3ad2b2b9"><path d="M 246 463 L 371 463 L 371 589.515625 L 246 589.515625 Z M 246 463 " clip-rule="nonzero"/></clipPath></defs><path fill="#000000" d="M 301.535156 180.011719 L 294.777344 179.390625 C 295.183594 175.027344 295.453125 170.976562 295.617188 166.976562 L 302.371094 167.246094 C 302.238281 171.351562 301.964844 175.542969 301.535156 180.011719 Z M 301.535156 180.011719 " fill-opacity="1" fill-rule="nonzero"/><path fill="#000000" d="M 215.3125 196.507812 C 215.136719 196.453125 214.964844 196.386719 214.800781 196.304688 C 194.003906 188.660156 177.492188 177.648438 165.738281 163.585938 C 163.96875 161.476562 162.304688 159.289062 160.765625 157.058594 L 160.15625 156.167969 C 126.496094 106.519531 143.808594 32.109375 144.5625 28.949219 L 145.15625 26.503906 L 147.65625 26.355469 C 151.226562 26.164062 235.363281 21.992188 276.414062 71.136719 C 277.96875 72.988281 279.480469 74.949219 280.902344 76.976562 C 281.183594 77.351562 281.457031 77.746094 281.726562 78.136719 L 276.0625 81.839844 C 275.886719 81.554688 275.683594 81.285156 275.484375 81 L 275.402344 80.894531 C 274.050781 79.015625 272.699219 77.191406 271.238281 75.488281 C 236.230469 33.609375 165.007812 32.757812 150.601562 33.042969 C 147.902344 46.550781 136.96875 110.964844 166.316406 153.210938 L 166.914062 154.085938 C 168.167969 155.859375 169.519531 157.585938 170.964844 159.277344 C 181.992188 172.460938 197.613281 182.808594 217.378906 190.050781 L 217.960938 190.335938 C 217.816406 190.238281 217.65625 190.167969 217.488281 190.117188 Z M 215.3125 196.507812 " fill-opacity="1" fill-rule="nonzero"/><path fill="#000000" d="M 287.101562 208.492188 L 287.101562 201.734375 L 291.546875 201.734375 C 291.546875 201.535156 291.644531 201.316406 291.683594 201.085938 L 294.96875 201.722656 L 298.371094 201.722656 L 298.371094 202.382812 C 297.925781 204.601562 297.628906 205.816406 297.628906 205.816406 L 297.035156 208.246094 L 294.546875 208.398438 C 294.546875 208.398438 293.320312 208.398438 291.101562 208.503906 Z M 287.101562 208.492188 " fill-opacity="1" fill-rule="nonzero"/><path fill="#000000" d="M 263.96875 176.285156 C 263.46875 176.285156 262.992188 176.179688 262.539062 175.964844 C 262.082031 175.753906 261.695312 175.453125 261.375 175.066406 L 175.277344 72.03125 C 175.007812 71.683594 174.808594 71.300781 174.6875 70.882812 C 174.566406 70.460938 174.53125 70.03125 174.574219 69.59375 C 174.621094 69.160156 174.746094 68.75 174.953125 68.359375 C 175.160156 67.972656 175.429688 67.640625 175.765625 67.359375 C 176.101562 67.078125 176.476562 66.867188 176.894531 66.734375 C 177.3125 66.597656 177.738281 66.546875 178.175781 66.578125 C 178.613281 66.609375 179.027344 66.722656 179.421875 66.914062 C 179.816406 67.109375 180.160156 67.367188 180.453125 67.695312 L 266.566406 170.746094 C 266.851562 171.089844 267.0625 171.472656 267.199219 171.902344 C 267.332031 172.328125 267.378906 172.765625 267.339844 173.210938 C 267.296875 173.660156 267.171875 174.082031 266.964844 174.476562 C 266.753906 174.875 266.476562 175.214844 266.132812 175.5 C 265.507812 176.027344 264.789062 176.289062 263.96875 176.285156 Z M 263.96875 176.285156 " fill-opacity="1" fill-rule="nonzero"/><path fill="#000000" d="M 207.960938 109.261719 L 207.558594 109.261719 L 166.75 104.316406 C 166.300781 104.265625 165.882812 104.128906 165.488281 103.90625 C 165.09375 103.683594 164.757812 103.398438 164.480469 103.042969 C 164.203125 102.6875 164 102.292969 163.878906 101.859375 C 163.757812 101.425781 163.722656 100.984375 163.777344 100.535156 C 163.832031 100.085938 163.96875 99.667969 164.191406 99.273438 C 164.410156 98.878906 164.699219 98.542969 165.054688 98.265625 C 165.410156 97.988281 165.804688 97.789062 166.238281 97.664062 C 166.671875 97.542969 167.113281 97.507812 167.5625 97.5625 L 204.800781 102.074219 L 206.976562 64.628906 C 207.003906 64.179688 207.113281 63.753906 207.308594 63.351562 C 207.503906 62.949219 207.769531 62.597656 208.105469 62.300781 C 208.441406 62 208.820312 61.777344 209.242188 61.632812 C 209.667969 61.484375 210.101562 61.421875 210.550781 61.449219 C 210.996094 61.476562 211.421875 61.585938 211.828125 61.78125 C 212.230469 61.976562 212.582031 62.242188 212.878906 62.574219 C 213.179688 62.910156 213.402344 63.289062 213.550781 63.710938 C 213.695312 64.136719 213.757812 64.570312 213.730469 65.019531 L 211.339844 106.046875 C 211.316406 106.476562 211.210938 106.890625 211.027344 107.28125 C 210.84375 107.671875 210.597656 108.015625 210.285156 108.3125 C 209.96875 108.605469 209.613281 108.835938 209.210938 108.996094 C 208.808594 109.15625 208.394531 109.234375 207.960938 109.234375 Z M 207.960938 109.261719 " fill-opacity="1" fill-rule="nonzero"/><path fill="#000000" d="M 230.042969 135.675781 C 229.90625 135.6875 229.769531 135.6875 229.636719 135.675781 L 188.816406 130.730469 C 188.367188 130.675781 187.945312 130.539062 187.554688 130.316406 C 187.160156 130.09375 186.824219 129.804688 186.546875 129.449219 C 186.265625 129.09375 186.066406 128.699219 185.945312 128.265625 C 185.824219 127.828125 185.792969 127.386719 185.847656 126.941406 C 185.902344 126.492188 186.039062 126.070312 186.261719 125.679688 C 186.484375 125.285156 186.773438 124.949219 187.128906 124.671875 C 187.484375 124.394531 187.878906 124.195312 188.316406 124.074219 C 188.75 123.953125 189.191406 123.917969 189.640625 123.976562 L 226.878906 128.488281 L 229.054688 91.039062 C 229.082031 90.589844 229.191406 90.164062 229.386719 89.761719 C 229.582031 89.359375 229.847656 89.007812 230.183594 88.710938 C 230.519531 88.414062 230.898438 88.191406 231.320312 88.042969 C 231.746094 87.894531 232.179688 87.835938 232.628906 87.859375 C 233.078125 87.886719 233.503906 87.996094 233.90625 88.191406 C 234.308594 88.386719 234.660156 88.652344 234.957031 88.988281 C 235.257812 89.320312 235.480469 89.699219 235.628906 90.125 C 235.777344 90.546875 235.835938 90.984375 235.8125 91.429688 L 233.417969 132.472656 C 233.394531 132.902344 233.292969 133.3125 233.109375 133.703125 C 232.929688 134.089844 232.683594 134.433594 232.371094 134.730469 C 232.054688 135.023438 231.699219 135.25 231.300781 135.410156 C 230.898438 135.570312 230.484375 135.648438 230.054688 135.648438 Z M 230.042969 135.675781 " fill-opacity="1" fill-rule="nonzero"/><path fill="#000000" d="M 249.242188 158.667969 L 248.835938 158.667969 L 208.03125 153.695312 C 207.582031 153.644531 207.160156 153.503906 206.765625 153.285156 C 206.375 153.0625 206.035156 152.777344 205.757812 152.421875 C 205.476562 152.066406 205.277344 151.671875 205.15625 151.238281 C 205.035156 150.800781 205 150.359375 205.054688 149.914062 C 205.105469 149.464844 205.246094 149.042969 205.464844 148.648438 C 205.6875 148.257812 205.976562 147.921875 206.332031 147.640625 C 206.6875 147.363281 207.082031 147.164062 207.515625 147.042969 C 207.949219 146.921875 208.390625 146.886719 208.839844 146.941406 L 246.082031 151.453125 L 248.269531 114.003906 C 248.296875 113.558594 248.40625 113.132812 248.601562 112.726562 C 248.796875 112.324219 249.0625 111.972656 249.398438 111.675781 C 249.734375 111.378906 250.113281 111.15625 250.535156 111.007812 C 250.960938 110.863281 251.394531 110.800781 251.84375 110.828125 C 252.289062 110.851562 252.714844 110.964844 253.121094 111.160156 C 253.523438 111.355469 253.875 111.617188 254.171875 111.953125 C 254.472656 112.289062 254.695312 112.667969 254.84375 113.089844 C 254.988281 113.511719 255.050781 113.949219 255.023438 114.398438 L 252.632812 155.425781 C 252.609375 155.855469 252.507812 156.269531 252.328125 156.660156 C 252.144531 157.054688 251.898438 157.398438 251.582031 157.695312 C 251.269531 157.992188 250.910156 158.21875 250.507812 158.378906 C 250.105469 158.539062 249.6875 158.617188 249.253906 158.613281 Z M 249.242188 158.667969 " fill-opacity="1" fill-rule="nonzero"/><path fill="#000000" d="M 436.953125 336.738281 L 436.941406 336.722656 L 441.710938 331.941406 Z M 436.953125 336.738281 " fill-opacity="1" fill-rule="nonzero"/><g clip-path="url(#c085e0c67e)"><path fill="#000000" d="M 529.242188 389.238281 C 521.949219 389.335938 514.726562 388.6875 507.566406 387.296875 C 500.410156 385.90625 493.46875 383.800781 486.746094 380.980469 C 484.367188 379.957031 481.949219 378.78125 479.542969 377.484375 C 478.597656 376.96875 477.460938 376.347656 476.339844 375.660156 L 479.867188 369.902344 C 480.839844 370.5 481.882812 371.066406 482.757812 371.539062 C 484.988281 372.742188 487.230469 373.835938 489.433594 374.78125 C 539.539062 396.503906 603.558594 365.324219 616.273438 358.570312 C 613.042969 346.734375 597.355469 295.453125 561.765625 267.21875 C 555.527344 262.21875 548.75 258.109375 541.429688 254.898438 C 526.472656 248.410156 509 246.0625 489.328125 247.898438 C 476.222656 249.199219 463.410156 251.902344 450.898438 256.003906 L 448.832031 249.613281 C 461.8125 245.363281 475.097656 242.558594 488.691406 241.199219 C 509.460938 239.253906 528.105469 241.792969 544.089844 248.734375 C 551.957031 252.179688 559.238281 256.582031 565.941406 261.949219 C 608.015625 295.332031 622.867188 356.921875 623.476562 359.527344 L 624.042969 361.972656 L 621.867188 363.230469 C 619.527344 364.554688 575.925781 389.238281 529.242188 389.238281 Z M 529.242188 389.238281 " fill-opacity="1" fill-rule="nonzero"/></g><path fill="#000000" d="M 423.074219 261.664062 L 423.074219 261.652344 L 429.832031 261.652344 Z M 423.074219 261.664062 " fill-opacity="1" fill-rule="nonzero"/><path fill="#000000" d="M 573.222656 346.222656 C 572.753906 346.21875 572.304688 346.125 571.871094 345.9375 L 448.679688 292.519531 C 448.269531 292.34375 447.910156 292.089844 447.597656 291.769531 C 447.285156 291.445312 447.046875 291.074219 446.882812 290.65625 C 446.71875 290.238281 446.640625 289.808594 446.652344 289.359375 C 446.660156 288.910156 446.753906 288.480469 446.933594 288.070312 C 447.109375 287.660156 447.363281 287.296875 447.683594 286.984375 C 448.007812 286.675781 448.378906 286.4375 448.796875 286.273438 C 449.214844 286.109375 449.644531 286.03125 450.09375 286.039062 C 450.542969 286.046875 450.972656 286.140625 451.382812 286.320312 L 574.601562 339.738281 C 574.960938 339.890625 575.285156 340.097656 575.570312 340.363281 C 575.855469 340.628906 576.089844 340.933594 576.273438 341.28125 C 576.453125 341.625 576.570312 341.992188 576.625 342.378906 C 576.675781 342.765625 576.664062 343.152344 576.585938 343.535156 C 576.503906 343.914062 576.363281 344.273438 576.160156 344.605469 C 575.957031 344.9375 575.703125 345.226562 575.398438 345.472656 C 575.09375 345.71875 574.757812 345.90625 574.390625 346.035156 C 574.019531 346.164062 573.640625 346.226562 573.25 346.222656 Z M 573.222656 346.222656 " fill-opacity="1" fill-rule="nonzero"/><path fill="#000000" d="M 546.441406 365.285156 C 545.769531 365.28125 545.152344 365.097656 544.589844 364.726562 C 544.027344 364.355469 543.613281 363.863281 543.347656 363.242188 L 527.050781 325.496094 C 526.664062 324.597656 526.664062 323.695312 527.050781 322.796875 C 527.445312 321.90625 528.097656 321.292969 529.011719 320.957031 L 567.695312 307.058594 C 568.117188 306.90625 568.554688 306.839844 569 306.863281 C 569.449219 306.882812 569.875 306.992188 570.28125 307.183594 C 570.6875 307.375 571.039062 307.636719 571.339844 307.964844 C 571.644531 308.296875 571.871094 308.675781 572.019531 309.097656 C 572.171875 309.519531 572.238281 309.953125 572.214844 310.402344 C 572.195312 310.847656 572.085938 311.277344 571.894531 311.679688 C 571.703125 312.085938 571.441406 312.441406 571.109375 312.742188 C 570.777344 313.042969 570.402344 313.269531 569.980469 313.421875 L 534.6875 326.105469 L 549.550781 360.542969 C 549.660156 360.800781 549.734375 361.066406 549.777344 361.34375 C 549.820312 361.617188 549.832031 361.894531 549.804688 362.171875 C 549.78125 362.453125 549.722656 362.722656 549.628906 362.988281 C 549.535156 363.25 549.414062 363.5 549.257812 363.730469 C 549.105469 363.964844 548.925781 364.175781 548.71875 364.363281 C 548.515625 364.554688 548.289062 364.714844 548.042969 364.847656 C 547.796875 364.980469 547.539062 365.082031 547.265625 365.152344 C 546.996094 365.21875 546.722656 365.253906 546.441406 365.257812 Z M 546.441406 365.285156 " fill-opacity="1" fill-rule="nonzero"/><path fill="#000000" d="M 514.890625 351.585938 C 514.214844 351.585938 513.597656 351.402344 513.03125 351.03125 C 512.464844 350.660156 512.050781 350.164062 511.785156 349.546875 L 495.460938 311.757812 C 495.078125 310.859375 495.078125 309.957031 495.460938 309.058594 C 495.851562 308.167969 496.503906 307.558594 497.421875 307.234375 L 536.105469 293.316406 C 536.527344 293.167969 536.960938 293.101562 537.410156 293.125 C 537.859375 293.144531 538.285156 293.25 538.691406 293.441406 C 539.09375 293.632812 539.449219 293.894531 539.75 294.226562 C 540.050781 294.558594 540.277344 294.9375 540.429688 295.359375 C 540.582031 295.78125 540.644531 296.214844 540.625 296.664062 C 540.601562 297.109375 540.496094 297.535156 540.304688 297.941406 C 540.113281 298.347656 539.851562 298.699219 539.519531 299.003906 C 539.1875 299.304688 538.8125 299.53125 538.390625 299.679688 L 503.09375 312.367188 L 517.957031 346.800781 C 518.070312 347.058594 518.148438 347.324219 518.195312 347.601562 C 518.242188 347.878906 518.253906 348.15625 518.230469 348.433594 C 518.207031 348.714844 518.148438 348.984375 518.058594 349.25 C 517.964844 349.515625 517.84375 349.765625 517.691406 350 C 517.535156 350.234375 517.355469 350.445312 517.148438 350.632812 C 516.941406 350.824219 516.714844 350.984375 516.46875 351.117188 C 516.222656 351.25 515.964844 351.351562 515.691406 351.417969 C 515.421875 351.484375 515.144531 351.519531 514.863281 351.515625 Z M 514.890625 351.585938 " fill-opacity="1" fill-rule="nonzero"/><path fill="#000000" d="M 487.367188 339.667969 C 486.691406 339.671875 486.074219 339.488281 485.511719 339.117188 C 484.949219 338.746094 484.535156 338.25 484.273438 337.628906 L 467.976562 299.898438 C 467.59375 298.996094 467.59375 298.097656 467.976562 297.195312 C 468.363281 296.300781 469.015625 295.695312 469.9375 295.371094 L 508.621094 281.457031 C 509.042969 281.304688 509.476562 281.242188 509.925781 281.265625 C 510.371094 281.289062 510.796875 281.394531 511.203125 281.585938 C 511.605469 281.777344 511.957031 282.039062 512.257812 282.371094 C 512.558594 282.703125 512.785156 283.078125 512.9375 283.5 C 513.089844 283.921875 513.152344 284.355469 513.132812 284.800781 C 513.109375 285.25 513.003906 285.675781 512.816406 286.078125 C 512.625 286.484375 512.363281 286.835938 512.03125 287.140625 C 511.703125 287.441406 511.324219 287.667969 510.90625 287.820312 L 475.597656 300.503906 L 490.460938 334.941406 C 490.636719 335.351562 490.726562 335.785156 490.734375 336.230469 C 490.738281 336.679688 490.660156 337.113281 490.492188 337.527344 C 490.328125 337.945312 490.089844 338.3125 489.777344 338.636719 C 489.464844 338.957031 489.101562 339.207031 488.691406 339.386719 C 488.269531 339.570312 487.828125 339.667969 487.367188 339.667969 Z M 487.367188 339.667969 " fill-opacity="1" fill-rule="nonzero"/><g clip-path="url(#883a644037)"><path fill="#000000" d="M 166.453125 280.011719 C 157.804688 280.058594 149.339844 278.851562 141.050781 276.390625 C 87.164062 260.179688 61.542969 190.726562 60.476562 187.78125 L 59.625 185.417969 L 61.652344 183.917969 C 63.761719 182.351562 113.984375 145.589844 163.953125 151.777344 L 166.914062 152.140625 L 166.914062 155.128906 L 163.574219 155.128906 L 163.167969 158.476562 C 121.390625 153.316406 77.757812 181.066406 67.816406 187.875 C 72.8125 200.167969 97.824219 256.273438 143.050781 269.933594 C 163.441406 276.078125 187.410156 273.703125 214.273438 262.855469 L 216.800781 269.121094 C 198.789062 276.378906 181.953125 280.011719 166.453125 280.011719 Z M 166.453125 280.011719 " fill-opacity="1" fill-rule="nonzero"/></g><path fill="#000000" d="M 209.328125 236.441406 C 208.992188 236.445312 208.660156 236.394531 208.339844 236.292969 L 103.960938 204.804688 C 103.511719 204.6875 103.105469 204.492188 102.742188 204.210938 C 102.375 203.929688 102.078125 203.589844 101.851562 203.1875 C 101.625 202.785156 101.488281 202.355469 101.4375 201.898438 C 101.386719 201.441406 101.429688 200.992188 101.5625 200.550781 C 101.695312 200.109375 101.914062 199.710938 102.207031 199.359375 C 102.503906 199.007812 102.859375 198.726562 103.269531 198.519531 C 103.679688 198.308594 104.117188 198.191406 104.578125 198.160156 C 105.035156 198.128906 105.484375 198.191406 105.917969 198.34375 L 210.300781 229.835938 C 210.6875 229.953125 211.039062 230.136719 211.359375 230.382812 C 211.679688 230.625 211.949219 230.921875 212.164062 231.261719 C 212.378906 231.601562 212.53125 231.96875 212.613281 232.367188 C 212.699219 232.761719 212.710938 233.15625 212.652344 233.558594 C 212.59375 233.957031 212.464844 234.332031 212.273438 234.6875 C 212.078125 235.042969 211.828125 235.351562 211.523438 235.617188 C 211.21875 235.878906 210.878906 236.082031 210.5 236.226562 C 210.121094 236.367188 209.730469 236.441406 209.328125 236.441406 Z M 209.328125 236.441406 " fill-opacity="1" fill-rule="nonzero"/><path fill="#000000" d="M 112.066406 232.835938 C 111.683594 232.835938 111.3125 232.777344 110.953125 232.652344 C 110.59375 232.527344 110.261719 232.347656 109.960938 232.109375 C 109.664062 231.875 109.410156 231.597656 109.207031 231.273438 C 109 230.953125 108.855469 230.605469 108.765625 230.234375 C 108.679688 229.863281 108.652344 229.488281 108.695312 229.109375 C 108.734375 228.730469 108.832031 228.367188 108.996094 228.023438 C 109.160156 227.675781 109.375 227.367188 109.640625 227.09375 C 109.90625 226.824219 110.210938 226.601562 110.554688 226.433594 L 139.578125 212.015625 L 123.363281 183.957031 C 123.136719 183.570312 122.992188 183.152344 122.929688 182.707031 C 122.867188 182.261719 122.894531 181.820312 123.011719 181.386719 C 123.125 180.949219 123.320312 180.554688 123.59375 180.199219 C 123.867188 179.839844 124.199219 179.550781 124.585938 179.324219 C 124.976562 179.097656 125.394531 178.957031 125.839844 178.898438 C 126.289062 178.84375 126.726562 178.871094 127.164062 178.988281 C 127.597656 179.109375 127.992188 179.304688 128.347656 179.578125 C 128.703125 179.855469 128.992188 180.1875 129.214844 180.582031 L 147.226562 211.789062 C 147.339844 211.988281 147.433594 212.195312 147.507812 212.414062 C 147.578125 212.632812 147.628906 212.855469 147.65625 213.085938 C 147.683594 213.3125 147.6875 213.542969 147.664062 213.769531 C 147.644531 214 147.601562 214.226562 147.535156 214.445312 C 147.46875 214.664062 147.378906 214.878906 147.269531 215.078125 C 147.160156 215.28125 147.03125 215.472656 146.882812 215.644531 C 146.734375 215.820312 146.570312 215.980469 146.386719 216.121094 C 146.207031 216.265625 146.011719 216.386719 145.804688 216.488281 L 113.582031 232.484375 C 113.105469 232.722656 112.597656 232.839844 112.066406 232.835938 Z M 112.066406 232.835938 " fill-opacity="1" fill-rule="nonzero"/><path fill="#000000" d="M 140.929688 241.507812 C 140.546875 241.507812 140.175781 241.445312 139.816406 241.320312 C 139.457031 241.195312 139.128906 241.015625 138.832031 240.777344 C 138.53125 240.539062 138.28125 240.261719 138.078125 239.941406 C 137.871094 239.617188 137.726562 239.273438 137.640625 238.902344 C 137.554688 238.53125 137.53125 238.15625 137.570312 237.777344 C 137.609375 237.398438 137.710938 237.035156 137.875 236.691406 C 138.035156 236.347656 138.25 236.039062 138.515625 235.765625 C 138.785156 235.496094 139.085938 235.273438 139.429688 235.105469 L 168.453125 220.691406 L 152.238281 192.628906 C 152.011719 192.242188 151.867188 191.824219 151.804688 191.378906 C 151.746094 190.933594 151.773438 190.496094 151.886719 190.058594 C 152 189.625 152.195312 189.226562 152.46875 188.871094 C 152.742188 188.511719 153.074219 188.222656 153.464844 187.996094 C 153.851562 187.773438 154.269531 187.632812 154.71875 187.574219 C 155.164062 187.515625 155.601562 187.546875 156.039062 187.664062 C 156.472656 187.78125 156.867188 187.976562 157.222656 188.253906 C 157.578125 188.527344 157.867188 188.863281 158.089844 189.253906 L 176.085938 220.421875 C 176.574219 221.277344 176.675781 222.175781 176.398438 223.121094 C 176.109375 224.050781 175.527344 224.730469 174.65625 225.160156 L 142.414062 241.183594 C 141.945312 241.410156 141.449219 241.515625 140.929688 241.507812 Z M 140.929688 241.507812 " fill-opacity="1" fill-rule="nonzero"/><path fill="#000000" d="M 166.046875 249.128906 C 165.667969 249.128906 165.296875 249.066406 164.9375 248.941406 C 164.578125 248.816406 164.246094 248.632812 163.949219 248.398438 C 163.652344 248.160156 163.398438 247.882812 163.195312 247.558594 C 162.992188 247.238281 162.847656 246.890625 162.757812 246.519531 C 162.671875 246.148438 162.648438 245.773438 162.6875 245.394531 C 162.730469 245.015625 162.828125 244.65625 162.992188 244.3125 C 163.15625 243.964844 163.371094 243.65625 163.636719 243.386719 C 163.902344 243.113281 164.207031 242.894531 164.546875 242.722656 L 193.570312 228.308594 L 177.359375 200.25 C 177.128906 199.863281 176.984375 199.445312 176.925781 199 C 176.863281 198.554688 176.890625 198.113281 177.007812 197.679688 C 177.121094 197.246094 177.316406 196.847656 177.589844 196.492188 C 177.863281 196.132812 178.191406 195.84375 178.582031 195.617188 C 178.972656 195.394531 179.390625 195.25 179.835938 195.191406 C 180.28125 195.136719 180.722656 195.164062 181.15625 195.28125 C 181.589844 195.402344 181.984375 195.597656 182.339844 195.871094 C 182.695312 196.148438 182.984375 196.480469 183.207031 196.871094 L 201.21875 228 C 201.710938 228.855469 201.816406 229.753906 201.53125 230.699219 C 201.246094 231.628906 200.671875 232.308594 199.800781 232.742188 L 167.546875 248.761719 C 167.078125 249.007812 166.578125 249.128906 166.046875 249.128906 Z M 166.046875 249.128906 " fill-opacity="1" fill-rule="nonzero"/><path fill="#000000" d="M 566.019531 267.175781 L 561.710938 261.988281 C 588.222656 239.953125 603.328125 205.777344 607.085938 196.507812 C 598.097656 190.359375 561.617188 167.109375 523.929688 166.488281 L 524.050781 159.734375 C 569.453125 160.492188 611.449219 191.238281 613.234375 192.550781 L 615.257812 194.050781 L 614.40625 196.414062 C 613.734375 198.167969 598.21875 240.414062 566.019531 267.175781 Z M 566.019531 267.175781 " fill-opacity="1" fill-rule="nonzero"/><path fill="#000000" d="M 433.941406 230.699219 L 428.0625 227.378906 L 428.601562 226.417969 L 429.644531 224.566406 L 435.492188 227.957031 L 434.492188 229.714844 Z M 433.941406 230.699219 " fill-opacity="1" fill-rule="nonzero"/><path fill="#000000" d="M 457.300781 247.519531 C 456.898438 247.519531 456.507812 247.445312 456.128906 247.304688 C 455.75 247.160156 455.410156 246.957031 455.105469 246.695312 C 454.800781 246.429688 454.550781 246.121094 454.355469 245.765625 C 454.164062 245.410156 454.035156 245.035156 453.976562 244.636719 C 453.917969 244.234375 453.933594 243.839844 454.015625 243.445312 C 454.097656 243.046875 454.25 242.679688 454.464844 242.339844 C 454.679688 241.996094 454.949219 241.703125 455.269531 241.460938 C 455.589844 241.214844 455.945312 241.03125 456.328125 240.914062 L 568.941406 206.9375 C 569.15625 206.859375 569.378906 206.804688 569.605469 206.769531 C 569.832031 206.738281 570.058594 206.726562 570.289062 206.738281 C 570.519531 206.753906 570.746094 206.789062 570.964844 206.847656 C 571.1875 206.910156 571.402344 206.988281 571.609375 207.09375 C 571.8125 207.195312 572.003906 207.320312 572.1875 207.460938 C 572.367188 207.601562 572.53125 207.761719 572.679688 207.9375 C 572.828125 208.113281 572.953125 208.300781 573.0625 208.503906 C 573.171875 208.707031 573.261719 208.917969 573.328125 209.136719 C 573.394531 209.359375 573.4375 209.582031 573.457031 209.8125 C 573.476562 210.039062 573.476562 210.269531 573.449219 210.496094 C 573.421875 210.722656 573.375 210.949219 573.300781 211.164062 C 573.230469 211.382812 573.136719 211.59375 573.023438 211.792969 C 572.910156 211.992188 572.777344 212.175781 572.625 212.347656 C 572.472656 212.519531 572.304688 212.675781 572.121094 212.8125 C 571.9375 212.953125 571.738281 213.070312 571.53125 213.167969 C 571.324219 213.265625 571.109375 213.339844 570.886719 213.394531 L 458.289062 247.371094 C 457.96875 247.472656 457.640625 247.523438 457.300781 247.519531 Z M 457.300781 247.519531 " fill-opacity="1" fill-rule="nonzero"/><path fill="#000000" d="M 562.792969 241.507812 C 562.265625 241.503906 561.765625 241.386719 561.292969 241.15625 L 529.050781 225.136719 C 528.179688 224.699219 527.605469 224.015625 527.324219 223.082031 C 527.023438 222.132812 527.128906 221.234375 527.632812 220.378906 L 545.632812 189.199219 C 545.855469 188.816406 546.148438 188.488281 546.503906 188.21875 C 546.859375 187.949219 547.25 187.757812 547.683594 187.644531 C 548.113281 187.527344 548.550781 187.5 548.992188 187.5625 C 549.433594 187.621094 549.847656 187.761719 550.234375 187.984375 C 550.621094 188.207031 550.949219 188.496094 551.222656 188.847656 C 551.492188 189.199219 551.6875 189.59375 551.804688 190.023438 C 551.921875 190.453125 551.953125 190.890625 551.894531 191.332031 C 551.839844 191.773438 551.703125 192.1875 551.480469 192.578125 L 535.265625 220.648438 L 564.292969 235.066406 C 564.632812 235.234375 564.9375 235.453125 565.203125 235.726562 C 565.472656 236 565.6875 236.308594 565.847656 236.652344 C 566.011719 237 566.113281 237.363281 566.152344 237.742188 C 566.191406 238.121094 566.167969 238.496094 566.078125 238.867188 C 565.992188 239.238281 565.84375 239.585938 565.640625 239.90625 C 565.433594 240.226562 565.183594 240.507812 564.882812 240.742188 C 564.582031 240.980469 564.253906 241.160156 563.890625 241.285156 C 563.53125 241.410156 563.160156 241.46875 562.777344 241.46875 Z M 562.792969 241.507812 " fill-opacity="1" fill-rule="nonzero"/><path fill="#000000" d="M 533.917969 250.140625 C 533.386719 250.144531 532.886719 250.027344 532.417969 249.789062 L 500.175781 233.78125 C 499.304688 233.34375 498.726562 232.660156 498.445312 231.726562 C 498.148438 230.78125 498.253906 229.878906 498.757812 229.027344 L 510.203125 209.207031 C 510.425781 208.816406 510.714844 208.480469 511.070312 208.207031 C 511.425781 207.929688 511.820312 207.734375 512.253906 207.617188 C 512.6875 207.5 513.128906 207.46875 513.574219 207.527344 C 514.019531 207.585938 514.4375 207.726562 514.828125 207.949219 C 515.21875 208.175781 515.550781 208.464844 515.824219 208.824219 C 516.097656 209.179688 516.289062 209.578125 516.40625 210.011719 C 516.519531 210.449219 516.546875 210.886719 516.484375 211.332031 C 516.425781 211.78125 516.28125 212.195312 516.054688 212.585938 L 506.40625 229.351562 L 535.429688 243.765625 C 535.773438 243.933594 536.074219 244.15625 536.34375 244.425781 C 536.609375 244.699219 536.824219 245.007812 536.988281 245.355469 C 537.148438 245.699219 537.25 246.0625 537.289062 246.441406 C 537.328125 246.820312 537.304688 247.195312 537.21875 247.566406 C 537.128906 247.9375 536.984375 248.285156 536.777344 248.605469 C 536.574219 248.929688 536.320312 249.207031 536.019531 249.445312 C 535.722656 249.679688 535.390625 249.859375 535.03125 249.984375 C 534.667969 250.109375 534.296875 250.167969 533.917969 250.167969 Z M 533.917969 250.140625 " fill-opacity="1" fill-rule="nonzero"/><path fill="#000000" d="M 489 247.898438 C 488.472656 247.898438 487.972656 247.78125 487.503906 247.546875 L 475.058594 241.359375 C 474.855469 241.253906 474.664062 241.128906 474.484375 240.984375 C 474.304688 240.839844 474.144531 240.679688 474 240.5 C 473.855469 240.324219 473.726562 240.132812 473.621094 239.929688 C 473.515625 239.726562 473.429688 239.515625 473.367188 239.292969 C 473.304688 239.074219 473.265625 238.847656 473.246094 238.617188 C 473.230469 238.390625 473.234375 238.160156 473.265625 237.933594 C 473.292969 237.707031 473.34375 237.484375 473.417969 237.265625 C 473.492188 237.050781 473.589844 236.84375 473.707031 236.644531 L 481.367188 223.363281 C 481.589844 222.972656 481.878906 222.640625 482.234375 222.363281 C 482.589844 222.089844 482.984375 221.890625 483.417969 221.773438 C 483.851562 221.65625 484.292969 221.625 484.738281 221.683594 C 485.1875 221.742188 485.605469 221.882812 485.992188 222.109375 C 486.382812 222.332031 486.714844 222.625 486.988281 222.980469 C 487.261719 223.339844 487.457031 223.734375 487.570312 224.171875 C 487.6875 224.605469 487.710938 225.046875 487.652344 225.492188 C 487.589844 225.9375 487.445312 226.355469 487.21875 226.742188 L 481.355469 236.914062 L 490.570312 241.507812 C 490.910156 241.679688 491.214844 241.898438 491.484375 242.171875 C 491.75 242.445312 491.964844 242.753906 492.125 243.097656 C 492.289062 243.445312 492.390625 243.804688 492.429688 244.183594 C 492.46875 244.566406 492.445312 244.941406 492.355469 245.3125 C 492.269531 245.683594 492.121094 246.027344 491.917969 246.351562 C 491.710938 246.671875 491.460938 246.953125 491.160156 247.1875 C 490.859375 247.421875 490.53125 247.605469 490.167969 247.726562 C 489.808594 247.851562 489.4375 247.914062 489.054688 247.914062 Z M 489 247.898438 " fill-opacity="1" fill-rule="nonzero"/><path fill="#000000" d="M 170.414062 561.171875 L 169.304688 558.917969 C 167.953125 556.109375 135.792969 489.476562 161.535156 439.425781 C 170.25 422.484375 185.355469 408.015625 206.449219 396.410156 L 209.707031 402.328125 C 189.816406 413.269531 175.628906 426.792969 167.546875 442.503906 C 145.929688 484.507812 168.898438 541.476562 174.304688 553.609375 C 184.179688 551.582031 220.933594 542.800781 247.429688 520.386719 C 251.78125 516.8125 255.742188 512.84375 259.304688 508.484375 C 262.867188 504.121094 265.96875 499.453125 268.605469 494.476562 C 274.753906 482.519531 277.832031 468.292969 277.753906 452.191406 C 277.753906 451.191406 277.753906 450.152344 277.683594 449.125 C 277.238281 437.339844 275.515625 425.742188 272.511719 414.335938 C 270.941406 408.148438 269.039062 401.960938 266.863281 395.949219 L 273.226562 393.652344 C 275.46875 399.867188 277.429688 406.273438 279.0625 412.664062 C 282.191406 424.546875 283.996094 436.628906 284.46875 448.910156 C 284.46875 449.960938 284.535156 451.054688 284.550781 452.136719 C 284.628906 469.363281 281.304688 484.558594 274.660156 497.558594 C 271.816406 502.929688 268.472656 507.96875 264.632812 512.679688 C 260.789062 517.390625 256.527344 521.679688 251.835938 525.546875 C 219.675781 552.742188 174.816406 560.445312 172.9375 560.769531 Z M 170.414062 561.171875 " fill-opacity="1" fill-rule="nonzero"/><path fill="#000000" d="M 194.476562 522.914062 C 194.1875 522.914062 193.902344 522.875 193.625 522.800781 C 193.34375 522.726562 193.078125 522.617188 192.828125 522.472656 C 192.574219 522.332031 192.347656 522.160156 192.136719 521.957031 C 191.929688 521.757812 191.75 521.53125 191.601562 521.285156 C 191.453125 521.039062 191.335938 520.777344 191.25 520.5 C 191.167969 520.222656 191.121094 519.941406 191.109375 519.652344 C 191.097656 519.363281 191.125 519.074219 191.1875 518.792969 C 191.25 518.511719 191.347656 518.242188 191.476562 517.984375 L 245.269531 413.40625 C 245.472656 413.007812 245.746094 412.664062 246.089844 412.371094 C 246.429688 412.082031 246.8125 411.867188 247.238281 411.730469 C 247.664062 411.59375 248.101562 411.542969 248.546875 411.578125 C 248.996094 411.613281 249.417969 411.734375 249.816406 411.9375 C 250.214844 412.144531 250.558594 412.417969 250.851562 412.757812 C 251.140625 413.097656 251.355469 413.484375 251.492188 413.910156 C 251.628906 414.335938 251.679688 414.769531 251.644531 415.21875 C 251.605469 415.664062 251.488281 416.085938 251.28125 416.484375 L 197.492188 521.078125 C 197.199219 521.640625 196.785156 522.089844 196.242188 522.417969 C 195.699219 522.75 195.113281 522.914062 194.476562 522.914062 Z M 194.476562 522.914062 " fill-opacity="1" fill-rule="nonzero"/><path fill="#000000" d="M 223.203125 520.957031 C 222.839844 520.953125 222.480469 520.898438 222.132812 520.78125 C 221.785156 520.664062 221.464844 520.496094 221.175781 520.273438 C 220.882812 520.054688 220.632812 519.792969 220.425781 519.492188 C 220.214844 519.1875 220.0625 518.863281 219.960938 518.511719 L 211.03125 487.382812 L 180.492188 498.191406 C 180.070312 498.34375 179.636719 498.40625 179.1875 498.382812 C 178.742188 498.359375 178.316406 498.253906 177.910156 498.0625 C 177.503906 497.871094 177.152344 497.609375 176.851562 497.277344 C 176.550781 496.945312 176.324219 496.566406 176.175781 496.144531 C 176.023438 495.722656 175.960938 495.289062 175.984375 494.839844 C 176.003906 494.394531 176.113281 493.96875 176.304688 493.5625 C 176.496094 493.15625 176.757812 492.804688 177.089844 492.503906 C 177.421875 492.203125 177.800781 491.980469 178.222656 491.828125 L 212.21875 479.792969 C 213.144531 479.460938 214.046875 479.519531 214.921875 479.96875 C 215.792969 480.414062 216.359375 481.105469 216.625 482.046875 L 226.554688 516.644531 C 226.679688 517.078125 226.714844 517.515625 226.664062 517.960938 C 226.609375 518.40625 226.476562 518.824219 226.257812 519.214844 C 226.039062 519.605469 225.753906 519.941406 225.40625 520.21875 C 225.054688 520.496094 224.664062 520.699219 224.230469 520.820312 C 223.894531 520.921875 223.554688 520.96875 223.203125 520.957031 Z M 223.203125 520.957031 " fill-opacity="1" fill-rule="nonzero"/><path fill="#000000" d="M 237 494.140625 C 236.632812 494.136719 236.277344 494.078125 235.925781 493.960938 C 235.578125 493.84375 235.257812 493.675781 234.964844 493.453125 C 234.675781 493.230469 234.425781 492.96875 234.21875 492.664062 C 234.011719 492.363281 233.855469 492.035156 233.757812 491.679688 L 224.8125 460.539062 L 194.289062 471.347656 C 193.867188 471.5 193.429688 471.5625 192.984375 471.539062 C 192.535156 471.519531 192.109375 471.410156 191.707031 471.21875 C 191.300781 471.027344 190.949219 470.765625 190.648438 470.433594 C 190.347656 470.101562 190.121094 469.722656 189.972656 469.300781 C 189.820312 468.878906 189.757812 468.445312 189.777344 467.996094 C 189.800781 467.550781 189.910156 467.125 190.101562 466.71875 C 190.292969 466.316406 190.554688 465.960938 190.886719 465.660156 C 191.21875 465.359375 191.597656 465.136719 192.019531 464.984375 L 225.945312 452.921875 C 226.164062 452.84375 226.386719 452.792969 226.617188 452.761719 C 226.84375 452.730469 227.074219 452.722656 227.304688 452.738281 C 227.535156 452.753906 227.757812 452.792969 227.980469 452.855469 C 228.203125 452.917969 228.417969 453 228.621094 453.105469 C 228.828125 453.210938 229.019531 453.339844 229.199219 453.484375 C 229.378906 453.628906 229.539062 453.789062 229.6875 453.964844 C 229.832031 454.144531 229.960938 454.335938 230.066406 454.539062 C 230.175781 454.742188 230.261719 454.957031 230.324219 455.175781 L 240.242188 489.789062 C 240.367188 490.21875 240.402344 490.65625 240.351562 491.101562 C 240.300781 491.542969 240.167969 491.960938 239.953125 492.355469 C 239.734375 492.746094 239.453125 493.078125 239.101562 493.359375 C 238.753906 493.636719 238.363281 493.839844 237.933594 493.964844 C 237.628906 494.0625 237.320312 494.121094 237 494.140625 Z M 237 494.140625 " fill-opacity="1" fill-rule="nonzero"/><path fill="#000000" d="M 249 470.808594 C 248.632812 470.808594 248.273438 470.75 247.925781 470.632812 C 247.578125 470.519531 247.257812 470.351562 246.964844 470.128906 C 246.675781 469.910156 246.425781 469.648438 246.21875 469.34375 C 246.011719 469.042969 245.855469 468.714844 245.757812 468.363281 L 236.824219 437.222656 L 206.285156 448.03125 C 205.863281 448.179688 205.429688 448.246094 204.984375 448.222656 C 204.535156 448.199219 204.109375 448.09375 203.703125 447.902344 C 203.300781 447.710938 202.945312 447.445312 202.648438 447.113281 C 202.347656 446.78125 202.121094 446.40625 201.96875 445.984375 C 201.820312 445.5625 201.753906 445.128906 201.777344 444.679688 C 201.800781 444.234375 201.90625 443.804688 202.097656 443.402344 C 202.292969 442.996094 202.554688 442.644531 202.886719 442.34375 C 203.21875 442.042969 203.59375 441.816406 204.015625 441.667969 L 237.890625 429.644531 C 238.109375 429.566406 238.332031 429.515625 238.5625 429.484375 C 238.789062 429.453125 239.019531 429.445312 239.25 429.460938 C 239.476562 429.476562 239.703125 429.515625 239.925781 429.578125 C 240.148438 429.640625 240.363281 429.726562 240.566406 429.832031 C 240.769531 429.9375 240.964844 430.0625 241.144531 430.207031 C 241.320312 430.351562 241.484375 430.511719 241.632812 430.691406 C 241.777344 430.867188 241.90625 431.058594 242.011719 431.261719 C 242.121094 431.464844 242.207031 431.679688 242.269531 431.898438 L 252.1875 466.5 C 252.3125 466.929688 252.351562 467.367188 252.300781 467.8125 C 252.25 468.257812 252.117188 468.679688 251.902344 469.070312 C 251.683594 469.464844 251.402344 469.800781 251.050781 470.082031 C 250.699219 470.359375 250.308594 470.5625 249.878906 470.6875 C 249.589844 470.761719 249.296875 470.800781 249 470.808594 Z M 249 470.808594 " fill-opacity="1" fill-rule="nonzero"/><g clip-path="url(#ed3ad2b2b9)"><path fill="#000000" d="M 353.164062 589.53125 L 350.679688 589.152344 C 347.582031 588.679688 274.511719 577.074219 248.066406 527.386719 C 247.539062 526.398438 247.054688 525.425781 246.582031 524.441406 L 252.648438 521.496094 C 253.09375 522.402344 253.550781 523.320312 254 524.199219 C 276.210938 565.929688 336.085938 579.492188 349.125 581.992188 C 354.328125 569.832031 376.5 512.511719 354.328125 470.808594 C 353.675781 469.589844 352.976562 468.390625 352.203125 467.121094 L 357.949219 463.578125 C 358.8125 464.929688 359.570312 466.28125 360.285156 467.632812 C 386.726562 517.320312 355.542969 584.382812 354.191406 587.21875 Z M 353.164062 589.53125 " fill-opacity="1" fill-rule="nonzero"/></g><path fill="#000000" d="M 332.691406 549.394531 C 332.066406 549.394531 331.484375 549.234375 330.949219 548.910156 C 330.414062 548.589844 330 548.148438 329.707031 547.597656 L 296.359375 484.9375 L 296.222656 484.695312 L 278.078125 450.582031 C 277.957031 450.386719 277.859375 450.179688 277.785156 449.964844 C 277.707031 449.746094 277.652344 449.527344 277.621094 449.296875 C 277.589844 449.070312 277.582031 448.84375 277.597656 448.613281 C 277.613281 448.382812 277.652344 448.160156 277.714844 447.9375 C 277.773438 447.714844 277.855469 447.503906 277.960938 447.300781 C 278.066406 447.09375 278.191406 446.902344 278.335938 446.722656 C 278.476562 446.542969 278.640625 446.382812 278.816406 446.234375 C 278.992188 446.089844 279.183594 445.960938 279.386719 445.855469 C 279.589844 445.746094 279.800781 445.660156 280.019531 445.597656 C 280.242188 445.53125 280.464844 445.492188 280.695312 445.472656 C 280.921875 445.453125 281.152344 445.457031 281.378906 445.484375 C 281.609375 445.515625 281.832031 445.5625 282.046875 445.636719 C 282.265625 445.710938 282.472656 445.804688 282.671875 445.921875 C 282.871094 446.039062 283.054688 446.171875 283.226562 446.324219 C 283.398438 446.480469 283.550781 446.648438 283.6875 446.832031 C 283.824219 447.015625 283.941406 447.214844 284.035156 447.421875 L 302.0625 481.292969 C 302.0625 481.371094 302.15625 481.441406 302.195312 481.535156 L 335.664062 544.433594 C 335.878906 544.828125 336.007812 545.246094 336.054688 545.691406 C 336.097656 546.132812 336.058594 546.570312 335.933594 546.996094 C 335.804688 547.425781 335.601562 547.8125 335.320312 548.160156 C 335.042969 548.507812 334.707031 548.789062 334.316406 549 C 333.808594 549.273438 333.265625 549.402344 332.691406 549.394531 Z M 332.691406 549.394531 " fill-opacity="1" fill-rule="nonzero"/><path fill="#000000" d="M 303.9375 547.839844 C 303.636719 547.84375 303.339844 547.808594 303.046875 547.730469 C 302.617188 547.613281 302.222656 547.417969 301.867188 547.140625 C 301.515625 546.867188 301.226562 546.535156 301.003906 546.148438 C 300.78125 545.757812 300.640625 545.34375 300.582031 544.898438 C 300.523438 544.453125 300.554688 544.015625 300.667969 543.585938 L 310.128906 508.835938 C 310.1875 508.613281 310.269531 508.398438 310.375 508.195312 C 310.480469 507.988281 310.605469 507.796875 310.75 507.617188 C 310.890625 507.433594 311.054688 507.269531 311.230469 507.125 C 311.410156 506.976562 311.597656 506.847656 311.804688 506.742188 C 312.007812 506.632812 312.21875 506.546875 312.441406 506.480469 C 312.664062 506.417969 312.890625 506.375 313.117188 506.355469 C 313.347656 506.339844 313.578125 506.34375 313.808594 506.371094 C 314.035156 506.402344 314.261719 506.453125 314.480469 506.527344 L 348.554688 518.117188 C 348.996094 518.25 349.394531 518.460938 349.746094 518.753906 C 350.097656 519.046875 350.378906 519.398438 350.589844 519.804688 C 350.800781 520.214844 350.921875 520.648438 350.957031 521.105469 C 350.992188 521.5625 350.933594 522.007812 350.785156 522.441406 C 350.636719 522.875 350.410156 523.265625 350.105469 523.605469 C 349.800781 523.949219 349.4375 524.21875 349.023438 524.410156 C 348.609375 524.605469 348.171875 524.710938 347.710938 524.730469 C 347.253906 524.746094 346.808594 524.671875 346.382812 524.507812 L 315.707031 514.078125 L 307.210938 545.355469 C 307.109375 545.710938 306.957031 546.042969 306.75 546.351562 C 306.542969 546.660156 306.292969 546.925781 305.996094 547.152344 C 305.699219 547.375 305.375 547.546875 305.023438 547.664062 C 304.671875 547.78125 304.3125 547.839844 303.9375 547.839844 Z M 303.9375 547.839844 " fill-opacity="1" fill-rule="nonzero"/><path fill="#000000" d="M 289.777344 521.226562 C 289.519531 521.226562 289.261719 521.195312 289.007812 521.136719 C 288.757812 521.078125 288.511719 520.988281 288.28125 520.875 C 288.046875 520.757812 287.832031 520.617188 287.628906 520.453125 C 287.429688 520.289062 287.25 520.101562 287.09375 519.894531 C 286.933594 519.691406 286.800781 519.46875 286.695312 519.230469 C 286.585938 518.996094 286.507812 518.75 286.457031 518.496094 C 286.40625 518.238281 286.386719 517.980469 286.394531 517.722656 C 286.402344 517.460938 286.441406 517.207031 286.507812 516.957031 L 295.96875 482.222656 C 296.03125 482 296.113281 481.785156 296.21875 481.582031 C 296.324219 481.375 296.449219 481.183594 296.59375 481.003906 C 296.738281 480.824219 296.902344 480.660156 297.078125 480.515625 C 297.257812 480.367188 297.449219 480.238281 297.652344 480.132812 C 297.859375 480.023438 298.070312 479.9375 298.292969 479.871094 C 298.515625 479.808594 298.738281 479.765625 298.96875 479.746094 C 299.199219 479.726562 299.429688 479.734375 299.660156 479.761719 C 299.886719 479.789062 300.113281 479.839844 300.332031 479.914062 L 318.261719 486.03125 C 318.390625 486.078125 318.519531 486.132812 318.640625 486.195312 C 318.988281 486.359375 319.296875 486.574219 319.570312 486.84375 C 319.84375 487.113281 320.0625 487.421875 320.230469 487.765625 C 320.398438 488.109375 320.503906 488.46875 320.550781 488.851562 C 320.597656 489.230469 320.578125 489.609375 320.492188 489.980469 C 320.410156 490.355469 320.265625 490.707031 320.066406 491.03125 C 319.863281 491.355469 319.613281 491.640625 319.3125 491.878906 C 319.015625 492.121094 318.6875 492.304688 318.324219 492.433594 C 317.964844 492.558594 317.589844 492.625 317.207031 492.625 C 316.777344 492.628906 316.363281 492.546875 315.964844 492.382812 L 301.519531 487.480469 L 293.035156 518.753906 C 292.933594 519.109375 292.78125 519.4375 292.574219 519.742188 C 292.367188 520.046875 292.113281 520.3125 291.820312 520.535156 C 291.527344 520.757812 291.207031 520.929688 290.855469 521.046875 C 290.507812 521.164062 290.148438 521.226562 289.777344 521.226562 Z M 289.777344 521.226562 " fill-opacity="1" fill-rule="nonzero"/><path fill="#000000" d="M 333.300781 498.070312 C 332.925781 498.070312 332.5625 498.011719 332.207031 497.894531 L 327.828125 496.410156 C 327.40625 496.265625 327.023438 496.042969 326.6875 495.746094 C 326.351562 495.453125 326.085938 495.101562 325.886719 494.699219 C 325.6875 494.300781 325.574219 493.875 325.546875 493.425781 C 325.515625 492.980469 325.574219 492.542969 325.71875 492.121094 C 325.863281 491.695312 326.082031 491.316406 326.378906 490.980469 C 326.671875 490.640625 327.023438 490.375 327.421875 490.175781 C 327.824219 489.976562 328.25 489.863281 328.695312 489.835938 C 329.144531 489.804688 329.578125 489.859375 330.003906 490.003906 L 334.382812 491.492188 C 334.761719 491.617188 335.109375 491.808594 335.421875 492.058594 C 335.734375 492.308594 335.992188 492.605469 336.199219 492.949219 C 336.40625 493.292969 336.550781 493.664062 336.625 494.054688 C 336.699219 494.449219 336.707031 494.84375 336.640625 495.238281 C 336.574219 495.636719 336.445312 496.007812 336.246094 496.355469 C 336.050781 496.707031 335.796875 497.011719 335.492188 497.269531 C 335.183594 497.527344 334.84375 497.726562 334.46875 497.863281 C 334.089844 498.003906 333.703125 498.070312 333.300781 498.070312 Z M 333.300781 498.070312 " fill-opacity="1" fill-rule="nonzero"/><path fill="#000000" d="M 277.457031 498.070312 C 277.195312 498.070312 276.9375 498.039062 276.6875 497.980469 C 276.433594 497.921875 276.191406 497.832031 275.957031 497.71875 C 275.722656 497.601562 275.507812 497.464844 275.308594 497.296875 C 275.105469 497.132812 274.925781 496.945312 274.769531 496.742188 C 274.609375 496.535156 274.476562 496.3125 274.371094 496.078125 C 274.265625 495.839844 274.183594 495.59375 274.132812 495.339844 C 274.085938 495.085938 274.0625 494.828125 274.070312 494.566406 C 274.082031 494.308594 274.117188 494.050781 274.1875 493.800781 L 283.644531 459.054688 C 283.761719 458.621094 283.960938 458.230469 284.234375 457.878906 C 284.511719 457.523438 284.84375 457.238281 285.230469 457.015625 C 285.621094 456.792969 286.039062 456.65625 286.480469 456.601562 C 286.925781 456.542969 287.363281 456.574219 287.796875 456.691406 C 288.226562 456.8125 288.621094 457.007812 288.976562 457.28125 C 289.328125 457.554688 289.617188 457.886719 289.839844 458.273438 C 290.0625 458.664062 290.203125 459.078125 290.261719 459.523438 C 290.316406 459.96875 290.289062 460.40625 290.171875 460.835938 L 289.941406 461.675781 L 280.738281 495.570312 C 280.644531 495.933594 280.492188 496.265625 280.28125 496.578125 C 280.074219 496.886719 279.824219 497.15625 279.527344 497.382812 C 279.226562 497.609375 278.902344 497.78125 278.546875 497.898438 C 278.191406 498.015625 277.828125 498.074219 277.457031 498.070312 Z M 277.457031 498.070312 " fill-opacity="1" fill-rule="nonzero"/><path fill="#000000" d="M 322.167969 327.050781 L 321.976562 326.917969 C 320.203125 325.628906 318.542969 324.210938 316.992188 322.660156 C 298.546875 304.234375 298.710938 269.015625 317.371094 238.902344 C 318.722656 236.710938 320.167969 234.578125 321.640625 232.539062 C 343.257812 202.816406 369.472656 191.632812 387.703125 187.496094 C 407.496094 183 422.0625 185.539062 422.671875 185.660156 L 424.292969 185.945312 L 425.0625 187.402344 C 425.347656 187.957031 432.183594 201.15625 433.980469 221.433594 C 435.628906 240.105469 433.128906 268.527344 411.78125 297.9375 C 410.753906 299.289062 409.6875 300.75 408.605469 302.097656 L 403.335938 297.871094 C 404.347656 296.601562 405.347656 295.289062 406.308594 293.964844 C 440.925781 246.292969 423.699219 200.886719 419.820312 192.078125 C 409.390625 191.078125 399.082031 191.792969 388.890625 194.226562 C 364.164062 199.925781 343.382812 214.179688 327.113281 236.589844 C 325.761719 238.496094 324.410156 240.496094 323.058594 242.550781 C 306.035156 269.988281 305.492188 301.679688 321.707031 317.917969 C 323.007812 319.214844 324.398438 320.402344 325.882812 321.484375 Z M 322.167969 327.050781 " fill-opacity="1" fill-rule="nonzero"/><path fill="#000000" d="M 411.253906 409.175781 C 399.03125 409.144531 387.089844 407.292969 375.433594 403.625 C 373.796875 403.125 372.054688 402.53125 370.027344 401.785156 L 372.363281 395.4375 C 374.285156 396.152344 375.90625 396.695312 377.445312 397.167969 C 433.765625 414.621094 471.246094 383.65625 478.328125 377.1875 C 478.21875 376.6875 478.085938 376.066406 477.910156 375.347656 C 477.027344 372.070312 475.984375 368.847656 474.777344 365.679688 C 473.570312 362.507812 472.203125 359.40625 470.683594 356.375 C 469.160156 353.339844 467.488281 350.394531 465.667969 347.53125 C 463.847656 344.667969 461.882812 341.90625 459.78125 339.242188 C 457.683594 336.578125 455.449219 334.027344 453.089844 331.589844 C 450.730469 329.152344 448.253906 326.839844 445.660156 324.652344 C 443.0625 322.464844 440.367188 320.414062 437.5625 318.503906 C 434.761719 316.589844 431.867188 314.824219 428.886719 313.203125 C 426.96875 312.140625 424.917969 311.09375 422.738281 310.054688 C 417.445312 307.535156 412 305.398438 406.402344 303.652344 C 405.957031 303.503906 405.511719 303.382812 405.050781 303.261719 C 373.011719 293.804688 341.152344 301.910156 328.964844 322.296875 L 328.734375 322.714844 C 328.222656 323.605469 327.722656 324.59375 327.195312 325.699219 C 326.636719 326.921875 326.15625 328.175781 325.746094 329.457031 L 319.300781 327.429688 C 319.796875 325.882812 320.382812 324.367188 321.058594 322.890625 C 321.519531 321.890625 321.964844 320.984375 322.410156 320.1875 L 322.855469 319.390625 C 336.367188 295.980469 371.730469 286.480469 406.875 296.832031 L 408.386719 297.277344 C 414.273438 299.085938 419.996094 301.308594 425.5625 303.9375 C 427.859375 305.015625 430.0625 306.140625 432.101562 307.285156 C 469.597656 327.929688 481.164062 360.636719 484.394531 373.742188 C 485.027344 376.292969 485.246094 377.792969 485.257812 377.875 L 485.488281 379.496094 L 484.367188 380.683594 C 483.933594 381.144531 473.625 391.84375 455.003906 400.058594 C 448.109375 403.082031 440.976562 405.363281 433.605469 406.898438 C 426.234375 408.433594 418.78125 409.195312 411.253906 409.175781 Z M 411.253906 409.175781 " fill-opacity="1" fill-rule="nonzero"/><path fill="#000000" d="M 327.410156 498.191406 L 325.882812 497.597656 C 322.261719 496.074219 318.785156 494.273438 315.453125 492.195312 C 304.15625 485.238281 294.445312 476.523438 286.320312 466.039062 C 285.507812 465.011719 284.710938 463.929688 283.914062 462.824219 C 281.820312 459.890625 279.859375 456.917969 278.199219 453.949219 L 277.753906 453.164062 L 277.753906 452.257812 L 281.128906 452.257812 L 284.050781 450.582031 C 285.65625 453.367188 287.453125 456.164062 289.453125 458.90625 C 290.183594 459.917969 290.925781 460.917969 291.699219 461.890625 C 299.308594 471.691406 308.398438 479.847656 318.964844 486.355469 C 321.496094 487.90625 324.101562 489.3125 326.789062 490.570312 L 326.992188 490.421875 C 332.039062 486.8125 336.691406 482.75 340.945312 478.230469 C 345.199219 473.710938 348.972656 468.824219 352.273438 463.566406 C 364.21875 444.773438 369.445312 423.039062 367.796875 398.800781 C 367.796875 397.9375 367.675781 397.097656 367.609375 396.234375 C 364.691406 363.042969 345.488281 335.941406 321.949219 331.792969 C 319.941406 331.429688 317.914062 331.25 315.871094 331.253906 L 315.871094 324.5 C 318.3125 324.496094 320.734375 324.714844 323.140625 325.148438 C 349.625 329.820312 371.164062 359.460938 374.335938 395.640625 C 374.417969 396.558594 374.484375 397.449219 374.539062 398.34375 C 376.285156 424.011719 370.714844 447.125 357.960938 467.160156 C 354.421875 472.800781 350.371094 478.042969 345.804688 482.890625 C 341.238281 487.734375 336.246094 492.09375 330.828125 495.960938 C 329.558594 496.839844 328.828125 497.3125 328.828125 497.3125 Z M 327.410156 498.191406 " fill-opacity="1" fill-rule="nonzero"/><path fill="#000000" d="M 230.59375 405.054688 C 221.660156 405.085938 212.855469 404.035156 204.179688 401.898438 C 195.503906 399.761719 187.214844 396.601562 179.316406 392.425781 C 161.332031 382.859375 151.832031 371.445312 151.441406 370.957031 L 150.386719 369.6875 L 150.753906 368.082031 C 150.886719 367.484375 154.15625 353.300781 165.777344 337.007812 C 176.464844 322 196.558594 302.316406 231.566406 293.777344 L 233.175781 300.328125 C 176.535156 314.230469 160.507812 358.851562 157.792969 367.972656 C 160.167969 370.378906 162.660156 372.664062 165.265625 374.824219 C 167.871094 376.984375 170.578125 379.007812 173.382812 380.898438 C 176.1875 382.789062 179.082031 384.535156 182.0625 386.140625 C 185.042969 387.742188 188.09375 389.195312 191.21875 390.496094 C 194.34375 391.792969 197.523438 392.9375 200.761719 393.917969 C 204 394.902344 207.277344 395.722656 210.597656 396.382812 C 213.917969 397.039062 217.261719 397.53125 220.628906 397.855469 C 223.996094 398.179688 227.375 398.339844 230.757812 398.328125 C 239.613281 398.304688 248.351562 397.277344 256.972656 395.25 C 259.671875 394.613281 262.523438 393.898438 265.363281 392.910156 C 298.371094 382.101562 319.085938 355.894531 313.53125 331.929688 C 313.316406 330.984375 313.046875 330.023438 312.695312 328.957031 C 312.34375 327.890625 311.898438 326.714844 311.34375 325.605469 L 317.503906 322.902344 C 318.101562 324.253906 318.613281 325.605469 319.058594 326.957031 C 319.503906 328.308594 319.789062 329.375 320.046875 330.496094 C 326.398438 357.90625 303.832031 387.535156 267.347656 399.394531 C 264.308594 400.382812 261.296875 401.21875 258.375 401.894531 C 249.238281 404.007812 239.976562 405.0625 230.59375 405.054688 Z M 230.59375 405.054688 " fill-opacity="1" fill-rule="nonzero"/><path fill="#000000" d="M 291.453125 334.265625 C 270.390625 334.265625 246.621094 321.511719 229.675781 299.046875 C 229.015625 298.167969 228.324219 297.289062 227.746094 296.34375 C 206.746094 266.621094 204.585938 238.253906 206.460938 219.570312 C 208.503906 199.304688 215.488281 186.199219 215.785156 185.660156 L 216.570312 184.199219 L 218.191406 183.929688 C 218.800781 183.824219 233.40625 181.457031 253.148438 186.199219 C 271.320312 190.550781 297.441406 202.046875 318.652344 232.039062 C 320.316406 234.375 321.816406 236.6875 323.152344 238.941406 L 317.328125 242.375 C 316.101562 240.292969 314.628906 238.117188 313.140625 235.929688 C 297.144531 213.328125 276.535156 198.832031 251.863281 192.832031 C 241.710938 190.296875 231.425781 189.480469 221 190.386719 C 216.949219 199.140625 199.21875 244.34375 233.257812 292.441406 L 235.066406 294.925781 C 257.09375 324.105469 291.128906 335.710938 312.558594 321.324219 C 312.804688 321.175781 312.925781 321.082031 313.058594 320.984375 L 313.34375 320.796875 C 314.65625 319.863281 315.898438 318.847656 317.074219 317.742188 L 321.679688 322.675781 C 320.265625 324.003906 318.765625 325.230469 317.179688 326.347656 L 316.910156 326.539062 C 316.679688 326.6875 316.464844 326.847656 316.234375 326.984375 C 312.566406 329.414062 308.617188 331.25 304.394531 332.492188 C 300.167969 333.734375 295.855469 334.324219 291.453125 334.265625 Z M 291.453125 334.265625 " fill-opacity="1" fill-rule="nonzero"/><path fill="#000000" d="M 317.328125 322.984375 C 308.789062 303.789062 314.289062 276.648438 332.410156 248.519531 C 351.933594 218.246094 388.160156 185.566406 421.589844 185.320312 L 421.589844 192.078125 C 395.496094 192.265625 360.351562 217.542969 338.03125 252.179688 C 321.152344 278.363281 315.84375 303.167969 323.4375 320.242188 Z M 317.328125 322.984375 " fill-opacity="1" fill-rule="nonzero"/><path fill="#000000" d="M 477.339844 379.832031 C 476.703125 377.921875 475.941406 376.0625 475.058594 374.253906 C 468.773438 361.230469 455.464844 348.085938 437.589844 337.238281 L 437.222656 337.007812 C 423.78125 328.929688 409.480469 322.871094 394.320312 318.835938 L 392.972656 318.472656 C 366.042969 311.582031 342.691406 313.324219 328.558594 323.253906 L 327.84375 323.78125 C 326.921875 324.457031 326.03125 325.132812 325.140625 325.902344 L 323.398438 323.917969 L 320.519531 321.039062 L 322.910156 323.429688 L 320.519531 321.039062 L 320.679688 320.890625 C 321.25 320.378906 321.84375 319.878906 322.449219 319.390625 L 323.800781 318.363281 C 339.664062 306.652344 365.796875 304.421875 395.578125 312.21875 L 398.511719 312.21875 L 398.511719 313.027344 C 413.519531 317.265625 427.699219 323.417969 441.046875 331.484375 L 441.410156 331.710938 C 460.207031 343.195312 474.3125 357.257812 481.125 371.351562 C 482.132812 373.433594 483.003906 375.570312 483.730469 377.765625 Z M 477.339844 379.832031 " fill-opacity="1" fill-rule="nonzero"/><path fill="#000000" d="M 318.679688 327.390625 C 285.226562 327.226562 248.917969 294.613281 229.339844 264.378906 C 211.152344 236.292969 205.585938 209.167969 214.097656 189.941406 L 220.273438 192.644531 C 212.707031 209.734375 218.070312 234.523438 235 260.664062 C 257.417969 295.261719 292.617188 320.457031 318.707031 320.59375 Z M 318.679688 327.390625 " fill-opacity="1" fill-rule="nonzero"/><path fill="#000000" d="M 328.761719 495.488281 L 324.167969 490.53125 C 343.3125 472.808594 352.230469 430.441406 345.355469 389.804688 C 340.164062 359.109375 327.371094 337.199219 310.222656 329.714844 L 312.925781 323.527344 C 332.191406 331.941406 346.433594 355.691406 352.003906 388.683594 C 358.027344 424.1875 353.300781 472.753906 328.761719 495.488281 Z M 328.761719 495.488281 " fill-opacity="1" fill-rule="nonzero"/><path fill="#000000" d="M 204.597656 387.859375 C 181.355469 387.859375 162.710938 381.414062 151.902344 369.253906 L 156.953125 364.757812 C 169.371094 378.726562 194.179688 384.101562 224.988281 379.523438 C 265.753906 373.457031 303.277344 351.855469 314.167969 328.1875 L 320.300781 331.011719 C 306.304688 361.378906 261.578125 380.929688 225.945312 386.222656 C 218.871094 387.300781 211.753906 387.84375 204.597656 387.859375 Z M 204.597656 387.859375 " fill-opacity="1" fill-rule="nonzero"/><path fill="#000000" d="M 385.269531 180.632812 L 380.132812 176.242188 L 380.257812 176.09375 C 381.308594 174.875 382.257812 173.582031 383.105469 172.21875 C 393.753906 155.035156 386.851562 127.945312 366.691406 107.804688 C 365.164062 106.289062 363.59375 104.832031 362.042969 103.496094 C 321.9375 68.882812 281.914062 80.796875 273.457031 83.90625 C 271.714844 92.765625 266.066406 134.429688 305.761719 168.679688 C 306.859375 169.625 307.980469 170.554688 309.113281 171.378906 L 304.953125 176.703125 C 303.738281 175.742188 302.519531 174.757812 301.34375 173.730469 C 254.363281 133.203125 267.144531 81.042969 267.28125 80.515625 L 267.6875 78.921875 L 269.199219 78.273438 C 269.699219 78.054688 318.953125 57.332031 366.488281 98.320312 C 368.164062 99.777344 369.851562 101.332031 371.5 102.96875 C 393.863281 125.296875 401.226562 155.898438 388.890625 175.730469 C 387.855469 177.398438 386.699219 178.972656 385.417969 180.457031 Z M 385.269531 180.632812 " fill-opacity="1" fill-rule="nonzero"/><path fill="#000000" d="M 279.929688 201.183594 L 274.660156 196.953125 C 282.9375 186.78125 292.75 178.410156 304.101562 171.839844 C 304.480469 171.609375 304.914062 171.378906 305.34375 171.136719 C 333.71875 154.925781 366.40625 156.046875 382.984375 173.675781 C 383.878906 174.636719 384.632812 175.527344 385.308594 176.378906 C 386.199219 177.527344 387.019531 178.726562 387.769531 179.972656 L 381.957031 183.429688 C 381.355469 182.402344 380.683594 181.421875 379.945312 180.484375 C 379.40625 179.78125 378.785156 179.054688 378.054688 178.257812 C 363.59375 162.882812 334.394531 162.34375 308.640625 177 C 308.261719 177.214844 307.910156 177.40625 307.5625 177.621094 C 296.90625 183.78125 287.695312 191.632812 279.929688 201.183594 Z M 279.929688 201.183594 " fill-opacity="1" fill-rule="nonzero"/><path fill="#000000" d="M 368.867188 200.519531 L 363.136719 196.925781 C 365.53125 192.902344 368.46875 189.328125 371.957031 186.203125 C 375.445312 183.082031 379.320312 180.546875 383.578125 178.609375 C 385.582031 177.746094 387.644531 177.066406 389.769531 176.566406 L 391.324219 183.132812 C 389.585938 183.53125 387.898438 184.078125 386.253906 184.769531 C 382.625 186.449219 379.324219 188.632812 376.359375 191.320312 C 373.394531 194.003906 370.894531 197.070312 368.867188 200.519531 Z M 368.867188 200.519531 " fill-opacity="1" fill-rule="nonzero"/><path fill="#000000" d="M 395.160156 318.933594 L 395.160156 315.570312 Z M 398.566406 315.570312 L 395.160156 315.570312 L 395.160156 312.175781 L 398.550781 312.175781 Z M 398.566406 315.570312 " fill-opacity="1" fill-rule="nonzero"/><path fill="#000000" d="M 433.167969 312.246094 L 427.765625 308.191406 C 438.453125 294.277344 450.15625 270.675781 445.332031 237.144531 C 444.953125 234.566406 444.480469 232.023438 443.898438 229.59375 L 450.464844 228.027344 C 451.085938 230.726562 451.613281 233.429688 452.019531 236.132812 C 457.222656 271.988281 444.628906 297.316406 433.167969 312.246094 Z M 433.167969 312.246094 " fill-opacity="1" fill-rule="nonzero"/><path fill="#000000" d="M 454.800781 232.457031 C 452.289062 232.457031 449.640625 232.347656 446.925781 232.121094 C 441.164062 231.640625 435.507812 230.601562 429.953125 229 L 431.84375 222.515625 C 436.964844 223.988281 442.183594 224.949219 447.492188 225.390625 C 450.195312 225.609375 452.734375 225.714844 455.195312 225.703125 C 507.609375 225.527344 530.457031 190.253906 534.917969 182.378906 C 530.59375 174.796875 507.890625 140.09375 456.425781 139.605469 L 456.425781 132.851562 C 512.1875 133.378906 536.566406 171.648438 540.886719 179.308594 C 541.457031 180.335938 541.726562 180.90625 541.726562 180.90625 L 542.441406 182.378906 L 541.710938 183.863281 C 541.46875 184.347656 517.214844 232.253906 455.152344 232.496094 Z M 454.800781 232.457031 " fill-opacity="1" fill-rule="nonzero"/><path fill="#000000" d="M 387.984375 190.96875 C 387.386719 188.300781 387.082031 185.597656 387.066406 182.863281 L 387.066406 182.511719 C 387.066406 181.945312 387.066406 181.402344 387.066406 180.835938 C 387.066406 180.269531 387.066406 180 387.066406 179.609375 C 387.203125 178.257812 387.375 177 387.605469 175.769531 L 394.242188 177.011719 C 394.050781 178.054688 393.902344 179.109375 393.808594 180.175781 C 393.792969 180.457031 393.792969 180.742188 393.808594 181.027344 L 393.808594 181.175781 C 393.808594 181.617188 393.808594 182.066406 393.808594 182.527344 L 393.808594 182.863281 C 393.816406 185.101562 394.070312 187.3125 394.566406 189.496094 Z M 387.984375 190.96875 " fill-opacity="1" fill-rule="nonzero"/><path fill="#000000" d="M 403.1875 181.945312 C 398.59375 181.957031 394.148438 181.15625 389.851562 179.539062 C 389.636719 179.496094 389.429688 179.4375 389.226562 179.363281 L 389 179.285156 C 387.363281 178.628906 385.78125 177.859375 384.253906 176.972656 L 387.605469 171.109375 C 388.84375 171.832031 390.128906 172.457031 391.457031 172.988281 L 391.699219 173.082031 L 392.066406 173.21875 C 413.429688 181.324219 440.289062 164.421875 453.316406 134.890625 C 453.667969 134.078125 454.03125 133.242188 454.371094 132.40625 C 474.058594 83.835938 450.03125 49.335938 444.425781 42.226562 C 435.507812 43.335938 394.429688 50.980469 374.539062 100.078125 C 373.648438 102.277344 372.878906 104.441406 372.242188 106.464844 L 365.796875 104.453125 C 366.488281 102.238281 367.324219 99.925781 368.285156 97.550781 C 391.835938 39.457031 445.128906 35.40625 445.667969 35.324219 L 447.316406 35.214844 L 448.410156 36.460938 C 448.761719 36.851562 483.933594 77.433594 460.570312 134.945312 C 460.222656 135.835938 459.828125 136.726562 459.449219 137.648438 C 447.613281 164.652344 424.671875 181.945312 403.1875 181.945312 Z M 403.1875 181.945312 " fill-opacity="1" fill-rule="nonzero"/><path fill="#000000" d="M 388.675781 176 L 382.039062 174.742188 C 385.105469 158.53125 375.511719 138.269531 355.703125 119.21875 C 329.449219 93.902344 294.089844 79.230469 271.617188 84.351562 L 270.117188 77.757812 C 299.210938 71.136719 337.3125 92.09375 360.394531 114.371094 C 381.878906 135.078125 392.1875 157.546875 388.675781 176 Z M 388.675781 176 " fill-opacity="1" fill-rule="nonzero"/><path fill="#000000" d="M 291.535156 209.085938 L 286.996094 204.085938 C 312.9375 180.539062 353.71875 160.722656 381.90625 172.839844 C 382.742188 173.203125 383.578125 173.59375 384.390625 174.015625 L 384.945312 174.015625 L 385.957031 175.015625 L 383.578125 177.378906 L 383.578125 180.78125 L 382.6875 180.78125 L 381.917969 180.363281 C 381.066406 179.890625 380.160156 179.457031 379.214844 179.011719 C 354.921875 168.636719 316.707031 186.28125 291.535156 209.085938 Z M 291.535156 209.085938 " fill-opacity="1" fill-rule="nonzero"/><path fill="#000000" d="M 388.121094 180.363281 L 386.527344 173.796875 C 408.929688 168.394531 434.128906 139.59375 446.425781 105.25 C 455.695312 79.339844 455.316406 56.953125 445.382812 43.820312 L 450.789062 39.769531 C 462.195312 54.722656 462.871094 79.394531 452.804688 107.535156 C 441.992188 137.726562 417.144531 173.40625 388.121094 180.363281 Z M 388.121094 180.363281 " fill-opacity="1" fill-rule="nonzero"/><path fill="#000000" d="M 385.175781 193.980469 L 379.148438 190.929688 C 381.261719 186.660156 383.964844 182.804688 387.253906 179.363281 C 387.5 179.09375 387.769531 178.824219 388.039062 178.554688 C 389.269531 177.34375 390.574219 176.222656 391.957031 175.191406 L 396.011719 180.59375 C 394.886719 181.421875 393.824219 182.324219 392.824219 183.296875 L 392.242188 183.890625 L 392.148438 184 C 389.3125 186.96875 386.988281 190.296875 385.175781 193.980469 Z M 385.175781 193.980469 " fill-opacity="1" fill-rule="nonzero"/><path fill="#000000" d="M 467.867188 212.960938 C 453.835938 212.992188 440.066406 211.097656 426.5625 207.273438 L 428.441406 200.789062 C 467.207031 212.003906 520.527344 205.964844 535.039062 179.351562 L 537.335938 180.605469 L 541.078125 182.363281 L 541.078125 182.472656 C 529.753906 203.207031 499.40625 212.960938 467.867188 212.960938 Z M 467.867188 212.960938 " fill-opacity="1" fill-rule="nonzero"/><path fill="#000000" d="M 395.144531 191.847656 C 392.484375 189.730469 390.0625 187.371094 387.875 184.769531 C 387.632812 184.496094 387.402344 184.214844 387.1875 183.929688 L 386.929688 183.6875 L 386.660156 183.132812 L 389.699219 181.660156 L 392.105469 179.308594 L 392.402344 179.703125 C 392.5625 179.921875 392.734375 180.132812 392.917969 180.335938 L 393.011719 180.445312 C 394.917969 182.738281 397.035156 184.820312 399.363281 186.6875 Z M 395.144531 191.847656 " fill-opacity="1" fill-rule="nonzero"/></svg>