  0
SECTION
  2
HEADER
  9
$ACADVER
  1
AC1024
  9
$ACADMAINTVER
 70
     6
  9
$DWGCODEPAGE
  3
ANSI_1252
  9
$INSBASE
 10
0.0
 20
0.0
 30
0.0
  9
$EXTMIN
 10
1.000000000000000E+20
 20
1.000000000000000E+20
 30
1.000000000000000E+20
  9
$EXTMAX
 10
-1.000000000000000E+20
 20
-1.000000000000000E+20
 30
-1.000000000000000E+20
  9
$LIMMIN
 10
0.0
 20
0.0
  9
$LIMMAX
 10
12.0
 20
9.0
  9
$ORTHOMODE
 70
     0
  9
$REGENMODE
 70
     1
  9
$FILLMODE
 70
     1
  9
$QTEXTMODE
 70
     0
  9
$MIRRTEXT
 70
     1
  9
$LTSCALE
 40
1.0
  9
$ATTMODE
 70
     1
  9
$TEXTSIZE
 40
0.2
  9
$TRACEWID
 40
0.05
  9
$TEXTSTYLE
  7
Standard
  9
$CLAYER
  8
0
  9
$CELTYPE
  6
ByLayer
  9
$CECOLOR
 62
   256
  9
$CELTSCALE
 40
1.0
  9
$DISPSILH
 70
     0
  9
$DIMSCALE
 40
1.0
  9
$DIMASZ
 40
0.18
  9
$DIMEXO
 40
0.0625
  9
$DIMDLI
 40
0.38
  9
$DIMRND
 40
0.0
  9
$DIMDLE
 40
0.0
  9
$DIMEXE
 40
0.18
  9
$DIMTP
 40
0.0
  9
$DIMTM
 40
0.0
  9
$DIMTXT
 40
0.18
  9
$DIMCEN
 40
0.09
  9
$DIMTSZ
 40
0.0
  9
$DIMTOL
 70
     0
  9
$DIMLIM
 70
     0
  9
$DIMTIH
 70
     1
  9
$DIMTOH
 70
     1
  9
$DIMSE1
 70
     0
  9
$DIMSE2
 70
     0
  9
$DIMTAD
 70
     0
  9
$DIMZIN
 70
     0
  9
$DIMBLK
  1

  9
$DIMASO
 70
     1
  9
$DIMSHO
 70
     1
  9
$DIMPOST
  1

  9
$DIMAPOST
  1

  9
$DIMALT
 70
     0
  9
$DIMALTD
 70
     2
  9
$DIMALTF
 40
25.4
  9
$DIMLFAC
 40
1.0
  9
$DIMTOFL
 70
     0
  9
$DIMTVP
 40
0.0
  9
$DIMTIX
 70
     0
  9
$DIMSOXD
 70
     0
  9
$DIMSAH
 70
     0
  9
$DIMBLK1
  1

  9
$DIMBLK2
  1

  9
$DIMSTYLE
  2
Standard
  9
$DIMCLRD
 70
     0
  9
$DIMCLRE
 70
     0
  9
$DIMCLRT
 70
     0
  9
$DIMTFAC
 40
1.0
  9
$DIMGAP
 40
0.09
  9
$DIMJUST
 70
     0
  9
$DIMSD1
 70
     0
  9
$DIMSD2
 70
     0
  9
$DIMTOLJ
 70
     1
  9
$DIMTZIN
 70
     0
  9
$DIMALTZ
 70
     0
  9
$DIMALTTZ
 70
     0
  9
$DIMUPT
 70
     0
  9
$DIMDEC
 70
     4
  9
$DIMTDEC
 70
     4
  9
$DIMALTU
 70
     2
  9
$DIMALTTD
 70
     2
  9
$DIMTXSTY
  7
Standard
  9
$DIMAUNIT
 70
     0
  9
$DIMADEC
 70
     0
  9
$DIMALTRND
 40
0.0
  9
$DIMAZIN
 70
     0
  9
$DIMDSEP
 70
    46
  9
$DIMATFIT
 70
     3
  9
$DIMFRAC
 70
     0
  9
$DIMLDRBLK
  1

  9
$DIMLUNIT
 70
     2
  9
$DIMLWD
 70
    -2
  9
$DIMLWE
 70
    -2
  9
$DIMTMOVE
 70
     0
  9
$DIMFXL
 40
1.0
  9
$DIMFXLON
 70
     0
  9
$DIMJOGANG
 40
0.7853981633974483
  9
$DIMTFILL
 70
     0
  9
$DIMTFILLCLR
 70
     0
  9
$DIMARCSYM
 70
     0
  9
$DIMLTYPE
  6

  9
$DIMLTEX1
  6

  9
$DIMLTEX2
  6

  9
$DIMTXTDIRECTION
 70
     0
  9
$LUNITS
 70
     2
  9
$LUPREC
 70
     4
  9
$SKETCHINC
 40
0.1
  9
$FILLETRAD
 40
0.5
  9
$AUNITS
 70
     0
  9
$AUPREC
 70
     0
  9
$MENU
  1
.
  9
$ELEVATION
 40
0.0
  9
$PELEVATION
 40
0.0
  9
$THICKNESS
 40
0.0
  9
$LIMCHECK
 70
     0
  9
$CHAMFERA
 40
0.5
  9
$CHAMFERB
 40
0.5
  9
$CHAMFERC
 40
1.0
  9
$CHAMFERD
 40
0.0
  9
$SKPOLY
 70
     0
  9
$TDCREATE
 40
2458316.391859965
  9
$TDUCREATE
 40
2458315.975193298
  9
$TDUPDATE
 40
2458316.391860093
  9
$TDUUPDATE
 40
2458315.975193426
  9
$TDINDWG
 40
0.0000000116
  9
$TDUSRTIMER
 40
0.0000000116
  9
$USRTIMER
 70
     1
  9
$ANGBASE
 50
0.0
  9
$ANGDIR
 70
     0
  9
$PDMODE
 70
     0
  9
$PDSIZE
 40
0.0
  9
$PLINEWID
 40
0.0
  9
$SPLFRAME
 70
     0
  9
$SPLINETYPE
 70
     6
  9
$SPLINESEGS
 70
     8
  9
$HANDSEED
  5
4C
  9
$SURFTAB1
 70
     6
  9
$SURFTAB2
 70
     6
  9
$SURFTYPE
 70
     6
  9
$SURFU
 70
     6
  9
$SURFV
 70
     6
  9
$UCSBASE
  2

  9
$UCSNAME
  2

  9
$UCSORG
 10
0.0
 20
0.0
 30
0.0
  9
$UCSXDIR
 10
1.0
 20
0.0
 30
0.0
  9
$UCSYDIR
 10
0.0
 20
1.0
 30
0.0
  9
$UCSORTHOREF
  2

  9
$UCSORTHOVIEW
 70
     0
  9
$UCSORGTOP
 10
0.0
 20
0.0
 30
0.0
  9
$UCSORGBOTTOM
 10
0.0
 20
0.0
 30
0.0
  9
$UCSORGLEFT
 10
0.0
 20
0.0
 30
0.0
  9
$UCSORGRIGHT
 10
0.0
 20
0.0
 30
0.0
  9
$UCSORGFRONT
 10
0.0
 20
0.0
 30
0.0
  9
$UCSORGBACK
 10
0.0
 20
0.0
 30
0.0
  9
$PUCSBASE
  2

  9
$PUCSNAME
  2

  9
$PUCSORG
 10
0.0
 20
0.0
 30
0.0
  9
$PUCSXDIR
 10
1.0
 20
0.0
 30
0.0
  9
$PUCSYDIR
 10
0.0
 20
1.0
 30
0.0
  9
$PUCSORTHOREF
  2

  9
$PUCSORTHOVIEW
 70
     0
  9
$PUCSORGTOP
 10
0.0
 20
0.0
 30
0.0
  9
$PUCSORGBOTTOM
 10
0.0
 20
0.0
 30
0.0
  9
$PUCSORGLEFT
 10
0.0
 20
0.0
 30
0.0
  9
$PUCSORGRIGHT
 10
0.0
 20
0.0
 30
0.0
  9
$PUCSORGFRONT
 10
0.0
 20
0.0
 30
0.0
  9
$PUCSORGBACK
 10
0.0
 20
0.0
 30
0.0
  9
$USERI1
 70
     0
  9
$USERI2
 70
     0
  9
$USERI3
 70
     0
  9
$USERI4
 70
     0
  9
$USERI5
 70
     0
  9
$USERR1
 40
0.0
  9
$USERR2
 40
0.0
  9
$USERR3
 40
0.0
  9
$USERR4
 40
0.0
  9
$USERR5
 40
0.0
  9
$WORLDVIEW
 70
     1
  9
$SHADEDGE
 70
     3
  9
$SHADEDIF
 70
    70
  9
$TILEMODE
 70
     1
  9
$MAXACTVP
 70
    64
  9
$PINSBASE
 10
0.0
 20
0.0
 30
0.0
  9
$PLIMCHECK
 70
     0
  9
$PEXTMIN
 10
1.000000000000000E+20
 20
1.000000000000000E+20
 30
1.000000000000000E+20
  9
$PEXTMAX
 10
-1.000000000000000E+20
 20
-1.000000000000000E+20
 30
-1.000000000000000E+20
  9
$PLIMMIN
 10
0.0
 20
0.0
  9
$PLIMMAX
 10
12.0
 20
9.0
  9
$UNITMODE
 70
     0
  9
$VISRETAIN
 70
     1
  9
$PLINEGEN
 70
     0
  9
$PSLTSCALE
 70
     1
  9
$TREEDEPTH
 70
  3020
  9
$CMLSTYLE
  2
Standard
  9
$CMLJUST
 70
     0
  9
$CMLSCALE
 40
1.0
  9
$PROXYGRAPHICS
 70
     1
  9
$MEASUREMENT
 70
     0
  9
$CELWEIGHT
370
    -1
  9
$ENDCAPS
280
     0
  9
$JOINSTYLE
280
     0
  9
$LWDISPLAY
290
     1
  9
$INSUNITS
 70
     1
  9
$HYPERLINKBASE
  1

  9
$STYLESHEET
  1

  9
$XEDIT
290
     1
  9
$CEPSNTYPE
380
     0
  9
$PSTYLEMODE
290
     1
  9
$FINGERPRINTGUID
  2
{1FC2CAF9-35C8-46EB-AF84-EA58FB849BEB}
  9
$VERSIONGUID
  2
{FAEB1C32-E019-11D5-929B-00C0DF256EC4}
  9
$EXTNAMES
290
     1
  9
$PSVPSCALE
 40
0.0
  9
$OLESTARTUP
290
     0
  9
$SORTENTS
280
   127
  9
$INDEXCTL
280
     0
  9
$HIDETEXT
280
     1
  9
$XCLIPFRAME
280
     2
  9
$HALOGAP
280
     0
  9
$OBSCOLOR
 70
   257
  9
$OBSLTYPE
280
     0
  9
$INTERSECTIONDISPLAY
280
     0
  9
$INTERSECTIONCOLOR
 70
   257
  9
$DIMASSOC
280
     2
  9
$PROJECTNAME
  1

  9
$CAMERADISPLAY
290
     0
  9
$LENSLENGTH
 40
50.0
  9
$CAMERAHEIGHT
 40
0.0
  9
$STEPSPERSEC
 40
2.0
  9
$STEPSIZE
 40
6.0
  9
$3DDWFPREC
 40
2.0
  9
$PSOLWIDTH
 40
0.25
  9
$PSOLHEIGHT
 40
4.0
  9
$LOFTANG1
 40
1.570796326794897
  9
$LOFTANG2
 40
1.570796326794897
  9
$LOFTMAG1
 40
0.0
  9
$LOFTMAG2
 40
0.0
  9
$LOFTPARAM
 70
     7
  9
$LOFTNORMALS
280
     1
  9
$LATITUDE
 40
37.795
  9
$LONGITUDE
 40
-122.394
  9
$NORTHDIRECTION
 40
0.0
  9
$TIMEZONE
 70
 -8000
  9
$LIGHTGLYPHDISPLAY
280
     1
  9
$TILEMODELIGHTSYNCH
280
     1
  9
$CMATERIAL
347
3C
  9
$SOLIDHIST
280
     1
  9
$SHOWHIST
280
     1
  9
$DWFFRAME
280
     2
  9
$DGNFRAME
280
     2
  9
$REALWORLDSCALE
290
     1
  9
$INTERFERECOLOR
 62
   256
  9
$CSHADOW
280
     0
  9
$SHADOWPLANELOCATION
 40
0.0
  0
ENDSEC
  0
SECTION
  2
CLASSES
  0
CLASS
  1
ACDBDICTIONARYWDFLT
  2
AcDbDictionaryWithDefault
  3
ObjectDBX Classes
 90
        0
 91
        4
280
     0
281
     0
  0
CLASS
  1
VISUALSTYLE
  2
AcDbVisualStyle
  3
ObjectDBX Classes
 90
     4095
 91
        4
280
     0
281
     0
  0
CLASS
  1
MATERIAL
  2
AcDbMaterial
  3
ObjectDBX Classes
 90
     1153
 91
        4
280
     0
281
     0
  0
CLASS
  1
SUN
  2
AcDbSun
  3
SCENEOE
 90
     1024
 91
        4
280
     0
281
     0
  0
ENDSEC
  0
SECTION
  2
TABLES
  0
TABLE
  2
VPORT
  5
8
330
0
100
AcDbSymbolTable
 70
     1
  0
VPORT
  5
29
330
8
100
AcDbSymbolTableRecord
100
AcDbViewportTableRecord
  2
*Active
 70
     0
 10
0.0
 20
0.0
 11
1.0
 21
1.0
 12
0.0
 22
0.0
 13
0.0
 23
0.0
 14
0.5
 24
0.5
 15
0.5
 25
0.5
 16
0.0
 26
0.0
 36
1.0
 17
6.0
 27
-6.0
 37
0.0
 40
12.0
 41
1.0
 42
50.0
 43
0.0
 44
0.0
 50
0.0
 51
0.0
 71
     0
 72
   100
 73
     1
 74
     3
 75
     0
 76
     0
 77
     0
 78
     0
281
     0
 65
     1
110
0.0
120
0.0
130
0.0
111
1.0
121
0.0
131
0.0
112
0.0
122
1.0
132
0.0
 79
     0
146
0.0
 60
     3
 61
     5
292
     1
282
     1
141
0.0
142
0.0
 63
   250
361
3F
  0
ENDTAB
  0
TABLE
  2
LTYPE
  5
5
330
0
100
AcDbSymbolTable
 70
     1
  0
LTYPE
  5
14
330
5
100
AcDbSymbolTableRecord
100
AcDbLinetypeTableRecord
  2
ByBlock
 70
     0
  3

 72
    65
 73
     0
 40
0.0
  0
LTYPE
  5
15
330
5
100
AcDbSymbolTableRecord
100
AcDbLinetypeTableRecord
  2
ByLayer
 70
     0
  3

 72
    65
 73
     0
 40
0.0
  0
LTYPE
  5
16
330
5
100
AcDbSymbolTableRecord
100
AcDbLinetypeTableRecord
  2
Continuous
 70
     0
  3
Solid line
 72
    65
 73
     0
 40
0.0
  0
ENDTAB
  0
TABLE
  2
LAYER
  5
2
330
0
100
AcDbSymbolTable
 70
     2
  0
LAYER
  5
10
330
2
100
AcDbSymbolTableRecord
100
AcDbLayerTableRecord
  2
0
 70
     0
 62
     7
  6
Continuous
370
    -3
390
F
347
3E
  0
LAYER
  5
40
330
2
100
AcDbSymbolTableRecord
100
AcDbLayerTableRecord
  2
Layer 1
 70
     0
 62
     7
  6
Continuous
370
    -3
390
F
347
3E
  0
ENDTAB
  0
TABLE
  2
STYLE
  5
3
330
0
100
AcDbSymbolTable
 70
     1
  0
STYLE
  5
11
330
3
100
AcDbSymbolTableRecord
100
AcDbTextStyleTableRecord
  2
Standard
 70
     0
 40
0.0
 41
1.0
 50
0.0
 71
     0
 42
0.2
  3
txt
  4

  0
ENDTAB
  0
TABLE
  2
VIEW
  5
6
330
0
100
AcDbSymbolTable
 70
     0
  0
ENDTAB
  0
TABLE
  2
UCS
  5
7
330
0
100
AcDbSymbolTable
 70
     0
  0
ENDTAB
  0
TABLE
  2
APPID
  5
9
330
0
100
AcDbSymbolTable
 70
     1
  0
APPID
  5
12
330
9
100
AcDbSymbolTableRecord
100
AcDbRegAppTableRecord
  2
ACAD
 70
     0
  0
ENDTAB
  0
TABLE
  2
DIMSTYLE
  5
A
330
0
100
AcDbSymbolTable
 70
     1
100
AcDbDimStyleTable
  0
DIMSTYLE
105
27
330
A
100
AcDbSymbolTableRecord
100
AcDbDimStyleTableRecord
  2
Standard
 70
     0
178
     0
340
11
  0
ENDTAB
  0
TABLE
  2
BLOCK_RECORD
  5
1
330
0
100
AcDbSymbolTable
 70
     1
  0
BLOCK_RECORD
  5
1F
330
1
100
AcDbSymbolTableRecord
100
AcDbBlockTableRecord
  2
*Model_Space
340
22
 70
     0
280
     1
281
     0
  0
BLOCK_RECORD
  5
1B
330
1
100
AcDbSymbolTableRecord
100
AcDbBlockTableRecord
  2
*Paper_Space
340
1E
 70
     0
280
     1
281
     0
  0
BLOCK_RECORD
  5
23
330
1
100
AcDbSymbolTableRecord
100
AcDbBlockTableRecord
  2
*Paper_Space0
340
26
 70
     0
280
     1
281
     0
  0
ENDTAB
  0
ENDSEC
  0
SECTION
  2
BLOCKS
  0
BLOCK
  5
20
330
1F
100
AcDbEntity
  8
0
100
AcDbBlockBegin
  2
*Model_Space
 70
     0
 10
0.0
 20
0.0
 30
0.0
  3
*Model_Space
  1

  0
ENDBLK
  5
21
330
1F
100
AcDbEntity
  8
0
100
AcDbBlockEnd
  0
BLOCK
  5
1C
330
1B
100
AcDbEntity
 67
     1
  8
0
100
AcDbBlockBegin
  2
*Paper_Space
 70
     0
 10
0.0
 20
0.0
 30
0.0
  3
*Paper_Space
  1

  0
ENDBLK
  5
1D
330
1B
100
AcDbEntity
 67
     1
  8
0
100
AcDbBlockEnd
  0
BLOCK
  5
24
330
23
100
AcDbEntity
  8
0
100
AcDbBlockBegin
  2
*Paper_Space0
 70
     0
 10
0.0
 20
0.0
 30
0.0
  3
*Paper_Space0
  1

  0
ENDBLK
  5
25
330
23
100
AcDbEntity
  8
0
100
AcDbBlockEnd
  0
ENDSEC
  0
SECTION
  2
ENTITIES
  0
SPLINE
  5
41
330
1F
100
AcDbEntity
  8
Layer 1
370
     0
100
AcDbSpline
210
0.0
220
0.0
230
1.0
 70
    11
 71
     3
 72
   212
 73
   208
 74
     0
 42
0.0000000001
 43
0.0000000001
 12
1.0
 22
0.0
 32
0.0
 13
1.0
 23
0.0
 33
0.0
 40
0.0
 40
0.0
 40
0.0
 40
0.0
 40
1.0
 40
1.0
 40
1.0
 40
2.0
 40
2.0
 40
2.0
 40
3.0
 40
3.0
 40
3.0
 40
4.0
 40
4.0
 40
4.0
 40
5.0
 40
5.0
 40
5.0
 40
6.0
 40
6.0
 40
6.0
 40
7.0
 40
7.0
 40
7.0
 40
8.0
 40
8.0
 40
8.0
 40
9.0
 40
9.0
 40
9.0
 40
10.0
 40
10.0
 40
10.0
 40
11.0
 40
11.0
 40
11.0
 40
12.0
 40
12.0
 40
12.0
 40
13.0
 40
13.0
 40
13.0
 40
14.0
 40
14.0
 40
14.0
 40
15.0
 40
15.0
 40
15.0
 40
16.0
 40
16.0
 40
16.0
 40
17.0
 40
17.0
 40
17.0
 40
18.0
 40
18.0
 40
18.0
 40
19.0
 40
19.0
 40
19.0
 40
20.0
 40
20.0
 40
20.0
 40
21.0
 40
21.0
 40
21.0
 40
22.0
 40
22.0
 40
22.0
 40
23.0
 40
23.0
 40
23.0
 40
24.0
 40
24.0
 40
24.0
 40
25.0
 40
25.0
 40
25.0
 40
26.0
 40
26.0
 40
26.0
 40
27.0
 40
27.0
 40
27.0
 40
28.0
 40
28.0
 40
28.0
 40
29.0
 40
29.0
 40
29.0
 40
30.0
 40
30.0
 40
30.0
 40
31.0
 40
31.0
 40
31.0
 40
32.0
 40
32.0
 40
32.0
 40
33.0
 40
33.0
 40
33.0
 40
34.0
 40
34.0
 40
34.0
 40
35.0
 40
35.0
 40
35.0
 40
36.0
 40
36.0
 40
36.0
 40
37.0
 40
37.0
 40
37.0
 40
38.0
 40
38.0
 40
38.0
 40
39.0
 40
39.0
 40
39.0
 40
40.0
 40
40.0
 40
40.0
 40
41.0
 40
41.0
 40
41.0
 40
42.0
 40
42.0
 40
42.0
 40
43.0
 40
43.0
 40
43.0
 40
44.0
 40
44.0
 40
44.0
 40
45.0
 40
45.0
 40
45.0
 40
46.0
 40
46.0
 40
46.0
 40
47.0
 40
47.0
 40
47.0
 40
48.0
 40
48.0
 40
48.0
 40
49.0
 40
49.0
 40
49.0
 40
50.0
 40
50.0
 40
50.0
 40
51.0
 40
51.0
 40
51.0
 40
52.0
 40
52.0
 40
52.0
 40
53.0
 40
53.0
 40
53.0
 40
54.0
 40
54.0
 40
54.0
 40
55.0
 40
55.0
 40
55.0
 40
56.0
 40
56.0
 40
56.0
 40
57.0
 40
57.0
 40
57.0
 40
58.0
 40
58.0
 40
58.0
 40
59.0
 40
59.0
 40
59.0
 40
60.0
 40
60.0
 40
60.0
 40
61.0
 40
61.0
 40
61.0
 40
62.0
 40
62.0
 40
62.0
 40
63.0
 40
63.0
 40
63.0
 40
64.0
 40
64.0
 40
64.0
 40
65.0
 40
65.0
 40
65.0
 40
66.0
 40
66.0
 40
66.0
 40
67.0
 40
67.0
 40
67.0
 40
68.0
 40
68.0
 40
68.0
 40
69.0
 40
69.0
 40
69.0
 40
69.0
 10
10.54861197214056
 20
-6.986812717793176
 30
0.0
 10
10.26564812955318
 20
-6.816729826131525
 30
0.0
 10
9.978861898649837
 20
-6.719021279966253
 30
0.0
 10
9.71021862384704
 20
-6.689913223932914
 30
0.0
 10
10.88275632238108
 20
-6.381031111709009
 30
0.0
 10
11.75
 20
-5.311702918357216
 30
0.0
 10
11.75
 20
-4.043520160870685
 30
0.0
 10
11.75
 20
-2.534660823480003
 30
0.0
 10
10.52247112034719
 20
-1.307118555426794
 30
0.0
 10
9.013625171356933
 20
-1.307118555426794
 30
0.0
 10
8.238620878337214
 20
-1.307118555426794
 30
0.0
 10
7.537895430771792
 20
-1.631030820656785
 30
0.0
 10
7.039547370198053
 20
-2.150515818372065
 30
0.0
 10
6.827036637648739
 20
-2.066368048268335
 30
0.0
 10
6.555926550071085
 20
-2.0924904910111
 30
0.0
 10
6.40885162450776
 20
-2.135124178554987
 30
0.0
 10
5.866206367639683
 20
-2.365886647958177
 30
0.0
 10
4.167780668896108
 20
-3.145305766011789
 30
0.0
 10
4.022409417284431
 20
-3.654326055259439
 30
0.0
 10
3.999746202496655
 20
-3.659674721221791
 30
0.0
 10
3.979844345292627
 20
-3.726156496989309
 30
0.0
 10
3.964372375073177
 20
-3.801325671070547
 30
0.0
 10
3.9364993989772
 20
-3.704857225492914
 30
0.0
 10
3.895390315529716
 20
-3.627395287842218
 30
0.0
 10
3.846336889990956
 20
-3.57992671420152
 30
0.0
 10
3.89254862754347
 20
-3.519670544622916
 30
0.0
 10
3.922575462554707
 20
-3.424172758074847
 30
0.0
 10
3.922920213865129
 20
-3.316556795608878
 30
0.0
 10
3.923363704628602
 20
-3.140765424724021
 30
0.0
 10
3.844254993727771
 20
-2.997002454711087
 30
0.0
 10
3.744248663342912
 20
-2.986157850382066
 30
0.0
 10
3.736548659559149
 20
-2.75916756279331
 30
0.0
 10
3.797239952150953
 20
-2.476605372218172
 30
0.0
 10
3.966208259478865
 20
-2.359530504865259
 30
0.0
 10
4.019942604509575
 20
-2.32237769373776
 30
0.0
 10
4.080605446750547
 20
-2.329774784962208
 30
0.0
 10
4.142426385626651
 20
-2.354155062102083
 30
0.0
 10
4.183334643068191
 20
-2.370683042403748
 30
0.0
 10
4.214074410400952
 20
-2.330410733981504
 30
0.0
 10
4.205981122355398
 20
-2.298459316411784
 30
0.0
 10
4.304553220346937
 20
-2.319030593636095
 30
0.0
 10
4.340949586851366
 20
-2.401536611139995
 30
0.0
 10
4.3518142737811
 20
-2.482710482803466
 30
0.0
 10
4.362906563517754
 20
-2.568048146993331
 30
0.0
 10
4.435940287734158
 20
-2.560075354551373
 30
0.0
 10
4.456852969168873
 20
-2.501956308387485
 30
0.0
 10
4.469217156944018
 20
-2.552798758930547
 30
0.0
 10
4.450265876168891
 20
-2.608206654012065
 30
0.0
 10
4.39040633795235
 20
-2.640044270178173
 30
0.0
 10
4.336216787307775
 20
-2.669043545458332
 30
0.0
 10
4.278552946757777
 20
-2.663500747689997
 30
0.0
 10
4.2356832886568
 20
-2.616239694255834
 30
0.0
 10
4.186802238773453
 20
-2.561461053993324
 30
0.0
 10
4.195698830843311
 20
-2.505477457694421
 30
0.0
 10
4.232677592765691
 20
-2.485662625093053
 30
0.0
 10
4.246661776989994
 20
-2.510330752841658
 30
0.0
 10
4.2767053475018
 20
-2.5287063323993
 30
0.0
 10
4.295536132673179
 20
-2.511776700085546
 30
0.0
 10
4.316917408122082
 20
-2.492303271694583
 30
0.0
 10
4.310678413532766
 20
-2.468097043759978
 30
0.0
 10
4.283981943122626
 20
-2.443080817600831
 30
0.0
 10
4.261683562245834
 20
-2.421987392760684
 30
0.0
 10
4.228634295842918
 20
-2.436781575209579
 30
0.0
 10
4.212802512362487
 20
-2.453075258504163
 30
0.0
 10
4.170736158285814
 20
-2.494097317349012
 30
0.0
 10
4.147781745789163
 20
-2.568018023092362
 30
0.0
 10
4.209140784851368
 20
-2.641567200724441
 30
0.0
 10
4.250972841920833
 20
-2.692182048460533
 30
0.0
 10
4.334203506596648
 20
-2.725468958970673
 30
0.0
 10
4.413357403348881
 20
-2.670061063889155
 30
0.0
 10
4.477618378199016
 20
-2.625077712074017
 30
0.0
 10
4.500646426897902
 20
-2.553836359961931
 30
0.0
 10
4.482618945750826
 20
-2.482543127798332
 30
0.0
 10
4.440097386060415
 20
-2.361036699910958
 30
0.0
 10
4.349504774711098
 20
-2.280605884469979
 30
0.0
 10
4.204709224316805
 20
-2.262116503508878
 30
0.0
 10
4.105909523518473
 20
-2.249524712926788
 30
0.0
 10
3.992538222427912
 20
-2.303319305759285
 30
0.0
 10
3.932102982993885
 20
-2.347114437038474
 30
0.0
 10
3.763753889184853
 20
-2.468438447970281
 30
0.0
 10
3.705541124218194
 20
-2.764372303451232
 30
0.0
 10
3.717307854625258
 20
-2.986529378493313
 30
0.0
 10
3.715927175833333
 20
-2.986713468998889
 30
0.0
 10
3.714534782191095
 20
-2.986830617502341
 30
0.0
 10
3.713162471149442
 20
-2.987064914509574
 30
0.0
 10
3.684824248139446
 20
-2.832678248774148
 30
0.0
 10
3.622387442844582
 20
-2.68504603104389
 30
0.0
 10
3.515405755848052
 20
-2.607945580204007
 30
0.0
 10
3.454970516413873
 20
-2.564152122474979
 30
0.0
 10
3.341599215323337
 20
-2.510357529642483
 30
0.0
 10
3.24279951452498
 20
-2.522949320224698
 30
0.0
 10
3.098003964130688
 20
-2.541438701185673
 30
0.0
 10
3.00741135278137
 20
-2.621869516626652
 30
0.0
 10
2.964889793090959
 20
-2.743375944514153
 30
0.0
 10
2.946862311943884
 20
-2.814669176677777
 30
0.0
 10
2.969890360642769
 20
-2.885908855239702
 30
0.0
 10
3.034151335492905
 20
-2.930893880604849
 30
0.0
 10
3.113305232245137
 20
-2.986301775686368
 30
0.0
 10
3.196535896920952
 20
-2.953013191626092
 30
0.0
 10
3.238367953990392
 20
-2.902396670339991
 30
0.0
 10
3.299726993052622
 20
-2.828849166258048
 30
0.0
 10
3.276772580555972
 20
-2.754930134064706
 30
0.0
 10
3.234706226479299
 20
-2.713908075219857
 30
0.0
 10
3.218874442998892
 20
-2.697614391925274
 30
0.0
 10
3.185825176595952
 20
-2.682820209476378
 30
0.0
 10
3.16352679571916
 20
-2.703913634316526
 30
0.0
 10
3.136830325309019
 20
-2.728929860475697
 30
0.0
 10
3.130591330719704
 20
-2.753136088410277
 30
0.0
 10
3.151972606168606
 20
-2.772609516801241
 30
0.0
 10
3.170803391339986
 20
-2.789539149115121
 30
0.0
 10
3.200846961851791
 20
-2.771163569557352
 30
0.0
 10
3.214831146076246
 20
-2.746493768258738
 30
0.0
 10
3.251809907998449
 20
-2.76631027441014
 30
0.0
 10
3.260706500068459
 20
-2.822293870709018
 30
0.0
 10
3.211825450184985
 20
-2.877072510971528
 30
0.0
 10
3.168955792084009
 20
-2.924333564405818
 30
0.0
 10
3.11129195153401
 20
-2.929876362174026
 30
0.0
 10
3.057102400889435
 20
-2.900877086893868
 30
0.0
 10
2.99724286267292
 20
-2.869039470727633
 30
0.0
 10
2.978291581897767
 20
-2.813631575646241
 30
0.0
 10
2.990655769672912
 20
-2.762789125103331
 30
0.0
 10
3.011568451107627
 20
-2.820908171267067
 30
0.0
 10
3.084602175324006
 20
-2.828880963709025
 30
0.0
 10
3.095694465060685
 20
-2.74354329951916
 30
0.0
 10
3.106559151990394
 20
-2.662369427855689
 30
0.0
 10
3.142955518494849
 20
-2.579861736801806
 30
0.0
 10
3.241527616486387
 20
-2.559292133127478
 30
0.0
 10
3.233434328440681
 20
-2.591243550697224
 30
0.0
 10
3.264174095773594
 20
-2.631515859119443
 30
0.0
 10
3.305082353215135
 20
-2.614987878817778
 30
0.0
 10
3.366903292091239
 20
-2.590605928127893
 30
0.0
 10
3.42756613433221
 20
-2.583210510453455
 30
0.0
 10
3.481300479362896
 20
-2.620361648030818
 30
0.0
 10
3.590717181683456
 20
-2.696175138881649
 30
0.0
 10
3.654678591074571
 20
-2.841399118088879
 30
0.0
 10
3.684121357118177
 20
-2.995974894979857
 30
0.0
 10
3.601693996466666
 20
-3.032796343197358
 30
0.0
 10
3.540821960469303
 20
-3.1619810187179
 30
0.0
 10
3.540433696857487
 20
-3.315686549582501
 30
0.0
 10
3.540082251346803
 20
-3.425300730809012
 30
0.0
 10
3.570765117978049
 20
-3.52254403006014
 30
0.0
 10
3.618165076066513
 20
-3.582808567389015
 30
0.0
 10
3.601600277663743
 20
-3.599304750239702
 30
0.0
 10
3.585937522738454
 20
-3.619181504192915
 30
0.0
 10
3.571402740547354
 20
-3.64209909858846
 30
0.0
 10
3.568785308267909
 20
-3.639791273068315
 30
0.0
 10
3.566136078537486
 20
-3.638049107465551
 30
0.0
 10
3.563428274555412
 20
-3.637396422945686
 30
0.0
 10
3.420366522013738
 20
-3.127679936876929
 30
0.0
 10
1.725522220378884
 20
-2.340522323388313
 30
0.0
 10
1.183686961735399
 20
-2.107503908516795
 30
0.0
 10
0.9284237195887373
 20
-2.032046883826802
 30
0.0
 10
0.2978367546518004
 20
-2.004948761404446
 30
0.0
 10
0.25
 20
-2.523273988934433
 30
0.0
 10
0.253580560333603
 20
-2.676557785186383
 30
0.0
 10
0.3634733876436055
 20
-2.719942896702908
 30
0.0
 10
0.4046092478920653
 20
-2.794074469752634
 30
0.0
 10
0.5065351401852543
 20
-2.915580897640135
 30
0.0
 10
0.138025276426788
 20
-3.22613153926472
 30
0.0
 10
0.48445766791527
 20
-3.454296658989026
 30
0.0
 10
0.6482044990845629
 20
-3.617059442728456
 30
0.0
 10
0.4131644357516456
 20
-3.790907822004429
 30
0.0
 10
0.7051721428134543
 20
-3.932001479686227
 30
0.0
 10
0.8649827842634497
 20
-4.231058179561943
 30
0.0
 10
1.048484200232199
 20
-4.195933711096106
 30
0.0
 10
1.202752043914011
 20
-4.217194490941235
 30
0.0
 10
1.202752043914011
 20
-4.217194490941235
 30
0.0
 10
1.4984549494879
 20
-4.268733138305404
 30
0.0
 10
1.606499340766782
 20
-4.220313988235956
 30
0.0
 10
1.493722149944309
 20
-4.29565721152249
 30
0.0
 10
0.8819726643790141
 20
-4.540457418751657
 30
0.0
 10
1.026989123379988
 20
-5.081027473556787
 30
0.0
 10
1.062695987263598
 20
-5.371415184169286
 30
0.0
 10
1.216615732534718
 20
-5.219517087359564
 30
0.0
 10
1.314491633704999
 20
-5.590335613413193
 30
0.0
 10
1.371693574440971
 20
-5.884478770339708
 30
0.0
 10
1.573684371370973
 20
-5.575541430964146
 30
0.0
 10
1.75348389462748
 20
-5.930467925735406
 30
0.0
 10
1.822936221735138
 20
-6.152855950684422
 30
0.0
 10
2.401984539308058
 20
-6.087105516289031
 30
0.0
 10
2.427054319068879
 20
-6.087105516289031
 30
0.0
 10
2.778951688248172
 20
-6.063799658281646
 30
0.0
 10
3.295924687337219
 20
-5.192070866526643
 30
0.0
 10
3.533622348150832
 20
-4.488440136073046
 30
0.0
 10
3.561609125650143
 20
-4.552401545464161
 30
0.0
 10
3.596460805457759
 20
-4.602713480640962
 30
0.0
 10
3.635772496150821
 20
-4.634213039696937
 30
0.0
 10
3.562795672636109
 20
-4.907498742340547
 30
0.0
 10
3.331785517825538
 20
-5.880224606110535
 30
0.0
 10
3.741493999959301
 20
-5.878929278371388
 30
0.0
 10
4.168523725118726
 20
-5.877935189641094
 30
0.0
 10
3.914492215809433
 20
-5.075499737739013
 30
0.0
 10
3.839938908146804
 20
-4.623796864180829
 30
0.0
 10
3.907172107887213
 20
-4.562083032507896
 30
0.0
 10
3.960350834301102
 20
-4.444695211295412
 30
0.0
 10
3.986314289789031
 20
-4.299181707929443
 30
0.0
 10
4.121356390487209
 20
-4.811346597722503
 30
0.0
 10
4.45047004927513
 20
-5.48691356737456
 30
0.0
 10
4.768608566830001
 20
-5.850791881367361
 30
0.0
 10
5.197415602143337
 20
-7.633723489925538
 30
0.0
 10
6.156333004444402
 20
-9.298658105052633
 30
0.0
 10
7.739611765493464
 20
-10.24717606733818
 30
0.0
 10
9.364896632817363
 20
-11.22089099918832
 30
0.0
 10
10.77429354358941
 20
-10.43911217556292
 30
0.0
 10
11.1947261344486
 20
-9.433733676751924
 30
0.0
 10
11.47772344803692
 20
-8.757000242714588
 30
0.0
 10
11.44150113073773
 20
-7.523513524880829
 30
0.0
 10
10.54861197214056
 20
-6.986812717793176
 30
0.0
  0
SPLINE
  5
42
330
1F
100
AcDbEntity
  8
Layer 1
370
     0
100
AcDbSpline
210
0.0
220
0.0
230
1.0
 70
    11
 71
     3
 72
   119
 73
   115
 74
     0
 42
0.0000000001
 43
0.0000000001
 12
1.0
 22
0.0
 32
0.0
 13
1.0
 23
0.0
 33
0.0
 40
0.0
 40
0.0
 40
0.0
 40
0.0
 40
1.0
 40
1.0
 40
1.0
 40
2.0
 40
2.0
 40
2.0
 40
3.0
 40
3.0
 40
3.0
 40
4.0
 40
4.0
 40
4.0
 40
5.0
 40
5.0
 40
5.0
 40
6.0
 40
6.0
 40
6.0
 40
7.0
 40
7.0
 40
7.0
 40
8.0
 40
8.0
 40
8.0
 40
9.0
 40
9.0
 40
9.0
 40
10.0
 40
10.0
 40
10.0
 40
11.0
 40
11.0
 40
11.0
 40
12.0
 40
12.0
 40
12.0
 40
13.0
 40
13.0
 40
13.0
 40
14.0
 40
14.0
 40
14.0
 40
15.0
 40
15.0
 40
15.0
 40
16.0
 40
16.0
 40
16.0
 40
17.0
 40
17.0
 40
17.0
 40
18.0
 40
18.0
 40
18.0
 40
19.0
 40
19.0
 40
19.0
 40
20.0
 40
20.0
 40
20.0
 40
21.0
 40
21.0
 40
21.0
 40
22.0
 40
22.0
 40
22.0
 40
23.0
 40
23.0
 40
23.0
 40
24.0
 40
24.0
 40
24.0
 40
25.0
 40
25.0
 40
25.0
 40
26.0
 40
26.0
 40
26.0
 40
27.0
 40
27.0
 40
27.0
 40
28.0
 40
28.0
 40
28.0
 40
29.0
 40
29.0
 40
29.0
 40
30.0
 40
30.0
 40
30.0
 40
31.0
 40
31.0
 40
31.0
 40
32.0
 40
32.0
 40
32.0
 40
33.0
 40
33.0
 40
33.0
 40
34.0
 40
34.0
 40
34.0
 40
35.0
 40
35.0
 40
35.0
 40
36.0
 40
36.0
 40
36.0
 40
37.0
 40
37.0
 40
37.0
 40
38.0
 40
38.0
 40
38.0
 40
38.0
 10
2.422669617935829
 20
-5.686879368743044
 30
0.0
 10
2.402212142114978
 20
-5.686879368743044
 30
0.0
 10
1.92774062011583
 20
-5.740673961575541
 30
0.0
 10
1.870893471990535
 20
-5.558497997246932
 30
0.0
 10
1.723560819719447
 20
-5.267648386820256
 30
0.0
 10
1.55808019069736
 20
-5.521003781909005
 30
0.0
 10
1.511281037077222
 20
-5.279892078991805
 30
0.0
 10
1.431205014246946
 20
-4.976102579572498
 30
0.0
 10
1.304898844813882
 20
-5.100440654145814
 30
0.0
 10
1.275665272526668
 20
-4.862622497728605
 30
0.0
 10
1.156990491325132
 20
-4.419700741286937
 30
0.0
 10
1.658037988130976
 20
-4.219269693004309
 30
0.0
 10
1.75036439733276
 20
-4.15750900192999
 30
0.0
 10
1.661853682246652
 20
-4.197259162736247
 30
0.0
 10
1.419650824696368
 20
-4.15496520585278
 30
0.0
 10
1.419650824696368
 20
-4.15496520585278
 30
0.0
 10
1.293344655263329
 20
-4.137520120123327
 30
0.0
 10
1.142892505697344
 20
-4.166405594
 30
0.0
 10
1.012087833727769
 20
-3.921431337565537
 30
0.0
 10
0.7728839778683323
 20
-3.805702004453451
 30
0.0
 10
0.9655162829144248
 20
-3.663276200931098
 30
0.0
 10
0.831123519635816
 20
-3.5299879806861
 30
0.0
 10
0.5473229020230469
 20
-3.343018969011938
 30
0.0
 10
0.8492714963866648
 20
-3.088739774295138
 30
0.0
 10
0.7658349850544255
 20
-2.989130075272215
 30
0.0
 10
0.7322100174340246
 20
-2.928467233031243
 30
0.0
 10
0.6419655044952731
 20
-2.892813922749156
 30
0.0
 10
0.6391874114109567
 20
-2.767264197939009
 30
0.0
 10
0.6782480695963689
 20
-2.342597525451386
 30
0.0
 10
1.194893052875411
 20
-2.364788799124856
 30
0.0
 10
1.404046644022755
 20
-2.426723539404444
 30
0.0
 10
1.618642619935271
 20
-2.518993047904587
 30
0.0
 10
2.063304868429845
 20
-2.726901517814162
 30
0.0
 10
2.474204918199701
 20
-2.959662205977919
 30
0.0
 10
2.239849336837627
 20
-2.937715270611938
 30
0.0
 10
2.001965911968328
 20
-2.99312316569333
 30
0.0
 10
1.851590745704849
 20
-3.169388151242629
 30
0.0
 10
1.708801781821522
 20
-3.337934723957637
 30
0.0
 10
1.645553304752083
 20
-3.530031492987341
 30
0.0
 10
1.810813025167338
 20
-3.678048627229423
 30
0.0
 10
1.904816331520124
 20
-3.761734497519026
 30
0.0
 10
2.07528246614331
 20
-3.718118436095412
 30
0.0
 10
2.089177952214994
 20
-3.612351746435555
 30
0.0
 10
2.101886891300688
 20
-3.51125091431734
 30
0.0
 10
1.963624880304703
 20
-3.466105228147348
 30
0.0
 10
1.933710173146942
 20
-3.525723775156646
 30
0.0
 10
1.905786990549586
 20
-3.580786918927767
 30
0.0
 10
1.853649212267202
 20
-3.586764839709152
 30
0.0
 10
1.813828762358753
 20
-3.541486943084995
 30
0.0
 10
1.752986850262358
 20
-3.472819510951113
 30
0.0
 10
1.823649154056789
 20
-3.349201062899586
 30
0.0
 10
1.924522383368033
 20
-3.317562599189437
 30
0.0
 10
1.940221956394579
 20
-3.36735908095069
 30
0.0
 10
2.010860830488329
 20
-3.381360000675537
 30
0.0
 10
2.051964893285685
 20
-3.35787339926277
 30
0.0
 10
2.127875450039432
 20
-3.313567835218186
 30
0.0
 10
2.158670444524028
 20
-3.207340919294438
 30
0.0
 10
2.210898594509015
 20
-3.135840166924582
 30
0.0
 10
2.289751252252068
 20
-3.026098795894161
 30
0.0
 10
2.441117160145697
 20
-3.003666531013323
 30
0.0
 10
2.597699523547615
 20
-3.031035768544017
 30
0.0
 10
2.879547108251093
 20
-3.197369908091787
 30
0.0
 10
3.13146325029609
 20
-3.371404051423319
 30
0.0
 10
3.262289678416386
 20
-3.521749093786108
 30
0.0
 10
3.416433679394433
 20
-3.789204148052754
 30
0.0
 10
3.458332678465972
 20
-4.118133716334998
 30
0.0
 10
3.259407825229017
 20
-4.380034257983172
 30
0.0
 10
3.11587747867318
 20
-4.569898511245128
 30
0.0
 10
2.789314310162631
 20
-4.730994439134014
 30
0.0
 10
2.581074477343059
 20
-4.592996849046105
 30
0.0
 10
2.502153204047898
 20
-4.538162981631936
 30
0.0
 10
2.492225705146666
 20
-4.402215490356235
 30
0.0
 10
2.429400636240138
 20
-4.358502363029705
 30
0.0
 10
2.338096766119154
 20
-4.297929892491386
 30
0.0
 10
2.246033104275259
 20
-4.314089691781797
 30
0.0
 10
2.194988154176245
 20
-4.386500855379432
 30
0.0
 10
2.125366798513318
 20
-4.485720617240531
 30
0.0
 10
2.174562475806245
 20
-4.618769519828194
 30
0.0
 10
2.302433414536937
 20
-4.707337135616095
 30
0.0
 10
2.577513162835001
 20
-4.900059812364715
 30
0.0
 10
2.997800154839701
 20
-4.764739902358037
 30
0.0
 10
3.258634645105555
 20
-4.490602362738602
 30
0.0
 10
2.984567394588187
 20
-4.867693354382482
 30
0.0
 10
2.505112040537774
 20
-5.043108176505964
 30
0.0
 10
2.164481010300278
 20
-4.78218498808749
 30
0.0
 10
1.904886620622215
 20
-4.584625751692076
 30
0.0
 10
1.849046949627639
 20
-4.299908028651518
 30
0.0
 10
1.991645128805127
 20
-4.024746276400972
 30
0.0
 10
2.075729304006927
 20
-3.86148142764609
 30
0.0
 10
2.298139085106514
 20
-3.793587175635694
 30
0.0
 10
2.427417479429853
 20
-3.9066840145179
 30
0.0
 10
2.388301594092758
 20
-3.918914318289151
 30
0.0
 10
2.344821090223326
 20
-3.956780061738173
 30
0.0
 10
2.334480224459437
 20
-4.017821126290679
 30
0.0
 10
2.327819495257346
 20
-4.0591293621943
 30
0.0
 10
2.363352309935685
 20
-4.114883682136375
 30
0.0
 10
2.408277087499022
 20
-4.13083261412041
 30
0.0
 10
2.453526533772219
 20
-4.145661941120403
 30
0.0
 10
2.522577208867763
 20
-4.124953432791926
 30
0.0
 10
2.543650551107349
 20
-4.070802373798592
 30
0.0
 10
2.578192624155538
 20
-3.98703449955638
 30
0.0
 10
2.532474583868179
 20
-3.900461755429155
 30
0.0
 10
2.443692753673885
 20
-3.840481721608891
 30
0.0
 10
2.270908752230121
 20
-3.723929001871789
 30
0.0
 10
2.03341024387262
 20
-3.827028052750544
 30
0.0
 10
1.931198174520685
 20
-4.006079499134431
 30
0.0
 10
1.799337492469022
 20
-4.242829930619286
 30
0.0
 10
1.845629560423883
 20
-4.609665407551928
 30
0.0
 10
2.138885735823604
 20
-4.827123154051251
 30
0.0
 10
2.524488403025821
 20
-5.110629226855129
 30
0.0
 10
2.976835593353472
 20
-4.919600182757777
 30
0.0
 10
3.252941227832757
 20
-4.581730510104156
 30
0.0
 10
3.038171202714996
 20
-5.109769022129007
 30
0.0
 10
2.677551290670964
 20
-5.670076926233175
 30
0.0
 10
2.422669617935829
 20
-5.686879368743044
 30
0.0
  0
SPLINE
  5
43
330
1F
100
AcDbEntity
  8
Layer 1
370
     0
100
AcDbSpline
210
0.0
220
0.0
230
1.0
 70
    11
 71
     3
 72
    41
 73
    37
 74
     0
 42
0.0000000001
 43
0.0000000001
 12
1.0
 22
0.0
 32
0.0
 13
1.0
 23
0.0
 33
0.0
 40
0.0
 40
0.0
 40
0.0
 40
0.0
 40
1.0
 40
1.0
 40
1.0
 40
2.0
 40
2.0
 40
2.0
 40
3.0
 40
3.0
 40
3.0
 40
4.0
 40
4.0
 40
4.0
 40
5.0
 40
5.0
 40
5.0
 40
6.0
 40
6.0
 40
6.0
 40
7.0
 40
7.0
 40
7.0
 40
8.0
 40
8.0
 40
8.0
 40
9.0
 40
9.0
 40
9.0
 40
10.0
 40
10.0
 40
10.0
 40
11.0
 40
11.0
 40
11.0
 40
12.0
 40
12.0
 40
12.0
 40
12.0
 10
7.225169174081252
 20
-2.27422631167638
 30
0.0
 10
7.681681830485407
 20
-1.812815174273611
 30
0.0
 10
8.3148075708494
 20
-1.52647410768375
 30
0.0
 10
9.013625171356933
 20
-1.52647410768375
 30
0.0
 10
10.40150692267611
 20
-1.52647410768375
 30
0.0
 10
11.53064444774302
 20
-2.655611632750682
 30
0.0
 10
11.53064444774302
 20
-4.043520160870685
 30
0.0
 10
11.53064444774302
 20
-5.431401912189863
 30
0.0
 10
10.40150692267611
 20
-6.560526048856243
 30
0.0
 10
9.013625171356933
 20
-6.560526048856243
 30
0.0
 10
8.637416140589822
 20
-6.560526048856243
 30
0.0
 10
8.28030231590219
 20
-6.477415879784025
 30
0.0
 10
7.959452647265102
 20
-6.328826391424703
 30
0.0
 10
7.930108620674572
 20
-6.315237165012351
 30
0.0
 10
7.901008932391505
 20
-6.30120612138651
 30
0.0
 10
7.872287466419847
 20
-6.286532434541236
 30
0.0
 10
7.571259324584288
 20
-6.132739879073875
 30
0.0
 10
7.305194990409846
 20
-5.920028320518592
 30
0.0
 10
7.089132984652779
 20
-5.663824543243309
 30
0.0
 10
7.043292775211638
 20
-5.609464290493608
 30
0.0
 10
6.999621486636392
 20
-5.553224641036928
 30
0.0
 10
6.958437093436512
 20
-5.495087185822487
 30
0.0
 10
6.702077676006511
 20
-5.133198722839981
 30
0.0
 10
6.53877600915065
 20
-4.700977645423032
 30
0.0
 10
6.503718482686761
 20
-4.233543401387477
 30
0.0
 10
6.500354647084704
 20
-4.188663809675417
 30
0.0
 10
6.498239279820559
 20
-4.143444487303188
 30
0.0
 10
6.497270294341079
 20
-4.097947355622359
 30
0.0
 10
6.496883704279298
 20
-4.079841217622894
 30
0.0
 10
6.4965791181701
 20
-4.061714997022768
 30
0.0
 10
6.4965791181701
 20
-4.043520160870685
 30
0.0
 10
6.4965791181701
 20
-3.519715730474293
 30
0.0
 10
6.657482587803163
 20
-3.032826467098327
 30
0.0
 10
6.932351468794827
 20
-2.629527681659005
 30
0.0
 10
7.019088220827042
 20
-2.502264241596802
 30
0.0
 10
7.117191724804292
 20
-2.383361857588473
 30
0.0
 10
7.225169174081252
 20
-2.27422631167638
 30
0.0
  0
SPLINE
  5
44
330
1F
100
AcDbEntity
  8
Layer 1
370
     0
100
AcDbSpline
210
0.0
220
0.0
230
1.0
 70
    11
 71
     3
 72
    14
 73
    10
 74
     0
 42
0.0000000001
 43
0.0000000001
 12
1.0
 22
0.0
 32
0.0
 13
1.0
 23
0.0
 33
0.0
 40
0.0
 40
0.0
 40
0.0
 40
0.0
 40
1.0
 40
1.0
 40
1.0
 40
2.0
 40
2.0
 40
2.0
 40
3.0
 40
3.0
 40
3.0
 40
3.0
 10
6.308472092461519
 20
-4.457265245726931
 30
0.0
 10
6.172775633693314
 20
-4.346613463468884
 30
0.0
 10
6.026170975694286
 20
-4.27973170923916
 30
0.0
 10
5.976566952188882
 20
-4.24631426182499
 30
0.0
 10
6.045159074570417
 20
-4.277345226866651
 30
0.0
 10
6.189352146946375
 20
-4.268368304394294
 30
0.0
 10
6.285567886466348
 20
-4.257674319569711
 30
0.0
 10
6.290796056825002
 20
-4.324907519310121
 30
0.0
 10
6.298449201207202
 20
-4.391467951930129
 30
0.0
 10
6.308472092461519
 20
-4.457265245726931
 30
0.0
  0
SPLINE
  5
45
330
1F
100
AcDbEntity
  8
Layer 1
370
     0
100
AcDbSpline
210
0.0
220
0.0
230
1.0
 70
    11
 71
     3
 72
    44
 73
    40
 74
     0
 42
0.0000000001
 43
0.0000000001
 12
1.0
 22
0.0
 32
0.0
 13
1.0
 23
0.0
 33
0.0
 40
0.0
 40
0.0
 40
0.0
 40
0.0
 40
1.0
 40
1.0
 40
1.0
 40
2.0
 40
2.0
 40
2.0
 40
3.0
 40
3.0
 40
3.0
 40
4.0
 40
4.0
 40
4.0
 40
5.0
 40
5.0
 40
5.0
 40
6.0
 40
6.0
 40
6.0
 40
7.0
 40
7.0
 40
7.0
 40
8.0
 40
8.0
 40
8.0
 40
9.0
 40
9.0
 40
9.0
 40
10.0
 40
10.0
 40
10.0
 40
11.0
 40
11.0
 40
11.0
 40
12.0
 40
12.0
 40
12.0
 40
13.0
 40
13.0
 40
13.0
 40
13.0
 10
4.136927100159861
 20
-4.017914845093602
 30
0.0
 10
4.136927100159861
 20
-4.017914845093602
 30
0.0
 10
4.135882804928037
 20
-4.017339143876092
 30
0.0
 10
4.135882804928037
 20
-4.017339143876092
 30
0.0
 10
4.135882804928037
 20
-4.017339143876092
 30
0.0
 10
4.167780668896108
 20
-3.719206243628453
 30
0.0
 10
4.212611727656647
 20
-3.708636101507636
 30
0.0
 10
4.333716503531933
 20
-3.284257279628592
 30
0.0
 10
5.749606788501094
 20
-2.634605232513195
 30
0.0
 10
6.202014226630681
 20
-2.442441521481366
 30
0.0
 10
6.335151827371091
 20
-2.403775821107906
 30
0.0
 10
6.59037155721651
 20
-2.381333514926938
 30
0.0
 10
6.772380166540137
 20
-2.475447275583039
 30
0.0
 10
6.46054423847651
 20
-2.919818326368739
 30
0.0
 10
6.277223565913168
 20
-3.460631045931247
 30
0.0
 10
6.277223565913168
 20
-4.043520160870685
 30
0.0
 10
6.277223565913168
 20
-4.093140919876507
 30
0.0
 10
6.278632695055926
 20
-4.142435336622485
 30
0.0
 10
6.281253474435389
 20
-4.191415125958883
 30
0.0
 10
6.245790948859141
 20
-4.195095262520681
 30
0.0
 10
6.211198669309447
 20
-4.196398958010124
 30
0.0
 10
6.178209650708292
 20
-4.200787006243319
 30
0.0
 10
6.178209650708292
 20
-4.200787006243319
 30
0.0
 10
5.931501596421236
 20
-4.242732864716244
 30
0.0
 10
5.841598487692914
 20
-4.201998656480125
 30
0.0
 10
5.935303902136638
 20
-4.265265542600142
 30
0.0
 10
6.444330885584399
 20
-4.471527239259709
 30
0.0
 10
6.321612807460244
 20
-4.921558236317221
 30
0.0
 10
6.290645437320411
 20
-5.163359441855416
 30
0.0
 10
6.162839767041785
 20
-5.036303521999444
 30
0.0
 10
6.079644246917066
 20
-5.344953010766251
 30
0.0
 10
6.031097907043709
 20
-5.590047762804438
 30
0.0
 10
5.863783067166069
 20
-5.331604775561244
 30
0.0
 10
5.712400423771921
 20
-5.626792227719559
 30
0.0
 10
5.653812783594023
 20
-5.811967193739165
 30
0.0
 10
5.171488964756514
 20
-5.754711699401519
 30
0.0
 10
5.150690084725258
 20
-5.754711699401519
 30
0.0
 10
4.784035351198175
 20
-5.728885475017756
 30
0.0
 10
4.207758432509308
 20
-4.597833408692773
 30
0.0
 10
4.136927100159861
 20
-4.017914845093602
 30
0.0
  0
SPLINE
  5
46
330
1F
100
AcDbEntity
  8
Layer 1
370
     0
100
AcDbSpline
210
0.0
220
0.0
230
1.0
 70
    11
 71
     3
 72
    44
 73
    40
 74
     0
 42
0.0000000001
 43
0.0000000001
 12
1.0
 22
0.0
 32
0.0
 13
1.0
 23
0.0
 33
0.0
 40
0.0
 40
0.0
 40
0.0
 40
0.0
 40
1.0
 40
1.0
 40
1.0
 40
2.0
 40
2.0
 40
2.0
 40
3.0
 40
3.0
 40
3.0
 40
4.0
 40
4.0
 40
4.0
 40
5.0
 40
5.0
 40
5.0
 40
6.0
 40
6.0
 40
6.0
 40
7.0
 40
7.0
 40
7.0
 40
8.0
 40
8.0
 40
8.0
 40
9.0
 40
9.0
 40
9.0
 40
10.0
 40
10.0
 40
10.0
 40
11.0
 40
11.0
 40
11.0
 40
12.0
 40
12.0
 40
12.0
 40
13.0
 40
13.0
 40
13.0
 40
13.0
 10
5.147456786027204
 20
-6.109062492955419
 30
0.0
 10
5.172412764384565
 20
-6.109062492955419
 30
0.0
 10
5.751347280553873
 20
-6.177524078433053
 30
0.0
 10
5.821837208693169
 20
-5.955604647498173
 30
0.0
 10
6.003250034198572
 20
-5.601541704553179
 30
0.0
 10
6.203968933089982
 20
-5.911516644960253
 30
0.0
 10
6.262101367654142
 20
-5.617547537239008
 30
0.0
 10
6.349564440408458
 20
-5.293089694692349
 30
0.0
 10
6.478081369458727
 20
-5.36982865872124
 30
0.0
 10
6.533457467089293
 20
-5.198820293881504
 30
0.0
 10
6.585464708467598
 20
-5.31001597990611
 30
0.0
 10
6.644582864011631
 20
-5.417240331659993
 30
0.0
 10
6.710500653412206
 20
-5.519721842570132
 30
0.0
 10
6.588776664018042
 20
-5.550541940305417
 30
0.0
 10
6.471442396407181
 20
-5.609311997439009
 30
0.0
 10
6.364159470401368
 20
-5.698155748985275
 30
0.0
 10
5.972932001478612
 20
-6.022047931614704
 30
0.0
 10
6.169681239649435
 20
-6.872991231738878
 30
0.0
 10
6.705558660112223
 20
-6.952153496241382
 30
0.0
 10
7.139553700583039
 20
-7.016267198687071
 30
0.0
 10
7.411676285941363
 20
-6.613776737922358
 30
0.0
 10
7.207379337041352
 20
-6.269942532887777
 30
0.0
 10
7.367183284291109
 20
-6.815106482582197
 30
0.0
 10
6.733426615557871
 20
-7.138650566801111
 30
0.0
 10
6.387759873217621
 20
-6.647251086038194
 30
0.0
 10
6.16367988916732
 20
-6.328434780712895
 30
0.0
 10
6.405012500691251
 20
-5.810782320303184
 30
0.0
 10
6.827292690806492
 20
-5.687163872251656
 30
0.0
 10
7.109808021980269
 20
-6.062005612627217
 30
0.0
 10
7.48635678340775
 20
-6.362076483833738
 30
0.0
 10
7.921536697314423
 20
-6.552245323204993
 30
0.0
 10
7.946485981471646
 20
-7.270178212392643
 30
0.0
 10
7.163013525194956
 20
-8.056653017460551
 30
0.0
 10
6.175572135828184
 20
-7.536714487681516
 30
0.0
 10
5.347372380894158
 20
-7.10057730314568
 30
0.0
 10
5.117691024823873
 20
-6.520031158277359
 30
0.0
 10
4.904457318652627
 20
-5.987012161301386
 30
0.0
 10
4.989952296547219
 20
-6.059766402659281
 30
0.0
 10
5.072377983648746
 20
-6.103784116095135
 30
0.0
 10
5.147456786027204
 20
-6.109062492955419
 30
0.0
  0
SPLINE
  5
47
330
1F
100
AcDbEntity
  8
Layer 1
370
     0
100
AcDbSpline
210
0.0
220
0.0
230
1.0
 70
    11
 71
     3
 72
    20
 73
    16
 74
     0
 42
0.0000000001
 43
0.0000000001
 12
1.0
 22
0.0
 32
0.0
 13
1.0
 23
0.0
 33
0.0
 40
0.0
 40
0.0
 40
0.0
 40
0.0
 40
1.0
 40
1.0
 40
1.0
 40
2.0
 40
2.0
 40
2.0
 40
3.0
 40
3.0
 40
3.0
 40
4.0
 40
4.0
 40
4.0
 40
5.0
 40
5.0
 40
5.0
 40
5.0
 10
5.133429089501507
 20
-6.784912292565953
 30
0.0
 10
5.220686315599576
 20
-6.937335884091655
 30
0.0
 10
5.35020235403014
 20
-7.111795109136109
 30
0.0
 10
5.558581091503886
 20
-7.339871530707771
 30
0.0
 10
5.914930103818329
 20
-7.729895717144144
 30
0.0
 10
6.342512100494432
 20
-7.867719258026782
 30
0.0
 10
6.73498636420527
 20
-7.851167848024438
 30
0.0
 10
6.687198142504965
 20
-7.874619304886235
 30
0.0
 10
6.640527852238594
 20
-7.904005170227896
 30
0.0
 10
6.595979623436657
 20
-7.93941748930264
 30
0.0
 10
6.354784243016941
 20
-8.131159465721668
 30
0.0
 10
6.32037103332262
 20
-8.50748731854234
 30
0.0
 10
6.409420631524982
 20
-8.746748075103318
 30
0.0
 10
5.875273661814845
 20
-8.143722805952898
 30
0.0
 10
5.440371557216521
 20
-7.444650825837622
 30
0.0
 10
5.133429089501507
 20
-6.784912292565953
 30
0.0
  0
SPLINE
  5
48
330
1F
100
AcDbEntity
  8
Layer 1
370
     0
100
AcDbSpline
210
0.0
220
0.0
230
1.0
 70
    11
 71
     3
 72
    44
 73
    40
 74
     0
 42
0.0000000001
 43
0.0000000001
 12
1.0
 22
0.0
 32
0.0
 13
1.0
 23
0.0
 33
0.0
 40
0.0
 40
0.0
 40
0.0
 40
0.0
 40
1.0
 40
1.0
 40
1.0
 40
2.0
 40
2.0
 40
2.0
 40
3.0
 40
3.0
 40
3.0
 40
4.0
 40
4.0
 40
4.0
 40
5.0
 40
5.0
 40
5.0
 40
6.0
 40
6.0
 40
6.0
 40
7.0
 40
7.0
 40
7.0
 40
8.0
 40
8.0
 40
8.0
 40
9.0
 40
9.0
 40
9.0
 40
10.0
 40
10.0
 40
10.0
 40
11.0
 40
11.0
 40
11.0
 40
12.0
 40
12.0
 40
12.0
 40
13.0
 40
13.0
 40
13.0
 40
13.0
 10
6.679057995057873
 20
-7.969367341011522
 30
0.0
 10
7.246953775092353
 20
-7.632692583094164
 30
0.0
 10
7.572404032819021
 20
-8.284208964966385
 30
0.0
 10
7.313435550859999
 20
-8.525725666995816
 30
0.0
 10
7.060642468588159
 20
-8.761394985147893
 30
0.0
 10
6.737118466969958
 20
-8.41994391538555
 30
0.0
 10
6.880088174258717
 20
-8.22175207707096
 30
0.0
 10
6.745278697017612
 20
-8.400985940410262
 30
0.0
 10
6.901675296363869
 20
-8.655194846024996
 30
0.0
 10
7.085882950454156
 20
-8.667974074212754
 30
0.0
 10
7.45359369406343
 20
-8.693489018287083
 30
0.0
 10
7.626737508767897
 20
-8.217106302129853
 30
0.0
 10
7.441338287041516
 20
-7.984235159662754
 30
0.0
 10
7.353185711666204
 20
-7.873340712647354
 30
0.0
 10
7.234303410258437
 20
-7.808345049324847
 30
0.0
 10
7.105043424985675
 20
-7.788766187280695
 30
0.0
 10
7.328130993855969
 20
-7.722036726105671
 30
0.0
 10
7.524135502254163
 20
-7.607860447440695
 30
0.0
 10
7.667249134847325
 20
-7.469688808147364
 30
0.0
 10
7.861563357694447
 20
-7.281864612397359
 30
0.0
 10
7.999105742168467
 20
-6.93249932444486
 30
0.0
 10
7.991641708941946
 20
-6.581746663500275
 30
0.0
 10
8.30756779332968
 20
-6.709406734924565
 30
0.0
 10
8.652498173647473
 20
-6.779881601113326
 30
0.0
 10
9.013625171356933
 20
-6.779881601113326
 30
0.0
 10
9.020915155378184
 20
-6.779881601113326
 30
0.0
 10
9.028154932897905
 20
-6.779660692506518
 30
0.0
 10
9.03543152851873
 20
-6.779603791804852
 30
0.0
 10
8.793354187222223
 20
-6.883788976666665
 30
0.0
 10
8.598824076418724
 20
-7.069084438289994
 30
0.0
 10
8.482487244638024
 20
-7.33060006342637
 30
0.0
 10
8.394937147281073
 20
-7.52743632619998
 30
0.0
 10
8.363909529339555
 20
-7.740926085528876
 30
0.0
 10
8.38036052633874
 20
-7.948434576976372
 30
0.0
 10
8.16588839312999
 20
-8.4355681786597
 30
0.0
 10
7.811289914168709
 20
-8.923572026369584
 30
0.0
 10
7.327630602390652
 20
-9.061372137551517
 30
0.0
 10
6.502071709436778
 20
-9.29649922548707
 30
0.0
 10
6.149461407935834
 20
-8.283097727732638
 30
0.0
 10
6.679057995057873
 20
-7.969367341011522
 30
0.0
  0
SPLINE
  5
49
330
1F
100
AcDbEntity
  8
Layer 1
370
     0
100
AcDbSpline
210
0.0
220
0.0
230
1.0
 70
    11
 71
     3
 72
   107
 73
   103
 74
     0
 42
0.0000000001
 43
0.0000000001
 12
1.0
 22
0.0
 32
0.0
 13
1.0
 23
0.0
 33
0.0
 40
0.0
 40
0.0
 40
0.0
 40
0.0
 40
1.0
 40
1.0
 40
1.0
 40
2.0
 40
2.0
 40
2.0
 40
3.0
 40
3.0
 40
3.0
 40
4.0
 40
4.0
 40
4.0
 40
5.0
 40
5.0
 40
5.0
 40
6.0
 40
6.0
 40
6.0
 40
7.0
 40
7.0
 40
7.0
 40
8.0
 40
8.0
 40
8.0
 40
9.0
 40
9.0
 40
9.0
 40
10.0
 40
10.0
 40
10.0
 40
11.0
 40
11.0
 40
11.0
 40
12.0
 40
12.0
 40
12.0
 40
13.0
 40
13.0
 40
13.0
 40
14.0
 40
14.0
 40
14.0
 40
15.0
 40
15.0
 40
15.0
 40
16.0
 40
16.0
 40
16.0
 40
17.0
 40
17.0
 40
17.0
 40
18.0
 40
18.0
 40
18.0
 40
19.0
 40
19.0
 40
19.0
 40
20.0
 40
20.0
 40
20.0
 40
21.0
 40
21.0
 40
21.0
 40
22.0
 40
22.0
 40
22.0
 40
23.0
 40
23.0
 40
23.0
 40
24.0
 40
24.0
 40
24.0
 40
25.0
 40
25.0
 40
25.0
 40
26.0
 40
26.0
 40
26.0
 40
27.0
 40
27.0
 40
27.0
 40
28.0
 40
28.0
 40
28.0
 40
29.0
 40
29.0
 40
29.0
 40
30.0
 40
30.0
 40
30.0
 40
31.0
 40
31.0
 40
31.0
 40
32.0
 40
32.0
 40
32.0
 40
33.0
 40
33.0
 40
33.0
 40
34.0
 40
34.0
 40
34.0
 40
34.0
 10
8.887392638126078
 20
-10.30590428572042
 30
0.0
 10
8.091522523073156
 20
-10.16062005871138
 30
0.0
 10
7.367765679708706
 20
-9.70465130607373
 30
0.0
 10
6.751628145910267
 20
-9.105761379098592
 30
0.0
 10
7.023901350773182
 20
-9.255657910047628
 30
0.0
 10
7.410591825508466
 20
-9.295993813371801
 30
0.0
 10
7.784201833046659
 20
-9.020062228097913
 30
0.0
 10
8.078743294885397
 20
-8.802222912186936
 30
0.0
 10
8.289982129395968
 20
-8.52991958342318
 30
0.0
 10
8.423996670363016
 20
-8.198889709827073
 30
0.0
 10
8.563242728788888
 20
-8.71290554597638
 30
0.0
 10
8.995149178796206
 20
-9.124953651081087
 30
0.0
 10
9.564092601162479
 20
-9.043612424412634
 30
0.0
 10
10.13468949097887
 20
-8.962033553636804
 30
0.0
 10
10.3962687110172
 20
-8.215703867187358
 30
0.0
 10
9.970380346992341
 20
-7.770941205689724
 30
0.0
 10
9.81514853848153
 20
-7.563886246306108
 30
0.0
 10
9.524904753173157
 20
-7.457023381363038
 30
0.0
 10
9.251195642366635
 20
-7.515744905545135
 30
0.0
 10
9.004695108285937
 20
-7.567571403517907
 30
0.0
 10
8.706582290638885
 20
-7.820883286305413
 30
0.0
 10
8.748882941722615
 20
-8.104620309016253
 30
0.0
 10
8.77116793419888
 20
-8.25065428644805
 30
0.0
 10
8.840265468695836
 20
-8.366919155576372
 30
0.0
 10
8.987491013763853
 20
-8.348587088320123
 30
0.0
 10
9.070981078697615
 20
-8.33793326869679
 30
0.0
 10
9.123851871902085
 20
-8.232810895806526
 30
0.0
 10
9.076617595268594
 20
-8.179352686534154
 30
0.0
 10
9.031214182390814
 20
-8.128538686342077
 30
0.0
 10
8.947722443906917
 20
-8.178437254656375
 30
0.0
 10
8.964650402670687
 20
-8.21970867245889
 30
0.0
 10
8.98015417034124
 20
-8.257974394370118
 30
0.0
 10
8.960269048637757
 20
-8.286893339247777
 30
0.0
 10
8.919946533714008
 20
-8.287087471053736
 30
0.0
 10
8.858595862402176
 20
-8.287612965769565
 30
0.0
 10
8.827292108702194
 20
-8.197683080240393
 30
0.0
 10
8.855638699462462
 20
-8.132918366824999
 30
0.0
 10
8.887645344183714
 20
-8.146870753598453
 30
0.0
 10
8.92573032268956
 20
-8.117396190103868
 30
0.0
 10
8.931939193378032
 20
-8.086353510211943
 30
0.0
 10
8.942934417211644
 20
-8.02861101280958
 30
0.0
 10
8.902889711596345
 20
-7.96642858712236
 30
0.0
 10
8.889770752748316
 20
-7.908686089719999
 30
0.0
 10
8.85027999219983
 20
-7.740956209429846
 30
0.0
 10
9.086486519918152
 20
-7.579564063181932
 30
0.0
 10
9.263041029626239
 20
-7.546069632465408
 30
0.0
 10
9.546481833978051
 20
-7.492479212739024
 30
0.0
 10
9.912157540725527
 20
-7.610574945623031
 30
0.0
 10
9.977722211065258
 20
-7.926365472456508
 30
0.0
 10
10.01043174680788
 20
-8.082137837633883
 30
0.0
 10
9.948249321120834
 20
-8.317576205879025
 30
0.0
 10
9.787198579083148
 20
-8.361985530026661
 30
0.0
 10
9.724883942942192
 20
-8.37770016500359
 30
0.0
 10
9.651964020129121
 20
-8.323001855143604
 30
0.0
 10
9.60232652562278
 20
-8.335483191422352
 30
0.0
 10
9.531679283778733
 20
-8.354926495912498
 30
0.0
 10
9.499396503299016
 20
-8.408449973636783
 30
0.0
 10
9.51349448892693
 20
-8.465996665683178
 30
0.0
 10
9.532954528917495
 20
-8.544680294871089
 30
0.0
 10
9.621656028709417
 20
-8.578308609591659
 30
0.0
 10
9.722482398619276
 20
-8.55272002931512
 30
0.0
 10
9.94048739598525
 20
-8.498640932973887
 30
0.0
 10
10.05683259551607
 20
-8.227258056738037
 30
0.0
 10
10.03314182099706
 20
-7.975316811442199
 30
0.0
 10
10.10294224651539
 20
-8.279148149612764
 30
0.0
 10
9.980826646409442
 20
-8.597979516888598
 30
0.0
 10
9.699640113975976
 20
-8.655161375023884
 30
0.0
 10
9.485998061592454
 20
-8.69930962536374
 30
0.0
 10
9.31788995899069
 20
-8.602424465823459
 30
0.0
 10
9.241753472980134
 20
-8.40966162387359
 30
0.0
 10
9.196346713002185
 20
-8.295552287210537
 30
0.0
 10
9.259790995427617
 20
-8.153569974451784
 30
0.0
 10
9.37360411373149
 20
-8.138047797730678
 30
0.0
 10
9.362590480847352
 20
-8.163144354292347
 30
0.0
 10
9.362590480847352
 20
-8.201702947462485
 30
0.0
 10
9.38883174564373
 20
-8.233728001234288
 30
0.0
 10
9.406738731187083
 20
-8.255228098736804
 30
0.0
 10
9.450461899813995
 20
-8.261796782686108
 30
0.0
 10
9.478236136456921
 20
-8.246145742611235
 30
0.0
 10
9.505586964936912
 20
-8.229838670916251
 30
0.0
 10
9.525472086640395
 20
-8.185921370483458
 30
0.0
 10
9.50741782869247
 20
-8.15150983433917
 30
0.0
 10
9.48034480952093
 20
-8.097300201094008
 30
0.0
 10
9.416605982286505
 20
-8.08233531653986
 30
0.0
 10
9.347364522485249
 20
-8.10076444969915
 30
0.0
 10
9.212700644098428
 20
-8.136708957689986
 30
0.0
 10
9.160385469510805
 20
-8.30176115789901
 30
0.0
 10
9.205788882388736
 20
-8.431946616349856
 30
0.0
 10
9.26727176415458
 20
-8.602424465823459
 30
0.0
 10
9.47259961988579
 20
-8.740191106004431
 30
0.0
 10
9.711060419522608
 20
-8.687808989414709
 30
0.0
 10
9.950393138735812
 20
-8.634208528388045
 30
0.0
 10
10.06645550830803
 20
-8.438456726047358
 30
0.0
 10
10.08553899953722
 20
-8.220460096431655
 30
0.0
 10
10.08518588047653
 20
-8.78853996697166
 30
0.0
 10
9.441762786649987
 20
-9.189057312226522
 30
0.0
 10
8.828697890744833
 20
-8.719378837572776
 30
0.0
 10
8.04245068848387
 20
-8.116552720878316
 30
0.0
 10
8.909771349405268
 20
-6.362755945154428
 30
0.0
 10
10.3630018831076
 20
-7.002544088270547
 30
0.0
 10
11.93837814081694
 20
-7.696105068068593
 30
0.0
 10
11.24980266662012
 20
-10.73768019882388
 30
0.0
 10
8.887392638126078
 20
-10.30590428572042
 30
0.0
  0
ENDSEC
  0
SECTION
  2
OBJECTS
  0
DICTIONARY
  5
C
330
0
100
AcDbDictionary
281
     1
  3
ACAD_GROUP
350
D
  3
ACAD_LAYOUT
350
1A
  3
ACAD_MATERIAL
350
3B
  3
ACAD_MLEADERSTYLE
350
4B
  3
ACAD_MLINESTYLE
350
17
  3
ACAD_PLOTSETTINGS
350
19
  3
ACAD_PLOTSTYLENAME
350
E
  3
ACAD_TABLESTYLE
350
4A
  3
ACAD_VISUALSTYLE
350
2A
  0
SUN
  5
3F
330
29
100
AcDbSun
 90
        1
290
     0
 63
     7
421
 16777215
 40
1.0
291
     1
 91
  2455826
 92
 54000000
292
     0
 70
     2
 71
   256
280
     1
  0
DICTIONARY
  5
D
102
{ACAD_REACTORS
330
C
102
}
330
C
100
AcDbDictionary
281
     1
  0
DICTIONARY
  5
1A
102
{ACAD_REACTORS
330
C
102
}
330
C
100
AcDbDictionary
281
     1
  3
Layout1
350
1E
  3
Layout2
350
26
  3
Model
350
22
  0
DICTIONARY
  5
3B
102
{ACAD_REACTORS
330
C
102
}
330
C
100
AcDbDictionary
281
     1
  3
ByBlock
350
3D
  3
ByLayer
350
3C
  3
Global
350
3E
  0
DICTIONARY
  5
4B
102
{ACAD_REACTORS
330
C
102
}
330
C
100
AcDbDictionary
281
     1
  0
DICTIONARY
  5
17
102
{ACAD_REACTORS
330
C
102
}
330
C
100
AcDbDictionary
281
     1
  3
Standard
350
18
  0
DICTIONARY
  5
19
102
{ACAD_REACTORS
330
C
102
}
330
C
100
AcDbDictionary
281
     1
  0
ACDBDICTIONARYWDFLT
  5
E
102
{ACAD_REACTORS
330
C
102
}
330
C
100
AcDbDictionary
281
     1
  3
Normal
350
F
100
AcDbDictionaryWithDefault
340
F
  0
DICTIONARY
  5
4A
102
{ACAD_REACTORS
330
C
102
}
330
C
100
AcDbDictionary
281
     1
  0
DICTIONARY
  5
2A
102
{ACAD_REACTORS
330
C
102
}
330
C
100
AcDbDictionary
281
     1
  3
2dWireframe
350
2F
  3
3D Hidden
350
31
  3
3dWireframe
350
30
  3
Basic
350
32
  3
Brighten
350
36
  3
ColorChange
350
3A
  3
Conceptual
350
34
  3
Dim
350
35
  3
Facepattern
350
39
  3
Flat
350
2B
  3
FlatWithEdges
350
2C
  3
Gouraud
350
2D
  3
GouraudWithEdges
350
2E
  3
Linepattern
350
38
  3
Realistic
350
33
  3
Thicken
350
37
  0
LAYOUT
  5
1E
102
{ACAD_REACTORS
330
1A
102
}
330
1A
100
AcDbPlotSettings
  1

  2
none_device
  4

  6

 40
0.0
 41
0.0
 42
0.0
 43
0.0
 44
0.0
 45
0.0
 46
0.0
 47
0.0
 48
0.0
 49
0.0
140
0.0
141
0.0
142
1.0
143
1.0
 70
   688
 72
     0
 73
     0
 74
     5
  7

 75
    16
 76
     0
 77
     2
 78
   300
147
1.0
148
0.0
149
0.0
100
AcDbLayout
  1
Layout1
 70
     1
 71
     1
 10
0.0
 20
0.0
 11
12.0
 21
9.0
 12
0.0
 22
0.0
 32
0.0
 14
1.000000000000000E+20
 24
1.000000000000000E+20
 34
1.000000000000000E+20
 15
-1.000000000000000E+20
 25
-1.000000000000000E+20
 35
-1.000000000000000E+20
146
0.0
 13
0.0
 23
0.0
 33
0.0
 16
1.0
 26
0.0
 36
0.0
 17
0.0
 27
1.0
 37
0.0
 76
     0
330
1B
  0
LAYOUT
  5
26
102
{ACAD_REACTORS
330
1A
102
}
330
1A
100
AcDbPlotSettings
  1

  2
none_device
  4

  6

 40
0.0
 41
0.0
 42
0.0
 43
0.0
 44
0.0
 45
0.0
 46
0.0
 47
0.0
 48
0.0
 49
0.0
140
0.0
141
0.0
142
1.0
143
1.0
 70
   688
 72
     0
 73
     0
 74
     5
  7

 75
    16
 76
     0
 77
     2
 78
   300
147
1.0
148
0.0
149
0.0
100
AcDbLayout
  1
Layout2
 70
     1
 71
     2
 10
0.0
 20
0.0
 11
0.0
 21
0.0
 12
0.0
 22
0.0
 32
0.0
 14
0.0
 24
0.0
 34
0.0
 15
0.0
 25
0.0
 35
0.0
146
0.0
 13
0.0
 23
0.0
 33
0.0
 16
1.0
 26
0.0
 36
0.0
 17
0.0
 27
1.0
 37
0.0
 76
     0
330
23
  0
LAYOUT
  5
22
102
{ACAD_REACTORS
330
1A
102
}
330
1A
100
AcDbPlotSettings
  1

  2
none_device
  4

  6

 40
0.0
 41
0.0
 42
0.0
 43
0.0
 44
0.0
 45
0.0
 46
0.0
 47
0.0
 48
0.0
 49
0.0
140
0.0
141
0.0
142
1.0
143
1.0
 70
  1712
 72
     0
 73
     0
 74
     0
  7

 75
     0
 76
     0
 77
     2
 78
   300
147
1.0
148
0.0
149
0.0
100
AcDbLayout
  1
Model
 70
     1
 71
     0
 10
0.0
 20
0.0
 11
12.0
 21
9.0
 12
0.0
 22
0.0
 32
0.0
 14
1.000000000000000E+20
 24
1.000000000000000E+20
 34
1.000000000000000E+20
 15
-1.000000000000000E+20
 25
-1.000000000000000E+20
 35
-1.000000000000000E+20
146
0.0
 13
0.0
 23
0.0
 33
0.0
 16
1.0
 26
0.0
 36
0.0
 17
0.0
 27
1.0
 37
0.0
 76
     0
330
1F
331
29
  0
MATERIAL
  5
3D
102
{ACAD_REACTORS
330
3B
102
}
330
3B
100
AcDbMaterial
  1
ByBlock
 72
     1
 94
      127
  0
MATERIAL
  5
3C
102
{ACAD_REACTORS
330
3B
102
}
330
3B
100
AcDbMaterial
  1
ByLayer
 72
     1
 94
      127
  0
MATERIAL
  5
3E
102
{ACAD_REACTORS
330
3B
102
}
330
3B
100
AcDbMaterial
  1
Global
 72
     1
 94
      127
  0
MLINESTYLE
  5
18
102
{ACAD_REACTORS
330
17
102
}
330
17
100
AcDbMlineStyle
  2
Standard
 70
     0
  3

 62
   256
 51
90.0
 52
90.0
 71
     2
 49
0.5
 62
   256
  6
BYLAYER
 49
-0.5
 62
   256
  6
BYLAYER
  0
ACDBPLACEHOLDER
  5
F
102
{ACAD_REACTORS
330
E
102
}
330
E
  0
VISUALSTYLE
  5
2F
102
{ACAD_REACTORS
330
2A
102
}
330
2A
100
AcDbVisualStyle
  2
2dWireframe
 70
     4
177
     2
291
     0
 71
     0
176
     1
 72
     2
176
     1
 73
     0
176
     1
 90
        0
176
     1
 40
-0.6
176
     1
 41
-30.0
176
     1
 62
     5
 63
     7
421
 16777215
176
     1
 74
     1
176
     1
 91
        4
176
     1
 64
     7
176
     1
 65
   257
176
     1
 75
     1
176
     1
175
     1
176
     1
 42
1.0
176
     1
 92
        0
176
     1
 66
   257
176
     1
 43
1.0
176
     1
 76
     1
176
     1
 77
     6
176
     1
 78
     2
176
     1
 67
     7
176
     1
 79
     5
176
     1
170
     0
176
     1
171
     0
176
     1
290
     0
176
     1
 93
        1
176
     1
 44
0.0
176
     1
173
     0
176
     1
  0
VISUALSTYLE
  5
31
102
{ACAD_REACTORS
330
2A
102
}
330
2A
100
AcDbVisualStyle
  2
3D Hidden
 70
     6
177
     2
291
     0
 71
     1
176
     1
 72
     2
176
     1
 73
     2
176
     1
 90
        0
176
     1
 40
-0.6
176
     1
 41
-30.0
176
     1
 62
     5
 63
     7
421
 16777215
176
     1
 74
     2
176
     1
 91
        2
176
     1
 64
     7
176
     1
 65
   257
176
     1
 75
     2
176
     1
175
     1
176
     1
 42
40.0
176
     1
 92
        0
176
     1
 66
   257
176
     1
 43
1.0
176
     1
 76
     1
176
     1
 77
     6
176
     1
 78
     2
176
     1
 67
     7
176
     1
 79
     3
176
     1
170
     0
176
     1
171
     0
176
     1
290
     0
176
     1
 93
        1
176
     1
 44
0.0
176
     1
173
     0
176
     1
  0
VISUALSTYLE
  5
30
102
{ACAD_REACTORS
330
2A
102
}
330
2A
100
AcDbVisualStyle
  2
3dWireframe
 70
     5
177
     2
291
     0
 71
     0
176
     1
 72
     2
176
     1
 73
     0
176
     1
 90
        0
176
     1
 40
-0.6
176
     1
 41
-30.0
176
     1
 62
     5
 63
     7
421
 16777215
176
     1
 74
     1
176
     1
 91
        4
176
     1
 64
     7
176
     1
 65
   257
176
     1
 75
     1
176
     1
175
     1
176
     1
 42
1.0
176
     1
 92
        0
176
     1
 66
   257
176
     1
 43
1.0
176
     1
 76
     1
176
     1
 77
     6
176
     1
 78
     2
176
     1
 67
     7
176
     1
 79
     5
176
     1
170
     0
176
     1
171
     0
176
     1
290
     0
176
     1
 93
        1
176
     1
 44
0.0
176
     1
173
     0
176
     1
  0
VISUALSTYLE
  5
32
102
{ACAD_REACTORS
330
2A
102
}
330
2A
100
AcDbVisualStyle
  2
Basic
 70
     7
177
     2
291
     1
 71
     1
176
     1
 72
     0
176
     1
 73
     1
176
     1
 90
        0
176
     1
 40
-0.6
176
     1
 41
-30.0
176
     1
 62
     5
 63
     7
421
 16777215
176
     1
 74
     0
176
     1
 91
        4
176
     1
 64
     7
176
     1
 65
   257
176
     1
 75
     1
176
     1
175
     1
176
     1
 42
1.0
176
     1
 92
        8
176
     1
 66
     7
176
     1
 43
1.0
176
     1
 76
     1
176
     1
 77
     6
176
     1
 78
     2
176
     1
 67
     7
176
     1
 79
     5
176
     1
170
     0
176
     1
171
     0
176
     1
290
     0
176
     1
 93
        1
176
     1
 44
0.0
176
     1
173
     0
176
     1
  0
VISUALSTYLE
  5
36
102
{ACAD_REACTORS
330
2A
102
}
330
2A
100
AcDbVisualStyle
  2
Brighten
 70
    12
177
     2
291
     1
 71
     2
176
     1
 72
     2
176
     1
 73
     0
176
     1
 90
        0
176
     1
 40
-0.6
176
     1
 41
-30.0
176
     1
 62
     5
 63
     7
421
 16777215
176
     1
 74
     1
176
     1
 91
        4
176
     1
 64
     7
176
     1
 65
   257
176
     1
 75
     1
176
     1
175
     1
176
     1
 42
1.0
176
     1
 92
        8
176
     1
 66
     7
176
     1
 43
1.0
176
     1
 76
     1
176
     1
 77
     6
176
     1
 78
     2
176
     1
 67
     7
176
     1
 79
     5
176
     1
170
     0
176
     1
171
     0
176
     1
290
     0
176
     1
 93
        1
176
     1
 44
50.0
176
     1
173
     0
176
     1
  0
VISUALSTYLE
  5
3A
102
{ACAD_REACTORS
330
2A
102
}
330
2A
100
AcDbVisualStyle
  2
ColorChange
 70
    16
177
     2
291
     1
 71
     2
176
     1
 72
     2
176
     1
 73
     3
176
     1
 90
        0
176
     1
 40
-0.6
176
     1
 41
-30.0
176
     1
 62
     5
 63
     8
421
  8421504
176
     1
 74
     1
176
     1
 91
        4
176
     1
 64
     7
176
     1
 65
   257
176
     1
 75
     1
176
     1
175
     1
176
     1
 42
1.0
176
     1
 92
        8
176
     1
 66
     8
424
  8421504
176
     1
 43
1.0
176
     1
 76
     1
176
     1
 77
     6
176
     1
 78
     2
176
     1
 67
     7
176
     1
 79
     5
176
     1
170
     0
176
     1
171
     0
176
     1
290
     0
176
     1
 93
        1
176
     1
 44
0.0
176
     1
173
     0
176
     1
  0
VISUALSTYLE
  5
34
102
{ACAD_REACTORS
330
2A
102
}
330
2A
100
AcDbVisualStyle
  2
Conceptual
 70
     9
177
     2
291
     0
 71
     3
176
     1
 72
     2
176
     1
 73
     0
176
     1
 90
        0
176
     1
 40
-0.6
176
     1
 41
-30.0
176
     1
 62
     5
 63
     7
421
 16777215
176
     1
 74
     2
176
     1
 91
        2
176
     1
 64
     7
176
     1
 65
   257
176
     1
 75
     1
176
     1
175
     1
176
     1
 42
40.0
176
     1
 92
        8
176
     1
 66
     7
176
     1
 43
1.0
176
     1
 76
     1
176
     1
 77
     6
176
     1
 78
     2
176
     1
 67
     7
176
     1
 79
     3
176
     1
170
     0
176
     1
171
     0
176
     1
290
     0
176
     1
 93
        1
176
     1
 44
0.0
176
     1
173
     0
176
     1
  0
VISUALSTYLE
  5
35
102
{ACAD_REACTORS
330
2A
102
}
330
2A
100
AcDbVisualStyle
  2
Dim
 70
    11
177
     2
291
     1
 71
     2
176
     1
 72
     2
176
     1
 73
     0
176
     1
 90
        0
176
     1
 40
-0.6
176
     1
 41
-30.0
176
     1
 62
     5
 63
     7
421
 16777215
176
     1
 74
     1
176
     1
 91
        4
176
     1
 64
     7
176
     1
 65
   257
176
     1
 75
     1
176
     1
175
     1
176
     1
 42
1.0
176
     1
 92
        8
176
     1
 66
     7
176
     1
 43
1.0
176
     1
 76
     1
176
     1
 77
     6
176
     1
 78
     2
176
     1
 67
     7
176
     1
 79
     5
176
     1
170
     0
176
     1
171
     0
176
     1
290
     0
176
     1
 93
        1
176
     1
 44
-50.0
176
     1
173
     0
176
     1
  0
VISUALSTYLE
  5
39
102
{ACAD_REACTORS
330
2A
102
}
330
2A
100
AcDbVisualStyle
  2
Facepattern
 70
    15
177
     2
291
     1
 71
     2
176
     1
 72
     2
176
     1
 73
     0
176
     1
 90
        0
176
     1
 40
-0.6
176
     1
 41
-30.0
176
     1
 62
     5
 63
     7
421
 16777215
176
     1
 74
     1
176
     1
 91
        4
176
     1
 64
     7
176
     1
 65
   257
176
     1
 75
     1
176
     1
175
     1
176
     1
 42
1.0
176
     1
 92
        8
176
     1
 66
     7
176
     1
 43
1.0
176
     1
 76
     1
176
     1
 77
     6
176
     1
 78
     2
176
     1
 67
     7
176
     1
 79
     5
176
     1
170
     0
176
     1
171
     0
176
     1
290
     0
176
     1
 93
        1
176
     1
 44
0.0
176
     1
173
     0
176
     1
  0
VISUALSTYLE
  5
2B
102
{ACAD_REACTORS
330
2A
102
}
330
2A
100
AcDbVisualStyle
  2
Flat
 70
     0
177
     2
291
     1
 71
     2
176
     1
 72
     1
176
     1
 73
     1
176
     1
 90
        2
176
     1
 40
-0.6
176
     1
 41
30.0
176
     1
 62
     5
 63
     7
421
 16777215
176
     1
 74
     0
176
     1
 91
        4
176
     1
 64
     7
176
     1
 65
   257
176
     1
 75
     1
176
     1
175
     1
176
     1
 42
1.0
176
     1
 92
        8
176
     1
 66
     7
176
     1
 43
1.0
176
     1
 76
     1
176
     1
 77
     6
176
     1
 78
     2
176
     1
 67
     7
176
     1
 79
     5
176
     1
170
     0
176
     1
171
     0
176
     1
290
     0
176
     1
 93
       13
176
     1
 44
0.0
176
     1
173
     0
176
     1
  0
VISUALSTYLE
  5
2C
102
{ACAD_REACTORS
330
2A
102
}
330
2A
100
AcDbVisualStyle
  2
FlatWithEdges
 70
     1
177
     2
291
     1
 71
     2
176
     1
 72
     1
176
     1
 73
     1
176
     1
 90
        2
176
     1
 40
-0.6
176
     1
 41
30.0
176
     1
 62
     5
 63
     7
421
 16777215
176
     1
 74
     1
176
     1
 91
        4
176
     1
 64
     7
176
     1
 65
   257
176
     1
 75
     1
176
     1
175
     1
176
     1
 42
1.0
176
     1
 92
        0
176
     1
 66
   257
176
     1
 43
1.0
176
     1
 76
     1
176
     1
 77
     6
176
     1
 78
     2
176
     1
 67
     7
176
     1
 79
     5
176
     1
170
     0
176
     1
171
     0
176
     1
290
     0
176
     1
 93
       13
176
     1
 44
0.0
176
     1
173
     0
176
     1
  0
VISUALSTYLE
  5
2D
102
{ACAD_REACTORS
330
2A
102
}
330
2A
100
AcDbVisualStyle
  2
Gouraud
 70
     2
177
     2
291
     1
 71
     2
176
     1
 72
     2
176
     1
 73
     1
176
     1
 90
        2
176
     1
 40
-0.6
176
     1
 41
30.0
176
     1
 62
     5
 63
     7
421
 16777215
176
     1
 74
     0
176
     1
 91
        4
176
     1
 64
     7
176
     1
 65
   257
176
     1
 75
     1
176
     1
175
     1
176
     1
 42
1.0
176
     1
 92
        0
176
     1
 66
     7
176
     1
 43
1.0
176
     1
 76
     1
176
     1
 77
     6
176
     1
 78
     2
176
     1
 67
     7
176
     1
 79
     5
176
     1
170
     0
176
     1
171
     0
176
     1
290
     0
176
     1
 93
       13
176
     1
 44
0.0
176
     1
173
     0
176
     1
  0
VISUALSTYLE
  5
2E
102
{ACAD_REACTORS
330
2A
102
}
330
2A
100
AcDbVisualStyle
  2
GouraudWithEdges
 70
     3
177
     2
291
     1
 71
     2
176
     1
 72
     2
176
     1
 73
     1
176
     1
 90
        2
176
     1
 40
-0.6
176
     1
 41
30.0
176
     1
 62
     5
 63
     7
421
 16777215
176
     1
 74
     1
176
     1
 91
        4
176
     1
 64
     7
176
     1
 65
   257
176
     1
 75
     1
176
     1
175
     1
176
     1
 42
1.0
176
     1
 92
        0
176
     1
 66
   257
176
     1
 43
1.0
176
     1
 76
     1
176
     1
 77
     6
176
     1
 78
     2
176
     1
 67
     7
176
     1
 79
     5
176
     1
170
     0
176
     1
171
     0
176
     1
290
     0
176
     1
 93
       13
176
     1
 44
0.0
176
     1
173
     0
176
     1
  0
VISUALSTYLE
  5
38
102
{ACAD_REACTORS
330
2A
102
}
330
2A
100
AcDbVisualStyle
  2
Linepattern
 70
    14
177
     2
291
     1
 71
     2
176
     1
 72
     2
176
     1
 73
     0
176
     1
 90
        0
176
     1
 40
-0.6
176
     1
 41
-30.0
176
     1
 62
     5
 63
     7
421
 16777215
176
     1
 74
     1
176
     1
 91
        4
176
     1
 64
     7
176
     1
 65
   257
176
     1
 75
     7
176
     1
175
     7
176
     1
 42
1.0
176
     1
 92
        8
176
     1
 66
     7
176
     1
 43
1.0
176
     1
 76
     1
176
     1
 77
     6
176
     1
 78
     2
176
     1
 67
     7
176
     1
 79
     5
176
     1
170
     0
176
     1
171
     0
176
     1
290
     0
176
     1
 93
        1
176
     1
 44
0.0
176
     1
173
     0
176
     1
  0
VISUALSTYLE
  5
33
102
{ACAD_REACTORS
330
2A
102
}
330
2A
100
AcDbVisualStyle
  2
Realistic
 70
     8
177
     2
291
     0
 71
     2
176
     1
 72
     2
176
     1
 73
     0
176
     1
 90
        0
176
     1
 40
-0.6
176
     1
 41
-30.0
176
     1
 62
     5
 63
     7
421
 16777215
176
     1
 74
     1
176
     1
 91
        0
176
     1
 64
     7
176
     1
 65
   257
176
     1
 75
     1
176
     1
175
     1
176
     1
 42
1.0
176
     1
 92
        8
176
     1
 66
     8
424
  7895160
176
     1
 43
1.0
176
     1
 76
     1
176
     1
 77
     6
176
     1
 78
     2
176
     1
 67
     7
176
     1
 79
     5
176
     1
170
     0
176
     1
171
     0
176
     1
290
     0
176
     1
 93
       13
176
     1
 44
0.0
176
     1
173
     0
176
     1
  0
VISUALSTYLE
  5
37
102
{ACAD_REACTORS
330
2A
102
}
330
2A
100
AcDbVisualStyle
  2
Thicken
 70
    13
177
     2
291
     1
 71
     2
176
     1
 72
     2
176
     1
 73
     0
176
     1
 90
        0
176
     1
 40
-0.6
176
     1
 41
-30.0
176
     1
 62
     5
 63
     7
421
 16777215
176
     1
 74
     1
176
     1
 91
        4
176
     1
 64
     7
176
     1
 65
   257
176
     1
 75
     1
176
     1
175
     1
176
     1
 42
1.0
176
     1
 92
       12
176
     1
 66
     7
176
     1
 43
1.0
176
     1
 76
     1
176
     1
 77
     6
176
     1
 78
     2
176
     1
 67
     7
176
     1
 79
     5
176
     1
170
     0
176
     1
171
     0
176
     1
290
     0
176
     1
 93
        1
176
     1
 44
0.0
176
     1
173
     0
176
     1
  0
ENDSEC
  0
EOF
