<?xml version="1.0" encoding="utf-8"?>
<!-- Generator: Adobe Illustrator 23.0.5, SVG Export Plug-In . SVG Version: 6.00 Build 0)  -->
<svg version="1.1" id="Слой_1" xmlns="http://www.w3.org/2000/svg" xmlns:xlink="http://www.w3.org/1999/xlink" x="0px" y="0px"
	 viewBox="0 0 4000 4000" style="enable-background:new 0 0 4000 4000;" xml:space="preserve">
<g>
	<path d="M951.63,2680.03c-7.01,5.48-14.39,10.56-20.97,16.52c-24.23,22-48.71,43.77-72.12,66.62
		c-36.24,35.37-76.33,65.65-119.69,91.45c-61.97,36.88-128.77,55.8-201.49,50.39c-32.49-2.41-63.85-9.34-93.8-22.46
		c-5.92-2.59-12.33-4.85-18.7-5.53c-49.02-5.23-88.57-28.87-120.55-64.69c-37.05-41.49-70.96-85.39-101.04-132.56
		c-41.09-64.46-66.91-134.36-85.17-207.93c-14.57-58.72-21.09-118.32-23.68-178.53c-2.46-57.24-5.36-114.51-0.52-171.73
		c2.62-30.96,7.69-61.72,10.23-92.68c3.35-40.9,15.55-79.29,29.92-117.27c4.19-11.08,7.37-22.54,10.97-33.84
		c10.29-32.24,27.95-59.76,51.99-83.55c28.27-27.98,61.19-48.96,96.46-66.77c62.48-31.55,128.6-50.18,198.19-56.92
		c4.85-0.47,9.78-1.25,14.39-2.73c15.44-4.98,31.41-6.61,47.29-5.32c28.11,2.28,56.22,5.19,84.14,9.19
		c54.94,7.88,107.57,24.54,159.43,43.85c7.65,2.85,15.45,5.47,23.39,7.29c10.84,2.5,15,0.29,19.04-10.1
		c2.19-5.64,3.33-11.77,4.3-17.79c9.44-58.58,30.06-113.71,51.29-168.73c28.76-74.56,72.17-140.29,121.62-202.19
		c59.06-73.93,124.37-142.33,190.41-209.97c46.02-47.13,93.47-92.86,139.25-140.22c34.96-36.16,68.35-73.84,102.3-110.96
		c7.34-8.02,12.06-10.47,17.41-7.62c5.79,3.09,6.47,8.66,2.13,19.7c-21.12,53.73-49.54,103.32-86.72,147.48
		c-24.75,29.4-50.85,57.69-76.82,86.05c-38.42,41.94-77.02,83.69-111.31,129.21c-10.57,14.03-22.4,27.11-33.65,40.64
		c-2.58,3.11-5.12,6.25-6.63,10.89c1.48-0.73,3.2-1.18,4.41-2.22c43.83-37.49,87.75-74.86,131.33-112.64
		c22.57-19.56,44.97-39.35,66.67-59.87c67.34-63.69,120.62-137.69,159.36-221.89c20.16-43.83,40.89-87.45,55.57-133.61
		c9.84-30.93,16.49-62.47,20.08-94.68c3.12-27.99-0.53-55.54-6.22-82.89c-7.6-36.5-17.79-72.16-31.72-106.89
		c-12.05-30.04-32.07-51.24-60.54-66.22c-37.39-19.67-76.05-36.2-115.4-51.33c-12.98-4.99-25.92-10.08-38.85-15.19
		c-2.65-1.05-5.29-2.23-7.75-3.68c-3.74-2.2-6.58-5.28-5.25-10c1.31-4.65,5.14-6.28,9.58-5.91c11,0.92,22.09,1.45,32.94,3.31
		c48.36,8.29,96.65,16.99,144.97,25.51c1.17,0.21,2.39,0.13,5.65-2.05c-2.56-1.62-5.28-3.05-7.67-4.9
		c-81.98-63.72-169.68-118.53-261.84-166.09c-24.26-12.52-50.47-21.25-75.8-31.68c-8.32-3.42-16.72-6.66-25.04-10.09
		c-3.02-1.24-6.01-2.62-8.85-4.21c-4.63-2.59-7.85-6.31-6.26-11.97c1.44-5.1,5.78-6.67,10.59-6.6c5.31,0.07,10.7,0.03,15.9,0.92
		c46.35,7.87,92.86,15.01,138.96,24.19c51.79,10.31,102.81,24.06,151.82,44.04c82.76,33.73,157.05,80.59,219.62,144.96
		c14.25,14.66,27.72,30.09,41.62,45.1c2.9,3.14,6.11,5.99,9.18,8.97c0.74-0.48,1.48-0.96,2.22-1.43c-1.43-4.08-2.76-8.21-4.32-12.24
		c-15.44-39.92-38.2-75.92-60.24-112.31c-2.33-3.85-4.78-7.65-6.72-11.69c-1.84-3.83-2.86-8.64,1.34-11.02
		c2.63-1.49,7.33-1.33,10.18,0.03c5.09,2.43,9.66,6.1,14.15,9.63c51.89,40.83,99.51,86.27,144.81,134.22
		c12.31,13.03,24.74,25.95,37.12,38.92c0.77-0.41,1.53-0.83,2.3-1.24c-1.7-4.23-3.36-8.47-5.12-12.68
		c-48.46-116.11-125.16-210.29-224.07-286.88c-21.29-16.48-44.49-30.5-66.81-45.65c-3.03-2.06-6.74-3.62-8.86-6.38
		c-1.67-2.17-2.65-6.45-1.59-8.68c1.05-2.21,5.05-4.25,7.71-4.19c3.92,0.08,7.89,1.83,11.67,3.32
		c45.96,18.15,88.89,41.95,127.61,72.53c38.84,30.67,77.18,62.07,114.27,94.82c45.13,39.85,80.79,87.75,111.45,139.42
		c2.03,3.42,4.13,6.8,7.88,9.5c-0.86-3.83-1.64-7.68-2.59-11.49c-15.54-62.18-38.37-121.61-67.6-178.61
		c-1.86-3.63-3.73-7.33-4.98-11.19c-1.37-4.26-0.34-8.24,3.86-10.57c4.32-2.4,7.91-0.63,10.84,2.75c1.33,1.53,2.34,3.34,3.48,5.04
		c37.15,55.52,70.15,113.38,98.79,173.75c37.27,78.57,82.01,152.76,131.51,224.18c54.75,79,120.38,147.61,195.98,206.8
		c27.38,21.44,54.9,42.71,82.21,64.25c29.3,23.11,60.52,43.35,92.47,62.53c86.74,52.06,169.68,109.79,251.26,169.47
		c44.68,32.69,85.61,69.86,122.09,111.61c26.38,30.19,52.51,60.63,77.73,91.78c15.16,18.72,29.26,38.45,42.19,58.78
		c10.93,17.18,19.76,35.73,29,53.94c5.93,11.69,13.25,14.45,24.62,7.59c3.82-2.3,7.38-5.2,10.59-8.31
		c4.99-4.83,9.89-9.82,14.28-15.19c26.75-32.72,58.56-59.16,95.63-79.57c54.54-30.03,109.4-59.33,169.53-76.9
		c55.24-16.14,111.28-27.17,169.32-23.74c38.66,2.28,76.26,10.26,112.84,22.42c28.82,9.58,52.3,28.52,75.22,47.76
		c21.81,18.32,40.39,39.78,53.85,64.83c46.51,86.56,91.48,173.92,119.1,268.81c25.75,88.48,46.08,178.19,58.67,269.6
		c5.96,43.31,3.76,86.47,0.94,129.82c-4.96,76.25-27.33,148.04-56.94,217.47c-26.81,62.85-63.72,119.83-112.17,168.74
		c-49.33,49.8-108.48,82.28-175.91,100.36c-9.06,2.43-18.16,5.06-26.78,8.71c-29.87,12.63-61.18,17.32-93.31,18.27
		c-36.61,1.08-72.79-2.55-108.45-10.44c-32.25-7.14-61.61-21.8-90.27-37.66c-28.71-15.89-55.21-35.06-80.58-55.88
		c-7.86-6.45-16.69-11.77-25.28-17.28c-4.05-2.6-8.58-4.43-14.34-5.38c1.37,2.03,2.47,4.34,4.16,6.06
		c47.11,48.02,87.86,101.35,128.76,154.53c6.95,9.04,12.68,19.04,18.76,28.73c1.71,2.73,3.17,5.84,3.81,8.97
		c1.29,6.25-3.33,10.63-9.4,8.79c-3.42-1.04-6.43-3.45-9.63-5.24c-18.83-10.5-37.66-21.01-58.19-29.78
		c2.35,2.86,4.55,5.85,7.06,8.56c22.52,24.3,45.42,48.27,67.52,72.94c10.34,11.55,19.69,24.08,28.64,36.77
		c36.86,52.23,70.61,106.34,96.32,165.06c6.37,14.55,11.13,29.82,16.46,44.82c0.94,2.65,1.67,5.67,1.35,8.38
		c-0.25,2.07-1.92,4.88-3.68,5.6c-1.76,0.71-4.87-0.16-6.56-1.43c-2.2-1.65-3.73-4.29-5.32-6.66c-13.58-20.16-30.38-37.47-48-54.02
		c-13.06-12.27-28.96-19.82-45.42-26.23c-10.67-4.16-21.42-8.11-32.23-11.89c-21.04-7.36-40.04-18.48-58.38-30.93
		c-7.7-5.23-15.43-10.66-26.19-11.31c-0.83,5.28,2.34,8.65,4.46,12.26c9.34,15.86,19.15,31.46,28.08,47.54
		c13.36,24.04,26.21,48.84,28.52,76.53c3.02,36.21,4.64,72.67,4.2,109c-0.3,24.37-4.81,48.75-8.3,73c-1.2,8.37-4.69,16.47-7.7,24.48
		c-1.63,4.35-5.26,8.57-10.19,6.57c-3.05-1.23-5.89-5.58-6.72-9.04c-1.22-5.05-0.97-10.57-0.62-15.85
		c2.47-37.44-5.3-73.21-17.25-108.33c-0.92-2.7-2.02-5.35-3.18-7.96c-0.29-0.64-1.12-1.04-3.06-2.76
		c-1.28,12.89-2.82,24.73-3.56,36.63c-4.59,73.19-21,143.9-44.28,213.21c-6.77,20.15-12.85,40.53-19.46,60.73
		c-1.26,3.83-3.21,7.54-5.47,10.89c-0.89,1.32-3.73,2.36-5.23,1.92c-1.48-0.43-3.35-2.85-3.36-4.42c-0.05-4.45,0.45-8.97,1.28-13.36
		c6.88-36.65,12.18-73.49,11.1-110.9c-0.97-33.76-7.95-65.83-29.47-93.08c-4.52-5.73-10.1-10.64-15.37-15.74
		c-1.32-1.28-3.33-1.84-7.01-3.76c0.6,8.15,1.06,14.46,1.53,20.78c1.94,25.69,4.52,51.36,5.67,77.09
		c1.62,36.25-3.5,71.82-13.73,106.63c-10.16,34.57-22.01,68.54-37.63,101.06c-4.59,9.55-10.11,18.7-15.77,27.68
		c-2.93,4.65-6.37,10.94-13.39,7.58c-5.9-2.82-4.48-8.93-3.57-14.23c3.24-18.95,6.83-37.84,9.68-56.84
		c5.52-36.88,8.74-73.93,6.6-111.27c-0.16-2.83-0.75-5.64-1.2-8.46c-0.03-0.19-0.59-0.31-2.38-1.16c-1.35,4.15-2.64,8.19-3.96,12.22
		c-15.94,48.56-30.87,97.51-51.81,144.25c-18.56,41.44-38.15,82.35-61.19,121.6c-10.32,17.57-18.33,36.49-27.61,54.68
		c-1.91,3.75-4.77,7.01-7.19,10.49c-0.95-0.28-1.91-0.56-2.86-0.84c0.47-6.21,0.26-12.57,1.54-18.61
		c5.54-25.99,11.71-51.84,17.28-77.83c4.45-20.79,8.86-41.62,12.29-62.59c1.88-11.49,1.72-23.31,2.48-34.99
		c-0.86-0.28-1.72-0.56-2.58-0.84c-1.8,2.4-4,4.61-5.34,7.25c-10.17,20.05-20.77,39.92-30.11,60.36
		c-28.04,61.39-64.63,117.42-105.59,170.79c-1.74,2.27-3.26,5.03-5.56,6.46c-2.49,1.55-7.1,3.38-8.43,2.27
		c-2.26-1.9-3.94-6.14-3.58-9.13c0.57-4.74,2.84-9.33,4.7-13.86c11.53-28.06,21.22-56.68,26.77-86.58c0.6-3.22,1.16-6.44,1.6-9.68
		c0.09-0.65-0.5-1.38-0.94-2.5c-0.97,0.77-1.97,1.33-2.67,2.15c-58.94,69.1-117.73,138.32-176.89,207.23
		c-11.17,13.01-23.74,24.84-35.84,37.03c-3.14,3.16-6.7,6.16-10.61,8.2c-2.1,1.1-6.12,0.99-7.86-0.37
		c-1.67-1.32-2.55-5.22-1.95-7.51c1.13-4.27,3.35-8.31,5.52-12.23c10.14-18.28,19.58-36.85,24.69-57.29
		c0.57-2.28,1.02-4.58,1.55-6.94c-1.5-0.21-2.51-0.68-2.93-0.36c-35.93,27.08-76.75,45.27-117.45,63.38
		c-50.02,22.26-96.8,49.64-139.43,83.94c-26.46,21.29-52.18,43.48-78.66,64.74c-19.77,15.87-40.2,30.9-60.37,46.26
		c-1.95,1.48-4.09,2.71-6.2,3.96c-4.06,2.43-8.39,4.02-12.51,0.59c-4.25-3.53-3.15-8.14-1.19-12.37c2.4-5.19,5.64-10.03,7.7-15.34
		c4.57-11.77,8.93-23.65,12.75-35.68c1.38-4.36,0.96-9.28,1.61-16.87c-5.53,4.26-8.83,6.43-11.7,9.06
		c-49.21,45.18-103.03,84.65-155.5,125.81c-0.97,0.76-1.94,1.51-2.96,2.19c-3.56,2.35-7.31,4.07-11.38,1.4
		c-4.61-3.02-4.26-7.62-3.04-12.11c0.96-3.53,2.41-6.95,3.78-10.36c9.54-23.64,15.94-48.07,19.29-73.36
		c2.49-18.88,1.42-37.55-1.7-56.2c-2.61-15.65-10.95-26.16-26.89-29.77c-24.32-5.51-48.65-10.95-72.97-16.49
		c-57.75-13.15-110.99-36.3-158.75-71.62c-5.05-3.74-9.72-8.29-18.78-11.28c4.5,10.49,7.71,18.69,11.51,26.61
		c3.89,8.11,8.77,15.75,12.36,23.98c1.23,2.82,1.14,8.04-0.67,9.84c-1.79,1.79-6.53,1-9.92,0.67c-1.89-0.18-3.73-1.6-5.46-2.67
		c-34.77-21.51-70.32-41.8-102.03-67.98c-21.25-17.55-40-37.43-58.09-58.06c-2.83-3.23-5.89-6.27-8.84-9.39
		c-0.75,0.42-1.51,0.85-2.26,1.27c5.91,18.55,11.25,37.31,17.91,55.59c5.88,16.11,13.23,31.67,19.96,47.47
		c0.64,1.5,1.46,2.93,2.12,4.42c1.87,4.18,4.11,8.76-0.68,12.14c-4.39,3.09-7.75-0.54-10.61-3.34
		c-61.86-60.76-125.79-119.7-172.29-194.1c-1.24-1.99-2.88-3.72-6.18-4.89c1.37,6.94,2.75,13.89,4.11,20.84
		c9.93,50.78,26.52,99.5,45.43,147.52c1.67,4.24,6.51,9.61,0.59,13.01c-6.9,3.96-8.72-3.65-11.41-7.68
		c-21.33-32-42.91-63.83-63.62-96.22c-35.15-54.97-64.23-113.02-86.09-174.58c-0.79-2.22-1.84-4.35-4.31-6.35
		c-0.14,2.14-0.46,4.28-0.4,6.42c1.75,59.91,10.79,118.88,23.42,177.35c1.8,8.36,4.96,16.42,7.39,24.65
		c0.8,2.71,1.85,5.54,1.73,8.27c-0.18,4.2-4.99,6-8.13,3.1c-1.73-1.6-2.94-3.88-4.04-6.03c-13.17-25.87-26.19-51.83-39.43-77.67
		c-29.7-57.99-55.44-117.62-74.95-179.84c-3.9-12.45-6.92-25.19-10.6-38.77c-1.16,2.41-2.53,4.2-2.89,6.17
		c-7.49,41.19-11.97,82.6-8.14,124.52c0.71,7.72,2.26,15.36,3.35,23.05c0.34,2.4,0.92,4.92,0.54,7.25
		c-0.86,5.27-6.02,7.45-10.11,4.06c-2.76-2.28-4.92-5.47-6.82-8.58c-16.38-26.9-32.93-53.71-48.87-80.87
		c-23.82-40.58-34.78-85.32-41.21-131.41c-0.72-5.18-1.27-10.38-2.88-15.63c-6.12,15.97-8.78,32.58-11.59,49.14
		c-6.14,36.1-5.84,72.51-4.88,108.95c0.11,4.06,0.11,8.21-0.59,12.18c-0.26,1.46-2.6,3.4-4.14,3.55c-1.54,0.15-3.45-1.46-4.84-2.71
		c-0.79-0.71-0.85-2.24-1.25-3.39c-9.48-27.42-18.7-54.94-28.52-82.24c-10.26-28.54-18.07-57.66-22.58-90.38
		c-3.75,5.14-6.48,8.39-8.66,11.98c-6.58,10.83-12.99,21.77-19.37,32.73c-1.86,3.19-3.3,7.38-7.91,6.01
		c-4.66-1.38-3.87-5.82-3.19-9.37c4.44-23.29,8.29-46.73,13.74-69.79c16.9-71.53,42.99-139.84,73.77-206.45
		c1.85-4,3.6-8.04,3.75-13.53c-2.85,3.02-5.75,5.99-8.54,9.07c-48.59,53.46-86.55,113.97-116.71,179.32
		c-13.51,29.28-24.79,59.61-36.56,89.67c-3.4,8.7-5,18.11-7.37,27.2c-0.52,1.97-0.25,4.43-1.37,5.9c-1.56,2.05-4.13,4.71-6.17,4.63
		c-1.81-0.07-3.68-3.39-5.16-5.53c-0.6-0.86-0.3-2.39-0.3-3.61c0.15-34.76-2.13-69.81,5.44-103.98
		c6.35-28.67,15.39-56.76,23.3-85.08c1.38-4.96,3.06-9.84,2.66-15.81c-3.14,3.05-6.44,5.95-9.41,9.16
		c-35.59,38.55-68.41,79.28-97.08,123.28c-2.58,3.96-4.55,10.16-10.69,7.79c-7.07-2.73-3.72-8.86-2.44-13.81
		c22.68-88.06,54.48-172.42,104.49-248.88c17.65-26.99,37.91-52.29,57.2-78.2c11.48-15.42,23.4-30.51,35.07-45.79
		c1.67-2.19,3.03-4.62,5.63-8.65c-4.94,1.14-8.13,1.44-10.96,2.6c-11.72,4.8-23.37,9.77-34.97,14.85
		c-5.99,2.62-11.76,5.76-17.76,8.35c-3.74,1.61-7.96,3.32-11.39-0.44c-3.93-4.3-1.2-8.45,1.2-12.26c2.17-3.46,4.75-6.66,7.09-10.01
		c21.8-31.18,43.83-62.2,65.26-93.63c7.02-10.29,12.48-21.64,18.65-32.51c-0.62-0.58-1.23-1.15-1.85-1.73
		c-2.61,1.46-5.39,2.69-7.8,4.43c-8.62,6.22-17.34,12.35-25.63,19c-35.11,28.13-70.06,56.46-105.14,84.63
		c-3.26,2.62-6.71,7.68-11.42,3.28c-3.92-3.66-0.36-7.72,1.85-10.93c10.43-15.16,20.4-30.7,31.81-45.1
		c22.6-28.54,46.05-56.42,69.12-84.59c2.3-2.81,4.44-5.76,6.66-8.65C952.77,2681.47,952.2,2680.75,951.63,2680.03z M1880.74,2542.53
		c-1.87,6.82-5.82,9.53-11.35,8.49c-10.77-2.04-22.19-2.98-31.99-7.37c-34.77-15.59-68.52-33.22-97.27-58.84
		c-4.97-4.43-9.28-4.82-15.48-2.56c-35.73,13.03-71.65,25.52-107.46,38.34c-4.98,1.78-9.89,3.97-14.5,6.58
		c-39.31,22.2-76.49,47.44-109.74,78.13c-40.97,37.82-71.34,82.91-91.63,134.84c-10.25,26.23-10.52,52.61-2.22,79.34
		c3.76,12.1,10.37,22.1,20.11,30.16c13.01,10.77,27.23,19.46,42.77,26.14c29.17,12.55,59.83,19.52,90.97,24.68
		c19.37,3.21,38.81,5.95,58.17,9.23c15.7,2.66,28.33,11.37,43.05,22.81c-17.26,1.36-31.69,3.4-46.11,3.37
		c-14.27-0.03-28.59-1.74-42.8-3.46c-42.01-5.07-83.18-13.54-121.79-31.72c-19.42-9.14-37.07-20.9-52.02-36.37
		c-5.02-5.19-9.19-11.2-14.34-17.56c-22.81,27.28-45.19,53.78-67.28,80.53c-22.38,27.1-38.41,57.97-51.08,90.49
		c-16.71,42.88-16,85.56,4.63,127.26c9.15,18.49,20.87,35.41,35.92,49.4c14.03,13.04,28.73,25.68,44.57,36.38
		c61.87,41.8,120.08,87.83,173.05,140.66c51.55,51.42,104.34,101.61,156.77,152.14c53.99,52.03,117.12,88.51,188.57,111.16
		c50.29,15.94,100.15,33.22,150.39,49.31c23.34,7.48,46.92,14.4,70.75,20.09c40.32,9.62,81.34,14.32,122.86,14
		c37.26-0.29,72.28-8.2,102.96-30.53c14.54-10.58,29.35-20.87,43.2-32.3c35.62-29.43,70.62-59.62,106.18-89.13
		c19.2-15.93,38.98-31.16,58.64-46.53c4.49-3.51,9.28-6.94,14.47-9.14c3.31-1.41,8.45-1.95,11.27-0.3
		c4.65,2.72,2.96,7.96,0.97,12.14c-1.94,4.05-4.31,7.89-6.52,11.8c-5.85,10.32-11.8,20.58-17.5,30.97
		c-1.18,2.14-1.47,4.76-2.57,8.52c3.09-1.43,4.61-2,6-2.79c36.84-20.95,70.07-46.65,100.71-75.86
		c60.59-57.77,109.34-124.9,153.07-195.7c22.33-36.15,41.69-74.13,62.35-111.32c24.91-44.84,55.05-86.11,85.86-126.98
		c23.66-31.39,45.41-64.01,62.98-99.37c13.18-26.51,20.15-54.38,21.47-83.75c0.85-18.84,1.35-37.98-5.52-55.82
		c-10.77-27.97-24.36-54.29-46.35-75.78c-23.98-23.44-46.81-48.06-70.31-72c-4.55-4.64-9.45-9.18-14.92-12.61
		c-11.34-7.12-21.62-6.29-31.38,2.94c-5.86,5.54-11.09,12.08-15.3,18.96c-22.19,36.31-52.65,63.32-90.66,82.05
		c-2.01,0.99-4.32,1.37-7.04,2.19c-1.89-6.42,1.45-10.31,4.64-13.71c6.15-6.55,12.57-12.88,19.25-18.89
		c21.78-19.61,39.88-42.08,54.42-67.56c15.91-27.88,18.91-56.91,10.07-87.62c-4.2-14.6-11.84-27.13-22.17-37.72
		c-23.12-23.7-46.65-47.02-70.5-69.99c-33.89-32.64-72.62-58.2-115.19-78.3c-18.37-8.67-37.51-14.18-57.32-16.82
		c-21.05-2.81-42.39-3.27-63.54-5.42c-61.99-6.3-119.31,8.08-173.3,38.1c-10.16,5.65-19.08,12.42-26.28,21.67
		c-3.47,4.47-7.86,8.3-12.19,12c-3.9,3.33-8.24,3.38-12.15-0.34c-3.7-3.52-2.94-7.47-0.42-11.09c2.8-4.01,5.62-8.16,9.16-11.47
		c16.89-15.81,26.02-35.3,28.77-58.08c0.88-7.3,2.29-14.54,3.45-21.81c7.73-48.67-16.97-112.47-75.77-133.08
		c-13.09-4.59-26.42-8.52-39.77-12.29c-24.83-7.01-44.98,1.09-61.59,19.88c-2.44,2.76-5.03,5.4-7.24,8.33
		c-11.82,15.66-23.51,31.43-35.34,47.09c-2.76,3.66-5.88,7.06-8.84,10.57c-0.77-0.4-1.54-0.79-2.31-1.19
		c0.16-3.05-0.06-6.17,0.55-9.13c6.64-32.06,21.5-59.95,43.85-83.67c18.12-19.22,40.71-26.44,66.9-22.85
		c27.47,3.77,53.4,12.2,77.68,25.51c15.59,8.55,29.65,19.18,39.52,34.24c15.43,23.53,27.43,48.58,28.78,77.28
		c0.75,15.9,0.25,31.85,0.22,47.78c-0.01,3.89-0.39,7.79-0.6,11.68c5-1.97,8.6-4.7,10.7-8.3c7.82-13.38,15.92-26.69,22.48-40.69
		c9.12-19.47,10.43-40.05,6.13-61.21c-4.76-23.38-11.42-46.14-21.84-67.55c-13.24-27.22-26.65-54.4-41.42-80.8
		c-7.3-13.04-16.61-25.47-27.13-36.07c-21-21.16-47.2-30.59-77.15-27.09c-46.37,5.42-83.15,27.96-111.6,64.47
		c-9.05,11.61-17.33,23.81-26.05,35.68c-18.53,25.23-33.21,52.5-43.7,82.01c-1.05,2.96-2.54,5.76-3.81,8.59
		c-11.48-0.87-20.65-5.27-28.04-12.65c-9.54-9.52-18.95-19.25-27.49-29.66c-20.31-24.73-44.57-44.31-72.93-59.02
		c-23.68-12.28-48.62-16.1-74.97-12.67c-31.3,4.07-58.37,18.27-84.33,34.94c-48.43,31.11-68.04,76.46-60.84,132.48
		c6.62,51.56,25.76,98.76,57.83,140.22c1.01,1.3,2.56,2.19,4.77,4.03c-1.5-13.73-3.31-25.85-4.05-38.02
		c-2.23-36.5,7.97-68.86,33.87-95.31c10.57-10.8,21.64-21.24,33.33-30.8c21.99-17.98,47.24-28.28,76.01-25.45
		c36.85,3.62,68.75,19.93,98.14,41.61c4.35,3.21,7.22,7.59,6.99,14.81c-5.62-0.68-11.01-0.55-15.87-2.08
		c-10.52-3.3-20.89-7.15-31.11-11.31c-22.98-9.36-47-13.96-71.59-15.36c-11.84-0.67-23.79,0.58-34.63,6.33
		c-28.08,14.9-48.69,36.25-60.81,66.27c-7.72,19.11-7.93,38.4-5.8,57.91c4.58,41.92,22.32,76.71,58.39,100.4
		c11.26,7.4,23.13,13.9,34.93,20.43C1861.39,2523.67,1872.35,2531.25,1880.74,2542.53z M2389.02,2338.2
		c6.35,0.65,10.34,1.12,14.34,1.47c42.15,3.65,84.2,0.53,126.29-1.47c60.22-2.86,119.75-11.09,178.86-22.3
		c52-9.87,102.77-24.6,150.58-47.55c74.65-35.84,118.87-96.18,133.78-176.84c10.28-55.58,13.93-112.06,10.23-168.68
		c-1.47-22.44-4.76-44.77-6.08-67.21c-1.41-24.06-2.7-48.25-1.78-72.29c0.97-25.59,12.16-46.3,35.81-59
		c6.8-3.65,12.92-8.61,19.2-13.17c17.71-12.86,26.61-30.58,28.36-52.13c0.36-4.48,0.64-8.98,0.8-13.47
		c1.16-34.1-8.61-65.68-24.26-95.27c-20.66-39.08-53.43-62.15-97.54-68.35c-8.1-1.14-16.23-2.2-24.39-2.76
		c-90.83-6.19-181.67-3.8-272.24,3.34c-113.98,8.98-226.21,29.93-337.54,55.6c-75.06,17.31-146.98,42.18-210.23,88.01
		c-29.64,21.48-62.69,36.74-96.79,49.73c-6.49,2.47-13.12,4.66-19.83,6.41c-41.31,10.8-83.49,16.24-125.95,19.48
		c-24.1,1.84-48.25,1.58-72.15-3.08c-17.24-3.36-34.41-7.22-51.76-9.92c-76.43-11.89-153.12-21.52-230.41-25.87
		c-61.48-3.46-122.67,0.51-183.8,6.49c-55.45,5.42-110.48,13.29-164.35,27.91c-107.51,29.18-209.28,72.73-308,123.74
		c-23.75,12.27-44.84,28.53-63.57,47.69c-16.02,16.39-24.58,36.18-27.97,58.78c-4.38,29.24,0.97,57.45,10.71,84.37
		c10.48,28.94,31.38,47.47,63.91,49.48c8.16,0.5,16.39,0.74,24.45,1.98c11.67,1.8,23.63,3.2,34.74,6.92
		c23.8,7.95,40.9,34.31,38.77,59.4c-1.11,13.13-0.83,26.08,0.4,39.09c2.54,26.87,3.7,53.96,7.99,80.55
		c13.16,81.61,49.37,152.79,101.29,216.42c13.37,16.39,29.87,28.79,48.68,38.6c32.17,16.76,66.62,24.41,102.34,27.89
		c44.52,4.34,89.11,2.51,133.69,1.84c69.35-1.04,138.04-7.77,205.56-24.2c38.53-9.38,77.37-17.86,112.87-36.67
		c16.2-8.58,32.62-16.73,48.73-24.97c-14.87-25.49-29.39-50.38-44.27-75.88c-1.05,0.48-2.91,1.14-4.57,2.12
		c-21.05,12.45-43.63,20.59-67.89,23.72c-37.32,4.8-74.81,8.51-111.99,14.22c-48.23,7.41-96.64,11.82-145.38,12.58
		c-39.72,0.62-79.47-0.08-118.52-8.26c-36.31-7.61-65.89-26.29-86.52-57.68c-6.95-10.57-13.67-21.43-19.19-32.79
		c-19.22-39.5-34.01-80.65-43.48-123.58c-12.26-55.56-22.11-111.55-28.67-168.08c-4.48-38.65-7.31-77.36-3.23-116.31
		c4.88-46.68,27.6-80.6,70.73-99.87c13.04-5.83,26.61-10.56,40.17-15.1c49.39-16.56,100.36-26.6,151.4-36.43
		c73.51-14.16,147.57-21.43,222.16-12.75c49.51,5.76,98.76,14.19,147.83,23.05c19.56,3.53,38.71,10.45,57.4,17.52
		c31.35,11.85,50.72,35.21,58.74,67.54c9.56,38.5,18.59,77.13,27.53,115.78c7.87,34.05,12.22,68.45,8.66,103.5
		c-0.11,1.04,0.72,2.17,1.51,4.38c37.22-3.94,72,3.71,104.7,27.04c-0.31-6.64-0.29-10.61-0.72-14.53
		c-3.21-29.68-7.29-59.3-9.53-89.05c-1.68-22.37-2.04-44.95-1.17-67.37c0.96-24.79,14.67-40.94,38.49-48.23
		c3.9-1.19,7.87-2.27,11.87-3.03c36.89-6.99,58,1.9,75.27,34.96c9,17.24,15.7,36.02,21.01,54.79c7.79,27.52,13.37,55.66,19.97,83.52
		c0.86,3.65,2.12,7.21,3.74,12.65c26.16-29.38,55.57-49.97,90.81-60.33c-3.63-10.35-7.59-18.98-9.66-28.05
		c-5.47-23.91-10.61-47.91-15-72.04c-8.09-44.47-11.88-89.24-6.02-134.34c6-46.2,28.91-81.07,70.63-102.68
		c10.14-5.25,20.63-10.29,31.53-13.49c46.29-13.61,92.42-28.09,139.31-39.32c111.06-26.59,224.31-36.83,338.17-40.83
		c28.26-0.99,56.44,1.71,83.64,10.55c26.83,8.71,45.13,26.54,53.29,53.35c4.85,15.94,7.98,32.58,10.1,49.14
		c3.02,23.51,4.26,47.25,6.54,70.87c5.57,57.82,12.07,115.56,16.69,173.46c3.29,41.21,2.92,82.61-2.41,123.75
		c-6.62,51.13-33.45,87.67-80.01,109.84c-32.99,15.71-67.12,28.13-102.72,36.51c-75.4,17.74-151.86,28.91-228.82,37.01
		c-23.07,2.43-46.19,4.02-70.78,1.11C2409.36,2281.9,2402.5,2309.74,2389.02,2338.2z M573.21,2278.78
		c-0.41-0.82-0.81-1.64-1.22-2.46c-14.45,5.37-28.89,10.76-43.34,16.11c-3.83,1.42-7.61,3.3-11.57,3.88
		c-2.4,0.35-6.22-0.64-7.37-2.38c-1.15-1.74-0.75-5.94,0.66-7.68c3.83-4.72,8.16-9.23,12.98-12.92
		c34.4-26.26,71.29-47.8,113.5-59.13c14.21-3.82,28.38-7.81,42.53-11.87c4.42-1.27,8.7-3.03,14.9-5.23
		c-3.63-1.78-4.98-2.77-6.49-3.13c-28.26-6.8-56.61-12.57-85.9-13.21c-17.95-0.39-35.85-2.71-53.77-4.27
		c-2.82-0.25-5.85-0.57-8.3-1.81c-1.86-0.94-4.11-3.4-4.09-5.16c0.02-1.81,2.25-4.43,4.12-5.2c3.73-1.52,7.84-2.29,11.87-2.89
		c28.71-4.31,57.44-8.43,86.14-12.76c12.31-1.86,24.85-2.93,37.9-8.96c-3.52-2.29-5.61-4.11-8.03-5.15
		c-12.02-5.15-23.95-10.6-36.25-15c-37.43-13.4-73.46-29.78-108.38-48.79c-22.4-12.19-43.13-26.68-62.56-43.04
		c-5.85-4.93-10.72-11.21-15.23-17.45c-1.53-2.12-1.92-7.14-0.48-8.83c1.95-2.28,6.15-3.53,9.41-3.58
		c3.52-0.05,7.16,1.56,10.58,2.87c27.49,10.52,55.15,20.61,82.32,31.9c20.57,8.55,41.52,14.97,63.66,17.28
		c5.92,0.62,12.16,2.03,18.41-2.47c-18.07-31.62-32.13-65.4-59.07-91.12c-13.35-12.75-26.21-26.58-43.29-33.83
		c-29.69-12.61-59.83-24.29-90.32-34.81c-23.01-7.94-45.1-3.04-65.62,10.04c-27.08,17.26-49.74,39.06-65.05,67.2
		c-11.29,20.75-20.08,42.88-29.53,64.59c-11.9,27.35-21.76,55.7-35.31,82.18c-22.24,43.45-37.24,88.98-45.25,136.87
		c-5.06,30.24-9.79,60.68-5.46,91.5c2.79,19.84,6.07,39.62,9.54,59.35c10.71,60.85,32.02,117.32,68.38,167.85
		c13.61,18.9,25.08,39.33,38.43,58.43c9.57,13.7,19.76,27.19,31.25,39.28c15.76,16.58,32.73,32.05,49.69,47.44
		c30.71,27.87,67.82,43.71,107,55.27c5.82,1.72,12.07,2.15,18.16,2.68c31.08,2.69,60.8-3.74,90.65-11.9
		c69.41-18.98,129.27-54.42,182.39-102.17c4.87-4.38,9.3-9.25,13.93-13.9c-7.89,0.63-14.41,2.8-20.8,5.32
		c-44.96,17.78-91.65,23.67-139.65,20.12c-9.35-0.69-18.77-1.75-27.87-3.88c-6.65-1.55-13.32-4.35-19.08-8
		c-7.19-4.55-5.99-11.54,2.03-14.74c2.98-1.19,6.33-1.76,9.56-1.99c19.98-1.42,39.99-2.51,59.97-3.98
		c32.43-2.38,64.21-7.96,93.7-22.35c27.2-13.28,49.07-32.39,61.66-60.67c1.04-2.33,1.19-5.04,2.04-8.84
		c-6.98,0.79-12.59,1.51-18.22,2.05c-14.24,1.37-28.47,2.95-42.74,3.83c-5.19,0.32-10.6-0.67-15.71-1.87
		c-5.42-1.27-9.97-4.27-10.08-10.7c-0.1-5.83,3.99-8.66,8.75-10.59c3.02-1.22,6.16-2.22,9.33-2.98c5.57-1.33,11.2-2.37,16.79-3.59
		c18.34-3.97,34.89-11.66,48.83-24.34c3.73-3.39,6.64-7.66,9.93-11.53c-0.52-0.75-1.04-1.49-1.56-2.24
		c-7.92,2.77-15.79,5.7-23.76,8.29c-21.87,7.11-44.03,13.54-67.31,10.52c-11.23-1.46-22.25-4.96-33.15-8.23
		c-4.6-1.38-9.58-4.21-9.23-10.13c0.36-6.31,6.12-7.02,10.81-8.08c5.97-1.35,12.1-2.01,18.11-3.26
		c23.11-4.78,44.96-12.46,62.89-28.57c3.99-3.58,7.26-7.96,10.86-11.97c-12.98,0.68-24.47,3.89-36.15,4.95
		c-23.58,2.14-47.26,3.24-70.91,4.47c-4.32,0.23-9.89,0.43-11.35-5.05c-1.63-6.15,3.77-8.6,8.05-10.7
		c7.33-3.59,14.91-6.7,22.49-9.75c18.72-7.51,36.35-16.89,51.61-30.25c3.22-2.82,6.05-6.1,10.08-10.2c-3.3-0.22-4.55-0.56-5.7-0.34
		c-47.06,8.95-94.41,8.01-141.84,4.09c-2.44-0.2-5.15,0.04-7.23-0.97c-2.29-1.11-5.4-3.31-5.57-5.26c-0.18-2.03,2.28-5.12,4.4-6.33
		c4.22-2.42,8.98-3.88,13.53-5.71c17.44-7.02,35.13-13.47,52.27-21.17c23.28-10.46,44.33-24.59,62.97-42.1
		c3.27-3.07,7.81-5.65,8.02-11.42c-34.24-4.1-67.7-3.52-100.15,6.9c-23.7,7.61-46.83,17-70.11,25.86
		c-7.25,2.76-14.07,6.61-21.26,9.53c-5.46,2.21-11.92,6.94-16.78,0.63c-4.74-6.17,1.25-11.56,4.56-16.35
		c4.64-6.71,10.03-12.91,15.24-19.21C565.62,2287.25,569.46,2283.05,573.21,2278.78z M3248.79,2264.19
		c3.45,1.99,6.75,4.3,10.36,5.92c19.77,8.86,39.4,18.08,59.46,26.22c77.65,31.5,156.95,32.09,237.23,11.74
		c20.68-5.24,39.13-14.48,53.21-30.99c30.32-35.55,59.39-72.07,79.35-114.7c29.02-62.02,51.55-126.4,68.38-192.78
		c5.28-20.83,6.87-41.78,5.26-63.24c-2.8-37.22-9.54-73.78-17-110.26c-5.03-24.63-13.89-47.9-25.76-69.99
		c-12.58-23.41-25.78-46.5-38.44-69.87c-17.47-32.26-39.38-61.1-65.12-87.21c-18.66-18.93-37.02-38.18-55.02-57.73
		c-19.93-21.65-44.54-35.63-71.78-45.56c-13.81-5.03-28.16-5.72-42.37-2.77c-77.76,16.15-131.88,60.29-159.08,135.72
		c-4.43,12.3-7.94,24.93-11.8,37.43c-0.79,2.54-1.27,5.18-2.21,9.14c4.88-1.7,8.29-2.79,11.63-4.08
		c36.2-13.93,69.34-33.03,98.78-58.43c4.95-4.27,9.96-8.56,15.4-12.15c2.37-1.56,7.43-2.84,8.57-1.65c2.08,2.17,3.41,6.53,2.8,9.51
		c-1.3,6.34-3.73,12.52-6.25,18.54c-20.97,50.22-50.96,94.1-92.18,129.94c-18.83,16.37-37.94,32.43-56.86,48.69
		c-2.2,1.89-4.05,4.19-7.92,8.24c4.81-0.93,6.79-1.17,8.68-1.71c37.91-10.86,71.79-29.32,102.14-54.39c2.2-1.82,4.16-4.19,6.67-5.31
		c1.95-0.87,5.68-1.13,6.69,0.02c1.52,1.75,2.47,5.36,1.69,7.46c-1.38,3.73-3.83,7.27-6.53,10.26
		c-15.3,17.02-30.22,34.45-46.42,50.58c-15.92,15.86-33.26,30.3-49.88,45.46c-3.83,3.49-7.3,7.38-12.29,12.46
		c6.72,2.26,11.51,4.24,16.49,5.5c21.67,5.5,43.71,5.36,65.86,4.24c6.84-0.34,13.88,0.37,20.59,1.77c2.33,0.49,5.26,4.44,5.44,6.99
		c0.18,2.54-2.15,6.13-4.44,7.76c-2.86,2.03-6.76,2.69-10.3,3.65c-21.69,5.87-43.35,11.92-65.14,17.4
		c-17.82,4.48-35.82,8.26-53.74,12.36c-2.5,0.57-4.97,1.23-7.95,1.96c1.24,1.53,1.62,2.36,2.26,2.74c2.82,1.66,5.71,3.2,8.58,4.75
		c33.26,17.94,69.58,25.73,106.29,32.47c14.43,2.65,28.75,6.19,42.8,10.39c5.6,1.67,10.81,5.69,15.35,9.63
		c4.23,3.67,5.39,9.15,3.3,14.67c-2.2,5.84-7.12,7.52-12.83,7.45c-3.26-0.04-6.52-0.45-9.79-0.63c-15.9-0.88-31.8-2.09-47.71-2.51
		c-26.58-0.71-53.16-0.93-79.75-1.3c-6.76-0.1-13.52-0.01-20.11-0.01c-0.14,1.79-0.33,2.27-0.17,2.52c0.89,1.34,1.75,2.72,2.84,3.9
		c13.88,15.05,30.26,26.19,50.19,31.63c11.04,3.02,22.25,5.48,33.15,8.93c9.43,2.99,11.03,10.24,3.43,16.37
		c-5.65,4.55-12.2,8.36-18.92,11.15c-29.85,12.37-59.93,24.17-91.58,31.31c-3.82,0.86-7.55,2.1-11.55,3.24
		c0.9,1.81,1.07,2.73,1.62,3.17c2.57,2.01,5.2,3.96,7.9,5.8c20.48,13.95,43.71,19.84,67.8,23.45c8.86,1.33,17.68,3.25,26.34,5.55
		c4.38,1.16,8.25,3.93,8.56,9.29c0.31,5.31-3,8.41-7.3,10.28c-5.61,2.45-11.33,4.77-17.2,6.43c-24.96,7.06-49.21,16.89-77.1,18.6
		c2.26,2.6,3.05,3.98,4.23,4.8c54.78,38.18,115.15,57.57,182.29,54.08c6.12-0.32,12.26-1.22,18.34-0.89
		c2.12,0.11,4.95,2.78,5.82,4.94c0.59,1.48-1.35,4.32-2.72,6.12c-0.89,1.17-2.73,1.76-4.26,2.28
		c-28.73,9.61-57.47,18.99-88.37,18.64C3300.94,2269.25,3275.31,2267.64,3248.79,2264.19z M1321.1,1642.14
		c7.85-17.53,14.07-34.01,22.42-49.32c8.39-15.39,18.37-30.01,28.62-44.27c16.51-22.97,34.63-44.78,56.78-62.51
		c12.03-9.63,25.64-17.35,38.91-25.32c4.59-2.76,10.32-4.87,16.85,0.54c-56.77,48.87-101.65,105.54-128.37,177.39
		c6.98-0.47,12.58-0.85,18.19-1.23c43.28-2.94,86.58-5.24,129.98-3.15c73.64,3.54,146.8,11.95,219.61,23.03
		c59.61,9.07,119.12,15.14,179.61,11.61c37.78-2.21,73.93-9.41,107.84-25.71c34.26-16.46,68.28-33.6,101.42-52.19
		c53.52-30,109.7-52.93,169.02-68.32c70.14-18.2,141.25-31.73,212.6-44.09c5.42-0.94,10.83-2,18.96-3.51
		c-11.77-11.62-21.56-21.29-31.36-30.94c-18.57-18.29-39.61-32.89-63.83-42.75c-6.44-2.62-12.91-5.19-19.21-8.12
		c-1.99-0.93-5.01-3.15-4.85-4.45c0.3-2.44,2.1-5.98,4.11-6.68c5.29-1.85,11.03-3.34,16.59-3.35c14.52-0.03,28.27,4.03,41.44,10
		c15.78,7.15,30.01,16.73,42.94,28.19c11.33,10.03,22.61,20.14,33.49,30.66c17.28,16.71,36.62,12.93,57.48,7.45
		c-1.68-2.48-2.42-3.94-3.49-5.1c-19.12-20.75-37.7-42.04-57.56-62.06c-28.37-28.6-60.51-52.4-95.69-72.24
		c-48.11-27.14-99.55-35.66-153.97-29.67c-35.79,3.94-69.5,15.35-102.23,29.42c-29.66,12.75-58.48,27.46-87.71,41.2
		c-6.65,3.12-13.36,6.21-20.31,8.53c-2.15,0.72-6.19-0.39-7.49-2.09c-1.26-1.65-1.13-5.88,0.18-7.68
		c3.56-4.91,7.54-9.82,12.31-13.49c9.38-7.22,19.22-13.9,29.2-20.29c44.44-28.46,92.92-47.99,142.88-64.21
		c4.03-1.31,8.02-2.78,12.02-4.17c-0.2-0.99-0.4-1.99-0.59-2.98c-17.41,0-34.83,0.33-52.24-0.08c-23.26-0.55-45.54,3.89-67.34,11.55
		c-24.46,8.6-47.35,20.21-68.83,34.74c-56.4,38.15-96.38,87.94-110.89,155.86c-1.6,7.5-2.92,15.05-4.36,22.58
		c6.3-6.06,10.1-13.15,14.66-19.71c4.65-6.7,9.59-13.31,15.23-19.16c5.39-5.59,10.61-12.1,21.68-13.64
		c-2.29,5.96-3.43,10.59-5.7,14.56c-14.72,25.73-24.98,53.28-33.5,81.54c-0.75,2.51-1.01,5.16-1.5,7.74
		c4.19-2.82,6.79-6.36,9.36-9.91c36.8-50.97,82.08-90.89,143.05-110.75c12.72-4.14,25.16-6.88,40.3-1.84
		c-8.99,7.51-16.57,14.85-25.14,20.76c-12.44,8.58-25.43,16.4-38.47,24.06c-45.3,26.64-81.13,63.16-111.04,105.89
		c-8.45,12.06-16.47,24.43-25.04,36.39c-6.52,9.09-12.58,9.18-19.76,0.82c-1.58-1.85-3.2-3.89-4.01-6.13
		c-5.46-15.07-17.08-24.41-29.62-33.25c-9.68-6.83-18.43-14.97-28.04-21.91c-18.22-13.16-35.78-27.68-55.37-38.44
		c-58.44-32.1-120.73-54.56-186.26-67.12c-20.4-3.91-41.42-4.58-62.14-6.84c-4.56-0.5-9.99,0.89-12.73-4.41
		c0.98-6.44,5.82-8.37,10.41-9.66c6.25-1.76,12.82-3.69,19.19-3.49c19.98,0.65,40.34,0.15,59.82,3.88
		c89.49,17.13,173.24,48.23,245.47,105.75c3.69,2.94,7.71,5.46,13.27,9.36c-0.4-4.34-0.31-6.35-0.8-8.2
		c-3.2-12.11-8.56-23.25-18.2-31.41c-21.83-18.48-44.01-36.56-66.18-54.63c-20.96-17.09-42.99-32.64-66.67-45.81
		c-22.66-12.6-46.18-22.93-71.81-27.69c-36.13-6.7-72.47-7.25-108.72-1.55c-51.63,8.12-97.89,29.84-139.33,60.73
		c-79.22,59.06-135.8,135.21-167.15,229.44c-0.74,2.22-1.06,4.57-1.93,8.4C1286.71,1646.35,1304.8,1644.13,1321.1,1642.14z
		 M3404.13,2428.48c-0.17,1.2-0.34,2.4-0.51,3.6c15.34,6.82,29.13,17.04,46.66,19.07c23.73,2.74,47.48,2.2,70.99-1.52
		c70.69-11.21,132.35-41.26,184.52-90.37c28.78-27.09,52.26-58.39,73.5-91.68c30.9-48.42,51.36-101.2,68.86-155.52
		c23.28-72.27,31.23-146.57,26.53-221.74c-4.01-64.14-18.32-126.96-31.66-189.87c-26.05-122.87-73.69-237.21-132.19-347.58
		c-13.32-25.14-29.37-48.21-50.24-67.67c-3.85-3.59-8.07-7.1-12.74-9.4c-11-5.41-22.09-10.92-33.67-14.8
		c-11.13-3.73-22.85-7.05-34.47-7.7c-20.38-1.13-40.89-0.13-61.34,0.14c-2.47,0.03-4.93,1.09-8.88,2.02c2.66,2.08,3.83,3.17,5.15,4
		c41.49,26.37,76.83,59.58,108.14,97.26c4.17,5.02,8.17,10.3,11.4,15.94c1.27,2.22,0.19,5.79,0.18,8.74
		c-2.66-0.07-5.61,0.58-7.9-0.38c-3.32-1.4-6.31-3.77-9.18-6.05c-9.29-7.38-18.8-14.54-27.6-22.46
		c-26.52-23.86-57.59-40.14-89.63-54.94c-30.4-14.04-62.23-19.7-95.57-17.1c-70.1,5.45-135.53,25.66-195.93,61.86
		c-16.25,9.74-30.91,21.42-44.06,35.03c-28.67,29.68-47.76,65.33-62.24,103.36c-4.51,11.84-4.34,25.61-5.32,38.57
		c-0.37,4.79,2.1,9.81,3.85,17.1c5.5-4.08,9.52-6.08,12.16-9.22c4.98-5.93,9.4-12.37,13.67-18.85
		c18.9-28.72,37.83-57.39,60.94-83.02c19.4-21.52,42.64-38.09,67.24-52.95c3.11-1.88,6.6-3.56,10.11-4.17
		c2.39-0.41,6.32,0.44,7.4,2.12c1.13,1.74,0.45,5.66-0.84,7.74c-2.35,3.77-5.73,6.89-8.7,10.26
		c-14.33,16.27-29.03,32.23-42.89,48.89c-15.26,18.34-27.01,39-36.35,60.93c-4.1,9.62-7.22,19.66-5.42,32.72
		c3.63-4.11,6.22-6.51,8.18-9.35c27.07-39.03,61.19-71.31,97.13-101.87c33.16-28.19,71.17-46.6,113.75-54.77
		c42.32-8.11,82.99-3.47,120.78,19.15c20.46,12.24,39.4,26.38,57.24,42.12c14.11,12.45,28.31,24.81,42.78,36.83
		c16.75,13.91,31.56,29.58,45.8,46.04c38.7,44.74,69.49,95.04,103.03,143.45c26.19,37.8,38.54,78.96,36.71,124.76
		c-0.49,12.23-0.32,24.61,1.03,36.75c4.16,37.49,6.03,75.04,4.5,112.73c-3.21,79.12-20.04,155.81-44.62,230.65
		c-14.52,44.22-38.01,84.5-69.3,119.15c-56.65,62.74-125.74,106.7-206.91,130.92c-19.57,5.84-39.71,9.74-59.56,14.62
		C3420.44,2424.05,3412.3,2426.32,3404.13,2428.48z M662.92,2830.28c-8.36-6.85-16.2-10.82-25.31-11.52
		c-11.4-0.88-22.86-1.47-34.29-1.52c-19.22-0.08-38.45,0.55-57.68,0.52c-23.36-0.03-46.53-1.76-69.44-7.01
		c-39.51-9.06-71.9-31.4-102.29-56.34c-22.03-18.09-41.86-38.94-61.96-59.26c-10.32-10.44-19.36-22.19-28.48-33.75
		c-24.17-30.63-45.24-63.33-60.08-99.46c-11.17-27.2-20.6-55.14-30.04-83.01c-4.71-13.91-8.85-28.2-11.3-42.66
		c-6.69-39.5-12.63-79.13-18.36-118.78c-9.22-63.73-5.74-127.31,3.41-190.74c3.97-27.51,8.88-54.91,12.02-82.51
		c3.94-34.64,13.49-67.45,30.23-97.84c32.24-58.53,77.39-104.97,133.78-140.81c46.27-29.41,97.49-30.74,149.31-26.17
		c16.36,1.44,32.68,7.69,48.15,13.89c49.97,20.02,97.15,45.12,138.62,80.03c5.93,4.99,12.53,9.18,18.95,13.55
		c2.15,1.47,4.7,2.36,8.38,4.16c-3.13-23.83-9.02-44.89-25.48-61.18c-11.02-10.9-22.83-21.06-34.84-30.89
		c-15.82-12.95-32.21-25.2-48.26-37.88c-2.67-2.11-6.67-3.8-4.74-9.38c2.59,0.36,5.56,0.14,7.95,1.2
		c10.81,4.78,21.79,9.32,32.1,15.05c33.32,18.52,64.89,39.7,94.24,64.06c8.06,6.69,17.38,8.95,27.28,9.35
		c6.54,0.26,9.36-2.69,8.26-9.15c-4.12-24.29-16.66-44.05-34.14-60.94c-0.57-0.55-1.39-0.86-2.12-1.21
		c-26.5-12.78-53.04-25.46-79.49-38.34c-51.85-25.27-106.81-28.72-163.05-23.53c-22.14,2.04-43.84,6.52-64.29,15.08
		c-37.33,15.61-74.87,30.93-111.19,48.7c-38.77,18.97-73.54,44.33-103.72,75.49c-23.78,24.55-41.62,52.42-47.94,86.75
		c-4.37,23.73-9.23,47.36-14.08,70.99c-4.34,21.13-4.82,43.19-15.37,62.85c-1.47,2.74-1.68,6.32-1.86,9.55
		c-1.76,30.62-5.02,61.26-4.7,91.87c0.55,51.92,1.67,103.95,5.58,155.71c9.24,122.33,38.12,238.93,106.97,342.86
		c0.9,1.36,1.69,2.8,2.56,4.19c27.74,44.19,60.92,84.18,96.59,121.99c24.71,26.19,54.72,43.59,91.34,48.71
		c42.73,5.97,85.57,9.01,128.47,4.43c34.53-3.69,68.81-9.77,103.2-14.85C657.66,2832.27,659.39,2831.43,662.92,2830.28z
		 M2000.92,571.33c0.96,4.38,0.94,6.06,1.66,7.32c3.45,6.02,6.77,12.15,10.71,17.84c57.28,82.58,122.84,158.19,193.77,229.21
		c49.31,49.37,103.15,93,163.27,128.87c39.67,23.67,78.23,49.17,117.53,73.47c56.43,34.9,109.7,74.21,162.29,114.54
		c3.14,2.41,5.88,6.13,12.97,5.89c-4.89-5.44-8.17-9.55-11.92-13.17c-6.17-5.96-12.79-11.46-18.97-17.42
		c-75.26-72.62-156.87-137.12-244.29-194.62c-77.12-50.73-147.47-109.94-210.84-177.22c-17.94-19.05-35.64-38.33-53.48-57.48
		c-34.85-37.4-69.71-74.81-109.55-107.11C2010.45,578.53,2006.7,575.78,2000.92,571.33z M1247.81,1904.42
		c6.39-1.04,18.62-2.38,30.53-5.08c52.59-11.94,105.12-24.18,157.62-36.54c14.7-3.46,29.43-7.06,43.78-11.75
		c14.24-4.65,17.37-11.21,12.87-25.43c-6.69-21.09-20.81-34.74-42.62-39.87c-15.74-3.7-31.73-3.56-47.56-1.37
		c-26.29,3.63-52.56,7.56-78.67,12.32c-32.58,5.94-64.92,13.2-96.02,24.81c-8.65,3.23-16.74,8.34-24.53,13.43
		c-8.31,5.42-11.69,13.13-8.05,23.25c1.65,4.57,1.99,9.6,3.28,14.31C1205.13,1896.84,1216.86,1905.43,1247.81,1904.42z
		 M2362.51,1753.3c7-0.75,18.9-1.4,30.56-3.38c51.6-8.75,103.16-17.74,154.68-26.97c10.43-1.87,20.8-4.58,30.83-7.98
		c18.42-6.25,26.11-18.08,25.39-37.19c-0.82-21.8-7.55-31.48-27.45-36.58c-10.21-2.62-20.95-4.43-31.44-4.36
		c-16.71,0.11-33.53,1.23-50.09,3.47c-34.02,4.6-67.9,10.31-101.85,15.41c-17.57,2.64-34.28,7.96-49.81,16.47
		c-17.5,9.59-23.5,22.15-20.42,41.7c0.95,6.03,2.45,12.03,4.36,17.84C2333.24,1749.96,2338.8,1753.78,2362.51,1753.3z
		 M1765.46,488.46c2.78,4.39,4.05,6.88,5.76,9.03c29.37,36.96,50.07,78.55,64.88,123.12c10.57,31.81,20.47,63.85,30.35,95.89
		c10.29,33.37,23.57,65.38,41.81,95.22c1.57,2.57,3.61,4.85,6.75,9c-2.55-25.17-4.63-47.94-7.2-70.65
		c-3.78-33.3-6.88-66.72-12.19-99.78c-5.7-35.49-18.6-68.7-39.43-98.29c-19.28-27.4-43.93-48.32-76.03-59.5
		C1776.05,491.08,1771.75,490.17,1765.46,488.46z M1657.67,514.01c0.74,3.06,1.16,5.33,1.84,7.51
		c4.87,15.59,10.52,30.98,14.55,46.78c10.76,42.11,13.06,84.79,5.22,127.64c-6.06,33.08-20.29,62.83-39.28,90.42
		c-2.26,3.29-5.94,6.17-5.58,11.36c33.51-13.25,77.56-75.5,82.65-141.2C1721.04,605.35,1692.82,537.51,1657.67,514.01z"/>
	<path d="M1446.96,2952.35c5.42,0.36,10.2,0.11,14.72,1.07c48.79,10.41,97.5,21.13,146.29,31.5c33.99,7.23,67.91,14.98,102.14,20.83
		c37.58,6.42,75.01,3.18,111.95-6.24c37.65-9.61,75.53-18.36,113.04-28.48c45.95-12.4,92.62-20.52,139.81-26.03
		c17.29-2.02,26.04-14.1,24.6-31.05c-1.42-16.65-2.27-33.46-1.71-50.15c1.43-42.66-0.67-85.01-6.91-127.25
		c-2.75-18.59-4.21-37.39-5.58-56.14c-0.5-6.82,0.4-13.9,1.82-20.62c0.62-2.95,4.07-7.29,6.38-7.39c2.65-0.11,6.84,3.25,7.96,6.06
		c4.06,10.22,7.6,20.72,10.41,31.35c3.33,12.64,5.44,25.61,8.54,38.32c10.45,42.88,13.12,86.44,12.01,130.37
		c-0.27,10.63-1.06,21.26-0.99,31.89c0.15,22.63,12.17,37.81,34.46,42.46c8.27,1.72,17.06,1.48,25.6,1.32
		c65.91-1.18,131.5-6.5,197.04-13.63c66.53-7.24,131.9-19.37,195.61-39.95c38.6-12.47,75.93-28.14,112.39-45.91
		c28.81-14.04,55.63-31.33,80.51-51.44c8.12-6.56,15.37-14.72,21.36-23.3c15.32-21.93,32.12-26.51,54.35-11.97
		c10.5,6.87,19.89,15.65,28.91,24.46c3.84,3.76,6.59,9.54,7.81,14.87c2.16,9.41-4.65,16.35-14.17,14.61
		c-5.01-0.91-10.05-3.5-14.27-6.47c-7.35-5.16-13.97-11.34-21.1-16.83c-8.47-6.51-16.01-6.31-21.96,2.58
		c-17.48,26.14-42.2,45.46-63.02,68.42c-16.19,17.86-33.77,34.49-51.08,51.31c-43.48,42.23-84.38,86.81-123.57,133.03
		c-16.66,19.65-34.3,38.46-51.39,57.75c-26.48,29.89-60.12,50.14-93.87,70.33c-6.59,3.94-13.11,8.35-18.69,13.58
		c-19.93,18.72-42,34.03-67.83,43.25c-62.16,22.16-125.63,39.8-190.78,50.35c-40.6,6.58-80.99,2.39-119.63-12.12
		c-22.55-8.47-44.23-19.25-66.39-28.78c-6.71-2.89-13.67-5.24-20.62-7.54c-22.12-7.3-44.9-13-66.31-21.97
		c-47.51-19.92-94.36-41.42-141.44-62.36c-39.06-17.37-75.21-39.69-109.6-64.92c-20.78-15.24-41.3-30.84-61.79-46.47
		c-28.46-21.71-58.2-40.89-93.29-50.43c-7.83-2.13-15.34-5.66-22.7-9.17C1451.74,2963.46,1446.93,2961.17,1446.96,2952.35z
		 M1799.07,3035.79c3.81,4.8,6.83,8.6,9.84,12.4c15.24,19.23,30.81,38.2,45.62,57.75c18.26,24.1,40.2,44.39,65.32,60.65
		c40.26,26.04,83.04,47.57,128.27,63.74c34.54,12.35,70.37,15.73,106.4,9.17c59.66-10.86,117.7-28.09,174.75-48.48
		c62.26-22.25,115.93-84.88,129.32-149.83c6.42-31.15,4.89-62.65,3.66-94.11c-0.03-0.66-0.9-1.3-1.85-2.59
		c-2.76,0.18-5.98,0.19-9.13,0.63c-77.01,10.67-154.25,18.59-232.04,20.52c-17.58,0.43-35.15,1.13-52.72,1.86
		c-3.4,0.14-6.78,0.98-11.33,1.67c2.03,3.54,3.02,5.75,4.42,7.66c9.96,13.53,14.42,29.23,17.79,45.32
		c2.24,10.69,0.34,20.6-5.89,29.86c-10.45-6.36-17.08-14.83-21.5-25.31c-3.49-8.29-7.18-16.52-11.32-24.49
		c-3.94-7.6-8.4-14.95-12.97-22.19c-4.12-6.53-9.89-8.77-17.86-7.22c-10.01,1.95-20.29,2.43-30.4,3.97
		c-33.13,5.03-66.57,8.71-99.28,15.74c-58.35,12.53-116.25,27.13-174.33,40.9C1802.76,3033.66,1801.78,3034.41,1799.07,3035.79z"/>
	<path d="M1984,2492.94c-43.94-2.57-86.38-12.9-128.27-25.59c-18.27-5.53-33.99-15.81-47.16-29.81c-10-10.62-16.97-22.93-21.05-36.9
		c-5.09-17.45-3.19-34.18,6.68-49.41c19.1-29.48,47.06-46.08,81.06-52.09c21.23-3.75,40.43,3.07,57.15,16.51
		c17.03,13.69,30.84,30.31,43.18,48.21c19.08,27.68,34.7,57.28,48.17,88.02c2.85,6.51,6.86,13.24,1.89,20.81
		c-6.35,9.68-12.41,19.61-25.75,20.21C1994.62,2493.14,1989.3,2492.94,1984,2492.94z"/>
	<path d="M2099.59,2376.66c1.43-15.64,2.51-33.61,4.87-51.42c2.05-15.5,7.36-30.21,15.13-43.84
		c23.06-40.46,69.96-51.68,108.67-25.82c17.91,11.96,30.5,28.3,36.93,49.02c6.69,21.57,4.12,42-7.99,61.17
		c-11.96,18.93-27.04,35.04-45.29,47.82c-25.77,18.05-51.42,36.4-80.41,49.27c-9.24,4.1-12.87,3.35-18.37-4.86
		c-7.31-10.93-9.44-23.48-10.65-36.11C2101.11,2407.64,2100.61,2393.32,2099.59,2376.66z"/>
	<path d="M1711.33,3453c17.26-0.38,31.89,4.76,45.17,14.08c12.38,8.68,24.43,17.85,36.92,26.38
		c67.79,46.3,142.34,78.36,219.88,104.07c48.95,16.23,98.33,30.91,149.59,37.79c19,2.55,38.23,3.67,57.4,4.57
		c22.49,1.06,42.81-5.28,60.03-20.37c2.75-2.41,5.9-4.36,8.94-6.41c0.6-0.4,1.56-0.27,3.68-0.59c0.64,2.25,2.47,5.07,1.78,6.98
		c-1.77,4.91-4.03,9.9-7.22,13.99c-12.35,15.86-28.85,24.95-48.62,28.32c-26.56,4.53-53.04,2.38-79.38-1.51
		c-56.43-8.34-110.89-24.51-164.8-42.66c-50.79-17.1-100.83-36.04-148.85-60.08c-38.21-19.12-72.41-44.48-107.81-67.97
		C1725.12,3481.03,1716.63,3468.66,1711.33,3453z"/>
	<path d="M2767.87,2886.52c-1,2.06-1.78,4.28-3.05,6.16c-14.16,21.01-28.76,41.74-42.55,63
		c-46.12,71.13-101.34,134.37-164.67,190.56c-29.04,25.76-58.11,51.53-88.02,76.27c-31.81,26.3-68.23,44.76-107.11,58.44
		c-8.66,3.05-17.34,4.43-26.36,1.77c-2.91-5.64-0.05-10.09,3.34-13.35c4.64-4.46,9.93-8.53,15.58-11.59
		c9.33-5.05,18.97-9.66,28.83-13.57c33.94-13.44,63.3-33.92,90.36-57.98c29.94-26.61,59.59-53.56,89.58-80.11
		c47.37-41.95,87.99-89.85,125.79-140.41c15.63-20.91,32.66-40.81,49.59-60.71c5.23-6.15,12.1-10.95,18.46-16.06
		c2.39-1.92,5.48-2.98,8.25-4.43C2766.55,2885.19,2767.21,2885.86,2767.87,2886.52z"/>
	<path d="M1546.45,3041.03c12.89,9.77,24.69,18.43,36.17,27.49c50.79,40.07,103.16,77.86,159.34,110.07
		c40.61,23.29,83.45,41.52,128.68,53.75c18.69,5.05,36.06,12.78,53.84,23.34c-2.88,1.13-4.77,2.37-6.77,2.59
		c-14.72,1.55-29.42,1.78-43.85-2.2c-21.28-5.87-42.64-11.51-63.75-17.93c-35.8-10.87-69.35-26.75-101.3-46.2
		c-44.14-26.88-85.56-57.41-124.47-91.36c-13.6-11.86-26.34-24.6-35.6-40.28C1545.79,3055.29,1541.82,3050.09,1546.45,3041.03z"/>
	<path d="M530.84,2509.98c12.07,17.12,25.42,32.2,44.47,40.88c2.23,1.01,4.87,1.43,6.71,2.89c1.69,1.35,3.64,3.85,3.47,5.66
		c-0.17,1.75-2.71,4.36-4.52,4.65c-5.97,0.96-12.27,2.18-18.08,1.19c-8.79-1.5-17.59-4.03-25.85-7.41
		c-60.96-24.9-111.49-62.99-148.12-118.41c-7.66-11.6-15.69-22.96-23.19-34.66c-19.35-30.22-29.88-63.49-33.08-99.08
		c-1.42-15.86-2.54-31.8-2.65-47.71c-0.05-7.58,1.88-15.41,4.29-22.68c1.04-3.14,5.32-6.58,8.59-7.13c2.4-0.41,6.27,3.14,8.22,5.84
		c2.58,3.58,4.08,7.98,5.78,12.14c22.22,54.3,53.98,102.63,92,147.03c31.18,36.4,64.37,70.8,100.95,101.85
		c5.61,4.76,10.89,9.91,16.17,15.04c2.66,2.59,5.82,6.13,2.42,9.38c-2.11,2.02-6.8,2.95-9.74,2.16c-5.85-1.58-11.27-4.73-16.9-7.15
		C538.15,2512.89,534.48,2511.47,530.84,2509.98z"/>
	<path d="M3602.2,1938.79c1.06,23.91-4.61,46.17-15.51,67.36c-21.35,41.51-49.29,77.04-89.98,101.37
		c-8.42,5.03-16.51,10.61-24.79,15.88c-12.16,7.73-23.08,16.69-31.95,28.29c-9.24,12.07-20.31,10.28-25.53-4.05
		c-2.2-6.03-3.77-12.76-3.59-19.11c0.56-19.84,5.79-38.27,15.57-56.01c13.06-23.7,30.61-43.22,49.91-61.65
		c12.12-11.57,23.77-23.65,35.58-35.55c31.79-32.07,49.27-70.72,53.29-115.62c0.54-6.09,1.16-12.31,2.93-18.11
		c0.92-3.01,4.32-7.19,6.79-7.33c3.28-0.19,8.01,2.24,9.86,5.03c3.07,4.64,4.99,10.31,6.26,15.82
		C3597.37,1882.64,3601.4,1910.52,3602.2,1938.79z"/>
	<path d="M1699.32,1556.45c4.68-8.4,10.97-9.59,16.69-11.09c17.59-4.6,35.54-6.19,53.51-3.1c53.09,9.13,102.93,26.19,144.82,61.67
		c5.29,4.48,10.33,9.35,14.89,14.55c2.6,2.96,4.81,6.76,5.78,10.55c1.77,6.97-2.51,12.39-9.71,12.3c-3.9-0.05-8.22-1.17-11.58-3.13
		c-5.96-3.49-11.7-7.56-16.87-12.13c-15.46-13.67-32.7-24.49-51.35-33.14c-28.95-13.42-57.84-27.24-89.91-31.52
		c-14.15-1.89-28.5-2.18-42.76-3.29C1708.94,1557.8,1705.07,1557.16,1699.32,1556.45z"/>
</g>
</svg>
