<?xml version="1.0" encoding="UTF-8" standalone="no"?>
<svg
   xmlns:dc="http://purl.org/dc/elements/1.1/"
   xmlns:cc="http://creativecommons.org/ns#"
   xmlns:rdf="http://www.w3.org/1999/02/22-rdf-syntax-ns#"
   xmlns:svg="http://www.w3.org/2000/svg"
   xmlns="http://www.w3.org/2000/svg"
   xmlns:sodipodi="http://sodipodi.sourceforge.net/DTD/sodipodi-0.dtd"
   xmlns:inkscape="http://www.inkscape.org/namespaces/inkscape"
   width="210mm"
   height="297mm"
   viewBox="0 0 210 297"
   version="1.1"
   id="svg8"
   inkscape:version="1.0.2 (e86c870879, 2021-01-15)"
   sodipodi:docname="monke club-v2.svg">
  <defs
     id="defs2" />
  <sodipodi:namedview
     id="base"
     pagecolor="#ffffff"
     bordercolor="#666666"
     borderopacity="1.0"
     inkscape:pageopacity="0.0"
     inkscape:pageshadow="2"
     inkscape:zoom="1.5235294"
     inkscape:cx="194.17479"
     inkscape:cy="398.71855"
     inkscape:document-units="mm"
     inkscape:current-layer="layer1"
     inkscape:document-rotation="0"
     showgrid="false"
     inkscape:showpageshadow="false"
     showborder="false"
     inkscape:window-width="1920"
     inkscape:window-height="1049"
     inkscape:window-x="1920"
     inkscape:window-y="0"
     inkscape:window-maximized="1" />
  <metadata
     id="metadata5">
    <rdf:RDF>
      <cc:Work
         rdf:about="">
        <dc:format>image/svg+xml</dc:format>
        <dc:type
           rdf:resource="http://purl.org/dc/dcmitype/StillImage" />
        <dc:title></dc:title>
      </cc:Work>
    </rdf:RDF>
  </metadata>
  <g
     inkscape:label="Layer 1"
     inkscape:groupmode="layer"
     id="layer1">
    <g
       aria-label="MONKE CLAN "
       id="text837"
       style="font-style:normal;font-variant:normal;font-weight:bold;font-stretch:normal;font-size:4.93889px;line-height:1.25;font-family:sans-serif;-inkscape-font-specification:'sans-serif, Bold';font-variant-ligatures:normal;font-variant-caps:normal;font-variant-numeric:normal;font-variant-east-asian:normal;fill:#000000;fill-opacity:1;stroke:none;stroke-width:0.245295"
       transform="matrix(1.0786317,0,0,1.0786317,-5.4216785,-5.566857)">
      <path
         d="m 68.950304,70.979523 1.180435,-0.05396 0.90706,1.887393 0.735914,-1.962492 1.178026,-0.05385 0.164402,3.596715 -0.876895,0.04008 -0.120246,-2.630685 -0.740071,1.977166 -0.587808,0.02687 -0.917357,-1.901408 0.120246,2.630685 -0.879304,0.04019 z"
         style="font-style:normal;font-variant:normal;font-weight:bold;font-stretch:normal;font-size:4.93889px;font-family:sans-serif;-inkscape-font-specification:'sans-serif, Bold';font-variant-ligatures:normal;font-variant-caps:normal;font-variant-numeric:normal;font-variant-east-asian:normal;stroke-width:0.245295"
         id="path842" />
      <path
         d="m 76.081408,71.7372 q -0.420219,-0.05969 -0.695902,0.217808 -0.275683,0.277494 -0.355716,0.840969 -0.07969,0.561087 0.107819,0.90437 0.187512,0.343283 0.60773,0.402969 0.422606,0.06002 0.69829,-0.21747 0.275683,-0.277494 0.355376,-0.838581 0.08003,-0.563474 -0.107479,-0.906758 -0.187512,-0.343283 -0.610118,-0.403307 z m 0.09461,-0.666142 q 0.859538,0.122084 1.27675,0.683111 0.417213,0.561027 0.294112,1.427727 -0.122761,0.864313 -0.679692,1.286979 -0.55693,0.422666 -1.416467,0.300582 -0.85715,-0.121744 -1.27675,-0.68311 -0.417213,-0.561027 -0.294451,-1.42534 0.123101,-0.8667 0.680031,-1.289366 0.559317,-0.422327 1.416467,-0.300583 z"
         style="font-style:normal;font-variant:normal;font-weight:bold;font-stretch:normal;font-size:4.93889px;font-family:sans-serif;-inkscape-font-specification:'sans-serif, Bold';font-variant-ligatures:normal;font-variant-caps:normal;font-variant-numeric:normal;font-variant-east-asian:normal;stroke-width:0.245295"
         id="path844" />
      <path
         d="m 79.287539,71.714138 0.986769,0.31875 0.487011,2.752403 0.759071,-2.349887 0.837606,0.270567 -1.106731,3.426154 -0.986769,-0.318751 -0.487012,-2.752402 -0.759071,2.349887 -0.837606,-0.270567 z"
         style="font-style:normal;font-variant:normal;font-weight:bold;font-stretch:normal;font-size:4.93889px;font-family:sans-serif;-inkscape-font-specification:'sans-serif, Bold';font-variant-ligatures:normal;font-variant-caps:normal;font-variant-numeric:normal;font-variant-east-asian:normal;stroke-width:0.245295"
         id="path846" />
      <path
         d="m 83.736263,73.29278 0.825577,0.424792 -0.601329,1.168674 1.791447,-0.556312 0.958527,0.4932 -2.321865,0.722747 0.833237,2.560425 -1.033579,-0.531817 -0.624975,-1.916275 -0.648773,1.260882 -0.825577,-0.424792 z"
         style="font-style:normal;font-variant:normal;font-weight:bold;font-stretch:normal;font-size:4.93889px;font-family:sans-serif;-inkscape-font-specification:'sans-serif, Bold';font-variant-ligatures:normal;font-variant-caps:normal;font-variant-numeric:normal;font-variant-east-asian:normal;stroke-width:0.245295"
         id="path848" />
      <path
         d="m 87.551145,75.392823 2.036833,1.459257 -0.408704,0.57047 -1.282088,-0.918531 -0.390446,0.544985 1.205633,0.863757 -0.408704,0.57047 -1.205633,-0.863757 -0.480333,0.67045 1.325216,0.94943 -0.408704,0.57047 -2.079963,-1.490155 z"
         style="font-style:normal;font-variant:normal;font-weight:bold;font-stretch:normal;font-size:4.93889px;font-family:sans-serif;-inkscape-font-specification:'sans-serif, Bold';font-variant-ligatures:normal;font-variant-caps:normal;font-variant-numeric:normal;font-variant-east-asian:normal;stroke-width:0.245295"
         id="path850" />
      <path
         d="m 91.498371,83.478261 q -0.269996,-0.100195 -0.506354,-0.260216 -0.236358,-0.16002 -0.438911,-0.383273 -0.604419,-0.666186 -0.586179,-1.392588 0.02003,-0.728022 0.657636,-1.306514 0.639396,-0.580113 1.364141,-0.527808 0.726532,0.05068 1.330951,0.71687 0.202553,0.223253 0.338894,0.474017 0.13634,0.250765 0.209874,0.529207 l -0.551881,0.500711 q -0.04301,-0.309395 -0.150805,-0.550236 -0.1078,-0.240841 -0.294149,-0.446234 -0.333808,-0.36792 -0.760773,-0.364775 -0.426965,0.0031 -0.841323,0.379085 -0.412571,0.374318 -0.457115,0.798965 -0.04454,0.424647 0.289263,0.792568 0.186349,0.205392 0.415598,0.336044 0.229249,0.130652 0.533014,0.203465 z"
         style="font-style:normal;font-variant:normal;font-weight:bold;font-stretch:normal;font-size:4.93889px;font-family:sans-serif;-inkscape-font-specification:'sans-serif, Bold';font-variant-ligatures:normal;font-variant-caps:normal;font-variant-numeric:normal;font-variant-east-asian:normal;stroke-width:0.245295"
         id="path852" />
      <path
         d="m 94.78529,82.206135 0.522931,0.767182 -2.395203,1.632633 0.918186,1.347052 -0.57987,0.395255 -1.441118,-2.114235 z"
         style="font-style:normal;font-variant:normal;font-weight:bold;font-stretch:normal;font-size:4.93889px;font-family:sans-serif;-inkscape-font-specification:'sans-serif, Bold';font-variant-ligatures:normal;font-variant-caps:normal;font-variant-numeric:normal;font-variant-east-asian:normal;stroke-width:0.245295"
         id="path854" />
      <path
         d="m 95.099986,88.534384 -0.637931,-1.304094 -0.689896,0.08244 -0.410099,-0.838346 3.820246,-0.384166 0.486397,0.994317 -2.648232,2.78006 -0.410099,-0.838346 z m 0.06386,-1.389666 0.433412,0.886004 1.070587,-1.071373 z"
         style="font-style:normal;font-variant:normal;font-weight:bold;font-stretch:normal;font-size:4.93889px;font-family:sans-serif;-inkscape-font-specification:'sans-serif, Bold';font-variant-ligatures:normal;font-variant-caps:normal;font-variant-numeric:normal;font-variant-east-asian:normal;stroke-width:0.245295"
         id="path856" />
      <path
         d="m 98.624478,89.2896 0.298025,0.993225 -1.98892,1.96395 2.365262,-0.709715 0.252975,0.843087 -3.448571,1.034769 -0.298024,-0.993225 1.988919,-1.96395 -2.365262,0.709714 -0.252974,-0.843086 z"
         style="font-style:normal;font-variant:normal;font-weight:bold;font-stretch:normal;font-size:4.93889px;font-family:sans-serif;-inkscape-font-specification:'sans-serif, Bold';font-variant-ligatures:normal;font-variant-caps:normal;font-variant-numeric:normal;font-variant-east-asian:normal;stroke-width:0.245295"
         id="path858" />
    </g>
  </g>
</svg>
