  0
SECTION
  2
HEADER
  9
$ACADVER
  1
AC1024
  9
$ACADMAINTVER
 70
     6
  9
$DWGCODEPAGE
  3
ANSI_1251
  9
$INSBASE
 10
0.0
 20
0.0
 30
0.0
  9
$EXTMIN
 10
1.000000000000000E+20
 20
1.000000000000000E+20
 30
1.000000000000000E+20
  9
$EXTMAX
 10
-1.000000000000000E+20
 20
-1.000000000000000E+20
 30
-1.000000000000000E+20
  9
$LIMMIN
 10
0.0
 20
0.0
  9
$LIMMAX
 10
12.0
 20
9.0
  9
$ORTHOMODE
 70
     0
  9
$REGENMODE
 70
     1
  9
$FILLMODE
 70
     1
  9
$QTEXTMODE
 70
     0
  9
$MIRRTEXT
 70
     1
  9
$LTSCALE
 40
1.0
  9
$ATTMODE
 70
     1
  9
$TEXTSIZE
 40
0.2
  9
$TRACEWID
 40
0.05
  9
$TEXTSTYLE
  7
Standard
  9
$CLAYER
  8
0
  9
$CELTYPE
  6
ByLayer
  9
$CECOLOR
 62
   256
  9
$CELTSCALE
 40
1.0
  9
$DISPSILH
 70
     0
  9
$DIMSCALE
 40
1.0
  9
$DIMASZ
 40
0.18
  9
$DIMEXO
 40
0.0625
  9
$DIMDLI
 40
0.38
  9
$DIMRND
 40
0.0
  9
$DIMDLE
 40
0.0
  9
$DIMEXE
 40
0.18
  9
$DIMTP
 40
0.0
  9
$DIMTM
 40
0.0
  9
$DIMTXT
 40
0.18
  9
$DIMCEN
 40
0.09
  9
$DIMTSZ
 40
0.0
  9
$DIMTOL
 70
     0
  9
$DIMLIM
 70
     0
  9
$DIMTIH
 70
     1
  9
$DIMTOH
 70
     1
  9
$DIMSE1
 70
     0
  9
$DIMSE2
 70
     0
  9
$DIMTAD
 70
     0
  9
$DIMZIN
 70
     0
  9
$DIMBLK
  1

  9
$DIMASO
 70
     1
  9
$DIMSHO
 70
     1
  9
$DIMPOST
  1

  9
$DIMAPOST
  1

  9
$DIMALT
 70
     0
  9
$DIMALTD
 70
     2
  9
$DIMALTF
 40
25.4
  9
$DIMLFAC
 40
1.0
  9
$DIMTOFL
 70
     0
  9
$DIMTVP
 40
0.0
  9
$DIMTIX
 70
     0
  9
$DIMSOXD
 70
     0
  9
$DIMSAH
 70
     0
  9
$DIMBLK1
  1

  9
$DIMBLK2
  1

  9
$DIMSTYLE
  2
Standard
  9
$DIMCLRD
 70
     0
  9
$DIMCLRE
 70
     0
  9
$DIMCLRT
 70
     0
  9
$DIMTFAC
 40
1.0
  9
$DIMGAP
 40
0.09
  9
$DIMJUST
 70
     0
  9
$DIMSD1
 70
     0
  9
$DIMSD2
 70
     0
  9
$DIMTOLJ
 70
     1
  9
$DIMTZIN
 70
     0
  9
$DIMALTZ
 70
     0
  9
$DIMALTTZ
 70
     0
  9
$DIMUPT
 70
     0
  9
$DIMDEC
 70
     4
  9
$DIMTDEC
 70
     4
  9
$DIMALTU
 70
     2
  9
$DIMALTTD
 70
     2
  9
$DIMTXSTY
  7
Standard
  9
$DIMAUNIT
 70
     0
  9
$DIMADEC
 70
     0
  9
$DIMALTRND
 40
0.0
  9
$DIMAZIN
 70
     0
  9
$DIMDSEP
 70
    46
  9
$DIMATFIT
 70
     3
  9
$DIMFRAC
 70
     0
  9
$DIMLDRBLK
  1

  9
$DIMLUNIT
 70
     2
  9
$DIMLWD
 70
    -2
  9
$DIMLWE
 70
    -2
  9
$DIMTMOVE
 70
     0
  9
$DIMFXL
 40
1.0
  9
$DIMFXLON
 70
     0
  9
$DIMJOGANG
 40
0.7853981633974483
  9
$DIMTFILL
 70
     0
  9
$DIMTFILLCLR
 70
     0
  9
$DIMARCSYM
 70
     0
  9
$DIMLTYPE
  6

  9
$DIMLTEX1
  6

  9
$DIMLTEX2
  6

  9
$DIMTXTDIRECTION
 70
     0
  9
$LUNITS
 70
     2
  9
$LUPREC
 70
     4
  9
$SKETCHINC
 40
0.1
  9
$FILLETRAD
 40
0.5
  9
$AUNITS
 70
     0
  9
$AUPREC
 70
     0
  9
$MENU
  1
.
  9
$ELEVATION
 40
0.0
  9
$PELEVATION
 40
0.0
  9
$THICKNESS
 40
0.0
  9
$LIMCHECK
 70
     0
  9
$CHAMFERA
 40
0.5
  9
$CHAMFERB
 40
0.5
  9
$CHAMFERC
 40
1.0
  9
$CHAMFERD
 40
0.0
  9
$SKPOLY
 70
     0
  9
$TDCREATE
 40
2460005.582911261
  9
$TDUCREATE
 40
2460005.457911261
  9
$TDUPDATE
 40
2460005.582912257
  9
$TDUUPDATE
 40
2460005.457912257
  9
$TDINDWG
 40
0.0000000116
  9
$TDUSRTIMER
 40
0.0000000116
  9
$USRTIMER
 70
     1
  9
$ANGBASE
 50
0.0
  9
$ANGDIR
 70
     0
  9
$PDMODE
 70
     0
  9
$PDSIZE
 40
0.0
  9
$PLINEWID
 40
0.0
  9
$SPLFRAME
 70
     0
  9
$SPLINETYPE
 70
     6
  9
$SPLINESEGS
 70
     8
  9
$HANDSEED
  5
4F
  9
$SURFTAB1
 70
     6
  9
$SURFTAB2
 70
     6
  9
$SURFTYPE
 70
     6
  9
$SURFU
 70
     6
  9
$SURFV
 70
     6
  9
$UCSBASE
  2

  9
$UCSNAME
  2

  9
$UCSORG
 10
0.0
 20
0.0
 30
0.0
  9
$UCSXDIR
 10
1.0
 20
0.0
 30
0.0
  9
$UCSYDIR
 10
0.0
 20
1.0
 30
0.0
  9
$UCSORTHOREF
  2

  9
$UCSORTHOVIEW
 70
     0
  9
$UCSORGTOP
 10
0.0
 20
0.0
 30
0.0
  9
$UCSORGBOTTOM
 10
0.0
 20
0.0
 30
0.0
  9
$UCSORGLEFT
 10
0.0
 20
0.0
 30
0.0
  9
$UCSORGRIGHT
 10
0.0
 20
0.0
 30
0.0
  9
$UCSORGFRONT
 10
0.0
 20
0.0
 30
0.0
  9
$UCSORGBACK
 10
0.0
 20
0.0
 30
0.0
  9
$PUCSBASE
  2

  9
$PUCSNAME
  2

  9
$PUCSORG
 10
0.0
 20
0.0
 30
0.0
  9
$PUCSXDIR
 10
1.0
 20
0.0
 30
0.0
  9
$PUCSYDIR
 10
0.0
 20
1.0
 30
0.0
  9
$PUCSORTHOREF
  2

  9
$PUCSORTHOVIEW
 70
     0
  9
$PUCSORGTOP
 10
0.0
 20
0.0
 30
0.0
  9
$PUCSORGBOTTOM
 10
0.0
 20
0.0
 30
0.0
  9
$PUCSORGLEFT
 10
0.0
 20
0.0
 30
0.0
  9
$PUCSORGRIGHT
 10
0.0
 20
0.0
 30
0.0
  9
$PUCSORGFRONT
 10
0.0
 20
0.0
 30
0.0
  9
$PUCSORGBACK
 10
0.0
 20
0.0
 30
0.0
  9
$USERI1
 70
     0
  9
$USERI2
 70
     0
  9
$USERI3
 70
     0
  9
$USERI4
 70
     0
  9
$USERI5
 70
     0
  9
$USERR1
 40
0.0
  9
$USERR2
 40
0.0
  9
$USERR3
 40
0.0
  9
$USERR4
 40
0.0
  9
$USERR5
 40
0.0
  9
$WORLDVIEW
 70
     1
  9
$SHADEDGE
 70
     3
  9
$SHADEDIF
 70
    70
  9
$TILEMODE
 70
     1
  9
$MAXACTVP
 70
    64
  9
$PINSBASE
 10
0.0
 20
0.0
 30
0.0
  9
$PLIMCHECK
 70
     0
  9
$PEXTMIN
 10
1.000000000000000E+20
 20
1.000000000000000E+20
 30
1.000000000000000E+20
  9
$PEXTMAX
 10
-1.000000000000000E+20
 20
-1.000000000000000E+20
 30
-1.000000000000000E+20
  9
$PLIMMIN
 10
0.0
 20
0.0
  9
$PLIMMAX
 10
12.0
 20
9.0
  9
$UNITMODE
 70
     0
  9
$VISRETAIN
 70
     1
  9
$PLINEGEN
 70
     0
  9
$PSLTSCALE
 70
     1
  9
$TREEDEPTH
 70
  3020
  9
$CMLSTYLE
  2
Standard
  9
$CMLJUST
 70
     0
  9
$CMLSCALE
 40
1.0
  9
$PROXYGRAPHICS
 70
     1
  9
$MEASUREMENT
 70
     0
  9
$CELWEIGHT
370
    -1
  9
$ENDCAPS
280
     0
  9
$JOINSTYLE
280
     0
  9
$LWDISPLAY
290
     1
  9
$INSUNITS
 70
     1
  9
$HYPERLINKBASE
  1

  9
$STYLESHEET
  1

  9
$XEDIT
290
     1
  9
$CEPSNTYPE
380
     0
  9
$PSTYLEMODE
290
     1
  9
$FINGERPRINTGUID
  2
{A8E278E7-4677-4B8B-A6CE-3F1CB0A62447}
  9
$VERSIONGUID
  2
{FAEB1C32-E019-11D5-929B-00C0DF256EC4}
  9
$EXTNAMES
290
     1
  9
$PSVPSCALE
 40
0.0
  9
$OLESTARTUP
290
     0
  9
$SORTENTS
280
   127
  9
$INDEXCTL
280
     0
  9
$HIDETEXT
280
     1
  9
$XCLIPFRAME
280
     2
  9
$HALOGAP
280
     0
  9
$OBSCOLOR
 70
   257
  9
$OBSLTYPE
280
     0
  9
$INTERSECTIONDISPLAY
280
     0
  9
$INTERSECTIONCOLOR
 70
   257
  9
$DIMASSOC
280
     2
  9
$PROJECTNAME
  1

  9
$CAMERADISPLAY
290
     0
  9
$LENSLENGTH
 40
50.0
  9
$CAMERAHEIGHT
 40
0.0
  9
$STEPSPERSEC
 40
2.0
  9
$STEPSIZE
 40
6.0
  9
$3DDWFPREC
 40
2.0
  9
$PSOLWIDTH
 40
0.25
  9
$PSOLHEIGHT
 40
4.0
  9
$LOFTANG1
 40
1.570796326794897
  9
$LOFTANG2
 40
1.570796326794897
  9
$LOFTMAG1
 40
0.0
  9
$LOFTMAG2
 40
0.0
  9
$LOFTPARAM
 70
     7
  9
$LOFTNORMALS
280
     1
  9
$LATITUDE
 40
37.795
  9
$LONGITUDE
 40
-122.394
  9
$NORTHDIRECTION
 40
0.0
  9
$TIMEZONE
 70
 -8000
  9
$LIGHTGLYPHDISPLAY
280
     1
  9
$TILEMODELIGHTSYNCH
280
     1
  9
$CMATERIAL
347
3C
  9
$SOLIDHIST
280
     1
  9
$SHOWHIST
280
     1
  9
$DWFFRAME
280
     2
  9
$DGNFRAME
280
     2
  9
$REALWORLDSCALE
290
     1
  9
$INTERFERECOLOR
 62
   256
  9
$CSHADOW
280
     0
  9
$SHADOWPLANELOCATION
 40
0.0
  0
ENDSEC
  0
SECTION
  2
CLASSES
  0
CLASS
  1
ACDBDICTIONARYWDFLT
  2
AcDbDictionaryWithDefault
  3
ObjectDBX Classes
 90
        0
 91
        4
280
     0
281
     0
  0
CLASS
  1
VISUALSTYLE
  2
AcDbVisualStyle
  3
ObjectDBX Classes
 90
     4095
 91
        4
280
     0
281
     0
  0
CLASS
  1
MATERIAL
  2
AcDbMaterial
  3
ObjectDBX Classes
 90
     1153
 91
        4
280
     0
281
     0
  0
CLASS
  1
SUN
  2
AcDbSun
  3
SCENEOE
 90
     1024
 91
        4
280
     0
281
     0
  0
ENDSEC
  0
SECTION
  2
TABLES
  0
TABLE
  2
VPORT
  5
8
330
0
100
AcDbSymbolTable
 70
     1
  0
VPORT
  5
29
330
8
100
AcDbSymbolTableRecord
100
AcDbViewportTableRecord
  2
*Active
 70
     0
 10
0.0
 20
0.0
 11
1.0
 21
1.0
 12
0.0
 22
0.0
 13
0.0
 23
0.0
 14
0.5
 24
0.5
 15
0.5
 25
0.5
 16
0.0
 26
0.0
 36
1.0
 17
375.0
 27
-375.0
 37
0.0
 40
750.0
 41
1.0
 42
50.0
 43
0.0
 44
0.0
 50
0.0
 51
0.0
 71
     0
 72
   100
 73
     1
 74
     3
 75
     0
 76
     0
 77
     0
 78
     0
281
     0
 65
     1
110
0.0
120
0.0
130
0.0
111
1.0
121
0.0
131
0.0
112
0.0
122
1.0
132
0.0
 79
     0
146
0.0
 60
     3
 61
     5
292
     1
282
     1
141
0.0
142
0.0
 63
   250
361
3F
  0
ENDTAB
  0
TABLE
  2
LTYPE
  5
5
330
0
100
AcDbSymbolTable
 70
     1
  0
LTYPE
  5
14
330
5
100
AcDbSymbolTableRecord
100
AcDbLinetypeTableRecord
  2
ByBlock
 70
     0
  3

 72
    65
 73
     0
 40
0.0
  0
LTYPE
  5
15
330
5
100
AcDbSymbolTableRecord
100
AcDbLinetypeTableRecord
  2
ByLayer
 70
     0
  3

 72
    65
 73
     0
 40
0.0
  0
LTYPE
  5
16
330
5
100
AcDbSymbolTableRecord
100
AcDbLinetypeTableRecord
  2
Continuous
 70
     0
  3
Solid line
 72
    65
 73
     0
 40
0.0
  0
ENDTAB
  0
TABLE
  2
LAYER
  5
2
330
0
100
AcDbSymbolTable
 70
     2
  0
LAYER
  5
10
330
2
100
AcDbSymbolTableRecord
100
AcDbLayerTableRecord
  2
0
 70
     0
 62
     7
  6
Continuous
370
    -3
390
F
347
3E
  0
LAYER
  5
40
330
2
100
AcDbSymbolTableRecord
100
AcDbLayerTableRecord
  2
Layer 1
 70
     0
 62
     7
  6
Continuous
370
    -3
390
F
347
3E
  0
ENDTAB
  0
TABLE
  2
STYLE
  5
3
330
0
100
AcDbSymbolTable
 70
     1
  0
STYLE
  5
11
330
3
100
AcDbSymbolTableRecord
100
AcDbTextStyleTableRecord
  2
Standard
 70
     0
 40
0.0
 41
1.0
 50
0.0
 71
     0
 42
0.2
  3
txt
  4

  0
ENDTAB
  0
TABLE
  2
VIEW
  5
6
330
0
100
AcDbSymbolTable
 70
     0
  0
ENDTAB
  0
TABLE
  2
UCS
  5
7
330
0
100
AcDbSymbolTable
 70
     0
  0
ENDTAB
  0
TABLE
  2
APPID
  5
9
330
0
100
AcDbSymbolTable
 70
     1
  0
APPID
  5
12
330
9
100
AcDbSymbolTableRecord
100
AcDbRegAppTableRecord
  2
ACAD
 70
     0
  0
ENDTAB
  0
TABLE
  2
DIMSTYLE
  5
A
330
0
100
AcDbSymbolTable
 70
     1
100
AcDbDimStyleTable
  0
DIMSTYLE
105
27
330
A
100
AcDbSymbolTableRecord
100
AcDbDimStyleTableRecord
  2
Standard
 70
     0
178
     0
340
11
  0
ENDTAB
  0
TABLE
  2
BLOCK_RECORD
  5
1
330
0
100
AcDbSymbolTable
 70
     1
  0
BLOCK_RECORD
  5
1F
330
1
100
AcDbSymbolTableRecord
100
AcDbBlockTableRecord
  2
*Model_Space
340
22
 70
     0
280
     1
281
     0
  0
BLOCK_RECORD
  5
1B
330
1
100
AcDbSymbolTableRecord
100
AcDbBlockTableRecord
  2
*Paper_Space
340
1E
 70
     0
280
     1
281
     0
  0
BLOCK_RECORD
  5
23
330
1
100
AcDbSymbolTableRecord
100
AcDbBlockTableRecord
  2
*Paper_Space0
340
26
 70
     0
280
     1
281
     0
  0
ENDTAB
  0
ENDSEC
  0
SECTION
  2
BLOCKS
  0
BLOCK
  5
20
330
1F
100
AcDbEntity
  8
0
100
AcDbBlockBegin
  2
*Model_Space
 70
     0
 10
0.0
 20
0.0
 30
0.0
  3
*Model_Space
  1

  0
ENDBLK
  5
21
330
1F
100
AcDbEntity
  8
0
100
AcDbBlockEnd
  0
BLOCK
  5
1C
330
1B
100
AcDbEntity
 67
     1
  8
0
100
AcDbBlockBegin
  2
*Paper_Space
 70
     0
 10
0.0
 20
0.0
 30
0.0
  3
*Paper_Space
  1

  0
ENDBLK
  5
1D
330
1B
100
AcDbEntity
 67
     1
  8
0
100
AcDbBlockEnd
  0
BLOCK
  5
24
330
23
100
AcDbEntity
  8
0
100
AcDbBlockBegin
  2
*Paper_Space0
 70
     0
 10
0.0
 20
0.0
 30
0.0
  3
*Paper_Space0
  1

  0
ENDBLK
  5
25
330
23
100
AcDbEntity
  8
0
100
AcDbBlockEnd
  0
ENDSEC
  0
SECTION
  2
ENTITIES
  0
SPLINE
  5
41
330
1F
100
AcDbEntity
  8
Layer 1
370
     0
100
AcDbSpline
210
0.0
220
0.0
230
1.0
 70
    11
 71
     3
 72
   110
 73
   106
 74
     0
 42
0.0000000001
 43
0.0000000001
 12
1.0
 22
0.0
 32
0.0
 13
1.0
 23
0.0
 33
0.0
 40
0.0
 40
0.0
 40
0.0
 40
0.0
 40
1.0
 40
1.0
 40
1.0
 40
2.0
 40
2.0
 40
2.0
 40
3.0
 40
3.0
 40
3.0
 40
4.0
 40
4.0
 40
4.0
 40
5.0
 40
5.0
 40
5.0
 40
6.0
 40
6.0
 40
6.0
 40
7.0
 40
7.0
 40
7.0
 40
8.0
 40
8.0
 40
8.0
 40
9.0
 40
9.0
 40
9.0
 40
10.0
 40
10.0
 40
10.0
 40
11.0
 40
11.0
 40
11.0
 40
12.0
 40
12.0
 40
12.0
 40
13.0
 40
13.0
 40
13.0
 40
14.0
 40
14.0
 40
14.0
 40
15.0
 40
15.0
 40
15.0
 40
16.0
 40
16.0
 40
16.0
 40
17.0
 40
17.0
 40
17.0
 40
18.0
 40
18.0
 40
18.0
 40
19.0
 40
19.0
 40
19.0
 40
20.0
 40
20.0
 40
20.0
 40
21.0
 40
21.0
 40
21.0
 40
22.0
 40
22.0
 40
22.0
 40
23.0
 40
23.0
 40
23.0
 40
24.0
 40
24.0
 40
24.0
 40
25.0
 40
25.0
 40
25.0
 40
26.0
 40
26.0
 40
26.0
 40
27.0
 40
27.0
 40
27.0
 40
28.0
 40
28.0
 40
28.0
 40
29.0
 40
29.0
 40
29.0
 40
30.0
 40
30.0
 40
30.0
 40
31.0
 40
31.0
 40
31.0
 40
32.0
 40
32.0
 40
32.0
 40
33.0
 40
33.0
 40
33.0
 40
34.0
 40
34.0
 40
34.0
 40
35.0
 40
35.0
 40
35.0
 40
35.0
 10
716.0211819117831
 20
-183.4683999999997
 30
0.0
 10
703.5183822276304
 20
-158.3092999999999
 30
0.0
 10
691.2287825380918
 20
-133.0442999999996
 30
0.0
 10
678.8454828509202
 20
-107.8257000000003
 30
0.0
 10
671.8765830269695
 20
-93.63360000000011
 30
0.0
 10
664.8554832043374
 20
-79.46730000000025
 30
0.0
 10
657.3514833939043
 20
-64.26429999999982
 30
0.0
 10
654.2030834734396
 20
-70.34580000000005
 30
0.0
 10
651.5971835392702
 20
-75.14869999999974
 30
0.0
 10
649.1960835999271
 20
-80.05190000000039
 30
0.0
 10
619.1598843587053
 20
-141.3904000000002
 30
0.0
 10
589.1170851176503
 20
-202.7258000000002
 30
0.0
 10
559.1881858737179
 20
-264.1167999999998
 30
0.0
 10
555.819185958826
 20
-271.0277999999998
 30
0.0
 10
551.5606860664047
 20
-276.6089000000002
 30
0.0
 10
545.0675862304342
 20
-281.1886999999997
 30
0.0
 10
489.8542876252395
 20
-320.1334999999999
 30
0.0
 10
434.8496890147726
 20
-359.3753999999999
 30
0.0
 10
379.8863904032623
 20
-398.6728999999996
 30
0.0
 10
376.173690497053
 20
-401.3271999999997
 30
0.0
 10
373.6869999999999
 20
-401.3606
 30
0.0
 10
370.0066906528446
 20
-398.6474999999991
 30
0.0
 10
358.4635909444478
 20
-390.1383999999998
 30
0.0
 10
346.5660912450039
 20
-382.1123000000007
 30
0.0
 10
334.8905915399519
 20
-373.7806
 30
0.0
 10
294.7931925528974
 20
-345.1670999999997
 30
0.0
 10
254.9702935589085
 20
-316.1602999999996
 30
0.0
 10
214.5166945808523
 20
-288.0608000000002
 30
0.0
 10
201.8599999999997
 20
-279.2691999999997
 30
0.0
 10
192.9201951264258
 20
-268.8688000000002
 30
0.0
 10
186.2700952944215
 20
-254.8500000000004
 30
0.0
 10
161.527
 20
-202.6917000000003
 30
0.0
 10
135.7146965715583
 20
-151.0405000000001
 30
0.0
 10
110.2866972139236
 20
-99.20730000000003
 30
0.0
 10
104.6560973561645
 20
-87.72950000000037
 30
0.0
 10
98.95610000000033
 20
-76.28570000000036
 30
0.0
 10
93.03189999999995
 20
-64.30869999999959
 30
0.0
 10
92.01350000000002
 20
-65.8697000000002
 30
0.0
 10
91.30490000000009
 20
-66.74200000000019
 30
0.0
 10
90.82250000000022
 20
-67.72519999999986
 30
0.0
 10
71.88280000000032
 20
-106.3212999999996
 30
0.0
 10
53.0027
 20
-144.9467000000004
 30
0.0
 10
33.97109999999975
 20
-183.4973
 30
0.0
 10
32.3765999999996
 20
-186.7267000000002
 30
0.0
 10
32.42910000000029
 20
-189.2174999999997
 30
0.0
 10
34.01800000000003
 20
-192.4285
 30
0.0
 10
48.73649999999998
 20
-222.1720999999998
 30
0.0
 10
63.25929999999971
 20
-252.0123999999996
 30
0.0
 10
77.8782000000001
 20
-281.8054000000002
 30
0.0
 10
103.0545973966218
 20
-333.1139999999996
 30
0.0
 10
128.2848967592508
 20
-384.3963999999996
 30
0.0
 10
153.4063961246284
 20
-435.7320999999993
 30
0.0
 10
155.5488960705043
 20
-440.1110000000008
 30
0.0
 10
158.4187959980045
 20
-443.5385000000006
 30
0.0
 10
162.4099999999999
 20
-446.3435000000009
 30
0.0
 10
179.2340954721658
 20
-458.1671000000006
 30
0.0
 10
195.9467950499675
 20
-470.1491999999998
 30
0.0
 10
212.6926946269305
 20
-482.0833999999995
 30
0.0
 10
229.1155942120531
 20
-493.7872000000007
 30
0.0
 10
245.5291937974107
 20
-505.5031999999992
 30
0.0
 10
262.2562933748486
 20
-517.4349000000002
 30
0.0
 10
260.854693410256
 20
-518.6718999999994
 30
0.0
 10
259.9536934330172
 20
-519.6183000000001
 30
0.0
 10
258.9101934593782
 20
-520.366
 30
0.0
 10
240.8061939167237
 20
-533.3387000000002
 30
0.0
 10
222.6944943742637
 20
-546.3004000000001
 30
0.0
 10
204.5565948324656
 20
-559.2252000000008
 30
0.0
 10
202.1111948942416
 20
-560.9678000000004
 30
0.0
 10
199.5296949594558
 20
-561.8590000000004
 30
0.0
 10
203.9033948489669
 20
-564.9627999999993
 30
0.0
 10
259.6242934413385
 20
-604.5054
 30
0.0
 10
315.2318920365724
 20
-644.2077000000008
 30
0.0
 10
370.7912906330239
 20
-683.9773999999998
 30
0.0
 10
373.8787905550271
 20
-686.1875999999993
 30
0.0
 10
375.9375905030174
 20
-686.4217000000008
 30
0.0
 10
379.1420904220649
 20
-684.0632000000005
 30
0.0
 10
392.5138900842649
 20
-674.2219000000005
 30
0.0
 10
406.1334897402048
 20
-664.7186000000002
 30
0.0
 10
419.6510893987215
 20
-655.0748999999996
 30
0.0
 10
461.5983883390436
 20
-625.1474999999991
 30
0.0
 10
503.5196872800225
 20
-595.1826999999994
 30
0.0
 10
545.5257862188591
 20
-565.3377
 30
0.0
 10
548.864386134519
 20
-562.965400000001
 30
0.0
 10
549.1683861268393
 20
-561.8477000000003
 30
0.0
 10
545.5744862176289
 20
-559.3227999999999
 30
0.0
 10
527.967686662414
 20
-546.9527999999991
 30
0.0
 10
510.5492871024398
 20
-534.3137000000006
 30
0.0
 10
493.0623875441961
 20
-521.7726999999995
 30
0.0
 10
487.4461876860732
 20
-517.7453000000005
 30
0.0
 10
487.4287876865128
 20
-517.7299000000003
 30
0.0
 10
493.0911875434685
 20
-513.6857
 30
0.0
 10
524.267486755889
 20
-491.4177
 30
0.0
 10
555.4215859688702
 20
-469.1178
 30
0.0
 10
586.6657851795753
 20
-446.9452999999994
 30
0.0
 10
591.2702850632559
 20
-443.6776000000009
 30
0.0
 10
594.6765849772055
 20
-439.7605999999996
 30
0.0
 10
597.1307849152072
 20
-434.6512000000002
 30
0.0
 10
607.4223846552195
 20
-413.2268999999997
 30
0.0
 10
617.8973843905987
 20
-391.8899999999994
 30
0.0
 10
628.3682841260816
 20
-370.5520999999999
 30
0.0
 10
657.5288833894228
 20
-311.1288000000004
 30
0.0
 10
686.6912826527187
 20
-251.7064
 30
0.0
 10
715.9806819128062
 20
-192.3467000000001
 30
0.0
 10
717.5747818725358
 20
-189.1162999999997
 30
0.0
 10
717.6226818713258
 20
-186.6908000000003
 30
0.0
 10
716.0211819117831
 20
-183.4683999999997
 30
0.0
  0
SPLINE
  5
42
330
1F
100
AcDbEntity
  8
Layer 1
370
     0
100
AcDbSpline
210
0.0
220
0.0
230
1.0
 70
    11
 71
     3
 72
    23
 73
    19
 74
     0
 42
0.0000000001
 43
0.0000000001
 12
1.0
 22
0.0
 32
0.0
 13
1.0
 23
0.0
 33
0.0
 40
0.0
 40
0.0
 40
0.0
 40
0.0
 40
1.0
 40
1.0
 40
1.0
 40
2.0
 40
2.0
 40
2.0
 40
3.0
 40
3.0
 40
3.0
 40
4.0
 40
4.0
 40
4.0
 40
5.0
 40
5.0
 40
5.0
 40
6.0
 40
6.0
 40
6.0
 40
6.0
 10
657.1305833994847
 20
-96.09180000000015
 30
0.0
 10
663.2934832437968
 20
-108.5452999999998
 30
0.0
 10
668.9568831007273
 20
-119.9784
 30
0.0
 10
674.6104829579053
 20
-131.4162999999999
 30
0.0
 10
681.036282795576
 20
-144.4166000000005
 30
0.0
 10
687.4042826347068
 20
-157.4459999999999
 30
0.0
 10
693.9190824701291
 20
-170.4014999999999
 30
0.0
 10
695.1084824400823
 20
-172.7667000000001
 30
0.0
 10
695.3261824345827
 20
-174.1239999999998
 30
0.0
 10
692.780782498885
 20
-175.9256999999998
 30
0.0
 10
655.7001834356197
 20
-202.1702999999998
 30
0.0
 10
618.7128843699975
 20
-228.5469000000003
 30
0.0
 10
581.692385305214
 20
-254.8768
 30
0.0
 10
581.2626853160691
 20
-255.1823999999997
 30
0.0
 10
580.6912853305039
 20
-255.2885999999999
 30
0.0
 10
578.6616853817759
 20
-256.0891000000001
 30
0.0
 10
605.0905847141257
 20
-202.201
 30
0.0
 10
630.85388406329
 20
-149.6701999999996
 30
0.0
 10
657.1305833994847
 20
-96.09180000000015
 30
0.0
  0
SPLINE
  5
43
330
1F
100
AcDbEntity
  8
Layer 1
370
     0
100
AcDbSpline
210
0.0
220
0.0
230
1.0
 70
    11
 71
     3
 72
    17
 73
    13
 74
     0
 42
0.0000000001
 43
0.0000000001
 12
1.0
 22
0.0
 32
0.0
 13
1.0
 23
0.0
 33
0.0
 40
0.0
 40
0.0
 40
0.0
 40
0.0
 40
1.0
 40
1.0
 40
1.0
 40
2.0
 40
2.0
 40
2.0
 40
3.0
 40
3.0
 40
3.0
 40
4.0
 40
4.0
 40
4.0
 40
4.0
 10
375.0553905253037
 20
-490.9943000000003
 30
0.0
 10
395.7802900017487
 20
-490.9775000000009
 30
0.0
 10
412.908289569059
 20
-507.7726000000002
 30
0.0
 10
412.9046895691499
 20
-528.1077999999998
 30
0.0
 10
412.9005895692535
 20
-549.1810999999998
 30
0.0
 10
395.8646899996165
 20
-566.0599000000002
 30
0.0
 10
374.6662905351332
 20
-565.9933999999994
 30
0.0
 10
353.5440910687248
 20
-565.9269999999997
 30
0.0
 10
337.1514914828367
 20
-549.1070999999993
 30
0.0
 10
337.0710914848678
 20
-527.4182000000001
 30
0.0
 10
336.9987914866942
 20
-507.8228999999992
 30
0.0
 10
354.5306910438012
 20
-491.0107000000007
 30
0.0
 10
375.0553905253037
 20
-490.9943000000003
 30
0.0
  0
SPLINE
  5
44
330
1F
100
AcDbEntity
  8
Layer 1
370
     0
100
AcDbSpline
210
0.0
220
0.0
230
1.0
 70
    11
 71
     3
 72
    23
 73
    19
 74
     0
 42
0.0000000001
 43
0.0000000001
 12
1.0
 22
0.0
 32
0.0
 13
1.0
 23
0.0
 33
0.0
 40
0.0
 40
0.0
 40
0.0
 40
0.0
 40
1.0
 40
1.0
 40
1.0
 40
2.0
 40
2.0
 40
2.0
 40
3.0
 40
3.0
 40
3.0
 40
4.0
 40
4.0
 40
4.0
 40
5.0
 40
5.0
 40
5.0
 40
6.0
 40
6.0
 40
6.0
 40
6.0
 10
55.96299999999974
 20
-170.4309999999996
 30
0.0
 10
67.64779999999973
 20
-147.2172
 30
0.0
 10
79.07729999999992
 20
-123.8751000000002
 30
0.0
 10
90.60779999999977
 20
-100.5837000000001
 30
0.0
 10
91.18249999999989
 20
-99.42230000000018
 30
0.0
 10
91.92240000000038
 20
-98.34249999999975
 30
0.0
 10
93.02480000000014
 20
-96.48390000000018
 30
0.0
 10
119.048096992592
 20
-149.5344999999998
 30
0.0
 10
144.7832963424662
 20
-201.9989999999998
 30
0.0
 10
170.6040956901779
 20
-254.6374999999998
 30
0.0
 10
167.9816957564253
 20
-255.4615000000003
 30
0.0
 10
166.9060957835973
 20
-253.8265000000001
 30
0.0
 10
165.6560958151749
 20
-252.9384
 30
0.0
 10
129.8523967196525
 20
-227.5010000000002
 30
0.0
 10
94.08529999999973
 20
-202.0123000000003
 30
0.0
 10
58.28819999999996
 20
-176.5653000000002
 30
0.0
 10
56.0604000000003
 20
-174.9817000000003
 30
0.0
 10
54.19850000000042
 20
-173.9368000000004
 30
0.0
 10
55.96299999999974
 20
-170.4309999999996
 30
0.0
  0
SPLINE
  5
45
330
1F
100
AcDbEntity
  8
Layer 1
370
     0
100
AcDbSpline
210
0.0
220
0.0
230
1.0
 70
    11
 71
     3
 72
    38
 73
    34
 74
     0
 42
0.0000000001
 43
0.0000000001
 12
1.0
 22
0.0
 32
0.0
 13
1.0
 23
0.0
 33
0.0
 40
0.0
 40
0.0
 40
0.0
 40
0.0
 40
1.0
 40
1.0
 40
1.0
 40
2.0
 40
2.0
 40
2.0
 40
3.0
 40
3.0
 40
3.0
 40
4.0
 40
4.0
 40
4.0
 40
5.0
 40
5.0
 40
5.0
 40
6.0
 40
6.0
 40
6.0
 40
7.0
 40
7.0
 40
7.0
 40
8.0
 40
8.0
 40
8.0
 40
9.0
 40
9.0
 40
9.0
 40
10.0
 40
10.0
 40
10.0
 40
11.0
 40
11.0
 40
11.0
 40
11.0
 10
98.57539999999972
 20
-291.5771999999997
 30
0.0
 10
82.55469999999968
 20
-258.7047000000002
 30
0.0
 10
66.41470000000027
 20
-225.8904000000002
 30
0.0
 10
50.33460000000014
 20
-193.0468000000001
 30
0.0
 10
49.61539999999968
 20
-191.5776999999998
 30
0.0
 10
48.47860000000037
 20
-190.1794
 30
0.0
 10
49.17019999999957
 20
-187.3323
 30
0.0
 10
66.04299999999967
 20
-199.3338999999996
 30
0.0
 10
82.46169999999984
 20
-211.0025999999998
 30
0.0
 10
98.87049999999999
 20
-222.6859999999997
 30
0.0
 10
160.0309999999999
 20
-266.2344000000003
 30
0.0
 10
221.1903944122605
 20
-309.7849999999999
 30
0.0
 10
282.34639286733
 20
-353.3400000000001
 30
0.0
 10
309.5407921803417
 20
-372.7073
 30
0.0
 10
336.6897914945002
 20
-392.1388999999999
 30
0.0
 10
363.9636908055036
 20
-411.393
 30
0.0
 10
367.2467907225655
 20
-413.7106000000003
 30
0.0
 10
368.227090697801
 20
-415.7078000000001
 30
0.0
 10
366.8288907331225
 20
-419.7186000000002
 30
0.0
 10
361.3645908711624
 20
-435.3919999999998
 30
0.0
 10
356.1192910036698
 20
-451.1486000000004
 30
0.0
 10
351.1908911281716
 20
-466.9982
 30
0.0
 10
349.5900911686113
 20
-472.1460999999999
 30
0.0
 10
347.8831912117312
 20
-472.0007000000005
 30
0.0
 10
343.9646913107208
 20
-469.1987000000008
 30
0.0
 10
302.6836923535666
 20
-439.6777000000002
 30
0.0
 10
261.2943933991482
 20
-410.3086000000003
 30
0.0
 10
219.95259444353
 20
-380.8726000000006
 30
0.0
 10
182.0003954022832
 20
-353.8499000000002
 30
0.0
 10
144.0743963603745
 20
-326.7893999999997
 30
0.0
 10
106.1195973191934
 20
-299.7699000000002
 30
0.0
 10
103.0103973977384
 20
-297.5564000000004
 30
0.0
 10
100.3192974657213
 20
-295.1561000000002
 30
0.0
 10
98.57539999999972
 20
-291.5771999999997
 30
0.0
  0
SPLINE
  5
46
330
1F
100
AcDbEntity
  8
Layer 1
370
     0
100
AcDbSpline
210
0.0
220
0.0
230
1.0
 70
    11
 71
     3
 72
    32
 73
    28
 74
     0
 42
0.0000000001
 43
0.0000000001
 12
1.0
 22
0.0
 32
0.0
 13
1.0
 23
0.0
 33
0.0
 40
0.0
 40
0.0
 40
0.0
 40
0.0
 40
1.0
 40
1.0
 40
1.0
 40
2.0
 40
2.0
 40
2.0
 40
3.0
 40
3.0
 40
3.0
 40
4.0
 40
4.0
 40
4.0
 40
5.0
 40
5.0
 40
5.0
 40
6.0
 40
6.0
 40
6.0
 40
7.0
 40
7.0
 40
7.0
 40
8.0
 40
8.0
 40
8.0
 40
9.0
 40
9.0
 40
9.0
 40
9.0
 10
248.7996937147909
 20
-486.4135999999999
 30
0.0
 10
245.0256938101302
 20
-486.4305000000004
 30
0.0
 10
241.8584938901404
 20
-485.5131000000001
 30
0.0
 10
238.8041939672985
 20
-483.3289999999997
 30
0.0
 10
216.6997945257026
 20
-467.5251000000007
 30
0.0
 10
194.5404950854936
 20
-451.7988000000005
 30
0.0
 10
172.3936956449688
 20
-436.0547999999999
 30
0.0
 10
169.5705957162863
 20
-434.0476999999992
 30
0.0
 10
167.3324957728255
 20
-431.5566999999992
 30
0.0
 10
165.7973958116054
 20
-428.4343000000008
 30
0.0
 10
149.3199999999997
 20
-394.9156999999996
 30
0.0
 10
132.8336966443385
 20
-361.4012999999995
 30
0.0
 10
116.3665970603324
 20
-327.8775999999998
 30
0.0
 10
115.9590970706267
 20
-327.0482000000002
 30
0.0
 10
115.7421970761061
 20
-326.1252999999997
 30
0.0
 10
116.2382970635736
 20
-324.2339000000002
 30
0.0
 10
191.4761951629043
 20
-377.8238999999994
 30
0.0
 10
266.7140932622351
 20
-431.4138000000003
 30
0.0
 10
341.9514913615785
 20
-485.0036999999993
 30
0.0
 10
341.8072913652213
 20
-485.4527999999991
 30
0.0
 10
341.6627913688717
 20
-485.902
 30
0.0
 10
341.5185913725145
 20
-486.3510999999999
 30
0.0
 10
336.0995915094099
 20
-486.3510999999999
 30
0.0
 10
330.680291646313
 20
-486.3510000000006
 30
0.0
 10
325.2613917832059
 20
-486.3510999999999
 30
0.0
 10
299.7743924270617
 20
-486.3521999999994
 30
0.0
 10
274.2865930709377
 20
-486.2990000000009
 30
0.0
 10
248.7996937147909
 20
-486.4135999999999
 30
0.0
  0
SPLINE
  5
47
330
1F
100
AcDbEntity
  8
Layer 1
370
     0
100
AcDbSpline
210
0.0
220
0.0
230
1.0
 70
    11
 71
     3
 72
    32
 73
    28
 74
     0
 42
0.0000000001
 43
0.0000000001
 12
1.0
 22
0.0
 32
0.0
 13
1.0
 23
0.0
 33
0.0
 40
0.0
 40
0.0
 40
0.0
 40
0.0
 40
1.0
 40
1.0
 40
1.0
 40
2.0
 40
2.0
 40
2.0
 40
3.0
 40
3.0
 40
3.0
 40
4.0
 40
4.0
 40
4.0
 40
5.0
 40
5.0
 40
5.0
 40
6.0
 40
6.0
 40
6.0
 40
7.0
 40
7.0
 40
7.0
 40
8.0
 40
8.0
 40
8.0
 40
9.0
 40
9.0
 40
9.0
 40
9.0
 10
296.6425925061776
 20
-613.9122000000007
 30
0.0
 10
274.0453930770309
 20
-597.5357999999997
 30
0.0
 10
251.248693652924
 20
-581.4339
 30
0.0
 10
228.4759999999997
 20
-565.3008000000009
 30
0.0
 10
225.7617942967772
 20
-563.3778000000002
 30
0.0
 10
224.1189999999997
 20
-562.3027000000002
 30
0.0
 10
228.0872942380302
 20
-559.5368999999992
 30
0.0
 10
246.9605937612505
 20
-546.3824000000004
 30
0.0
 10
265.6432932892858
 20
-532.9531999999999
 30
0.0
 10
284.3289999999997
 20
-519.5316999999995
 30
0.0
 10
286.7288927566187
 20
-517.8078999999998
 30
0.0
 10
288.5203927113616
 20
-517.9567000000006
 30
0.0
 10
290.8565926523443
 20
-519.6556999999993
 30
0.0
 10
301.2275923903508
 20
-527.1985000000004
 30
0.0
 10
311.7260921251363
 20
-534.5665000000008
 30
0.0
 10
322.1480000000001
 20
-542.0398999999998
 30
0.0
 10
323.4455918290769
 20
-542.9706999999999
 30
0.0
 10
325.348791780998
 20
-543.6180000000004
 30
0.0
 10
324.4225918043958
 20
-547.3927999999996
 30
0.0
 10
322.3496918567616
 20
-553.8068999999996
 30
0.0
 10
319.8567919197376
 20
-561.7152999999998
 30
0.0
 10
317.2376919859016
 20
-569.5815999999995
 30
0.0
 10
312.5910921032846
 20
-583.5368999999992
 30
0.0
 10
307.7474922256442
 20
-597.4279000000006
 30
0.0
 10
303.2513923392253
 20
-611.4310000000005
 30
0.0
 10
301.9194923728719
 20
-615.5799000000006
 30
0.0
 10
300.9575923971715
 20
-617.0393999999997
 30
0.0
 10
296.6425925061776
 20
-613.9122000000007
 30
0.0
  0
SPLINE
  5
48
330
1F
100
AcDbEntity
  8
Layer 1
370
     0
100
AcDbSpline
210
0.0
220
0.0
230
1.0
 70
    11
 71
     3
 72
    32
 73
    28
 74
     0
 42
0.0000000001
 43
0.0000000001
 12
1.0
 22
0.0
 32
0.0
 13
1.0
 23
0.0
 33
0.0
 40
0.0
 40
0.0
 40
0.0
 40
0.0
 40
1.0
 40
1.0
 40
1.0
 40
2.0
 40
2.0
 40
2.0
 40
3.0
 40
3.0
 40
3.0
 40
4.0
 40
4.0
 40
4.0
 40
5.0
 40
5.0
 40
5.0
 40
6.0
 40
6.0
 40
6.0
 40
7.0
 40
7.0
 40
7.0
 40
8.0
 40
8.0
 40
8.0
 40
9.0
 40
9.0
 40
9.0
 40
9.0
 10
434.5674890219016
 20
-627.2119999999995
 30
0.0
 10
415.6516894997549
 20
-640.6373000000003
 30
0.0
 10
396.8480899747738
 20
-654.2199999999993
 30
0.0
 10
377.9920904511164
 20
-667.7296999999999
 30
0.0
 10
377.0976904737108
 20
-668.3705000000009
 30
0.0
 10
376.0596904999329
 20
-668.8107
 30
0.0
 10
375.0305905259302
 20
-669.3758999999991
 30
0.0
 10
373.9617905529303
 20
-668.6882000000005
 30
0.0
 10
372.9931905773992
 20
-668.1185999999998
 30
0.0
 10
372.0810906004408
 20
-667.4701999999997
 30
0.0
 10
353.1762910780162
 20
-654.0360999999994
 30
0.0
 10
334.3117915545736
 20
-640.5452000000005
 30
0.0
 10
315.3454920337026
 20
-627.1991999999991
 30
0.0
 10
312.219692112667
 20
-624.9994999999999
 30
0.0
 10
312.9760920935587
 20
-623.8281000000006
 30
0.0
 10
315.580492027766
 20
-621.9843999999994
 30
0.0
 10
334.3604915533433
 20
-608.6887000000006
 30
0.0
 10
353.0984910799816
 20
-595.3327000000008
 30
0.0
 10
371.7767906081281
 20
-581.8945000000003
 30
0.0
 10
374.1620000000003
 20
-580.1782999999996
 30
0.0
 10
375.9113905036793
 20
-580.2157000000007
 30
0.0
 10
378.2870904436641
 20
-581.9243999999999
 30
0.0
 10
396.967189971765
 20
-595.3582999999999
 30
0.0
 10
415.7088894983099
 20
-608.7075000000004
 30
0.0
 10
434.4962890237002
 20
-621.9912999999997
 30
0.0
 10
437.2367889544694
 20
-623.9290000000001
 30
0.0
 10
437.556888946383
 20
-625.0905999999995
 30
0.0
 10
434.5674890219016
 20
-627.2119999999995
 30
0.0
  0
SPLINE
  5
49
330
1F
100
AcDbEntity
  8
Layer 1
370
     0
100
AcDbSpline
210
0.0
220
0.0
230
1.0
 70
    11
 71
     3
 72
    32
 73
    28
 74
     0
 42
0.0000000001
 43
0.0000000001
 12
1.0
 22
0.0
 32
0.0
 13
1.0
 23
0.0
 33
0.0
 40
0.0
 40
0.0
 40
0.0
 40
0.0
 40
1.0
 40
1.0
 40
1.0
 40
2.0
 40
2.0
 40
2.0
 40
3.0
 40
3.0
 40
3.0
 40
4.0
 40
4.0
 40
4.0
 40
5.0
 40
5.0
 40
5.0
 40
6.0
 40
6.0
 40
6.0
 40
7.0
 40
7.0
 40
7.0
 40
8.0
 40
8.0
 40
8.0
 40
9.0
 40
9.0
 40
9.0
 40
9.0
 10
522.0857868110033
 20
-559.8480999999992
 30
0.0
 10
523.0930867855568
 20
-560.5674999999992
 30
0.0
 10
523.9864867629876
 20
-561.4457999999995
 30
0.0
 10
525.1445867337316
 20
-562.4297000000006
 30
0.0
 10
523.8823867656174
 20
-563.4048999999995
 30
0.0
 10
523.0266867872342
 20
-564.1124
 30
0.0
 10
522.1252868100055
 20
-564.7556999999997
 30
0.0
 10
498.9390873957382
 20
-581.3004000000001
 30
0.0
 10
475.721887982254
 20
-597.8014999999996
 30
0.0
 10
452.5918885665669
 20
-614.4241999999995
 30
0.0
 10
449.6923886398145
 20
-616.5079000000005
 30
0.0
 10
448.4132886721272
 20
-616.5529999999999
 30
0.0
 10
447.1967887028586
 20
-612.8061999999991
 30
0.0
 10
440.2103888793499
 20
-591.2852000000003
 30
0.0
 10
433.0722890596735
 20
-569.8125999999993
 30
0.0
 10
425.8374892424399
 20
-548.3737999999994
 30
0.0
 10
424.8076892684549
 20
-545.3225999999995
 30
0.0
 10
425.4303892527241
 20
-543.6329000000005
 30
0.0
 10
428.0542891864388
 20
-541.8158999999996
 30
0.0
 10
438.4443889239628
 20
-534.6214999999993
 30
0.0
 10
448.7356886639827
 20
-527.2795000000006
 30
0.0
 10
458.9291884064733
 20
-519.8091000000004
 30
0.0
 10
461.4689999999991
 20
-517.9480000000003
 30
0.0
 10
463.3260882953982
 20
-517.8418999999994
 30
0.0
 10
465.9150000000009
 20
-519.7063999999991
 30
0.0
 10
484.5883877582673
 20
-533.156500000001
 30
0.0
 10
503.3588872840846
 20
-546.4722000000002
 30
0.0
 10
522.0857868110033
 20
-559.8480999999992
 30
0.0
  0
SPLINE
  5
4A
330
1F
100
AcDbEntity
  8
Layer 1
370
     0
100
AcDbSpline
210
0.0
220
0.0
230
1.0
 70
    11
 71
     3
 72
    32
 73
    28
 74
     0
 42
0.0000000001
 43
0.0000000001
 12
1.0
 22
0.0
 32
0.0
 13
1.0
 23
0.0
 33
0.0
 40
0.0
 40
0.0
 40
0.0
 40
0.0
 40
1.0
 40
1.0
 40
1.0
 40
2.0
 40
2.0
 40
2.0
 40
3.0
 40
3.0
 40
3.0
 40
4.0
 40
4.0
 40
4.0
 40
5.0
 40
5.0
 40
5.0
 40
6.0
 40
6.0
 40
6.0
 40
7.0
 40
7.0
 40
7.0
 40
8.0
 40
8.0
 40
8.0
 40
9.0
 40
9.0
 40
9.0
 40
9.0
 10
618.7379999999994
 20
-358.7106999999996
 30
0.0
 10
607.2652846591882
 20
-382.0676000000003
 30
0.0
 10
595.6660849522086
 20
-405.3626999999997
 30
0.0
 10
584.1495852431399
 20
-428.6983
 30
0.0
 10
582.6890000000003
 20
-431.6579999999994
 30
0.0
 10
580.5932853329796
 20
-433.9560000000001
 30
0.0
 10
577.9124854007023
 20
-435.8601999999992
 30
0.0
 10
555.4621859678446
 20
-451.8065000000006
 30
0.0
 10
533.0339999999997
 20
-467.7842999999993
 30
0.0
 10
510.6204871006412
 20
-483.7819999999992
 30
0.0
 10
508.4188871562583
 20
-485.3533000000007
 30
0.0
 10
506.2055872121709
 20
-486.402900000001
 30
0.0
 10
503.3603872840467
 20
-486.3960999999999
 30
0.0
 10
472.4068880659979
 20
-486.3215
 30
0.0
 10
441.4529999999995
 20
-486.3457999999991
 30
0.0
 10
410.4990896299205
 20
-486.3294999999998
 30
0.0
 10
409.7960896476798
 20
-486.3291000000008
 30
0.0
 10
409.0926896654491
 20
-486.1682000000001
 30
0.0
 10
406.7395897248934
 20
-485.8804
 30
0.0
 10
483.1384877948949
 20
-431.4796999999999
 30
0.0
 10
558.4154858932379
 20
-377.8777000000009
 30
0.0
 10
633.6923839915835
 20
-324.2758000000003
 30
0.0
 10
634.0542839824411
 20
-324.5841
 30
0.0
 10
634.4160839733013
 20
-324.8926000000001
 30
0.0
 10
634.7780000000002
 20
-325.201
 30
0.0
 10
629.4382840990511
 20
-336.3743000000004
 30
0.0
 10
624.1974842314448
 20
-347.5962
 30
0.0
 10
618.7379999999994
 20
-358.7106999999996
 30
0.0
  0
SPLINE
  5
4B
330
1F
100
AcDbEntity
  8
Layer 1
370
     0
100
AcDbSpline
210
0.0
220
0.0
230
1.0
 70
    11
 71
     3
 72
    41
 73
    37
 74
     0
 42
0.0000000001
 43
0.0000000001
 12
1.0
 22
0.0
 32
0.0
 13
1.0
 23
0.0
 33
0.0
 40
0.0
 40
0.0
 40
0.0
 40
0.0
 40
1.0
 40
1.0
 40
1.0
 40
2.0
 40
2.0
 40
2.0
 40
3.0
 40
3.0
 40
3.0
 40
4.0
 40
4.0
 40
4.0
 40
5.0
 40
5.0
 40
5.0
 40
6.0
 40
6.0
 40
6.0
 40
7.0
 40
7.0
 40
7.0
 40
8.0
 40
8.0
 40
8.0
 40
9.0
 40
9.0
 40
9.0
 40
10.0
 40
10.0
 40
10.0
 40
11.0
 40
11.0
 40
11.0
 40
12.0
 40
12.0
 40
12.0
 40
12.0
 10
688.1869999999999
 20
-216.6755999999996
 30
0.0
 10
676.3051829150936
 20
-240.8828000000003
 30
0.0
 10
664.3080832181658
 20
-265.0334999999995
 30
0.0
 10
652.5487835152308
 20
-289.2996999999996
 30
0.0
 10
650.3261835713784
 20
-293.8855999999996
 30
0.0
 10
647.3216836472784
 20
-297.3721999999998
 30
0.0
 10
643.1962837514948
 20
-300.3058000000001
 30
0.0
 10
571.0735855734674
 20
-351.5933999999997
 30
0.0
 10
499.0032873941163
 20
-402.9539999999997
 30
0.0
 10
426.9290000000001
 20
-454.3094000000001
 30
0.0
 10
419.5550894011467
 20
-459.5635000000002
 30
0.0
 10
412.2001895869471
 20
-464.8449000000001
 30
0.0
 10
404.8957897714718
 20
-470.1947999999993
 30
0.0
 10
402.2017898395279
 20
-472.1679999999997
 30
0.0
 10
400.6477898787853
 20
-472.5254000000004
 30
0.0
 10
399.3852899106787
 20
-468.5702999999994
 30
0.0
 10
394.0493900454749
 20
-451.8549999999996
 30
0.0
 10
388.5400000000009
 20
-435.1916999999994
 30
0.0
 10
382.8067903294868
 20
-418.6088
 30
0.0
 10
381.4398903640176
 20
-414.6551999999992
 30
0.0
 10
383.4869999999992
 20
-413.2883000000002
 30
0.0
 10
386.0924902464831
 20
-411.4349000000002
 30
0.0
 10
448.9853886576748
 20
-366.6958999999997
 30
0.0
 10
511.8391870698542
 20
-321.9018999999998
 30
0.0
 10
574.7036854817634
 20
-277.1232
 30
0.0
 10
614.6637844722864
 20
-248.6594999999998
 30
0.0
 10
654.6286834626881
 20
-220.2028
 30
0.0
 10
694.594682453062
 20
-191.7479999999996
 30
0.0
 10
696.7110823995972
 20
-190.2413999999999
 30
0.0
 10
698.8614823452735
 20
-188.7821999999996
 30
0.0
 10
700.9954822913642
 20
-187.3008
 30
0.0
 10
701.3175822832272
 20
-187.6256000000003
 30
0.0
 10
701.6391822751029
 20
-187.9503000000004
 30
0.0
 10
701.9611822669685
 20
-188.2749999999996
 30
0.0
 10
697.372082382899
 20
-197.7431999999999
 30
0.0
 10
692.8228824978214
 20
-207.2307000000001
 30
0.0
 10
688.1869999999999
 20
-216.6755999999996
 30
0.0
  0
HATCH
  5
4C
330
1F
100
AcDbEntity
  8
Layer 1
 62
     7
420
 16777215
100
AcDbHatch
 10
0.0
 20
0.0
 30
0.0
210
0.0
220
0.0
230
1.0
  2
SOLID
 70
     1
 71
     0
 91
       11
 92
        1
 93
        1
 72
     4
 94
        3
 73
     0
 74
     1
 95
      110
 96
      106
 40
0.0
 40
0.0
 40
0.0
 40
0.0
 40
1.0
 40
1.0
 40
1.0
 40
2.0
 40
2.0
 40
2.0
 40
3.0
 40
3.0
 40
3.0
 40
4.0
 40
4.0
 40
4.0
 40
5.0
 40
5.0
 40
5.0
 40
6.0
 40
6.0
 40
6.0
 40
7.0
 40
7.0
 40
7.0
 40
8.0
 40
8.0
 40
8.0
 40
9.0
 40
9.0
 40
9.0
 40
10.0
 40
10.0
 40
10.0
 40
11.0
 40
11.0
 40
11.0
 40
12.0
 40
12.0
 40
12.0
 40
13.0
 40
13.0
 40
13.0
 40
14.0
 40
14.0
 40
14.0
 40
15.0
 40
15.0
 40
15.0
 40
16.0
 40
16.0
 40
16.0
 40
17.0
 40
17.0
 40
17.0
 40
18.0
 40
18.0
 40
18.0
 40
19.0
 40
19.0
 40
19.0
 40
20.0
 40
20.0
 40
20.0
 40
21.0
 40
21.0
 40
21.0
 40
22.0
 40
22.0
 40
22.0
 40
23.0
 40
23.0
 40
23.0
 40
24.0
 40
24.0
 40
24.0
 40
25.0
 40
25.0
 40
25.0
 40
26.0
 40
26.0
 40
26.0
 40
27.0
 40
27.0
 40
27.0
 40
28.0
 40
28.0
 40
28.0
 40
29.0
 40
29.0
 40
29.0
 40
30.0
 40
30.0
 40
30.0
 40
31.0
 40
31.0
 40
31.0
 40
32.0
 40
32.0
 40
32.0
 40
33.0
 40
33.0
 40
33.0
 40
34.0
 40
34.0
 40
34.0
 40
35.0
 40
35.0
 40
35.0
 40
35.0
 10
716.0211819117831
 20
-183.4683999999997
 10
703.5183822276304
 20
-158.3092999999999
 10
691.2287825380918
 20
-133.0442999999996
 10
678.8454828509202
 20
-107.8257000000003
 10
671.8765830269695
 20
-93.63360000000011
 10
664.8554832043374
 20
-79.46730000000025
 10
657.3514833939043
 20
-64.26429999999982
 10
654.2030834734396
 20
-70.34580000000005
 10
651.5971835392702
 20
-75.14869999999974
 10
649.1960835999271
 20
-80.05190000000039
 10
619.1598843587053
 20
-141.3904000000002
 10
589.1170851176503
 20
-202.7258000000002
 10
559.1881858737179
 20
-264.1167999999998
 10
555.819185958826
 20
-271.0277999999998
 10
551.5606860664047
 20
-276.6089000000002
 10
545.0675862304342
 20
-281.1886999999997
 10
489.8542876252395
 20
-320.1334999999999
 10
434.8496890147726
 20
-359.3753999999999
 10
379.8863904032623
 20
-398.6728999999996
 10
376.173690497053
 20
-401.3271999999997
 10
373.6869999999999
 20
-401.3606
 10
370.0066906528446
 20
-398.6474999999991
 10
358.4635909444478
 20
-390.1383999999998
 10
346.5660912450039
 20
-382.1123000000007
 10
334.8905915399519
 20
-373.7806
 10
294.7931925528974
 20
-345.1670999999997
 10
254.9702935589085
 20
-316.1602999999996
 10
214.5166945808523
 20
-288.0608000000002
 10
201.8599999999997
 20
-279.2691999999997
 10
192.9201951264258
 20
-268.8688000000002
 10
186.2700952944215
 20
-254.8500000000004
 10
161.527
 20
-202.6917000000003
 10
135.7146965715583
 20
-151.0405000000001
 10
110.2866972139236
 20
-99.20730000000003
 10
104.6560973561645
 20
-87.72950000000037
 10
98.95610000000033
 20
-76.28570000000036
 10
93.03189999999995
 20
-64.30869999999959
 10
92.01350000000002
 20
-65.8697000000002
 10
91.30490000000009
 20
-66.74200000000019
 10
90.82250000000022
 20
-67.72519999999986
 10
71.88280000000032
 20
-106.3212999999996
 10
53.0027
 20
-144.9467000000004
 10
33.97109999999975
 20
-183.4973
 10
32.3765999999996
 20
-186.7267000000002
 10
32.42910000000029
 20
-189.2174999999997
 10
34.01800000000003
 20
-192.4285
 10
48.73649999999998
 20
-222.1720999999998
 10
63.25929999999971
 20
-252.0123999999996
 10
77.8782000000001
 20
-281.8054000000002
 10
103.0545973966218
 20
-333.1139999999996
 10
128.2848967592508
 20
-384.3963999999996
 10
153.4063961246284
 20
-435.7320999999993
 10
155.5488960705043
 20
-440.1110000000008
 10
158.4187959980045
 20
-443.5385000000006
 10
162.4099999999999
 20
-446.3435000000009
 10
179.2340954721658
 20
-458.1671000000006
 10
195.9467950499675
 20
-470.1491999999998
 10
212.6926946269305
 20
-482.0833999999995
 10
229.1155942120531
 20
-493.7872000000007
 10
245.5291937974107
 20
-505.5031999999992
 10
262.2562933748486
 20
-517.4349000000002
 10
260.854693410256
 20
-518.6718999999994
 10
259.9536934330172
 20
-519.6183000000001
 10
258.9101934593782
 20
-520.366
 10
240.8061939167237
 20
-533.3387000000002
 10
222.6944943742637
 20
-546.3004000000001
 10
204.5565948324656
 20
-559.2252000000008
 10
202.1111948942416
 20
-560.9678000000004
 10
199.5296949594558
 20
-561.8590000000004
 10
203.9033948489669
 20
-564.9627999999993
 10
259.6242934413385
 20
-604.5054
 10
315.2318920365724
 20
-644.2077000000008
 10
370.7912906330239
 20
-683.9773999999998
 10
373.8787905550271
 20
-686.1875999999993
 10
375.9375905030174
 20
-686.4217000000008
 10
379.1420904220649
 20
-684.0632000000005
 10
392.5138900842649
 20
-674.2219000000005
 10
406.1334897402048
 20
-664.7186000000002
 10
419.6510893987215
 20
-655.0748999999996
 10
461.5983883390436
 20
-625.1474999999991
 10
503.5196872800225
 20
-595.1826999999994
 10
545.5257862188591
 20
-565.3377
 10
548.864386134519
 20
-562.965400000001
 10
549.1683861268393
 20
-561.8477000000003
 10
545.5744862176289
 20
-559.3227999999999
 10
527.967686662414
 20
-546.9527999999991
 10
510.5492871024398
 20
-534.3137000000006
 10
493.0623875441961
 20
-521.7726999999995
 10
487.4461876860732
 20
-517.7453000000005
 10
487.4287876865128
 20
-517.7299000000003
 10
493.0911875434685
 20
-513.6857
 10
524.267486755889
 20
-491.4177
 10
555.4215859688702
 20
-469.1178
 10
586.6657851795753
 20
-446.9452999999994
 10
591.2702850632559
 20
-443.6776000000009
 10
594.6765849772055
 20
-439.7605999999996
 10
597.1307849152072
 20
-434.6512000000002
 10
607.4223846552195
 20
-413.2268999999997
 10
617.8973843905987
 20
-391.8899999999994
 10
628.3682841260816
 20
-370.5520999999999
 10
657.5288833894228
 20
-311.1288000000004
 10
686.6912826527187
 20
-251.7064
 10
715.9806819128062
 20
-192.3467000000001
 10
717.5747818725358
 20
-189.1162999999997
 10
717.6226818713258
 20
-186.6908000000003
 10
716.0211819117831
 20
-183.4683999999997
 97
        0
 97
        0
 92
        1
 93
        1
 72
     4
 94
        3
 73
     0
 74
     1
 95
       23
 96
       19
 40
0.0
 40
0.0
 40
0.0
 40
0.0
 40
1.0
 40
1.0
 40
1.0
 40
2.0
 40
2.0
 40
2.0
 40
3.0
 40
3.0
 40
3.0
 40
4.0
 40
4.0
 40
4.0
 40
5.0
 40
5.0
 40
5.0
 40
6.0
 40
6.0
 40
6.0
 40
6.0
 10
657.1305833994847
 20
-96.09180000000015
 10
663.2934832437968
 20
-108.5452999999998
 10
668.9568831007273
 20
-119.9784
 10
674.6104829579053
 20
-131.4162999999999
 10
681.036282795576
 20
-144.4166000000005
 10
687.4042826347068
 20
-157.4459999999999
 10
693.9190824701291
 20
-170.4014999999999
 10
695.1084824400823
 20
-172.7667000000001
 10
695.3261824345827
 20
-174.1239999999998
 10
692.780782498885
 20
-175.9256999999998
 10
655.7001834356197
 20
-202.1702999999998
 10
618.7128843699975
 20
-228.5469000000003
 10
581.692385305214
 20
-254.8768
 10
581.2626853160691
 20
-255.1823999999997
 10
580.6912853305039
 20
-255.2885999999999
 10
578.6616853817759
 20
-256.0891000000001
 10
605.0905847141257
 20
-202.201
 10
630.85388406329
 20
-149.6701999999996
 10
657.1305833994847
 20
-96.09180000000015
 97
        0
 97
        0
 92
        1
 93
        1
 72
     4
 94
        3
 73
     0
 74
     1
 95
       17
 96
       13
 40
0.0
 40
0.0
 40
0.0
 40
0.0
 40
1.0
 40
1.0
 40
1.0
 40
2.0
 40
2.0
 40
2.0
 40
3.0
 40
3.0
 40
3.0
 40
4.0
 40
4.0
 40
4.0
 40
4.0
 10
375.0553905253037
 20
-490.9943000000003
 10
395.7802900017487
 20
-490.9775000000009
 10
412.908289569059
 20
-507.7726000000002
 10
412.9046895691499
 20
-528.1077999999998
 10
412.9005895692535
 20
-549.1810999999998
 10
395.8646899996165
 20
-566.0599000000002
 10
374.6662905351332
 20
-565.9933999999994
 10
353.5440910687248
 20
-565.9269999999997
 10
337.1514914828367
 20
-549.1070999999993
 10
337.0710914848678
 20
-527.4182000000001
 10
336.9987914866942
 20
-507.8228999999992
 10
354.5306910438012
 20
-491.0107000000007
 10
375.0553905253037
 20
-490.9943000000003
 97
        0
 97
        0
 92
        1
 93
        1
 72
     4
 94
        3
 73
     0
 74
     1
 95
       23
 96
       19
 40
0.0
 40
0.0
 40
0.0
 40
0.0
 40
1.0
 40
1.0
 40
1.0
 40
2.0
 40
2.0
 40
2.0
 40
3.0
 40
3.0
 40
3.0
 40
4.0
 40
4.0
 40
4.0
 40
5.0
 40
5.0
 40
5.0
 40
6.0
 40
6.0
 40
6.0
 40
6.0
 10
55.96299999999974
 20
-170.4309999999996
 10
67.64779999999973
 20
-147.2172
 10
79.07729999999992
 20
-123.8751000000002
 10
90.60779999999977
 20
-100.5837000000001
 10
91.18249999999989
 20
-99.42230000000018
 10
91.92240000000038
 20
-98.34249999999975
 10
93.02480000000014
 20
-96.48390000000018
 10
119.048096992592
 20
-149.5344999999998
 10
144.7832963424662
 20
-201.9989999999998
 10
170.6040956901779
 20
-254.6374999999998
 10
167.9816957564253
 20
-255.4615000000003
 10
166.9060957835973
 20
-253.8265000000001
 10
165.6560958151749
 20
-252.9384
 10
129.8523967196525
 20
-227.5010000000002
 10
94.08529999999973
 20
-202.0123000000003
 10
58.28819999999996
 20
-176.5653000000002
 10
56.0604000000003
 20
-174.9817000000003
 10
54.19850000000042
 20
-173.9368000000004
 10
55.96299999999974
 20
-170.4309999999996
 97
        0
 97
        0
 92
        1
 93
        1
 72
     4
 94
        3
 73
     0
 74
     1
 95
       38
 96
       34
 40
0.0
 40
0.0
 40
0.0
 40
0.0
 40
1.0
 40
1.0
 40
1.0
 40
2.0
 40
2.0
 40
2.0
 40
3.0
 40
3.0
 40
3.0
 40
4.0
 40
4.0
 40
4.0
 40
5.0
 40
5.0
 40
5.0
 40
6.0
 40
6.0
 40
6.0
 40
7.0
 40
7.0
 40
7.0
 40
8.0
 40
8.0
 40
8.0
 40
9.0
 40
9.0
 40
9.0
 40
10.0
 40
10.0
 40
10.0
 40
11.0
 40
11.0
 40
11.0
 40
11.0
 10
98.57539999999972
 20
-291.5771999999997
 10
82.55469999999968
 20
-258.7047000000002
 10
66.41470000000027
 20
-225.8904000000002
 10
50.33460000000014
 20
-193.0468000000001
 10
49.61539999999968
 20
-191.5776999999998
 10
48.47860000000037
 20
-190.1794
 10
49.17019999999957
 20
-187.3323
 10
66.04299999999967
 20
-199.3338999999996
 10
82.46169999999984
 20
-211.0025999999998
 10
98.87049999999999
 20
-222.6859999999997
 10
160.0309999999999
 20
-266.2344000000003
 10
221.1903944122605
 20
-309.7849999999999
 10
282.34639286733
 20
-353.3400000000001
 10
309.5407921803417
 20
-372.7073
 10
336.6897914945002
 20
-392.1388999999999
 10
363.9636908055036
 20
-411.393
 10
367.2467907225655
 20
-413.7106000000003
 10
368.227090697801
 20
-415.7078000000001
 10
366.8288907331225
 20
-419.7186000000002
 10
361.3645908711624
 20
-435.3919999999998
 10
356.1192910036698
 20
-451.1486000000004
 10
351.1908911281716
 20
-466.9982
 10
349.5900911686113
 20
-472.1460999999999
 10
347.8831912117312
 20
-472.0007000000005
 10
343.9646913107208
 20
-469.1987000000008
 10
302.6836923535666
 20
-439.6777000000002
 10
261.2943933991482
 20
-410.3086000000003
 10
219.95259444353
 20
-380.8726000000006
 10
182.0003954022832
 20
-353.8499000000002
 10
144.0743963603745
 20
-326.7893999999997
 10
106.1195973191934
 20
-299.7699000000002
 10
103.0103973977384
 20
-297.5564000000004
 10
100.3192974657213
 20
-295.1561000000002
 10
98.57539999999972
 20
-291.5771999999997
 97
        0
 97
        0
 92
        1
 93
        1
 72
     4
 94
        3
 73
     0
 74
     1
 95
       32
 96
       28
 40
0.0
 40
0.0
 40
0.0
 40
0.0
 40
1.0
 40
1.0
 40
1.0
 40
2.0
 40
2.0
 40
2.0
 40
3.0
 40
3.0
 40
3.0
 40
4.0
 40
4.0
 40
4.0
 40
5.0
 40
5.0
 40
5.0
 40
6.0
 40
6.0
 40
6.0
 40
7.0
 40
7.0
 40
7.0
 40
8.0
 40
8.0
 40
8.0
 40
9.0
 40
9.0
 40
9.0
 40
9.0
 10
248.7996937147909
 20
-486.4135999999999
 10
245.0256938101302
 20
-486.4305000000004
 10
241.8584938901404
 20
-485.5131000000001
 10
238.8041939672985
 20
-483.3289999999997
 10
216.6997945257026
 20
-467.5251000000007
 10
194.5404950854936
 20
-451.7988000000005
 10
172.3936956449688
 20
-436.0547999999999
 10
169.5705957162863
 20
-434.0476999999992
 10
167.3324957728255
 20
-431.5566999999992
 10
165.7973958116054
 20
-428.4343000000008
 10
149.3199999999997
 20
-394.9156999999996
 10
132.8336966443385
 20
-361.4012999999995
 10
116.3665970603324
 20
-327.8775999999998
 10
115.9590970706267
 20
-327.0482000000002
 10
115.7421970761061
 20
-326.1252999999997
 10
116.2382970635736
 20
-324.2339000000002
 10
191.4761951629043
 20
-377.8238999999994
 10
266.7140932622351
 20
-431.4138000000003
 10
341.9514913615785
 20
-485.0036999999993
 10
341.8072913652213
 20
-485.4527999999991
 10
341.6627913688717
 20
-485.902
 10
341.5185913725145
 20
-486.3510999999999
 10
336.0995915094099
 20
-486.3510999999999
 10
330.680291646313
 20
-486.3510000000006
 10
325.2613917832059
 20
-486.3510999999999
 10
299.7743924270617
 20
-486.3521999999994
 10
274.2865930709377
 20
-486.2990000000009
 10
248.7996937147909
 20
-486.4135999999999
 97
        0
 97
        0
 92
        1
 93
        1
 72
     4
 94
        3
 73
     0
 74
     1
 95
       32
 96
       28
 40
0.0
 40
0.0
 40
0.0
 40
0.0
 40
1.0
 40
1.0
 40
1.0
 40
2.0
 40
2.0
 40
2.0
 40
3.0
 40
3.0
 40
3.0
 40
4.0
 40
4.0
 40
4.0
 40
5.0
 40
5.0
 40
5.0
 40
6.0
 40
6.0
 40
6.0
 40
7.0
 40
7.0
 40
7.0
 40
8.0
 40
8.0
 40
8.0
 40
9.0
 40
9.0
 40
9.0
 40
9.0
 10
296.6425925061776
 20
-613.9122000000007
 10
274.0453930770309
 20
-597.5357999999997
 10
251.248693652924
 20
-581.4339
 10
228.4759999999997
 20
-565.3008000000009
 10
225.7617942967772
 20
-563.3778000000002
 10
224.1189999999997
 20
-562.3027000000002
 10
228.0872942380302
 20
-559.5368999999992
 10
246.9605937612505
 20
-546.3824000000004
 10
265.6432932892858
 20
-532.9531999999999
 10
284.3289999999997
 20
-519.5316999999995
 10
286.7288927566187
 20
-517.8078999999998
 10
288.5203927113616
 20
-517.9567000000006
 10
290.8565926523443
 20
-519.6556999999993
 10
301.2275923903508
 20
-527.1985000000004
 10
311.7260921251363
 20
-534.5665000000008
 10
322.1480000000001
 20
-542.0398999999998
 10
323.4455918290769
 20
-542.9706999999999
 10
325.348791780998
 20
-543.6180000000004
 10
324.4225918043958
 20
-547.3927999999996
 10
322.3496918567616
 20
-553.8068999999996
 10
319.8567919197376
 20
-561.7152999999998
 10
317.2376919859016
 20
-569.5815999999995
 10
312.5910921032846
 20
-583.5368999999992
 10
307.7474922256442
 20
-597.4279000000006
 10
303.2513923392253
 20
-611.4310000000005
 10
301.9194923728719
 20
-615.5799000000006
 10
300.9575923971715
 20
-617.0393999999997
 10
296.6425925061776
 20
-613.9122000000007
 97
        0
 97
        0
 92
        1
 93
        1
 72
     4
 94
        3
 73
     0
 74
     1
 95
       32
 96
       28
 40
0.0
 40
0.0
 40
0.0
 40
0.0
 40
1.0
 40
1.0
 40
1.0
 40
2.0
 40
2.0
 40
2.0
 40
3.0
 40
3.0
 40
3.0
 40
4.0
 40
4.0
 40
4.0
 40
5.0
 40
5.0
 40
5.0
 40
6.0
 40
6.0
 40
6.0
 40
7.0
 40
7.0
 40
7.0
 40
8.0
 40
8.0
 40
8.0
 40
9.0
 40
9.0
 40
9.0
 40
9.0
 10
434.5674890219016
 20
-627.2119999999995
 10
415.6516894997549
 20
-640.6373000000003
 10
396.8480899747738
 20
-654.2199999999993
 10
377.9920904511164
 20
-667.7296999999999
 10
377.0976904737108
 20
-668.3705000000009
 10
376.0596904999329
 20
-668.8107
 10
375.0305905259302
 20
-669.3758999999991
 10
373.9617905529303
 20
-668.6882000000005
 10
372.9931905773992
 20
-668.1185999999998
 10
372.0810906004408
 20
-667.4701999999997
 10
353.1762910780162
 20
-654.0360999999994
 10
334.3117915545736
 20
-640.5452000000005
 10
315.3454920337026
 20
-627.1991999999991
 10
312.219692112667
 20
-624.9994999999999
 10
312.9760920935587
 20
-623.8281000000006
 10
315.580492027766
 20
-621.9843999999994
 10
334.3604915533433
 20
-608.6887000000006
 10
353.0984910799816
 20
-595.3327000000008
 10
371.7767906081281
 20
-581.8945000000003
 10
374.1620000000003
 20
-580.1782999999996
 10
375.9113905036793
 20
-580.2157000000007
 10
378.2870904436641
 20
-581.9243999999999
 10
396.967189971765
 20
-595.3582999999999
 10
415.7088894983099
 20
-608.7075000000004
 10
434.4962890237002
 20
-621.9912999999997
 10
437.2367889544694
 20
-623.9290000000001
 10
437.556888946383
 20
-625.0905999999995
 10
434.5674890219016
 20
-627.2119999999995
 97
        0
 97
        0
 92
        1
 93
        1
 72
     4
 94
        3
 73
     0
 74
     1
 95
       32
 96
       28
 40
0.0
 40
0.0
 40
0.0
 40
0.0
 40
1.0
 40
1.0
 40
1.0
 40
2.0
 40
2.0
 40
2.0
 40
3.0
 40
3.0
 40
3.0
 40
4.0
 40
4.0
 40
4.0
 40
5.0
 40
5.0
 40
5.0
 40
6.0
 40
6.0
 40
6.0
 40
7.0
 40
7.0
 40
7.0
 40
8.0
 40
8.0
 40
8.0
 40
9.0
 40
9.0
 40
9.0
 40
9.0
 10
522.0857868110033
 20
-559.8480999999992
 10
523.0930867855568
 20
-560.5674999999992
 10
523.9864867629876
 20
-561.4457999999995
 10
525.1445867337316
 20
-562.4297000000006
 10
523.8823867656174
 20
-563.4048999999995
 10
523.0266867872342
 20
-564.1124
 10
522.1252868100055
 20
-564.7556999999997
 10
498.9390873957382
 20
-581.3004000000001
 10
475.721887982254
 20
-597.8014999999996
 10
452.5918885665669
 20
-614.4241999999995
 10
449.6923886398145
 20
-616.5079000000005
 10
448.4132886721272
 20
-616.5529999999999
 10
447.1967887028586
 20
-612.8061999999991
 10
440.2103888793499
 20
-591.2852000000003
 10
433.0722890596735
 20
-569.8125999999993
 10
425.8374892424399
 20
-548.3737999999994
 10
424.8076892684549
 20
-545.3225999999995
 10
425.4303892527241
 20
-543.6329000000005
 10
428.0542891864388
 20
-541.8158999999996
 10
438.4443889239628
 20
-534.6214999999993
 10
448.7356886639827
 20
-527.2795000000006
 10
458.9291884064733
 20
-519.8091000000004
 10
461.4689999999991
 20
-517.9480000000003
 10
463.3260882953982
 20
-517.8418999999994
 10
465.9150000000009
 20
-519.7063999999991
 10
484.5883877582673
 20
-533.156500000001
 10
503.3588872840846
 20
-546.4722000000002
 10
522.0857868110033
 20
-559.8480999999992
 97
        0
 97
        0
 92
        1
 93
        1
 72
     4
 94
        3
 73
     0
 74
     1
 95
       32
 96
       28
 40
0.0
 40
0.0
 40
0.0
 40
0.0
 40
1.0
 40
1.0
 40
1.0
 40
2.0
 40
2.0
 40
2.0
 40
3.0
 40
3.0
 40
3.0
 40
4.0
 40
4.0
 40
4.0
 40
5.0
 40
5.0
 40
5.0
 40
6.0
 40
6.0
 40
6.0
 40
7.0
 40
7.0
 40
7.0
 40
8.0
 40
8.0
 40
8.0
 40
9.0
 40
9.0
 40
9.0
 40
9.0
 10
618.7379999999994
 20
-358.7106999999996
 10
607.2652846591882
 20
-382.0676000000003
 10
595.6660849522086
 20
-405.3626999999997
 10
584.1495852431399
 20
-428.6983
 10
582.6890000000003
 20
-431.6579999999994
 10
580.5932853329796
 20
-433.9560000000001
 10
577.9124854007023
 20
-435.8601999999992
 10
555.4621859678446
 20
-451.8065000000006
 10
533.0339999999997
 20
-467.7842999999993
 10
510.6204871006412
 20
-483.7819999999992
 10
508.4188871562583
 20
-485.3533000000007
 10
506.2055872121709
 20
-486.402900000001
 10
503.3603872840467
 20
-486.3960999999999
 10
472.4068880659979
 20
-486.3215
 10
441.4529999999995
 20
-486.3457999999991
 10
410.4990896299205
 20
-486.3294999999998
 10
409.7960896476798
 20
-486.3291000000008
 10
409.0926896654491
 20
-486.1682000000001
 10
406.7395897248934
 20
-485.8804
 10
483.1384877948949
 20
-431.4796999999999
 10
558.4154858932379
 20
-377.8777000000009
 10
633.6923839915835
 20
-324.2758000000003
 10
634.0542839824411
 20
-324.5841
 10
634.4160839733013
 20
-324.8926000000001
 10
634.7780000000002
 20
-325.201
 10
629.4382840990511
 20
-336.3743000000004
 10
624.1974842314448
 20
-347.5962
 10
618.7379999999994
 20
-358.7106999999996
 97
        0
 97
        0
 92
        1
 93
        1
 72
     4
 94
        3
 73
     0
 74
     1
 95
       41
 96
       37
 40
0.0
 40
0.0
 40
0.0
 40
0.0
 40
1.0
 40
1.0
 40
1.0
 40
2.0
 40
2.0
 40
2.0
 40
3.0
 40
3.0
 40
3.0
 40
4.0
 40
4.0
 40
4.0
 40
5.0
 40
5.0
 40
5.0
 40
6.0
 40
6.0
 40
6.0
 40
7.0
 40
7.0
 40
7.0
 40
8.0
 40
8.0
 40
8.0
 40
9.0
 40
9.0
 40
9.0
 40
10.0
 40
10.0
 40
10.0
 40
11.0
 40
11.0
 40
11.0
 40
12.0
 40
12.0
 40
12.0
 40
12.0
 10
688.1869999999999
 20
-216.6755999999996
 10
676.3051829150936
 20
-240.8828000000003
 10
664.3080832181658
 20
-265.0334999999995
 10
652.5487835152308
 20
-289.2996999999996
 10
650.3261835713784
 20
-293.8855999999996
 10
647.3216836472784
 20
-297.3721999999998
 10
643.1962837514948
 20
-300.3058000000001
 10
571.0735855734674
 20
-351.5933999999997
 10
499.0032873941163
 20
-402.9539999999997
 10
426.9290000000001
 20
-454.3094000000001
 10
419.5550894011467
 20
-459.5635000000002
 10
412.2001895869471
 20
-464.8449000000001
 10
404.8957897714718
 20
-470.1947999999993
 10
402.2017898395279
 20
-472.1679999999997
 10
400.6477898787853
 20
-472.5254000000004
 10
399.3852899106787
 20
-468.5702999999994
 10
394.0493900454749
 20
-451.8549999999996
 10
388.5400000000009
 20
-435.1916999999994
 10
382.8067903294868
 20
-418.6088
 10
381.4398903640176
 20
-414.6551999999992
 10
383.4869999999992
 20
-413.2883000000002
 10
386.0924902464831
 20
-411.4349000000002
 10
448.9853886576748
 20
-366.6958999999997
 10
511.8391870698542
 20
-321.9018999999998
 10
574.7036854817634
 20
-277.1232
 10
614.6637844722864
 20
-248.6594999999998
 10
654.6286834626881
 20
-220.2028
 10
694.594682453062
 20
-191.7479999999996
 10
696.7110823995972
 20
-190.2413999999999
 10
698.8614823452735
 20
-188.7821999999996
 10
700.9954822913642
 20
-187.3008
 10
701.3175822832272
 20
-187.6256000000003
 10
701.6391822751029
 20
-187.9503000000004
 10
701.9611822669685
 20
-188.2749999999996
 10
697.372082382899
 20
-197.7431999999999
 10
692.8228824978214
 20
-207.2307000000001
 10
688.1869999999999
 20
-216.6755999999996
 97
        0
 97
        0
 75
     2
 76
     1
 98
        0
  0
ENDSEC
  0
SECTION
  2
OBJECTS
  0
DICTIONARY
  5
C
330
0
100
AcDbDictionary
281
     1
  3
ACAD_GROUP
350
D
  3
ACAD_LAYOUT
350
1A
  3
ACAD_MATERIAL
350
3B
  3
ACAD_MLEADERSTYLE
350
4E
  3
ACAD_MLINESTYLE
350
17
  3
ACAD_PLOTSETTINGS
350
19
  3
ACAD_PLOTSTYLENAME
350
E
  3
ACAD_TABLESTYLE
350
4D
  3
ACAD_VISUALSTYLE
350
2A
  0
SUN
  5
3F
330
29
100
AcDbSun
 90
        1
290
     0
 63
     7
421
 16777215
 40
1.0
291
     1
 91
  2455826
 92
 54000000
292
     0
 70
     2
 71
   256
280
     1
  0
DICTIONARY
  5
D
102
{ACAD_REACTORS
330
C
102
}
330
C
100
AcDbDictionary
281
     1
  0
DICTIONARY
  5
1A
102
{ACAD_REACTORS
330
C
102
}
330
C
100
AcDbDictionary
281
     1
  3
Layout1
350
1E
  3
Layout2
350
26
  3
Model
350
22
  0
DICTIONARY
  5
3B
102
{ACAD_REACTORS
330
C
102
}
330
C
100
AcDbDictionary
281
     1
  3
ByBlock
350
3D
  3
ByLayer
350
3C
  3
Global
350
3E
  0
DICTIONARY
  5
4E
102
{ACAD_REACTORS
330
C
102
}
330
C
100
AcDbDictionary
281
     1
  0
DICTIONARY
  5
17
102
{ACAD_REACTORS
330
C
102
}
330
C
100
AcDbDictionary
281
     1
  3
Standard
350
18
  0
DICTIONARY
  5
19
102
{ACAD_REACTORS
330
C
102
}
330
C
100
AcDbDictionary
281
     1
  0
ACDBDICTIONARYWDFLT
  5
E
102
{ACAD_REACTORS
330
C
102
}
330
C
100
AcDbDictionary
281
     1
  3
Normal
350
F
100
AcDbDictionaryWithDefault
340
F
  0
DICTIONARY
  5
4D
102
{ACAD_REACTORS
330
C
102
}
330
C
100
AcDbDictionary
281
     1
  0
DICTIONARY
  5
2A
102
{ACAD_REACTORS
330
C
102
}
330
C
100
AcDbDictionary
281
     1
  3
2dWireframe
350
2F
  3
3D Hidden
350
31
  3
3dWireframe
350
30
  3
Basic
350
32
  3
Brighten
350
36
  3
ColorChange
350
3A
  3
Conceptual
350
34
  3
Dim
350
35
  3
Facepattern
350
39
  3
Flat
350
2B
  3
FlatWithEdges
350
2C
  3
Gouraud
350
2D
  3
GouraudWithEdges
350
2E
  3
Linepattern
350
38
  3
Realistic
350
33
  3
Thicken
350
37
  0
LAYOUT
  5
1E
102
{ACAD_REACTORS
330
1A
102
}
330
1A
100
AcDbPlotSettings
  1

  2
none_device
  4

  6

 40
0.0
 41
0.0
 42
0.0
 43
0.0
 44
0.0
 45
0.0
 46
0.0
 47
0.0
 48
0.0
 49
0.0
140
0.0
141
0.0
142
1.0
143
1.0
 70
   688
 72
     0
 73
     0
 74
     5
  7

 75
    16
 76
     0
 77
     2
 78
   300
147
1.0
148
0.0
149
0.0
100
AcDbLayout
  1
Layout1
 70
     1
 71
     1
 10
0.0
 20
0.0
 11
12.0
 21
9.0
 12
0.0
 22
0.0
 32
0.0
 14
1.000000000000000E+20
 24
1.000000000000000E+20
 34
1.000000000000000E+20
 15
-1.000000000000000E+20
 25
-1.000000000000000E+20
 35
-1.000000000000000E+20
146
0.0
 13
0.0
 23
0.0
 33
0.0
 16
1.0
 26
0.0
 36
0.0
 17
0.0
 27
1.0
 37
0.0
 76
     0
330
1B
  0
LAYOUT
  5
26
102
{ACAD_REACTORS
330
1A
102
}
330
1A
100
AcDbPlotSettings
  1

  2
none_device
  4

  6

 40
0.0
 41
0.0
 42
0.0
 43
0.0
 44
0.0
 45
0.0
 46
0.0
 47
0.0
 48
0.0
 49
0.0
140
0.0
141
0.0
142
1.0
143
1.0
 70
   688
 72
     0
 73
     0
 74
     5
  7

 75
    16
 76
     0
 77
     2
 78
   300
147
1.0
148
0.0
149
0.0
100
AcDbLayout
  1
Layout2
 70
     1
 71
     2
 10
0.0
 20
0.0
 11
0.0
 21
0.0
 12
0.0
 22
0.0
 32
0.0
 14
0.0
 24
0.0
 34
0.0
 15
0.0
 25
0.0
 35
0.0
146
0.0
 13
0.0
 23
0.0
 33
0.0
 16
1.0
 26
0.0
 36
0.0
 17
0.0
 27
1.0
 37
0.0
 76
     0
330
23
  0
LAYOUT
  5
22
102
{ACAD_REACTORS
330
1A
102
}
330
1A
100
AcDbPlotSettings
  1

  2
none_device
  4

  6

 40
0.0
 41
0.0
 42
0.0
 43
0.0
 44
0.0
 45
0.0
 46
0.0
 47
0.0
 48
0.0
 49
0.0
140
0.0
141
0.0
142
1.0
143
1.0
 70
  1712
 72
     0
 73
     0
 74
     0
  7

 75
     0
 76
     0
 77
     2
 78
   300
147
1.0
148
0.0
149
0.0
100
AcDbLayout
  1
Model
 70
     1
 71
     0
 10
0.0
 20
0.0
 11
12.0
 21
9.0
 12
0.0
 22
0.0
 32
0.0
 14
1.000000000000000E+20
 24
1.000000000000000E+20
 34
1.000000000000000E+20
 15
-1.000000000000000E+20
 25
-1.000000000000000E+20
 35
-1.000000000000000E+20
146
0.0
 13
0.0
 23
0.0
 33
0.0
 16
1.0
 26
0.0
 36
0.0
 17
0.0
 27
1.0
 37
0.0
 76
     0
330
1F
331
29
  0
MATERIAL
  5
3D
102
{ACAD_REACTORS
330
3B
102
}
330
3B
100
AcDbMaterial
  1
ByBlock
 72
     1
 94
      127
  0
MATERIAL
  5
3C
102
{ACAD_REACTORS
330
3B
102
}
330
3B
100
AcDbMaterial
  1
ByLayer
 72
     1
 94
      127
  0
MATERIAL
  5
3E
102
{ACAD_REACTORS
330
3B
102
}
330
3B
100
AcDbMaterial
  1
Global
 72
     1
 94
      127
  0
MLINESTYLE
  5
18
102
{ACAD_REACTORS
330
17
102
}
330
17
100
AcDbMlineStyle
  2
Standard
 70
     0
  3

 62
   256
 51
90.0
 52
90.0
 71
     2
 49
0.5
 62
   256
  6
BYLAYER
 49
-0.5
 62
   256
  6
BYLAYER
  0
ACDBPLACEHOLDER
  5
F
102
{ACAD_REACTORS
330
E
102
}
330
E
  0
VISUALSTYLE
  5
2F
102
{ACAD_REACTORS
330
2A
102
}
330
2A
100
AcDbVisualStyle
  2
2dWireframe
 70
     4
177
     2
291
     0
 71
     0
176
     1
 72
     2
176
     1
 73
     0
176
     1
 90
        0
176
     1
 40
-0.6
176
     1
 41
-30.0
176
     1
 62
     5
 63
     7
421
 16777215
176
     1
 74
     1
176
     1
 91
        4
176
     1
 64
     7
176
     1
 65
   257
176
     1
 75
     1
176
     1
175
     1
176
     1
 42
1.0
176
     1
 92
        0
176
     1
 66
   257
176
     1
 43
1.0
176
     1
 76
     1
176
     1
 77
     6
176
     1
 78
     2
176
     1
 67
     7
176
     1
 79
     5
176
     1
170
     0
176
     1
171
     0
176
     1
290
     0
176
     1
 93
        1
176
     1
 44
0.0
176
     1
173
     0
176
     1
  0
VISUALSTYLE
  5
31
102
{ACAD_REACTORS
330
2A
102
}
330
2A
100
AcDbVisualStyle
  2
3D Hidden
 70
     6
177
     2
291
     0
 71
     1
176
     1
 72
     2
176
     1
 73
     2
176
     1
 90
        0
176
     1
 40
-0.6
176
     1
 41
-30.0
176
     1
 62
     5
 63
     7
421
 16777215
176
     1
 74
     2
176
     1
 91
        2
176
     1
 64
     7
176
     1
 65
   257
176
     1
 75
     2
176
     1
175
     1
176
     1
 42
40.0
176
     1
 92
        0
176
     1
 66
   257
176
     1
 43
1.0
176
     1
 76
     1
176
     1
 77
     6
176
     1
 78
     2
176
     1
 67
     7
176
     1
 79
     3
176
     1
170
     0
176
     1
171
     0
176
     1
290
     0
176
     1
 93
        1
176
     1
 44
0.0
176
     1
173
     0
176
     1
  0
VISUALSTYLE
  5
30
102
{ACAD_REACTORS
330
2A
102
}
330
2A
100
AcDbVisualStyle
  2
3dWireframe
 70
     5
177
     2
291
     0
 71
     0
176
     1
 72
     2
176
     1
 73
     0
176
     1
 90
        0
176
     1
 40
-0.6
176
     1
 41
-30.0
176
     1
 62
     5
 63
     7
421
 16777215
176
     1
 74
     1
176
     1
 91
        4
176
     1
 64
     7
176
     1
 65
   257
176
     1
 75
     1
176
     1
175
     1
176
     1
 42
1.0
176
     1
 92
        0
176
     1
 66
   257
176
     1
 43
1.0
176
     1
 76
     1
176
     1
 77
     6
176
     1
 78
     2
176
     1
 67
     7
176
     1
 79
     5
176
     1
170
     0
176
     1
171
     0
176
     1
290
     0
176
     1
 93
        1
176
     1
 44
0.0
176
     1
173
     0
176
     1
  0
VISUALSTYLE
  5
32
102
{ACAD_REACTORS
330
2A
102
}
330
2A
100
AcDbVisualStyle
  2
Basic
 70
     7
177
     2
291
     1
 71
     1
176
     1
 72
     0
176
     1
 73
     1
176
     1
 90
        0
176
     1
 40
-0.6
176
     1
 41
-30.0
176
     1
 62
     5
 63
     7
421
 16777215
176
     1
 74
     0
176
     1
 91
        4
176
     1
 64
     7
176
     1
 65
   257
176
     1
 75
     1
176
     1
175
     1
176
     1
 42
1.0
176
     1
 92
        8
176
     1
 66
     7
176
     1
 43
1.0
176
     1
 76
     1
176
     1
 77
     6
176
     1
 78
     2
176
     1
 67
     7
176
     1
 79
     5
176
     1
170
     0
176
     1
171
     0
176
     1
290
     0
176
     1
 93
        1
176
     1
 44
0.0
176
     1
173
     0
176
     1
  0
VISUALSTYLE
  5
36
102
{ACAD_REACTORS
330
2A
102
}
330
2A
100
AcDbVisualStyle
  2
Brighten
 70
    12
177
     2
291
     1
 71
     2
176
     1
 72
     2
176
     1
 73
     0
176
     1
 90
        0
176
     1
 40
-0.6
176
     1
 41
-30.0
176
     1
 62
     5
 63
     7
421
 16777215
176
     1
 74
     1
176
     1
 91
        4
176
     1
 64
     7
176
     1
 65
   257
176
     1
 75
     1
176
     1
175
     1
176
     1
 42
1.0
176
     1
 92
        8
176
     1
 66
     7
176
     1
 43
1.0
176
     1
 76
     1
176
     1
 77
     6
176
     1
 78
     2
176
     1
 67
     7
176
     1
 79
     5
176
     1
170
     0
176
     1
171
     0
176
     1
290
     0
176
     1
 93
        1
176
     1
 44
50.0
176
     1
173
     0
176
     1
  0
VISUALSTYLE
  5
3A
102
{ACAD_REACTORS
330
2A
102
}
330
2A
100
AcDbVisualStyle
  2
ColorChange
 70
    16
177
     2
291
     1
 71
     2
176
     1
 72
     2
176
     1
 73
     3
176
     1
 90
        0
176
     1
 40
-0.6
176
     1
 41
-30.0
176
     1
 62
     5
 63
     8
421
  8421504
176
     1
 74
     1
176
     1
 91
        4
176
     1
 64
     7
176
     1
 65
   257
176
     1
 75
     1
176
     1
175
     1
176
     1
 42
1.0
176
     1
 92
        8
176
     1
 66
     8
424
  8421504
176
     1
 43
1.0
176
     1
 76
     1
176
     1
 77
     6
176
     1
 78
     2
176
     1
 67
     7
176
     1
 79
     5
176
     1
170
     0
176
     1
171
     0
176
     1
290
     0
176
     1
 93
        1
176
     1
 44
0.0
176
     1
173
     0
176
     1
  0
VISUALSTYLE
  5
34
102
{ACAD_REACTORS
330
2A
102
}
330
2A
100
AcDbVisualStyle
  2
Conceptual
 70
     9
177
     2
291
     0
 71
     3
176
     1
 72
     2
176
     1
 73
     0
176
     1
 90
        0
176
     1
 40
-0.6
176
     1
 41
-30.0
176
     1
 62
     5
 63
     7
421
 16777215
176
     1
 74
     2
176
     1
 91
        2
176
     1
 64
     7
176
     1
 65
   257
176
     1
 75
     1
176
     1
175
     1
176
     1
 42
40.0
176
     1
 92
        8
176
     1
 66
     7
176
     1
 43
1.0
176
     1
 76
     1
176
     1
 77
     6
176
     1
 78
     2
176
     1
 67
     7
176
     1
 79
     3
176
     1
170
     0
176
     1
171
     0
176
     1
290
     0
176
     1
 93
        1
176
     1
 44
0.0
176
     1
173
     0
176
     1
  0
VISUALSTYLE
  5
35
102
{ACAD_REACTORS
330
2A
102
}
330
2A
100
AcDbVisualStyle
  2
Dim
 70
    11
177
     2
291
     1
 71
     2
176
     1
 72
     2
176
     1
 73
     0
176
     1
 90
        0
176
     1
 40
-0.6
176
     1
 41
-30.0
176
     1
 62
     5
 63
     7
421
 16777215
176
     1
 74
     1
176
     1
 91
        4
176
     1
 64
     7
176
     1
 65
   257
176
     1
 75
     1
176
     1
175
     1
176
     1
 42
1.0
176
     1
 92
        8
176
     1
 66
     7
176
     1
 43
1.0
176
     1
 76
     1
176
     1
 77
     6
176
     1
 78
     2
176
     1
 67
     7
176
     1
 79
     5
176
     1
170
     0
176
     1
171
     0
176
     1
290
     0
176
     1
 93
        1
176
     1
 44
-50.0
176
     1
173
     0
176
     1
  0
VISUALSTYLE
  5
39
102
{ACAD_REACTORS
330
2A
102
}
330
2A
100
AcDbVisualStyle
  2
Facepattern
 70
    15
177
     2
291
     1
 71
     2
176
     1
 72
     2
176
     1
 73
     0
176
     1
 90
        0
176
     1
 40
-0.6
176
     1
 41
-30.0
176
     1
 62
     5
 63
     7
421
 16777215
176
     1
 74
     1
176
     1
 91
        4
176
     1
 64
     7
176
     1
 65
   257
176
     1
 75
     1
176
     1
175
     1
176
     1
 42
1.0
176
     1
 92
        8
176
     1
 66
     7
176
     1
 43
1.0
176
     1
 76
     1
176
     1
 77
     6
176
     1
 78
     2
176
     1
 67
     7
176
     1
 79
     5
176
     1
170
     0
176
     1
171
     0
176
     1
290
     0
176
     1
 93
        1
176
     1
 44
0.0
176
     1
173
     0
176
     1
  0
VISUALSTYLE
  5
2B
102
{ACAD_REACTORS
330
2A
102
}
330
2A
100
AcDbVisualStyle
  2
Flat
 70
     0
177
     2
291
     1
 71
     2
176
     1
 72
     1
176
     1
 73
     1
176
     1
 90
        2
176
     1
 40
-0.6
176
     1
 41
30.0
176
     1
 62
     5
 63
     7
421
 16777215
176
     1
 74
     0
176
     1
 91
        4
176
     1
 64
     7
176
     1
 65
   257
176
     1
 75
     1
176
     1
175
     1
176
     1
 42
1.0
176
     1
 92
        8
176
     1
 66
     7
176
     1
 43
1.0
176
     1
 76
     1
176
     1
 77
     6
176
     1
 78
     2
176
     1
 67
     7
176
     1
 79
     5
176
     1
170
     0
176
     1
171
     0
176
     1
290
     0
176
     1
 93
       13
176
     1
 44
0.0
176
     1
173
     0
176
     1
  0
VISUALSTYLE
  5
2C
102
{ACAD_REACTORS
330
2A
102
}
330
2A
100
AcDbVisualStyle
  2
FlatWithEdges
 70
     1
177
     2
291
     1
 71
     2
176
     1
 72
     1
176
     1
 73
     1
176
     1
 90
        2
176
     1
 40
-0.6
176
     1
 41
30.0
176
     1
 62
     5
 63
     7
421
 16777215
176
     1
 74
     1
176
     1
 91
        4
176
     1
 64
     7
176
     1
 65
   257
176
     1
 75
     1
176
     1
175
     1
176
     1
 42
1.0
176
     1
 92
        0
176
     1
 66
   257
176
     1
 43
1.0
176
     1
 76
     1
176
     1
 77
     6
176
     1
 78
     2
176
     1
 67
     7
176
     1
 79
     5
176
     1
170
     0
176
     1
171
     0
176
     1
290
     0
176
     1
 93
       13
176
     1
 44
0.0
176
     1
173
     0
176
     1
  0
VISUALSTYLE
  5
2D
102
{ACAD_REACTORS
330
2A
102
}
330
2A
100
AcDbVisualStyle
  2
Gouraud
 70
     2
177
     2
291
     1
 71
     2
176
     1
 72
     2
176
     1
 73
     1
176
     1
 90
        2
176
     1
 40
-0.6
176
     1
 41
30.0
176
     1
 62
     5
 63
     7
421
 16777215
176
     1
 74
     0
176
     1
 91
        4
176
     1
 64
     7
176
     1
 65
   257
176
     1
 75
     1
176
     1
175
     1
176
     1
 42
1.0
176
     1
 92
        0
176
     1
 66
     7
176
     1
 43
1.0
176
     1
 76
     1
176
     1
 77
     6
176
     1
 78
     2
176
     1
 67
     7
176
     1
 79
     5
176
     1
170
     0
176
     1
171
     0
176
     1
290
     0
176
     1
 93
       13
176
     1
 44
0.0
176
     1
173
     0
176
     1
  0
VISUALSTYLE
  5
2E
102
{ACAD_REACTORS
330
2A
102
}
330
2A
100
AcDbVisualStyle
  2
GouraudWithEdges
 70
     3
177
     2
291
     1
 71
     2
176
     1
 72
     2
176
     1
 73
     1
176
     1
 90
        2
176
     1
 40
-0.6
176
     1
 41
30.0
176
     1
 62
     5
 63
     7
421
 16777215
176
     1
 74
     1
176
     1
 91
        4
176
     1
 64
     7
176
     1
 65
   257
176
     1
 75
     1
176
     1
175
     1
176
     1
 42
1.0
176
     1
 92
        0
176
     1
 66
   257
176
     1
 43
1.0
176
     1
 76
     1
176
     1
 77
     6
176
     1
 78
     2
176
     1
 67
     7
176
     1
 79
     5
176
     1
170
     0
176
     1
171
     0
176
     1
290
     0
176
     1
 93
       13
176
     1
 44
0.0
176
     1
173
     0
176
     1
  0
VISUALSTYLE
  5
38
102
{ACAD_REACTORS
330
2A
102
}
330
2A
100
AcDbVisualStyle
  2
Linepattern
 70
    14
177
     2
291
     1
 71
     2
176
     1
 72
     2
176
     1
 73
     0
176
     1
 90
        0
176
     1
 40
-0.6
176
     1
 41
-30.0
176
     1
 62
     5
 63
     7
421
 16777215
176
     1
 74
     1
176
     1
 91
        4
176
     1
 64
     7
176
     1
 65
   257
176
     1
 75
     7
176
     1
175
     7
176
     1
 42
1.0
176
     1
 92
        8
176
     1
 66
     7
176
     1
 43
1.0
176
     1
 76
     1
176
     1
 77
     6
176
     1
 78
     2
176
     1
 67
     7
176
     1
 79
     5
176
     1
170
     0
176
     1
171
     0
176
     1
290
     0
176
     1
 93
        1
176
     1
 44
0.0
176
     1
173
     0
176
     1
  0
VISUALSTYLE
  5
33
102
{ACAD_REACTORS
330
2A
102
}
330
2A
100
AcDbVisualStyle
  2
Realistic
 70
     8
177
     2
291
     0
 71
     2
176
     1
 72
     2
176
     1
 73
     0
176
     1
 90
        0
176
     1
 40
-0.6
176
     1
 41
-30.0
176
     1
 62
     5
 63
     7
421
 16777215
176
     1
 74
     1
176
     1
 91
        0
176
     1
 64
     7
176
     1
 65
   257
176
     1
 75
     1
176
     1
175
     1
176
     1
 42
1.0
176
     1
 92
        8
176
     1
 66
     8
424
  7895160
176
     1
 43
1.0
176
     1
 76
     1
176
     1
 77
     6
176
     1
 78
     2
176
     1
 67
     7
176
     1
 79
     5
176
     1
170
     0
176
     1
171
     0
176
     1
290
     0
176
     1
 93
       13
176
     1
 44
0.0
176
     1
173
     0
176
     1
  0
VISUALSTYLE
  5
37
102
{ACAD_REACTORS
330
2A
102
}
330
2A
100
AcDbVisualStyle
  2
Thicken
 70
    13
177
     2
291
     1
 71
     2
176
     1
 72
     2
176
     1
 73
     0
176
     1
 90
        0
176
     1
 40
-0.6
176
     1
 41
-30.0
176
     1
 62
     5
 63
     7
421
 16777215
176
     1
 74
     1
176
     1
 91
        4
176
     1
 64
     7
176
     1
 65
   257
176
     1
 75
     1
176
     1
175
     1
176
     1
 42
1.0
176
     1
 92
       12
176
     1
 66
     7
176
     1
 43
1.0
176
     1
 76
     1
176
     1
 77
     6
176
     1
 78
     2
176
     1
 67
     7
176
     1
 79
     5
176
     1
170
     0
176
     1
171
     0
176
     1
290
     0
176
     1
 93
        1
176
     1
 44
0.0
176
     1
173
     0
176
     1
  0
ENDSEC
  0
EOF
