  0
SECTION
  2
HEADER
  9
$ACADVER
  1
AC1024
  9
$ACADMAINTVER
 70
     6
  9
$DWGCODEPAGE
  3
ANSI_1252
  9
$INSBASE
 10
0.0
 20
0.0
 30
0.0
  9
$EXTMIN
 10
1.000000000000000E+20
 20
1.000000000000000E+20
 30
1.000000000000000E+20
  9
$EXTMAX
 10
-1.000000000000000E+20
 20
-1.000000000000000E+20
 30
-1.000000000000000E+20
  9
$LIMMIN
 10
0.0
 20
0.0
  9
$LIMMAX
 10
12.0
 20
9.0
  9
$ORTHOMODE
 70
     0
  9
$REGENMODE
 70
     1
  9
$FILLMODE
 70
     1
  9
$QTEXTMODE
 70
     0
  9
$MIRRTEXT
 70
     1
  9
$LTSCALE
 40
1.0
  9
$ATTMODE
 70
     1
  9
$TEXTSIZE
 40
0.2
  9
$TRACEWID
 40
0.05
  9
$TEXTSTYLE
  7
Standard
  9
$CLAYER
  8
0
  9
$CELTYPE
  6
ByLayer
  9
$CECOLOR
 62
   256
  9
$CELTSCALE
 40
1.0
  9
$DISPSILH
 70
     0
  9
$DIMSCALE
 40
1.0
  9
$DIMASZ
 40
0.18
  9
$DIMEXO
 40
0.0625
  9
$DIMDLI
 40
0.38
  9
$DIMRND
 40
0.0
  9
$DIMDLE
 40
0.0
  9
$DIMEXE
 40
0.18
  9
$DIMTP
 40
0.0
  9
$DIMTM
 40
0.0
  9
$DIMTXT
 40
0.18
  9
$DIMCEN
 40
0.09
  9
$DIMTSZ
 40
0.0
  9
$DIMTOL
 70
     0
  9
$DIMLIM
 70
     0
  9
$DIMTIH
 70
     1
  9
$DIMTOH
 70
     1
  9
$DIMSE1
 70
     0
  9
$DIMSE2
 70
     0
  9
$DIMTAD
 70
     0
  9
$DIMZIN
 70
     0
  9
$DIMBLK
  1

  9
$DIMASO
 70
     1
  9
$DIMSHO
 70
     1
  9
$DIMPOST
  1

  9
$DIMAPOST
  1

  9
$DIMALT
 70
     0
  9
$DIMALTD
 70
     2
  9
$DIMALTF
 40
25.4
  9
$DIMLFAC
 40
1.0
  9
$DIMTOFL
 70
     0
  9
$DIMTVP
 40
0.0
  9
$DIMTIX
 70
     0
  9
$DIMSOXD
 70
     0
  9
$DIMSAH
 70
     0
  9
$DIMBLK1
  1

  9
$DIMBLK2
  1

  9
$DIMSTYLE
  2
Standard
  9
$DIMCLRD
 70
     0
  9
$DIMCLRE
 70
     0
  9
$DIMCLRT
 70
     0
  9
$DIMTFAC
 40
1.0
  9
$DIMGAP
 40
0.09
  9
$DIMJUST
 70
     0
  9
$DIMSD1
 70
     0
  9
$DIMSD2
 70
     0
  9
$DIMTOLJ
 70
     1
  9
$DIMTZIN
 70
     0
  9
$DIMALTZ
 70
     0
  9
$DIMALTTZ
 70
     0
  9
$DIMUPT
 70
     0
  9
$DIMDEC
 70
     4
  9
$DIMTDEC
 70
     4
  9
$DIMALTU
 70
     2
  9
$DIMALTTD
 70
     2
  9
$DIMTXSTY
  7
Standard
  9
$DIMAUNIT
 70
     0
  9
$DIMADEC
 70
     0
  9
$DIMALTRND
 40
0.0
  9
$DIMAZIN
 70
     0
  9
$DIMDSEP
 70
    46
  9
$DIMATFIT
 70
     3
  9
$DIMFRAC
 70
     0
  9
$DIMLDRBLK
  1

  9
$DIMLUNIT
 70
     2
  9
$DIMLWD
 70
    -2
  9
$DIMLWE
 70
    -2
  9
$DIMTMOVE
 70
     0
  9
$DIMFXL
 40
1.0
  9
$DIMFXLON
 70
     0
  9
$DIMJOGANG
 40
0.7853981633974483
  9
$DIMTFILL
 70
     0
  9
$DIMTFILLCLR
 70
     0
  9
$DIMARCSYM
 70
     0
  9
$DIMLTYPE
  6

  9
$DIMLTEX1
  6

  9
$DIMLTEX2
  6

  9
$DIMTXTDIRECTION
 70
     0
  9
$LUNITS
 70
     2
  9
$LUPREC
 70
     4
  9
$SKETCHINC
 40
0.1
  9
$FILLETRAD
 40
0.5
  9
$AUNITS
 70
     0
  9
$AUPREC
 70
     0
  9
$MENU
  1
.
  9
$ELEVATION
 40
0.0
  9
$PELEVATION
 40
0.0
  9
$THICKNESS
 40
0.0
  9
$LIMCHECK
 70
     0
  9
$CHAMFERA
 40
0.5
  9
$CHAMFERB
 40
0.5
  9
$CHAMFERC
 40
1.0
  9
$CHAMFERD
 40
0.0
  9
$SKPOLY
 70
     0
  9
$TDCREATE
 40
2458723.922422014
  9
$TDUCREATE
 40
2458723.505755347
  9
$TDUPDATE
 40
2458723.92242206
  9
$TDUUPDATE
 40
2458723.505755393
  9
$TDINDWG
 40
0.0000000116
  9
$TDUSRTIMER
 40
0.0000000116
  9
$USRTIMER
 70
     1
  9
$ANGBASE
 50
0.0
  9
$ANGDIR
 70
     0
  9
$PDMODE
 70
     0
  9
$PDSIZE
 40
0.0
  9
$PLINEWID
 40
0.0
  9
$SPLFRAME
 70
     0
  9
$SPLINETYPE
 70
     6
  9
$SPLINESEGS
 70
     8
  9
$HANDSEED
  5
58
  9
$SURFTAB1
 70
     6
  9
$SURFTAB2
 70
     6
  9
$SURFTYPE
 70
     6
  9
$SURFU
 70
     6
  9
$SURFV
 70
     6
  9
$UCSBASE
  2

  9
$UCSNAME
  2

  9
$UCSORG
 10
0.0
 20
0.0
 30
0.0
  9
$UCSXDIR
 10
1.0
 20
0.0
 30
0.0
  9
$UCSYDIR
 10
0.0
 20
1.0
 30
0.0
  9
$UCSORTHOREF
  2

  9
$UCSORTHOVIEW
 70
     0
  9
$UCSORGTOP
 10
0.0
 20
0.0
 30
0.0
  9
$UCSORGBOTTOM
 10
0.0
 20
0.0
 30
0.0
  9
$UCSORGLEFT
 10
0.0
 20
0.0
 30
0.0
  9
$UCSORGRIGHT
 10
0.0
 20
0.0
 30
0.0
  9
$UCSORGFRONT
 10
0.0
 20
0.0
 30
0.0
  9
$UCSORGBACK
 10
0.0
 20
0.0
 30
0.0
  9
$PUCSBASE
  2

  9
$PUCSNAME
  2

  9
$PUCSORG
 10
0.0
 20
0.0
 30
0.0
  9
$PUCSXDIR
 10
1.0
 20
0.0
 30
0.0
  9
$PUCSYDIR
 10
0.0
 20
1.0
 30
0.0
  9
$PUCSORTHOREF
  2

  9
$PUCSORTHOVIEW
 70
     0
  9
$PUCSORGTOP
 10
0.0
 20
0.0
 30
0.0
  9
$PUCSORGBOTTOM
 10
0.0
 20
0.0
 30
0.0
  9
$PUCSORGLEFT
 10
0.0
 20
0.0
 30
0.0
  9
$PUCSORGRIGHT
 10
0.0
 20
0.0
 30
0.0
  9
$PUCSORGFRONT
 10
0.0
 20
0.0
 30
0.0
  9
$PUCSORGBACK
 10
0.0
 20
0.0
 30
0.0
  9
$USERI1
 70
     0
  9
$USERI2
 70
     0
  9
$USERI3
 70
     0
  9
$USERI4
 70
     0
  9
$USERI5
 70
     0
  9
$USERR1
 40
0.0
  9
$USERR2
 40
0.0
  9
$USERR3
 40
0.0
  9
$USERR4
 40
0.0
  9
$USERR5
 40
0.0
  9
$WORLDVIEW
 70
     1
  9
$SHADEDGE
 70
     3
  9
$SHADEDIF
 70
    70
  9
$TILEMODE
 70
     1
  9
$MAXACTVP
 70
    64
  9
$PINSBASE
 10
0.0
 20
0.0
 30
0.0
  9
$PLIMCHECK
 70
     0
  9
$PEXTMIN
 10
1.000000000000000E+20
 20
1.000000000000000E+20
 30
1.000000000000000E+20
  9
$PEXTMAX
 10
-1.000000000000000E+20
 20
-1.000000000000000E+20
 30
-1.000000000000000E+20
  9
$PLIMMIN
 10
0.0
 20
0.0
  9
$PLIMMAX
 10
12.0
 20
9.0
  9
$UNITMODE
 70
     0
  9
$VISRETAIN
 70
     1
  9
$PLINEGEN
 70
     0
  9
$PSLTSCALE
 70
     1
  9
$TREEDEPTH
 70
  3020
  9
$CMLSTYLE
  2
Standard
  9
$CMLJUST
 70
     0
  9
$CMLSCALE
 40
1.0
  9
$PROXYGRAPHICS
 70
     1
  9
$MEASUREMENT
 70
     0
  9
$CELWEIGHT
370
    -1
  9
$ENDCAPS
280
     0
  9
$JOINSTYLE
280
     0
  9
$LWDISPLAY
290
     1
  9
$INSUNITS
 70
     1
  9
$HYPERLINKBASE
  1

  9
$STYLESHEET
  1

  9
$XEDIT
290
     1
  9
$CEPSNTYPE
380
     0
  9
$PSTYLEMODE
290
     1
  9
$FINGERPRINTGUID
  2
{018C3712-B800-45AB-9E81-B1C352B162CB}
  9
$VERSIONGUID
  2
{FAEB1C32-E019-11D5-929B-00C0DF256EC4}
  9
$EXTNAMES
290
     1
  9
$PSVPSCALE
 40
0.0
  9
$OLESTARTUP
290
     0
  9
$SORTENTS
280
   127
  9
$INDEXCTL
280
     0
  9
$HIDETEXT
280
     1
  9
$XCLIPFRAME
280
     2
  9
$HALOGAP
280
     0
  9
$OBSCOLOR
 70
   257
  9
$OBSLTYPE
280
     0
  9
$INTERSECTIONDISPLAY
280
     0
  9
$INTERSECTIONCOLOR
 70
   257
  9
$DIMASSOC
280
     2
  9
$PROJECTNAME
  1

  9
$CAMERADISPLAY
290
     0
  9
$LENSLENGTH
 40
50.0
  9
$CAMERAHEIGHT
 40
0.0
  9
$STEPSPERSEC
 40
2.0
  9
$STEPSIZE
 40
6.0
  9
$3DDWFPREC
 40
2.0
  9
$PSOLWIDTH
 40
0.25
  9
$PSOLHEIGHT
 40
4.0
  9
$LOFTANG1
 40
1.570796326794897
  9
$LOFTANG2
 40
1.570796326794897
  9
$LOFTMAG1
 40
0.0
  9
$LOFTMAG2
 40
0.0
  9
$LOFTPARAM
 70
     7
  9
$LOFTNORMALS
280
     1
  9
$LATITUDE
 40
37.795
  9
$LONGITUDE
 40
-122.394
  9
$NORTHDIRECTION
 40
0.0
  9
$TIMEZONE
 70
 -8000
  9
$LIGHTGLYPHDISPLAY
280
     1
  9
$TILEMODELIGHTSYNCH
280
     1
  9
$CMATERIAL
347
3C
  9
$SOLIDHIST
280
     1
  9
$SHOWHIST
280
     1
  9
$DWFFRAME
280
     2
  9
$DGNFRAME
280
     2
  9
$REALWORLDSCALE
290
     1
  9
$INTERFERECOLOR
 62
   256
  9
$CSHADOW
280
     0
  9
$SHADOWPLANELOCATION
 40
0.0
  0
ENDSEC
  0
SECTION
  2
CLASSES
  0
CLASS
  1
ACDBDICTIONARYWDFLT
  2
AcDbDictionaryWithDefault
  3
ObjectDBX Classes
 90
        0
 91
        4
280
     0
281
     0
  0
CLASS
  1
VISUALSTYLE
  2
AcDbVisualStyle
  3
ObjectDBX Classes
 90
     4095
 91
        4
280
     0
281
     0
  0
CLASS
  1
MATERIAL
  2
AcDbMaterial
  3
ObjectDBX Classes
 90
     1153
 91
        4
280
     0
281
     0
  0
CLASS
  1
SUN
  2
AcDbSun
  3
SCENEOE
 90
     1024
 91
        4
280
     0
281
     0
  0
ENDSEC
  0
SECTION
  2
TABLES
  0
TABLE
  2
VPORT
  5
8
330
0
100
AcDbSymbolTable
 70
     1
  0
VPORT
  5
29
330
8
100
AcDbSymbolTableRecord
100
AcDbViewportTableRecord
  2
*Active
 70
     0
 10
0.0
 20
0.0
 11
1.0
 21
1.0
 12
0.0
 22
0.0
 13
0.0
 23
0.0
 14
0.5
 24
0.5
 15
0.5
 25
0.5
 16
0.0
 26
0.0
 36
1.0
 17
6.0
 27
-6.0
 37
0.0
 40
12.0
 41
1.0
 42
50.0
 43
0.0
 44
0.0
 50
0.0
 51
0.0
 71
     0
 72
   100
 73
     1
 74
     3
 75
     0
 76
     0
 77
     0
 78
     0
281
     0
 65
     1
110
0.0
120
0.0
130
0.0
111
1.0
121
0.0
131
0.0
112
0.0
122
1.0
132
0.0
 79
     0
146
0.0
 60
     3
 61
     5
292
     1
282
     1
141
0.0
142
0.0
 63
   250
361
3F
  0
ENDTAB
  0
TABLE
  2
LTYPE
  5
5
330
0
100
AcDbSymbolTable
 70
     1
  0
LTYPE
  5
14
330
5
100
AcDbSymbolTableRecord
100
AcDbLinetypeTableRecord
  2
ByBlock
 70
     0
  3

 72
    65
 73
     0
 40
0.0
  0
LTYPE
  5
15
330
5
100
AcDbSymbolTableRecord
100
AcDbLinetypeTableRecord
  2
ByLayer
 70
     0
  3

 72
    65
 73
     0
 40
0.0
  0
LTYPE
  5
16
330
5
100
AcDbSymbolTableRecord
100
AcDbLinetypeTableRecord
  2
Continuous
 70
     0
  3
Solid line
 72
    65
 73
     0
 40
0.0
  0
ENDTAB
  0
TABLE
  2
LAYER
  5
2
330
0
100
AcDbSymbolTable
 70
     2
  0
LAYER
  5
10
330
2
100
AcDbSymbolTableRecord
100
AcDbLayerTableRecord
  2
0
 70
     0
 62
     7
  6
Continuous
370
    -3
390
F
347
3E
  0
LAYER
  5
40
330
2
100
AcDbSymbolTableRecord
100
AcDbLayerTableRecord
  2
Layer 1
 70
     0
 62
     7
  6
Continuous
370
    -3
390
F
347
3E
  0
ENDTAB
  0
TABLE
  2
STYLE
  5
3
330
0
100
AcDbSymbolTable
 70
     1
  0
STYLE
  5
11
330
3
100
AcDbSymbolTableRecord
100
AcDbTextStyleTableRecord
  2
Standard
 70
     0
 40
0.0
 41
1.0
 50
0.0
 71
     0
 42
0.2
  3
txt
  4

  0
ENDTAB
  0
TABLE
  2
VIEW
  5
6
330
0
100
AcDbSymbolTable
 70
     0
  0
ENDTAB
  0
TABLE
  2
UCS
  5
7
330
0
100
AcDbSymbolTable
 70
     0
  0
ENDTAB
  0
TABLE
  2
APPID
  5
9
330
0
100
AcDbSymbolTable
 70
     1
  0
APPID
  5
12
330
9
100
AcDbSymbolTableRecord
100
AcDbRegAppTableRecord
  2
ACAD
 70
     0
  0
ENDTAB
  0
TABLE
  2
DIMSTYLE
  5
A
330
0
100
AcDbSymbolTable
 70
     1
100
AcDbDimStyleTable
  0
DIMSTYLE
105
27
330
A
100
AcDbSymbolTableRecord
100
AcDbDimStyleTableRecord
  2
Standard
 70
     0
178
     0
340
11
  0
ENDTAB
  0
TABLE
  2
BLOCK_RECORD
  5
1
330
0
100
AcDbSymbolTable
 70
     1
  0
BLOCK_RECORD
  5
1F
330
1
100
AcDbSymbolTableRecord
100
AcDbBlockTableRecord
  2
*Model_Space
340
22
 70
     0
280
     1
281
     0
  0
BLOCK_RECORD
  5
1B
330
1
100
AcDbSymbolTableRecord
100
AcDbBlockTableRecord
  2
*Paper_Space
340
1E
 70
     0
280
     1
281
     0
  0
BLOCK_RECORD
  5
23
330
1
100
AcDbSymbolTableRecord
100
AcDbBlockTableRecord
  2
*Paper_Space0
340
26
 70
     0
280
     1
281
     0
  0
ENDTAB
  0
ENDSEC
  0
SECTION
  2
BLOCKS
  0
BLOCK
  5
20
330
1F
100
AcDbEntity
  8
0
100
AcDbBlockBegin
  2
*Model_Space
 70
     0
 10
0.0
 20
0.0
 30
0.0
  3
*Model_Space
  1

  0
ENDBLK
  5
21
330
1F
100
AcDbEntity
  8
0
100
AcDbBlockEnd
  0
BLOCK
  5
1C
330
1B
100
AcDbEntity
 67
     1
  8
0
100
AcDbBlockBegin
  2
*Paper_Space
 70
     0
 10
0.0
 20
0.0
 30
0.0
  3
*Paper_Space
  1

  0
ENDBLK
  5
1D
330
1B
100
AcDbEntity
 67
     1
  8
0
100
AcDbBlockEnd
  0
BLOCK
  5
24
330
23
100
AcDbEntity
  8
0
100
AcDbBlockBegin
  2
*Paper_Space0
 70
     0
 10
0.0
 20
0.0
 30
0.0
  3
*Paper_Space0
  1

  0
ENDBLK
  5
25
330
23
100
AcDbEntity
  8
0
100
AcDbBlockEnd
  0
ENDSEC
  0
SECTION
  2
ENTITIES
  0
SPLINE
  5
41
330
1F
100
AcDbEntity
  8
Layer 1
370
     0
100
AcDbSpline
210
0.0
220
0.0
230
1.0
 70
    11
 71
     3
 72
    14
 73
    10
 74
     0
 42
0.0000000001
 43
0.0000000001
 12
1.0
 22
0.0
 32
0.0
 13
1.0
 23
0.0
 33
0.0
 40
0.0
 40
0.0
 40
0.0
 40
0.0
 40
1.0
 40
1.0
 40
1.0
 40
2.0
 40
2.0
 40
2.0
 40
3.0
 40
3.0
 40
3.0
 40
3.0
 10
7.463465316208739
 20
-6.696324496368207
 30
0.0
 10
7.396883657559859
 20
-6.67928600551209
 30
0.0
 10
7.338681137972773
 20
-6.800532498003879
 30
0.0
 10
7.138192819916942
 20
-6.764696403028463
 30
0.0
 10
6.937860175601245
 20
-6.728829173305004
 30
0.0
 10
7.030128001369727
 20
-6.889258746184724
 30
0.0
 10
7.080562401324869
 20
-6.907192361046377
 30
0.0
 10
7.379105716438188
 20
-7.012992126674867
 30
0.0
 10
7.530054758544717
 20
-6.713366879067634
 30
0.0
 10
7.463465316208739
 20
-6.696324496368207
 30
0.0
  0
SPLINE
  5
42
330
1F
100
AcDbEntity
  8
Layer 1
370
     0
100
AcDbSpline
210
0.0
220
0.0
230
1.0
 70
    11
 71
     3
 72
    14
 73
    10
 74
     0
 42
0.0000000001
 43
0.0000000001
 12
1.0
 22
0.0
 32
0.0
 13
1.0
 23
0.0
 33
0.0
 40
0.0
 40
0.0
 40
0.0
 40
0.0
 40
1.0
 40
1.0
 40
1.0
 40
2.0
 40
2.0
 40
2.0
 40
3.0
 40
3.0
 40
3.0
 40
3.0
 10
7.915619694384581
 20
-7.07889271271084
 30
0.0
 10
7.859203530965411
 20
-7.282907040980263
 30
0.0
 10
7.601403925484722
 20
-7.245494749386252
 30
0.0
 10
7.532522187325563
 20
-7.378696985119151
 30
0.0
 10
7.47575575799111
 20
-7.488338000284986
 30
0.0
 10
7.559064560015839
 20
-7.583057687460419
 30
0.0
 10
7.693146352380406
 20
-7.514530107060004
 30
0.0
 10
7.967630290958318
 20
-7.374454875700849
 30
0.0
 10
7.933008451155829
 20
-7.016148411755845
 30
0.0
 10
7.915619694384581
 20
-7.07889271271084
 30
0.0
  0
SPLINE
  5
43
330
1F
100
AcDbEntity
  8
Layer 1
370
     0
100
AcDbSpline
210
0.0
220
0.0
230
1.0
 70
    11
 71
     3
 72
    14
 73
    10
 74
     0
 42
0.0000000001
 43
0.0000000001
 12
1.0
 22
0.0
 32
0.0
 13
1.0
 23
0.0
 33
0.0
 40
0.0
 40
0.0
 40
0.0
 40
0.0
 40
1.0
 40
1.0
 40
1.0
 40
2.0
 40
2.0
 40
2.0
 40
3.0
 40
3.0
 40
3.0
 40
3.0
 10
4.00577252336292
 20
-7.078877145336819
 30
0.0
 10
3.988379874748186
 20
-7.016132844381799
 30
0.0
 10
3.953754143102237
 20
-7.374439308326802
 30
0.0
 10
4.228241973523609
 20
-7.514514539685983
 30
0.0
 10
4.362323765888201
 20
-7.583042120086398
 30
0.0
 10
4.445807700870571
 20
-7.488338000284986
 30
0.0
 10
4.389041271536118
 20
-7.37868141774513
 30
0.0
 10
4.320159533376934
 20
-7.245475290168744
 30
0.0
 10
4.062184794938604
 20
-7.282907040980263
 30
0.0
 10
4.00577252336292
 20
-7.078877145336819
 30
0.0
  0
SPLINE
  5
44
330
1F
100
AcDbEntity
  8
Layer 1
370
     0
100
AcDbSpline
210
0.0
220
0.0
230
1.0
 70
    11
 71
     3
 72
    17
 73
    13
 74
     0
 42
0.0000000001
 43
0.0000000001
 12
1.0
 22
0.0
 32
0.0
 13
1.0
 23
0.0
 33
0.0
 40
0.0
 40
0.0
 40
0.0
 40
0.0
 40
1.0
 40
1.0
 40
1.0
 40
2.0
 40
2.0
 40
2.0
 40
3.0
 40
3.0
 40
3.0
 40
4.0
 40
4.0
 40
4.0
 40
4.0
 10
3.665734372820831
 20
-7.709931785657495
 30
0.0
 10
3.625481035469571
 20
-7.612931478189314
 30
0.0
 10
3.580689808593736
 20
-7.868610028960827
 30
0.0
 10
3.879774089954026
 20
-8.12149812794069
 30
0.0
 10
3.94953149290139
 20
-8.180370044610275
 30
0.0
 10
4.077822222133616
 20
-8.134679801885289
 30
0.0
 10
4.018062965145418
 20
-8.022727031678743
 30
0.0
 10
4.018062965145418
 20
-8.022727031678743
 30
0.0
 10
4.018062965145418
 20
-8.022727031678743
 30
0.0
 10
4.018062965145418
 20
-8.022727031678743
 30
0.0
 10
3.958136358886526
 20
-7.910964961803757
 30
0.0
 10
3.740403282269022
 20
-7.89041602810807
 30
0.0
 10
3.665734372820831
 20
-7.709931785657495
 30
0.0
  0
SPLINE
  5
45
330
1F
100
AcDbEntity
  8
Layer 1
370
     0
100
AcDbSpline
210
0.0
220
0.0
230
1.0
 70
    11
 71
     3
 72
   542
 73
   538
 74
     0
 42
0.0000000001
 43
0.0000000001
 12
1.0
 22
0.0
 32
0.0
 13
1.0
 23
0.0
 33
0.0
 40
0.0
 40
0.0
 40
0.0
 40
0.0
 40
1.0
 40
1.0
 40
1.0
 40
2.0
 40
2.0
 40
2.0
 40
3.0
 40
3.0
 40
3.0
 40
4.0
 40
4.0
 40
4.0
 40
5.0
 40
5.0
 40
5.0
 40
6.0
 40
6.0
 40
6.0
 40
7.0
 40
7.0
 40
7.0
 40
8.0
 40
8.0
 40
8.0
 40
9.0
 40
9.0
 40
9.0
 40
10.0
 40
10.0
 40
10.0
 40
11.0
 40
11.0
 40
11.0
 40
12.0
 40
12.0
 40
12.0
 40
13.0
 40
13.0
 40
13.0
 40
14.0
 40
14.0
 40
14.0
 40
15.0
 40
15.0
 40
15.0
 40
16.0
 40
16.0
 40
16.0
 40
17.0
 40
17.0
 40
17.0
 40
18.0
 40
18.0
 40
18.0
 40
19.0
 40
19.0
 40
19.0
 40
20.0
 40
20.0
 40
20.0
 40
21.0
 40
21.0
 40
21.0
 40
22.0
 40
22.0
 40
22.0
 40
23.0
 40
23.0
 40
23.0
 40
24.0
 40
24.0
 40
24.0
 40
25.0
 40
25.0
 40
25.0
 40
26.0
 40
26.0
 40
26.0
 40
27.0
 40
27.0
 40
27.0
 40
28.0
 40
28.0
 40
28.0
 40
29.0
 40
29.0
 40
29.0
 40
30.0
 40
30.0
 40
30.0
 40
31.0
 40
31.0
 40
31.0
 40
32.0
 40
32.0
 40
32.0
 40
33.0
 40
33.0
 40
33.0
 40
34.0
 40
34.0
 40
34.0
 40
35.0
 40
35.0
 40
35.0
 40
36.0
 40
36.0
 40
36.0
 40
37.0
 40
37.0
 40
37.0
 40
38.0
 40
38.0
 40
38.0
 40
39.0
 40
39.0
 40
39.0
 40
40.0
 40
40.0
 40
40.0
 40
41.0
 40
41.0
 40
41.0
 40
42.0
 40
42.0
 40
42.0
 40
43.0
 40
43.0
 40
43.0
 40
44.0
 40
44.0
 40
44.0
 40
45.0
 40
45.0
 40
45.0
 40
46.0
 40
46.0
 40
46.0
 40
47.0
 40
47.0
 40
47.0
 40
48.0
 40
48.0
 40
48.0
 40
49.0
 40
49.0
 40
49.0
 40
50.0
 40
50.0
 40
50.0
 40
51.0
 40
51.0
 40
51.0
 40
52.0
 40
52.0
 40
52.0
 40
53.0
 40
53.0
 40
53.0
 40
54.0
 40
54.0
 40
54.0
 40
55.0
 40
55.0
 40
55.0
 40
56.0
 40
56.0
 40
56.0
 40
57.0
 40
57.0
 40
57.0
 40
58.0
 40
58.0
 40
58.0
 40
59.0
 40
59.0
 40
59.0
 40
60.0
 40
60.0
 40
60.0
 40
61.0
 40
61.0
 40
61.0
 40
62.0
 40
62.0
 40
62.0
 40
63.0
 40
63.0
 40
63.0
 40
64.0
 40
64.0
 40
64.0
 40
65.0
 40
65.0
 40
65.0
 40
66.0
 40
66.0
 40
66.0
 40
67.0
 40
67.0
 40
67.0
 40
68.0
 40
68.0
 40
68.0
 40
69.0
 40
69.0
 40
69.0
 40
70.0
 40
70.0
 40
70.0
 40
71.0
 40
71.0
 40
71.0
 40
72.0
 40
72.0
 40
72.0
 40
73.0
 40
73.0
 40
73.0
 40
74.0
 40
74.0
 40
74.0
 40
75.0
 40
75.0
 40
75.0
 40
76.0
 40
76.0
 40
76.0
 40
77.0
 40
77.0
 40
77.0
 40
78.0
 40
78.0
 40
78.0
 40
79.0
 40
79.0
 40
79.0
 40
80.0
 40
80.0
 40
80.0
 40
81.0
 40
81.0
 40
81.0
 40
82.0
 40
82.0
 40
82.0
 40
83.0
 40
83.0
 40
83.0
 40
84.0
 40
84.0
 40
84.0
 40
85.0
 40
85.0
 40
85.0
 40
86.0
 40
86.0
 40
86.0
 40
87.0
 40
87.0
 40
87.0
 40
88.0
 40
88.0
 40
88.0
 40
89.0
 40
89.0
 40
89.0
 40
90.0
 40
90.0
 40
90.0
 40
91.0
 40
91.0
 40
91.0
 40
92.0
 40
92.0
 40
92.0
 40
93.0
 40
93.0
 40
93.0
 40
94.0
 40
94.0
 40
94.0
 40
95.0
 40
95.0
 40
95.0
 40
96.0
 40
96.0
 40
96.0
 40
97.0
 40
97.0
 40
97.0
 40
98.0
 40
98.0
 40
98.0
 40
99.0
 40
99.0
 40
99.0
 40
100.0
 40
100.0
 40
100.0
 40
101.0
 40
101.0
 40
101.0
 40
102.0
 40
102.0
 40
102.0
 40
103.0
 40
103.0
 40
103.0
 40
104.0
 40
104.0
 40
104.0
 40
105.0
 40
105.0
 40
105.0
 40
106.0
 40
106.0
 40
106.0
 40
107.0
 40
107.0
 40
107.0
 40
108.0
 40
108.0
 40
108.0
 40
109.0
 40
109.0
 40
109.0
 40
110.0
 40
110.0
 40
110.0
 40
111.0
 40
111.0
 40
111.0
 40
112.0
 40
112.0
 40
112.0
 40
113.0
 40
113.0
 40
113.0
 40
114.0
 40
114.0
 40
114.0
 40
115.0
 40
115.0
 40
115.0
 40
116.0
 40
116.0
 40
116.0
 40
117.0
 40
117.0
 40
117.0
 40
118.0
 40
118.0
 40
118.0
 40
119.0
 40
119.0
 40
119.0
 40
120.0
 40
120.0
 40
120.0
 40
121.0
 40
121.0
 40
121.0
 40
122.0
 40
122.0
 40
122.0
 40
123.0
 40
123.0
 40
123.0
 40
124.0
 40
124.0
 40
124.0
 40
125.0
 40
125.0
 40
125.0
 40
126.0
 40
126.0
 40
126.0
 40
127.0
 40
127.0
 40
127.0
 40
128.0
 40
128.0
 40
128.0
 40
129.0
 40
129.0
 40
129.0
 40
130.0
 40
130.0
 40
130.0
 40
131.0
 40
131.0
 40
131.0
 40
132.0
 40
132.0
 40
132.0
 40
133.0
 40
133.0
 40
133.0
 40
134.0
 40
134.0
 40
134.0
 40
135.0
 40
135.0
 40
135.0
 40
136.0
 40
136.0
 40
136.0
 40
137.0
 40
137.0
 40
137.0
 40
138.0
 40
138.0
 40
138.0
 40
139.0
 40
139.0
 40
139.0
 40
140.0
 40
140.0
 40
140.0
 40
141.0
 40
141.0
 40
141.0
 40
142.0
 40
142.0
 40
142.0
 40
143.0
 40
143.0
 40
143.0
 40
144.0
 40
144.0
 40
144.0
 40
145.0
 40
145.0
 40
145.0
 40
146.0
 40
146.0
 40
146.0
 40
147.0
 40
147.0
 40
147.0
 40
148.0
 40
148.0
 40
148.0
 40
149.0
 40
149.0
 40
149.0
 40
150.0
 40
150.0
 40
150.0
 40
151.0
 40
151.0
 40
151.0
 40
152.0
 40
152.0
 40
152.0
 40
153.0
 40
153.0
 40
153.0
 40
154.0
 40
154.0
 40
154.0
 40
155.0
 40
155.0
 40
155.0
 40
156.0
 40
156.0
 40
156.0
 40
157.0
 40
157.0
 40
157.0
 40
158.0
 40
158.0
 40
158.0
 40
159.0
 40
159.0
 40
159.0
 40
160.0
 40
160.0
 40
160.0
 40
161.0
 40
161.0
 40
161.0
 40
162.0
 40
162.0
 40
162.0
 40
163.0
 40
163.0
 40
163.0
 40
164.0
 40
164.0
 40
164.0
 40
165.0
 40
165.0
 40
165.0
 40
166.0
 40
166.0
 40
166.0
 40
167.0
 40
167.0
 40
167.0
 40
168.0
 40
168.0
 40
168.0
 40
169.0
 40
169.0
 40
169.0
 40
170.0
 40
170.0
 40
170.0
 40
171.0
 40
171.0
 40
171.0
 40
172.0
 40
172.0
 40
172.0
 40
173.0
 40
173.0
 40
173.0
 40
174.0
 40
174.0
 40
174.0
 40
175.0
 40
175.0
 40
175.0
 40
176.0
 40
176.0
 40
176.0
 40
177.0
 40
177.0
 40
177.0
 40
178.0
 40
178.0
 40
178.0
 40
179.0
 40
179.0
 40
179.0
 40
179.0
 10
11.6313961972868
 20
-2.08340022915973
 30
0.0
 10
11.43616575980347
 20
-1.921900399316668
 30
0.0
 10
11.06853443882528
 20
-2.005209201341384
 30
0.0
 10
10.84659038753752
 20
-2.044042015814171
 30
0.0
 10
10.67264055032847
 20
-2.074616338373466
 30
0.0
 10
10.50218558858498
 20
-2.126823473044169
 30
0.0
 10
10.32537913824485
 20
-2.13595762974569
 30
0.0
 10
10.13576073909278
 20
-2.145617185320134
 30
0.0
 10
9.947566754662779
 20
-2.120143123671394
 30
0.0
 10
9.757948355510836
 20
-2.122774009879309
 30
0.0
 10
9.617538425610418
 20
-2.124895064588473
 30
0.0
 10
9.486087519453879
 20
-2.179715572171391
 30
0.0
 10
9.357283066879315
 20
-2.229626519175415
 30
0.0
 10
9.22266420011139
 20
-2.281818086472084
 30
0.0
 10
9.10527063268748
 20
-2.319261512814162
 30
0.0
 10
8.991231834363335
 20
-2.403955811125974
 30
0.0
 10
8.840991107774446
 20
-2.515894959880282
 30
0.0
 10
8.678249779853887
 20
-2.618347740096245
 30
0.0
 10
8.51411517195945
 20
-2.709019910028474
 30
0.0
 10
8.400605664351536
 20
-2.77193934394111
 30
0.0
 10
8.359998169241534
 20
-2.816748084112633
 30
0.0
 10
8.269520591484302
 20
-2.902512639387775
 30
0.0
 10
8.15279642114304
 20
-3.013046832637643
 30
0.0
 10
8.016613033286806
 20
-3.10142476082486
 30
0.0
 10
7.90134441241571
 20
-3.214778594692638
 30
0.0
 10
7.649351437441383
 20
-3.462552811309719
 30
0.0
 10
7.318782142142076
 20
-3.666228549194443
 30
0.0
 10
7.146412393395267
 20
-3.984472376119861
 30
0.0
 10
7.079445442239451
 20
-4.10817851370555
 30
0.0
 10
7.082632862068471
 20
-4.244377468935694
 30
0.0
 10
7.029532549313899
 20
-4.372652630793747
 30
0.0
 10
6.96082594411223
 20
-4.538904401553888
 30
0.0
 10
6.834130870716383
 20
-4.663848145373473
 30
0.0
 10
6.707428013633463
 20
-4.787215692574439
 30
0.0
 10
6.621141951328885
 20
-4.871400159387222
 30
0.0
 10
6.526262698569856
 20
-4.90232474786194
 30
0.0
 10
6.439813178838196
 20
-4.978410288345129
 30
0.0
 10
6.416076825313616
 20
-4.999325055330145
 30
0.0
 10
6.39391666840763
 20
-5.021819910777367
 30
0.0
 10
6.371266139220274
 20
-5.043785475508192
 30
0.0
 10
6.341727047032792
 20
-5.072429443689998
 30
0.0
 10
6.311697582563738
 20
-5.100886603383742
 30
0.0
 10
6.277597249790688
 20
-5.123918533234447
 30
0.0
 10
6.261593989306397
 20
-5.134632778398049
 30
0.0
 10
6.244551606606946
 20
-5.143766935099582
 30
0.0
 10
6.229264445327216
 20
-5.15537241242555
 30
0.0
 10
6.200632152675831
 20
-5.176987711240978
 30
0.0
 10
6.174268804786657
 20
-5.197026813437774
 30
0.0
 10
6.148442531300841
 20
-5.221097865503755
 30
0.0
 10
6.135435990313883
 20
-5.233228741702507
 30
0.0
 10
6.108543351708325
 20
-5.260456078849302
 30
0.0
 10
6.087118753224432
 20
-5.253088819098189
 30
0.0
 10
6.053006744920822
 20
-5.24148334177236
 30
0.0
 10
6.084472299642508
 20
-5.184016380607368
 30
0.0
 10
6.094501580349591
 20
-5.162930372508198
 30
0.0
 10
6.111014672332784
 20
-5.128129507904583
 30
0.0
 10
6.122079183411667
 20
-5.076815551317925
 30
0.0
 10
6.104846100380554
 20
-5.037632470929869
 30
0.0
 10
6.089765206806533
 20
-5.003707271114447
 30
0.0
 10
6.068293906200552
 20
-4.979461086090977
 30
0.0
 10
6.043168164545427
 20
-4.963648525938336
 30
0.0
 10
6.058089492535828
 20
-4.534152460636808
 30
0.0
 10
6.330300594508066
 20
-4.188502271763481
 30
0.0
 10
6.667879099956255
 20
-4.171273080575702
 30
0.0
 10
6.676137591869569
 20
-4.188152005848198
 30
0.0
 10
6.694616064821679
 20
-4.200107749089309
 30
0.0
 10
6.716215796263188
 20
-4.200107749089309
 30
0.0
 10
6.745529161527631
 20
-4.200107749089309
 30
0.0
 10
6.76909038209457
 20
-4.17847688289972
 30
0.0
 10
6.76909038209457
 20
-4.151774944625837
 30
0.0
 10
6.76909038209457
 20
-4.125057438977921
 30
0.0
 10
6.745544728901677
 20
-4.103442140162366
 30
0.0
 10
6.716215796263188
 20
-4.103442140162366
 30
0.0
 10
6.708498270596818
 20
-4.103442140162366
 30
0.0
 10
6.701099876097638
 20
-4.105018336781111
 30
0.0
 10
6.694230772314868
 20
-4.107843815164314
 30
0.0
 10
6.694230772314868
 20
-4.107843815164314
 30
0.0
 10
6.694230772314868
 20
-4.107139391490136
 30
0.0
 10
6.694230772314868
 20
-4.107139391490136
 30
0.0
 10
6.315889098016517
 20
-4.107139391490136
 30
0.0
 10
6.005199339330273
 20
-4.476525933888196
 30
0.0
 10
5.980953154306816
 20
-4.94185809416514
 30
0.0
 10
5.974274750855683
 20
-4.940632163461664
 30
0.0
 10
5.967242189645831
 20
-4.940091197214858
 30
0.0
 10
5.960738919152365
 20
-4.939912172413742
 30
0.0
 10
5.954060515701258
 20
-4.940106764588891
 30
0.0
 10
5.947203087448896
 20
-4.940632163461664
 30
0.0
 10
5.940349551040147
 20
-4.94185809416514
 30
0.0
 10
5.916103366016665
 20
-4.476525933888196
 30
0.0
 10
5.605573172914167
 20
-4.107139391490136
 30
0.0
 10
5.2270563656582
 20
-4.107139391490136
 30
0.0
 10
5.2270563656582
 20
-4.107139391490136
 30
0.0
 10
5.2270563656582
 20
-4.107843815164314
 30
0.0
 10
5.2270563656582
 20
-4.107843815164314
 30
0.0
 10
5.220377962207092
 20
-4.105018336781111
 30
0.0
 10
5.212995135081806
 20
-4.103442140162366
 30
0.0
 10
5.205086909083749
 20
-4.103442140162366
 30
0.0
 10
5.175917542029032
 20
-4.103442140162366
 30
0.0
 10
5.152196755878322
 20
-4.125057438977921
 30
0.0
 10
5.152196755878322
 20
-4.151774944625837
 30
0.0
 10
5.152196755878322
 20
-4.178492450273754
 30
0.0
 10
5.175917542029032
 20
-4.200107749089309
 30
0.0
 10
5.205086909083749
 20
-4.200107749089309
 30
0.0
 10
5.226690532368896
 20
-4.200107749089309
 30
0.0
 10
5.245130086885966
 20
-4.188136438474165
 30
0.0
 10
5.253404146173327
 20
-4.171273080575702
 30
0.0
 10
5.590986543465002
 20
-4.188502271763481
 30
0.0
 10
5.863178186219708
 20
-4.534152460636808
 30
0.0
 10
5.878130648958201
 20
-4.96365241778181
 30
0.0
 10
5.853008799146386
 20
-4.979464977934438
 30
0.0
 10
5.831568633288472
 20
-5.003711162957921
 30
0.0
 10
5.816631737924025
 20
-5.037632470929869
 30
0.0
 10
5.799398654892912
 20
-5.076831118691946
 30
0.0
 10
5.8103036003882
 20
-5.128129507904583
 30
0.0
 10
5.826820584214854
 20
-5.162930372508198
 30
0.0
 10
5.836845973078602
 20
-5.184016380607368
 30
0.0
 10
5.868299852269577
 20
-5.241487233615834
 30
0.0
 10
5.834390219828189
 20
-5.253088819098189
 30
0.0
 10
5.812774921012633
 20
-5.260456078849302
 30
0.0
 10
5.785882282407075
 20
-5.233228741702507
 30
0.0
 10
5.772891308794164
 20
-5.221097865503755
 30
0.0
 10
5.747049467934302
 20
-5.197011246063893
 30
0.0
 10
5.720697795575688
 20
-5.176972143866944
 30
0.0
 10
5.692053827393743
 20
-5.15537241242555
 30
0.0
 10
5.676766666114013
 20
-5.143782502473615
 30
0.0
 10
5.659708716040566
 20
-5.134632778398049
 30
0.0
 10
5.643896155887912
 20
-5.123918533234447
 30
0.0
 10
5.609640149374727
 20
-5.100902170757776
 30
0.0
 10
5.579591225688343
 20
-5.072429443689998
 30
0.0
 10
5.550242833832372
 20
-5.043785475508192
 30
0.0
 10
5.52757673727097
 20
-5.021819910777367
 30
0.0
 10
5.505241447407368
 20
-4.999325055330145
 30
0.0
 10
5.481520661256809
 20
-4.978410288345129
 30
0.0
 10
5.395230707108744
 20
-4.902309180487919
 30
0.0
 10
5.300335886975694
 20
-4.871384592013328
 30
0.0
 10
5.213886367244034
 20
-4.787215692574439
 30
0.0
 10
5.087187402004575
 20
-4.663848145373473
 30
0.0
 10
4.960488436765293
 20
-4.538904401553888
 30
0.0
 10
4.891766264189729
 20
-4.372652630793747
 30
0.0
 10
4.838685410652488
 20
-4.244377468935694
 30
0.0
 10
4.842032396065153
 20
-4.10817851370555
 30
0.0
 10
4.774905879325843
 20
-3.984476267963335
 30
0.0
 10
4.602501103987353
 20
-3.666228549194443
 30
0.0
 10
4.272141968237216
 20
-3.462552811309719
 30
0.0
 10
4.019969968461813
 20
-3.214780540614445
 30
0.0
 10
3.904685780216671
 20
-3.101440328198881
 30
0.0
 10
3.768502392360561
 20
-3.013046832637643
 30
0.0
 10
3.651813248610703
 20
-2.902512639387775
 30
0.0
 10
3.561491344593605
 20
-2.81675003003444
 30
0.0
 10
3.520716500212908
 20
-2.77193934394111
 30
0.0
 10
3.4071992089182
 20
-2.709019910028474
 30
0.0
 10
3.243072384710558
 20
-2.618347740096245
 30
0.0
 10
3.080521757121813
 20
-2.515894959880282
 30
0.0
 10
2.930102005731669
 20
-2.403957757047642
 30
0.0
 10
2.816218881147632
 20
-2.319245945440141
 30
0.0
 10
2.698654072609719
 20
-2.281818086472084
 30
0.0
 10
2.564046881372228
 20
-2.229626519175415
 30
0.0
 10
2.435230753267231
 20
-2.179715572171391
 30
0.0
 10
2.303779847110541
 20
-2.124895064588473
 30
0.0
 10
2.163373809053761
 20
-2.122774009879309
 30
0.0
 10
1.973770977275687
 20
-2.120143123671394
 30
0.0
 10
1.785553641784721
 20
-2.145619131241801
 30
0.0
 10
1.595950810006671
 20
-2.13595762974569
 30
0.0
 10
1.419167710727505
 20
-2.126807905670135
 30
0.0
 10
1.248708857140552
 20
-2.074616338373466
 30
0.0
 10
1.074731777027081
 20
-2.044042015814171
 30
0.0
 10
0.8527994012697238
 20
-2.005209201341384
 30
0.0
 10
0.4851525129176429
 20
-1.921902345238474
 30
0.0
 10
0.289922075434308
 20
-2.08340022915973
 30
0.0
 10
0.2340507701055685
 20
-2.129629492209864
 30
0.0
 10
0.1786892962756812
 20
-2.219774317347502
 30
0.0
 10
0.2326458146009776
 20
-2.387586717352355
 30
0.0
 10
0.2412390050555536
 20
-2.414129090042782
 30
0.0
 10
0.2604180098382029
 20
-2.434323865979725
 30
0.0
 10
0.279036589156375
 20
-2.454012702261252
 30
0.0
 10
0.2953745481819522
 20
-2.471245785292366
 30
0.0
 10
0.3122417979237374
 20
-2.489161886858331
 30
0.0
 10
0.3178694036291745
 20
-2.507782412098335
 30
0.0
 10
0.3219013534982069
 20
-2.521489484915833
 30
0.0
 10
0.3192704672901527
 20
-2.540477789366807
 30
0.0
 10
0.3162737477929214
 20
-2.560497432346109
 30
0.0
 10
0.2957248140972095
 20
-2.698977007869164
 30
0.0
 10
0.4160956418006915
 20
-2.734988235802082
 30
0.0
 10
0.4626615493138817
 20
-2.844821897221386
 30
0.0
 10
0.5155517025193098
 20
-2.968889976252778
 30
0.0
 10
0.4456035992402829
 20
-3.110175570941389
 30
0.0
 10
0.4760183562161223
 20
-3.238993644968193
 30
0.0
 10
0.491830916368599
 20
-3.306124053550977
 30
0.0
 10
0.5468421242832038
 20
-3.337223774983335
 30
0.0
 10
0.5791716682625115
 20
-3.392585248813197
 30
0.0
 10
0.6146574973226456
 20
-3.45338362801667
 30
0.0
 10
0.612552009987515
 20
-3.49609271861833
 30
0.0
 10
0.632591112184299
 20
-3.559712684361532
 30
0.0
 10
0.6816244484783358
 20
-3.714705351867501
 30
0.0
 10
0.7788193481216643
 20
-3.850188207893198
 30
0.0
 10
0.8213338465481885
 20
-4.009232284485835
 30
0.0
 10
0.8489114496102653
 20
-4.112385596532223
 30
0.0
 10
0.8350253519916653
 20
-4.210086435830968
 30
0.0
 10
0.8519081691076482
 20
-4.31131328534333
 30
0.0
 10
0.8845840871586006
 20
-4.505839299152639
 30
0.0
 10
1.06927930427931
 20
-4.641322155178336
 30
0.0
 10
1.085792396262504
 20
-4.840779134705826
 30
0.0
 10
1.0984642387082
 20
-4.991549152011101
 30
0.0
 10
1.138526875727772
 20
-5.184849235117086
 30
0.0
 10
1.244135941024574
 20
-5.299432891531675
 30
0.0
 10
1.29774608527805
 20
-5.35760038452722
 30
0.0
 10
1.353808090938476
 20
-5.383263200585841
 30
0.0
 10
1.431298586926257
 20
-5.412245759152508
 30
0.0
 10
1.574864801907653
 20
-5.465665203074296
 30
0.0
 10
1.683120320786404
 20
-5.573045057164992
 30
0.0
 10
1.828262732386394
 20
-5.618206009173465
 30
0.0
 10
1.96936930227389
 20
-5.661962005677499
 30
0.0
 10
2.122435507245983
 20
-5.658980853554163
 30
0.0
 10
2.266527121100151
 20
-5.631562816075694
 30
0.0
 10
2.398678559087228
 20
-5.606250265932355
 30
0.0
 10
2.47986630640278
 20
-5.673376782671665
 30
0.0
 10
2.588293066395686
 20
-5.732945339328327
 30
0.0
 10
2.713065569101243
 20
-5.80165194452987
 30
0.0
 10
2.821846486852918
 20
-5.768446735762356
 30
0.0
 10
2.957154209920847
 20
-5.80235247636041
 30
0.0
 10
3.16186907002096
 20
-5.85384156590472
 30
0.0
 10
3.216705144977924
 20
-6.175595835669861
 30
0.0
 10
3.003895250391654
 20
-6.268229494727645
 30
0.0
 10
2.928490782521395
 20
-6.301084437579852
 30
0.0
 10
2.797409601497646
 20
-6.248194284374449
 30
0.0
 10
2.716046721224453
 20
-6.246614195912216
 30
0.0
 10
2.513947179958349
 20
-6.242757379000699
 30
0.0
 10
2.393401219297225
 20
-6.246423495580554
 30
0.0
 10
2.250169702857091
 20
-6.402132262291111
 30
0.0
 10
2.120843743253191
 20
-6.543756447364457
 30
0.0
 10
2.104677025341819
 20
-6.703835754328893
 30
0.0
 10
2.170052212504869
 20
-6.880109022109157
 30
0.0
 10
2.208340168887086
 20
-6.983262334155547
 30
0.0
 10
2.406758026199441
 20
-7.072533440426948
 30
0.0
 10
2.335408859259309
 20
-7.194830730664458
 30
0.0
 10
2.252975722022787
 20
-7.33665729159985
 30
0.0
 10
2.132970727608456
 20
-7.431205737661255
 30
0.0
 10
2.094476503520557
 20
-7.599014245822647
 30
0.0
 10
2.07145624920041
 20
-7.699190297589312
 30
0.0
 10
2.035779719808614
 20
-7.806745284637499
 30
0.0
 10
2.056519353835963
 20
-7.910233295225124
 30
0.0
 10
2.080065007029033
 20
-8.028848901508884
 30
0.0
 10
2.164249473841942
 20
-8.05521614124152
 30
0.0
 10
2.234707408619872
 20
-8.138345918465145
 30
0.0
 10
2.27299925684555
 20
-8.183670327900826
 30
0.0
 10
2.282849512751656
 20
-8.21829216770334
 30
0.0
 10
2.289527916202789
 20
-8.276284527741103
 30
0.0
 10
2.303238880863748
 20
-8.395238724409586
 30
0.0
 10
2.254730943442635
 20
-8.520357601186813
 30
0.0
 10
2.232936619825978
 20
-8.632660637308744
 30
0.0
 10
2.211336888384444
 20
-8.744056873894452
 30
0.0
 10
2.209920257349293
 20
-8.881291059496384
 30
0.0
 10
2.291808536495409
 20
-8.977240569218742
 30
0.0
 10
2.383181238258329
 20
-9.084460857725844
 30
0.0
 10
2.519014360199308
 20
-9.099382185716244
 30
0.0
 10
2.428696348025697
 20
-9.259492627428749
 30
0.0
 10
2.343457191623479
 20
-9.410262644734024
 30
0.0
 10
2.19568389381541
 20
-9.51233402428665
 30
0.0
 10
2.080749971485552
 20
-9.63818845948582
 30
0.0
 10
2.014308419202785
 20
-9.710592316015283
 30
0.0
 10
1.939273676465291
 20
-9.751176460064318
 30
0.0
 10
1.862308579350408
 20
-9.810924041521957
 30
0.0
 10
1.802039490863333
 20
-9.85768064936681
 30
0.0
 10
1.694149805273759
 20
-9.937463441177771
 30
0.0
 10
1.78850365915999
 20
-9.998421385964877
 30
0.0
 10
1.900966260865567
 20
-10.07101594282598
 30
0.0
 10
2.050685480424995
 20
-9.837450846838339
 30
0.0
 10
2.135220213153187
 20
-9.775263079504182
 30
0.0
 10
2.290738279532232
 20
-9.661014121630842
 30
0.0
 10
2.465598808120982
 20
-9.56914715574304
 30
0.0
 10
2.632881917409299
 20
-9.473898177851247
 30
0.0
 10
2.632881917409299
 20
-9.473898177851247
 30
0.0
 10
2.636213335447918
 20
-9.471940580569177
 30
0.0
 10
2.636213335447918
 20
-9.471940580569177
 30
0.0
 10
2.636213335447918
 20
-9.471940580569177
 30
0.0
 10
2.639210054945124
 20
-9.46965996027638
 30
0.0
 10
2.639210054945124
 20
-9.46965996027638
 30
0.0
 10
2.712318335148615
 20
-9.413784763104154
 30
0.0
 10
2.866085071951248
 20
-9.390577700295983
 30
0.0
 10
2.941820346519155
 20
-9.44013643546292
 30
0.0
 10
3.232996401881387
 20
-9.630965197944306
 30
0.0
 10
3.440007449648192
 20
-9.676316850284566
 30
0.0
 10
3.527348201542079
 20
-9.692658701153478
 30
0.0
 10
3.584464896791663
 20
-9.703528620057366
 30
0.0
 10
3.607130993353065
 20
-9.722882757797631
 30
0.0
 10
3.61100726948209
 20
-9.731682215957916
 30
0.0
 10
3.61100726948209
 20
-9.731682215957916
 30
0.0
 10
3.64966105915361
 20
-9.817952710888322
 30
0.0
 10
3.663196890856953
 20
-9.848176767532498
 30
0.0
 10
3.656868753321103
 20
-9.86450305102749
 30
0.0
 10
3.628396026253338
 20
-9.939218662597643
 30
0.0
 10
3.628396026253338
 20
-9.939218662597643
 30
0.0
 10
3.628396026253338
 20
-9.939218662597643
 30
0.0
 10
3.686197685959592
 20
-9.955906887538326
 30
0.0
 10
3.686197685959592
 20
-9.955906887538326
 30
0.0
 10
3.71379085639569
 20
-9.963636088735282
 30
0.0
 10
3.755620390365543
 20
-9.970127683698339
 30
0.0
 10
3.798313913593322
 20
-9.956082020495968
 30
0.0
 10
3.854041220712361
 20
-9.937463441177771
 30
0.0
 10
3.895504921393063
 20
-9.891601957338757
 30
0.0
 10
3.921521895210541
 20
-9.819373233766933
 30
0.0
 10
3.921521895210541
 20
-9.819373233766933
 30
0.0
 10
3.921856593751802
 20
-9.818863402268056
 30
0.0
 10
3.921856593751802
 20
-9.818863402268056
 30
0.0
 10
3.921856593751802
 20
-9.818657134562374
 30
0.0
 10
3.922027834865982
 20
-9.818302976803604
 30
0.0
 10
3.922027834865982
 20
-9.817968278262368
 30
0.0
 10
3.92274782591403
 20
-9.8169019131425
 30
0.0
 10
3.922922958871671
 20
-9.816567214601237
 30
0.0
 10
3.922922958871671
 20
-9.816567214601237
 30
0.0
 10
3.952781182226393
 20
-9.761921839975962
 30
0.0
 10
3.968609309753042
 20
-9.687221795779855
 30
0.0
 10
3.968609309753042
 20
-9.59970591092848
 30
0.0
 10
3.968609309753042
 20
-9.39006397695362
 30
0.0
 10
3.787599668429569
 20
-9.020696893773067
 30
0.0
 10
3.976692668708741
 20
-8.844419734149167
 30
0.0
 10
4.097238629369864
 20
-8.732147832775278
 30
0.0
 10
4.340097447642645
 20
-8.74882049034209
 30
0.0
 10
4.490707899364452
 20
-8.750050312889016
 30
0.0
 10
4.737777692307367
 20
-8.752155800224172
 30
0.0
 10
4.752889720629455
 20
-8.546545816118345
 30
0.0
 10
4.752714587671814
 20
-8.346041930688468
 30
0.0
 10
4.752714587671814
 20
-8.271182320908741
 30
0.0
 10
4.729344067436386
 20
-8.137263985971256
 30
0.0
 10
4.770122803660544
 20
-8.080147290721673
 30
0.0
 10
4.829169853287769
 20
-7.997398914161395
 30
0.0
 10
4.96959145871862
 20
-8.022345631015417
 30
0.0
 10
5.046716121417224
 20
-7.957320709767625
 30
0.0
 10
5.176061540238607
 20
-7.848555359389997
 30
0.0
 10
5.157088803161514
 20
-7.611479820562636
 30
0.0
 10
5.18799782426221
 20
-7.457713083760003
 30
0.0
 10
5.235630096895142
 20
-7.221373103354734
 30
0.0
 10
5.266208311298063
 20
-7.153195788869576
 30
0.0
 10
5.450724503617645
 20
-7.005052765928743
 30
0.0
 10
5.59288576309445
 20
-6.89099450838709
 30
0.0
 10
5.488136795211807
 20
-6.727393083052347
 30
0.0
 10
5.508351030366257
 20
-6.580643340085695
 30
0.0
 10
5.516446064852491
 20
-6.522503089994719
 30
0.0
 10
5.63979804467931
 20
-6.354309289326515
 30
0.0
 10
5.71307756599693
 20
-6.408289158712781
 30
0.0
 10
5.763675423379027
 20
-6.445331725174178
 30
0.0
 10
5.699020227264175
 20
-6.670642221091939
 30
0.0
 10
5.693217488601122
 20
-6.722485468395133
 30
0.0
 10
5.666690683284868
 20
-6.964994020752632
 30
0.0
 10
5.621883889035138
 20
-7.263202637324714
 30
0.0
 10
5.759818606467635
 20
-7.48199429537514
 30
0.0
 10
5.759818606467635
 20
-7.48199429537514
 30
0.0
 10
5.778803019075136
 20
-7.514510647842497
 30
0.0
 10
5.778982043876264
 20
-7.514510647842497
 30
0.0
 10
5.817986099463067
 20
-7.582691854171117
 30
0.0
 10
5.876523317591388
 20
-7.684938366681384
 30
0.0
 10
5.960692217030277
 20
-7.684253402224865
 30
0.0
 10
6.044685983511524
 20
-7.684938366681384
 30
0.0
 10
6.103219309796259
 20
-7.582691854171117
 30
0.0
 10
6.142211689852653
 20
-7.514510647842497
 30
0.0
 10
6.142417957558337
 20
-7.514510647842497
 30
0.0
 10
6.16137123541777
 20
-7.48199429537514
 30
0.0
 10
6.16137123541777
 20
-7.48199429537514
 30
0.0
 10
6.299340979441795
 20
-7.263202637324714
 30
0.0
 10
6.254514725974432
 20
-6.964994020752632
 30
0.0
 10
6.227972353284157
 20
-6.722485468395133
 30
0.0
 10
6.222379774170425
 20
-6.670646112935552
 30
0.0
 10
6.157514418506404
 20
-6.445331725174178
 30
0.0
 10
6.208112275888475
 20
-6.408289158712781
 30
0.0
 10
6.281407364580142
 20
-6.354309289326515
 30
0.0
 10
6.404774911780956
 20
-6.522503089994719
 30
0.0
 10
6.412858270736655
 20
-6.580643340085695
 30
0.0
 10
6.433068614047644
 20
-6.727393083052347
 30
0.0
 10
6.328323538008463
 20
-6.89099450838709
 30
0.0
 10
6.470500364859163
 20
-7.005052765928743
 30
0.0
 10
6.655176122762491
 20
-7.153176329652069
 30
0.0
 10
6.68557531236431
 20
-7.221373103354734
 30
0.0
 10
6.733192017623196
 20
-7.457713083760003
 30
0.0
 10
6.764307306429449
 20
-7.611499279780142
 30
0.0
 10
6.745322893821948
 20
-7.848555359389997
 30
0.0
 10
6.874477612311668
 20
-7.957320709767625
 30
0.0
 10
6.951629517914726
 20
-8.022345631015417
 30
0.0
 10
7.092230148146806
 20
-7.997395022317782
 30
0.0
 10
7.151082605598756
 20
-8.080147290721673
 30
0.0
 10
7.191876909196935
 20
-8.137263985971256
 30
0.0
 10
7.168665954545278
 20
-8.271197888282789
 30
0.0
 10
7.168490821587637
 20
-8.346041930688468
 30
0.0
 10
7.168490821587637
 20
-8.546545816118345
 30
0.0
 10
7.183427716952084
 20
-8.752151908380686
 30
0.0
 10
7.430513077269021
 20
-8.750050312889016
 30
0.0
 10
7.581302553791804
 20
-8.74882049034209
 30
0.0
 10
7.823986239106944
 20
-8.732147832775278
 30
0.0
 10
7.944707332725834
 20
-8.844419734149167
 30
0.0
 10
8.133609632673345
 20
-9.020696893773067
 30
0.0
 10
7.952615558723892
 20
-9.39006397695362
 30
0.0
 10
7.952615558723892
 20
-9.59970591092848
 30
0.0
 10
7.952615558723892
 20
-9.687221795779855
 30
0.0
 10
7.968408659659012
 20
-9.76190627260194
 30
0.0
 10
7.998298017761802
 20
-9.816567214601237
 30
0.0
 10
7.998298017761802
 20
-9.816567214601237
 30
0.0
 10
7.998461475189035
 20
-9.8169019131425
 30
0.0
 10
7.999177574393469
 20
-9.817968278262368
 30
0.0
 10
7.999177574393469
 20
-9.818322436021111
 30
0.0
 10
7.999372166568618
 20
-9.818657134562374
 30
0.0
 10
7.999372166568618
 20
-9.818863402268056
 30
0.0
 10
7.999372166568618
 20
-9.818863402268056
 30
0.0
 10
7.999706865109854
 20
-9.819373233766933
 30
0.0
 10
7.999706865109854
 20
-9.819373233766933
 30
0.0
 10
8.025719947083745
 20
-9.891601957338757
 30
0.0
 10
8.067183647764573
 20
-9.937463441177771
 30
0.0
 10
8.12289927935318
 20
-9.956082020495968
 30
0.0
 10
8.165600586267777
 20
-9.970127683698339
 30
0.0
 10
8.207445687611804
 20
-9.96362052136126
 30
0.0
 10
8.23500772329986
 20
-9.955906887538326
 30
0.0
 10
8.23500772329986
 20
-9.955906887538326
 30
0.0
 10
8.292824950380135
 20
-9.939218662597643
 30
0.0
 10
8.292824950380135
 20
-9.939218662597643
 30
0.0
 10
8.292824950380135
 20
-9.939218662597643
 30
0.0
 10
8.264360006999292
 20
-9.86450305102749
 30
0.0
 10
8.258031869463467
 20
-9.848176767532498
 30
0.0
 10
8.27152878273182
 20
-9.817952710888322
 30
0.0
 10
8.31020592346446
 20
-9.731682215957916
 30
0.0
 10
8.31020592346446
 20
-9.731682215957916
 30
0.0
 10
8.314074415906386
 20
-9.722882757797631
 30
0.0
 10
8.33673272878069
 20
-9.703544187431387
 30
0.0
 10
8.393864991404445
 20
-9.692658701153478
 30
0.0
 10
8.481205743298181
 20
-9.676301282910545
 30
0.0
 10
8.688197331847505
 20
-9.630965197944306
 30
0.0
 10
8.979392846427219
 20
-9.44013643546292
 30
0.0
 10
9.055143688369172
 20
-9.390577700295983
 30
0.0
 10
9.208894857797784
 20
-9.413784763104154
 30
0.0
 10
9.281983678783742
 20
-9.46965996027638
 30
0.0
 10
9.281983678783742
 20
-9.46965996027638
 30
0.0
 10
9.284964830906928
 20
-9.471940580569177
 30
0.0
 10
9.284964830906928
 20
-9.471940580569177
 30
0.0
 10
9.284964830906928
 20
-9.471940580569177
 30
0.0
 10
9.288327383693614
 20
-9.473898177851247
 30
0.0
 10
9.288327383693614
 20
-9.473898177851247
 30
0.0
 10
9.455629952199564
 20
-9.56913158836902
 30
0.0
 10
9.6304515623532
 20
-9.661014121630842
 30
0.0
 10
9.786164220907368
 20
-9.775263079504182
 30
0.0
 10
9.870508253303898
 20
-9.837450846838339
 30
0.0
 10
10.02024304023735
 20
-10.07101983466944
 30
0.0
 10
10.13288077490056
 20
-9.998421385964877
 30
0.0
 10
10.22706338767264
 20
-9.937463441177771
 30
0.0
 10
10.11917370208307
 20
-9.857676757523196
 30
0.0
 10
10.05909142208417
 20
-9.810924041521957
 30
0.0
 10
9.982110757595263
 20
-9.751176460064318
 30
0.0
 10
9.906881422682646
 20
-9.710592316015283
 30
0.0
 10
9.840455437773874
 20
-9.63818845948582
 30
0.0
 10
9.725521515444042
 20
-9.51233402428665
 30
0.0
 10
9.577732650261925
 20
-9.410262644734024
 30
0.0
 10
9.492688086034857
 20
-9.259492627428749
 30
0.0
 10
9.402194940903629
 20
-9.099382185716244
 30
0.0
 10
9.538043630218604
 20
-9.084460857725844
 30
0.0
 10
9.629572005721531
 20
-8.977240569218742
 30
0.0
 10
9.711300719284027
 20
-8.881310518713892
 30
0.0
 10
9.70989965562305
 20
-8.744056873894452
 30
0.0
 10
9.688284356807495
 20
-8.63266452915223
 30
0.0
 10
9.666513384251806
 20
-8.520373168560834
 30
0.0
 10
9.618005446830693
 20
-8.395254291783607
 30
0.0
 10
9.63169695227417
 20
-8.276284527741103
 30
0.0
 10
9.638359788351256
 20
-8.21830773507736
 30
0.0
 10
9.648229503474845
 20
-8.183685895274872
 30
0.0
 10
9.686517459857088
 20
-8.138349810308606
 30
0.0
 10
9.756975394634992
 20
-8.05521614124152
 30
0.0
 10
9.841163753291386
 20
-8.028833334134863
 30
0.0
 10
9.864865080224565
 20
-7.910233295225124
 30
0.0
 10
9.88544514866832
 20
-7.806745284637499
 30
0.0
 10
9.849764727433062
 20
-7.699190297589312
 30
0.0
 10
9.826732797582356
 20
-7.599018137666108
 30
0.0
 10
9.788429273826093
 20
-7.431205737661255
 30
0.0
 10
9.668249146454173
 20
-7.336661183443463
 30
0.0
 10
9.585819901061111
 20
-7.194830730664458
 30
0.0
 10
9.514653650765695
 20
-7.072533440426948
 30
0.0
 10
9.712880807746235
 20
-6.983262334155547
 30
0.0
 10
9.751168764128629
 20
-6.880109022109157
 30
0.0
 10
9.816738543466675
 20
-6.703851321702914
 30
0.0
 10
9.80038501706723
 20
-6.543772014738478
 30
0.0
 10
9.671051273776255
 20
-6.402136154134596
 30
0.0
 10
9.527979322919842
 20
-6.246423495580554
 30
0.0
 10
9.407456713319737
 20
-6.242757379000699
 30
0.0
 10
9.205189822782915
 20
-6.246614195912216
 30
0.0
 10
9.123819158822773
 20
-6.248178717000428
 30
0.0
 10
8.992718518581391
 20
-6.301084437579852
 30
0.0
 10
8.91733350992874
 20
-6.268229494727645
 30
0.0
 10
8.704519723499036
 20
-6.175611403043882
 30
0.0
 10
8.759340231081953
 20
-5.853845457748194
 30
0.0
 10
8.964230224139706
 20
-5.80235247636041
 30
0.0
 10
9.099393948998062
 20
-5.768446735762356
 30
0.0
 10
9.208163191219302
 20
-5.801667511903891
 30
0.0
 10
9.332927910237634
 20
-5.732945339328327
 30
0.0
 10
9.441346886543618
 20
-5.673392350045686
 30
0.0
 10
9.52254630938973
 20
-5.606265833306389
 30
0.0
 10
9.654682180002762
 20
-5.631562816075694
 30
0.0
 10
9.798789361230975
 20
-5.658980853554163
 30
0.0
 10
9.951855566203044
 20
-5.661962005677499
 30
0.0
 10
10.09296602793403
 20
-5.618206009173465
 30
0.0
 10
10.23810843953404
 20
-5.573045057164992
 30
0.0
 10
10.34654298321402
 20
-5.465680770448342
 30
0.0
 10
10.48994184892472
 20
-5.412245759152508
 30
0.0
 10
10.56742845306889
 20
-5.383247633211807
 30
0.0
 10
10.62349435057278
 20
-5.35760038452722
 30
0.0
 10
10.67709281929582
 20
-5.299432891531675
 30
0.0
 10
10.78270188459262
 20
-5.18486480249112
 30
0.0
 10
10.82278787267331
 20
-4.991549152011101
 30
0.0
 10
10.83543636405792
 20
-4.840779134705826
 30
0.0
 10
10.85212458899875
 20
-4.641322155178336
 30
0.0
 10
11.03681591427597
 20
-4.505839299152639
 30
0.0
 10
11.06932059121277
 20
-4.31131328534333
 30
0.0
 10
11.08620340832876
 20
-4.210090327674442
 30
0.0
 10
11.07233287808418
 20
-4.112385596532223
 30
0.0
 10
11.09991048114625
 20
-4.009232284485835
 30
0.0
 10
11.14263513912195
 20
-3.850188207893198
 30
0.0
 10
11.23961987921611
 20
-3.714705351867501
 30
0.0
 10
11.28864932366653
 20
-3.559712684361532
 30
0.0
 10
11.30886355882111
 20
-3.49609271861833
 30
0.0
 10
11.30655180378027
 20
-3.45338362801667
 30
0.0
 10
11.34208433496249
 20
-3.392585248813197
 30
0.0
 10
11.37457344452529
 20
-3.337223774983335
 30
0.0
 10
11.4294095194822
 20
-3.306124053550977
 30
0.0
 10
11.44522597147832
 20
-3.238993644968193
 30
0.0
 10
11.47562126923665
 20
-3.110175570941389
 30
0.0
 10
11.40586386628931
 20
-2.968891922174584
 30
0.0
 10
11.45858277838056
 20
-2.844821897221386
 30
0.0
 10
11.5051759287982
 20
-2.735003803176116
 30
0.0
 10
11.62555064834527
 20
-2.698977007869164
 30
0.0
 10
11.60498614727557
 20
-2.560497432346109
 30
0.0
 10
11.60198942777818
 20
-2.540477789366807
 30
0.0
 10
11.59934297419623
 20
-2.521491430837639
 30
0.0
 10
11.60339049143931
 20
-2.507782412098335
 30
0.0
 10
11.60901809714472
 20
-2.489163832780137
 30
0.0
 10
11.62590091426056
 20
-2.471245785292366
 30
0.0
 10
11.64223887328611
 20
-2.454012702261252
 30
0.0
 10
11.66085745260431
 20
-2.434341379275414
 30
0.0
 10
11.68000532263889
 20
-2.414129090042782
 30
0.0
 10
11.68862964784153
 20
-2.387586717352355
 30
0.0
 10
11.68862964784153
 20
-2.387586717352355
 30
0.0
 10
11.68862186415458
 20
-2.387586717352355
 30
0.0
 10
11.68862186415458
 20
-2.387586717352355
 30
0.0
 10
11.74256281510583
 20
-2.219774317347502
 30
0.0
 10
11.68720523311943
 20
-2.129627546288058
 30
0.0
 10
11.6313961972868
 20
-2.08340022915973
 30
0.0
  0
SPLINE
  5
46
330
1F
100
AcDbEntity
  8
Layer 1
370
     0
100
AcDbSpline
210
0.0
220
0.0
230
1.0
 70
    11
 71
     3
 72
    38
 73
    34
 74
     0
 42
0.0000000001
 43
0.0000000001
 12
1.0
 22
0.0
 32
0.0
 13
1.0
 23
0.0
 33
0.0
 40
0.0
 40
0.0
 40
0.0
 40
0.0
 40
1.0
 40
1.0
 40
1.0
 40
2.0
 40
2.0
 40
2.0
 40
3.0
 40
3.0
 40
3.0
 40
4.0
 40
4.0
 40
4.0
 40
5.0
 40
5.0
 40
5.0
 40
6.0
 40
6.0
 40
6.0
 40
7.0
 40
7.0
 40
7.0
 40
8.0
 40
8.0
 40
8.0
 40
9.0
 40
9.0
 40
9.0
 40
10.0
 40
10.0
 40
10.0
 40
11.0
 40
11.0
 40
11.0
 40
11.0
 10
3.408876593467918
 20
-2.978185644459725
 30
0.0
 10
3.968262935681246
 20
-3.13177724830459
 30
0.0
 10
4.169276652610001
 20
-3.529457492969312
 30
0.0
 10
4.570463448270831
 20
-3.887939089872083
 30
0.0
 10
4.567116462858343
 20
-3.888989887617779
 30
0.0
 10
4.563594344488188
 20
-3.889705986822365
 30
0.0
 10
4.560262926449568
 20
-3.890406518652917
 30
0.0
 10
4.582738322679309
 20
-3.914462003344852
 30
0.0
 10
4.83385563286543
 20
-4.117616234200138
 30
0.0
 10
4.61911538390167
 20
-4.267156428958616
 30
0.0
 10
4.61911538390167
 20
-4.267156428958616
 30
0.0
 10
4.61911538390167
 20
-4.267156428958616
 30
0.0
 10
4.61911538390167
 20
-4.267156428958616
 30
0.0
 10
4.390333363579177
 20
-4.426200505551252
 30
0.0
 10
4.058359112775128
 20
-4.199839211887643
 30
0.0
 10
3.610415709269596
 20
-4.064196790278325
 30
0.0
 10
3.134038497131264
 20
-3.919930043466529
 30
0.0
 10
2.817351407606945
 20
-3.993898421084029
 30
0.0
 10
2.879905008230278
 20
-3.945581183994591
 30
0.0
 10
3.214155987483486
 20
-3.686380514852923
 30
0.0
 10
3.843634431185415
 20
-4.002507178912639
 30
0.0
 10
3.784412248600701
 20
-3.732066865734307
 30
0.0
 10
3.738360064429849
 20
-3.52135856663958
 30
0.0
 10
3.342435041185126
 20
-3.61642851973041
 30
0.0
 10
3.31292708374556
 20
-3.579175793719868
 30
0.0
 10
3.279196476105148
 20
-3.536470594961669
 30
0.0
 10
3.385140239943186
 20
-3.44772488756333
 30
0.0
 10
3.315573537327509
 20
-3.385000045825829
 30
0.0
 10
3.255985521453466
 20
-3.331214768614725
 30
0.0
 10
2.888899058565686
 20
-3.415224102469993
 30
0.0
 10
2.793284247384589
 20
-3.690062198806673
 30
0.0
 10
2.673629518885567
 20
-4.034498132507085
 30
0.0
 10
2.792373556004855
 20
-2.987144668203478
 30
0.0
 10
3.408876593467918
 20
-2.978185644459725
 30
0.0
  0
SPLINE
  5
47
330
1F
100
AcDbEntity
  8
Layer 1
370
     0
100
AcDbSpline
210
0.0
220
0.0
230
1.0
 70
    11
 71
     3
 72
    29
 73
    25
 74
     0
 42
0.0000000001
 43
0.0000000001
 12
1.0
 22
0.0
 32
0.0
 13
1.0
 23
0.0
 33
0.0
 40
0.0
 40
0.0
 40
0.0
 40
0.0
 40
1.0
 40
1.0
 40
1.0
 40
2.0
 40
2.0
 40
2.0
 40
3.0
 40
3.0
 40
3.0
 40
4.0
 40
4.0
 40
4.0
 40
5.0
 40
5.0
 40
5.0
 40
6.0
 40
6.0
 40
6.0
 40
7.0
 40
7.0
 40
7.0
 40
8.0
 40
8.0
 40
8.0
 40
8.0
 10
1.934046930640837
 20
-2.377927161778062
 30
0.0
 10
1.947948595633483
 20
-2.322036397231803
 30
0.0
 10
1.966917440866938
 20
-2.278805799600693
 30
0.0
 10
1.990813359975265
 20
-2.247881211126115
 30
0.0
 10
2.268138344310425
 20
-2.086221815699446
 30
0.0
 10
3.173139848805552
 20
-2.60462315398292
 30
0.0
 10
3.130228382341809
 20
-2.800744823628469
 30
0.0
 10
3.069254870180683
 20
-2.902847337929024
 30
0.0
 10
2.949059175434715
 20
-2.942030418316941
 30
0.0
 10
2.903898223426116
 20
-2.999322246524305
 30
0.0
 10
2.659109050775972
 20
-3.309311473379997
 30
0.0
 10
2.707441855239317
 20
-3.569212674352229
 30
0.0
 10
2.653831710985842
 20
-3.488024927036665
 30
0.0
 10
2.624658452087513
 20
-3.444268930532644
 30
0.0
 10
2.6402958792825
 20
-3.267306806452363
 30
0.0
 10
2.667188517888058
 20
-2.958561023595836
 30
0.0
 10
2.693380624663203
 20
-2.659459228939858
 30
0.0
 10
2.568608121957646
 20
-2.605516332066802
 30
0.0
 10
2.472137105205977
 20
-2.593910854740973
 30
0.0
 10
2.374957772936543
 20
-2.582307323336813
 30
0.0
 10
2.294824715210274
 20
-2.995990828485838
 30
0.0
 10
2.461422860042224
 20
-3.269585480823328
 30
0.0
 10
2.69180053620097
 20
-3.647929101043474
 30
0.0
 10
1.818762742395696
 20
-2.839052239228193
 30
0.0
 10
1.934046930640837
 20
-2.377927161778062
 30
0.0
  0
SPLINE
  5
48
330
1F
100
AcDbEntity
  8
Layer 1
370
     0
100
AcDbSpline
210
0.0
220
0.0
230
1.0
 70
    11
 71
     3
 72
   167
 73
   163
 74
     0
 42
0.0000000001
 43
0.0000000001
 12
1.0
 22
0.0
 32
0.0
 13
1.0
 23
0.0
 33
0.0
 40
0.0
 40
0.0
 40
0.0
 40
0.0
 40
1.0
 40
1.0
 40
1.0
 40
2.0
 40
2.0
 40
2.0
 40
3.0
 40
3.0
 40
3.0
 40
4.0
 40
4.0
 40
4.0
 40
5.0
 40
5.0
 40
5.0
 40
6.0
 40
6.0
 40
6.0
 40
7.0
 40
7.0
 40
7.0
 40
8.0
 40
8.0
 40
8.0
 40
9.0
 40
9.0
 40
9.0
 40
10.0
 40
10.0
 40
10.0
 40
11.0
 40
11.0
 40
11.0
 40
12.0
 40
12.0
 40
12.0
 40
13.0
 40
13.0
 40
13.0
 40
14.0
 40
14.0
 40
14.0
 40
15.0
 40
15.0
 40
15.0
 40
16.0
 40
16.0
 40
16.0
 40
17.0
 40
17.0
 40
17.0
 40
18.0
 40
18.0
 40
18.0
 40
19.0
 40
19.0
 40
19.0
 40
20.0
 40
20.0
 40
20.0
 40
21.0
 40
21.0
 40
21.0
 40
22.0
 40
22.0
 40
22.0
 40
23.0
 40
23.0
 40
23.0
 40
24.0
 40
24.0
 40
24.0
 40
25.0
 40
25.0
 40
25.0
 40
26.0
 40
26.0
 40
26.0
 40
27.0
 40
27.0
 40
27.0
 40
28.0
 40
28.0
 40
28.0
 40
29.0
 40
29.0
 40
29.0
 40
30.0
 40
30.0
 40
30.0
 40
31.0
 40
31.0
 40
31.0
 40
32.0
 40
32.0
 40
32.0
 40
33.0
 40
33.0
 40
33.0
 40
34.0
 40
34.0
 40
34.0
 40
35.0
 40
35.0
 40
35.0
 40
36.0
 40
36.0
 40
36.0
 40
37.0
 40
37.0
 40
37.0
 40
38.0
 40
38.0
 40
38.0
 40
39.0
 40
39.0
 40
39.0
 40
40.0
 40
40.0
 40
40.0
 40
41.0
 40
41.0
 40
41.0
 40
42.0
 40
42.0
 40
42.0
 40
43.0
 40
43.0
 40
43.0
 40
44.0
 40
44.0
 40
44.0
 40
45.0
 40
45.0
 40
45.0
 40
46.0
 40
46.0
 40
46.0
 40
47.0
 40
47.0
 40
47.0
 40
48.0
 40
48.0
 40
48.0
 40
49.0
 40
49.0
 40
49.0
 40
50.0
 40
50.0
 40
50.0
 40
51.0
 40
51.0
 40
51.0
 40
52.0
 40
52.0
 40
52.0
 40
53.0
 40
53.0
 40
53.0
 40
54.0
 40
54.0
 40
54.0
 40
54.0
 10
0.6855318593552763
 20
-2.401153683803753
 30
0.0
 10
0.5503681344969461
 20
-2.298157991419303
 30
0.0
 10
0.6913345980183294
 20
-2.170581415469997
 30
0.0
 10
0.78452479069708
 20
-2.273433109644859
 30
0.0
 10
0.7682335337936163
 20
-2.154831124813326
 30
0.0
 10
0.94371286549929
 20
-2.109670172804865
 30
0.0
 10
1.011956341324043
 20
-2.22922760521625
 30
0.0
 10
0.8498844104859825
 20
-2.244102231084728
 30
0.0
 10
0.8903751502909674
 20
-2.37653971956916
 30
0.0
 10
0.9601481206123531
 20
-2.41522853583236
 30
0.0
 10
0.9832617791765238
 20
-2.427980161069854
 30
0.0
 10
1.076739968274574
 20
-2.458922262840284
 30
0.0
 10
1.199901247769731
 20
-2.509901520885693
 30
0.0
 10
1.191214653071105
 20
-2.483839790868059
 30
0.0
 10
1.183213022829023
 20
-2.452705042844173
 30
0.0
 10
1.177312988078484
 20
-2.422354501286248
 30
0.0
 10
1.150883478849715
 20
-2.417826341370553
 30
0.0
 10
1.126061300987784
 20
-2.400659419678883
 30
0.0
 10
1.114125016964155
 20
-2.375662108859312
 30
0.0
 10
1.097160471134733
 20
-2.340386439348334
 30
0.0
 10
1.11256049587597
 20
-2.303322467747774
 30
0.0
 10
1.148349888729298
 20
-2.292754166715415
 30
0.0
 10
1.18426382057487
 20
-2.282090515517224
 30
0.0
 10
1.227303717874292
 20
-2.30184162129486
 30
0.0
 10
1.244711933863047
 20
-2.337214586893336
 30
0.0
 10
1.26200728639027
 20
-2.372714037405836
 30
0.0
 10
1.24670455773652
 20
-2.41023919246153
 30
0.0
 10
1.210405333384314
 20
-2.420887276285687
 30
0.0
 10
1.209323400890425
 20
-2.421239488122637
 30
0.0
 10
1.208175307057091
 20
-2.421270622870692
 30
0.0
 10
1.207105050093762
 20
-2.421508025324303
 30
0.0
 10
1.216433798970431
 20
-2.45785395179861
 30
0.0
 10
1.232180197783464
 20
-2.501644974894159
 30
0.0
 10
1.254612783734577
 20
-2.533112475537501
 30
0.0
 10
1.309269833890413
 20
-2.556879963810136
 30
0.0
 10
1.368172885308063
 20
-2.58426686654055
 30
0.0
 10
1.428733862057773
 20
-2.615384101268609
 30
0.0
 10
1.422199456816391
 20
-2.586099924830553
 30
0.0
 10
1.417673242822376
 20
-2.548366556147357
 30
0.0
 10
1.41594915615057
 20
-2.51203814296889
 30
0.0
 10
1.389231650502653
 20
-2.50368430088972
 30
0.0
 10
1.365845562893204
 20
-2.482993314906114
 30
0.0
 10
1.35727183165611
 20
-2.456690290591243
 30
0.0
 10
1.345234359701382
 20
-2.419309133745135
 30
0.0
 10
1.367106520188195
 20
-2.385020046562229
 30
0.0
 10
1.40603663074848
 20
-2.379888650903467
 30
0.0
 10
1.445091280300832
 20
-2.374626878487498
 30
0.0
 10
1.486998651140842
 20
-2.400674987052917
 30
0.0
 10
1.499479793255002
 20
-2.438200142108611
 30
0.0
 10
1.512151635700548
 20
-2.47575643191236
 30
0.0
 10
1.490252232309305
 20
-2.510539783220274
 30
0.0
 10
1.450781155502227
 20
-2.515624476756809
 30
0.0
 10
1.449586359546806
 20
-2.515815177088471
 30
0.0
 10
1.448484967835409
 20
-2.515593342008894
 30
0.0
 10
1.447146173670414
 20
-2.515737340218468
 30
0.0
 10
1.451610118168345
 20
-2.556640615434718
 30
0.0
 10
1.46276803349138
 20
-2.607763871689864
 30
0.0
 10
1.48507218860694
 20
-2.642946136956804
 30
0.0
 10
1.485963420769015
 20
-2.6442849311218
 30
0.0
 10
1.486551089138048
 20
-2.645368809537356
 30
0.0
 10
1.48727108018612
 20
-2.646707603702364
 30
0.0
 10
1.515451918991099
 20
-2.66217184386139
 30
0.0
 10
1.543718378353181
 20
-2.678287967807225
 30
0.0
 10
1.571774678166245
 20
-2.695439322124861
 30
0.0
 10
1.590249259274868
 20
-2.706661452865698
 30
0.0
 10
1.608326872346121
 20
-2.718027581816108
 30
0.0
 10
1.626194325868331
 20
-2.729282793226806
 30
0.0
 10
1.625766223083044
 20
-2.700189317120274
 30
0.0
 10
1.628681213866811
 20
-2.664674299233891
 30
0.0
 10
1.634020823152772
 20
-2.63060704713055
 30
0.0
 10
1.607879310343328
 20
-2.617423427264169
 30
0.0
 10
1.587793506024455
 20
-2.59295540716097
 30
0.0
 10
1.584220793688751
 20
-2.565805906884306
 30
0.0
 10
1.579313179031538
 20
-2.527309736874586
 30
0.0
 10
1.609027404176661
 20
-2.49818512602
 30
0.0
 10
1.650794668650683
 20
-2.50051244843486
 30
0.0
 10
1.692717606864714
 20
-2.50283977084958
 30
0.0
 10
1.731324694414297
 20
-2.536044979616943
 30
0.0
 10
1.736746032413874
 20
-2.574846659341663
 30
0.0
 10
1.742101209074033
 20
-2.613854606771939
 30
0.0
 10
1.712067852761518
 20
-2.64344040108166
 30
0.0
 10
1.669681785170547
 20
-2.640778380125552
 30
0.0
 10
1.668486989215126
 20
-2.640665516664032
 30
0.0
 10
1.667210464546264
 20
-2.640299683374729
 30
0.0
 10
1.665968966468755
 20
-2.640202387287079
 30
0.0
 10
1.662555819716671
 20
-2.677776190386667
 30
0.0
 10
1.663450943722359
 20
-2.724579500353469
 30
0.0
 10
1.676251217003609
 20
-2.761643471954029
 30
0.0
 10
2.254894400869716
 20
-3.142409764754726
 30
0.0
 10
2.480045331203883
 20
-3.529710462797084
 30
0.0
 10
2.571558139332915
 20
-3.721418781910137
 30
0.0
 10
2.671621327637922
 20
-3.930834988961806
 30
0.0
 10
2.604047248895818
 20
-4.00644183269416
 30
0.0
 10
2.56052865484556
 20
-4.006138268900965
 30
0.0
 10
2.517282489840404
 20
-4.005854164325279
 30
0.0
 10
2.354587864041958
 20
-4.042597058836805
 30
0.0
 10
2.235890529044708
 20
-3.771028111042634
 30
0.0
 10
2.005018588761105
 20
-3.242963325341255
 30
0.0
 10
1.692861605074313
 20
-2.903294899931943
 30
0.0
 10
1.553887765426528
 20
-2.791388831847219
 30
0.0
 10
1.536732519265418
 20
-2.77751830160264
 30
0.0
 10
1.517444542864572
 20
-2.76267870232583
 30
0.0
 10
1.496611504593198
 20
-2.74710354462694
 30
0.0
 10
1.460693680904317
 20
-2.749893996418614
 30
0.0
 10
1.421623463977918
 20
-2.763013400867079
 30
0.0
 10
1.390636606007219
 20
-2.777168035687358
 30
0.0
 10
1.391224274376125
 20
-2.778189644606944
 30
0.0
 10
1.391893671458597
 20
-2.779289090396535
 30
0.0
 10
1.3924035029575
 20
-2.780421616855834
 30
0.0
 10
1.408235522327636
 20
-2.819141567867089
 30
0.0
 10
1.389628618539872
 20
-2.85708120425583
 30
0.0
 10
1.350877532780689
 20
-2.865051699749857
 30
0.0
 10
1.312095312273616
 20
-2.872911277704159
 30
0.0
 10
1.268144723594459
 20
-2.847803049344722
 30
0.0
 10
1.252810860192767
 20
-2.809258231291248
 30
0.0
 10
1.237539266287083
 20
-2.770983896361245
 30
0.0
 10
1.256091684265837
 20
-2.73348987605348
 30
0.0
 10
1.294317371151944
 20
-2.725519380559439
 30
0.0
 10
1.321260603723052
 20
-2.719860640106112
 30
0.0
 10
1.350733534571115
 20
-2.730637154765835
 30
0.0
 10
1.371539329938059
 20
-2.750643176292922
 30
0.0
 10
1.398334672456106
 20
-2.736295895219162
 30
0.0
 10
1.426710103436259
 20
-2.723686322269448
 30
0.0
 10
1.45192924933556
 20
-2.714567732942088
 30
0.0
 10
1.402701320866375
 20
-2.679467196388613
 30
0.0
 10
1.348215511824719
 20
-2.643216620080137
 30
0.0
 10
1.293044738326519
 20
-2.609931628520977
 30
0.0
 10
1.290814711999297
 20
-2.609962763269032
 30
0.0
 10
1.288421228244993
 20
-2.609931628520977
 30
0.0
 10
1.285840936002488
 20
-2.609820710981113
 30
0.0
 10
1.245922297192515
 20
-2.607699656272088
 30
0.0
 10
1.198002028140283
 20
-2.623449946928607
 30
0.0
 10
1.161593832170006
 20
-2.640171252539163
 30
0.0
 10
1.162103663668884
 20
-2.641223996206665
 30
0.0
 10
1.162788628125428
 20
-2.642276739874167
 30
0.0
 10
1.163236190128196
 20
-2.643376185663884
 30
0.0
 10
1.178157518118597
 20
-2.680916908093473
 30
0.0
 10
1.159601208296383
 20
-2.718091797234024
 30
0.0
 10
1.12177638129098
 20
-2.726062292728051
 30
0.0
 10
1.083978797190134
 20
-2.733968572804302
 30
0.0
 10
1.041670566469293
 20
-2.709786603198609
 30
0.0
 10
1.027181233107639
 20
-2.672261448142914
 30
0.0
 10
1.012867032703753
 20
-2.635181909168333
 30
0.0
 10
1.031388315934312
 20
-2.598470149404723
 30
0.0
 10
1.068738338032492
 20
-2.590468519162641
 30
0.0
 10
1.094946012181531
 20
-2.584809778709301
 30
0.0
 10
1.1234965761193
 20
-2.594979165782497
 30
0.0
 10
1.143453949602645
 20
-2.614490923184727
 30
0.0
 10
1.173584602002645
 20
-2.598279449073061
 30
0.0
 10
1.205785715146249
 20
-2.584074220287221
 30
0.0
 10
1.232771757995983
 20
-2.5749400635857
 30
0.0
 10
1.147727193768888
 20
-2.527899351165274
 30
0.0
 10
1.065710483787092
 20
-2.492047688815837
 30
0.0
 10
1.004912104583607
 20
-2.48442745923694
 30
0.0
 10
0.8504915380724974
 20
-2.464851486417084
 30
0.0
 10
0.81839939654694
 20
-2.594181337864446
 30
0.0
 10
0.8924962050001441
 20
-2.632951882841111
 30
0.0
 10
0.8850978105009643
 20
-2.692888218708756
 30
0.0
 10
0.7222942130844482
 20
-2.686958995131944
 30
0.0
 10
0.7258980601681944
 20
-2.563861931054437
 30
0.0
 10
0.6277613343970895
 20
-2.577236251252493
 30
0.0
 10
0.5243550525230553
 20
-2.410988372335825
 30
0.0
 10
0.6855318593552763
 20
-2.401153683803753
 30
0.0
  0
SPLINE
  5
49
330
1F
100
AcDbEntity
  8
Layer 1
370
     0
100
AcDbSpline
210
0.0
220
0.0
230
1.0
 70
    11
 71
     3
 72
    92
 73
    88
 74
     0
 42
0.0000000001
 43
0.0000000001
 12
1.0
 22
0.0
 32
0.0
 13
1.0
 23
0.0
 33
0.0
 40
0.0
 40
0.0
 40
0.0
 40
0.0
 40
1.0
 40
1.0
 40
1.0
 40
2.0
 40
2.0
 40
2.0
 40
3.0
 40
3.0
 40
3.0
 40
4.0
 40
4.0
 40
4.0
 40
5.0
 40
5.0
 40
5.0
 40
6.0
 40
6.0
 40
6.0
 40
7.0
 40
7.0
 40
7.0
 40
8.0
 40
8.0
 40
8.0
 40
9.0
 40
9.0
 40
9.0
 40
10.0
 40
10.0
 40
10.0
 40
11.0
 40
11.0
 40
11.0
 40
12.0
 40
12.0
 40
12.0
 40
13.0
 40
13.0
 40
13.0
 40
14.0
 40
14.0
 40
14.0
 40
15.0
 40
15.0
 40
15.0
 40
16.0
 40
16.0
 40
16.0
 40
17.0
 40
17.0
 40
17.0
 40
18.0
 40
18.0
 40
18.0
 40
19.0
 40
19.0
 40
19.0
 40
20.0
 40
20.0
 40
20.0
 40
21.0
 40
21.0
 40
21.0
 40
22.0
 40
22.0
 40
22.0
 40
23.0
 40
23.0
 40
23.0
 40
24.0
 40
24.0
 40
24.0
 40
25.0
 40
25.0
 40
25.0
 40
26.0
 40
26.0
 40
26.0
 40
27.0
 40
27.0
 40
27.0
 40
28.0
 40
28.0
 40
28.0
 40
29.0
 40
29.0
 40
29.0
 40
29.0
 10
2.321254224439043
 20
-5.134426510692492
 30
0.0
 10
2.237945422414314
 20
-5.660751642348057
 30
0.0
 10
1.868578339233762
 20
-5.394327711664724
 30
0.0
 10
1.778591133757901
 20
-5.319117835969715
 30
0.0
 10
1.604660755766392
 20
-5.455830514542362
 30
0.0
 10
1.365989561102778
 20
-5.256727692773463
 30
0.0
 10
1.347880813283458
 20
-5.242491329239581
 30
0.0
 10
1.14557500431167
 20
-4.948396391250147
 30
0.0
 10
1.264941736391519
 20
-4.581562898190137
 30
0.0
 10
1.264941736391519
 20
-4.581562898190137
 30
0.0
 10
0.8365276035838936
 20
-4.374201584507924
 30
0.0
 10
0.9713060359354131
 20
-3.981973812590973
 30
0.0
 10
1.324689317849182
 20
-3.946472416156805
 30
0.0
 10
1.480222951602223
 20
-3.931010121919447
 30
0.0
 10
1.961896962748041
 20
-3.954730908070133
 30
0.0
 10
1.838354282589585
 20
-3.836115301786385
 30
0.0
 10
1.717633188970821
 20
-3.720301822824859
 30
0.0
 10
1.416093154360144
 20
-3.835410878112359
 30
0.0
 10
1.262836249056388
 20
-3.898855710897919
 30
0.0
 10
1.201987275887354
 20
-3.924043722049166
 30
0.0
 10
1.137970342106958
 20
-3.94315656549222
 30
0.0
 10
1.072260456402647
 20
-3.949850536317361
 30
0.0
 10
1.041814564678892
 20
-3.952944551902217
 30
0.0
 10
1.012162609029727
 20
-3.955287441691111
 30
0.0
 10
0.9833279405161193
 20
-3.944160661115979
 30
0.0
 10
0.9585057626541634
 20
-3.934578942411665
 30
0.0
 10
0.9338626095933351
 20
-3.919852206596387
 30
0.0
 10
0.9322202516349938
 20
-3.891827041531529
 30
0.0
 10
0.930371625971121
 20
-3.85954419967431
 30
0.0
 10
0.9133292432715178
 20
-3.82385599475208
 30
0.0
 10
0.9035412568616721
 20
-3.793055945269442
 30
0.0
 10
0.8828677841737418
 20
-3.728128320109312
 30
0.0
 10
0.8612330261406794
 20
-3.663169560201115
 30
0.0
 10
0.8341341198294382
 20
-3.600584824829714
 30
0.0
 10
0.830884430504587
 20
-3.593061891338468
 30
0.0
 10
0.8274868511263977
 20
-3.585585659969309
 30
0.0
 10
0.8240425696262466
 20
-3.578140563348054
 30
0.0
 10
0.8196603538419569
 20
-3.568656140731251
 30
0.0
 10
0.797500196935971
 20
-3.526301207888473
 30
0.0
 10
0.7820573619161071
 20
-3.520673602183049
 30
0.0
 10
0.7743242688756911
 20
-3.51223997731222
 30
0.0
 10
0.7662409099201442
 20
-3.503806352441251
 30
0.0
 10
0.7583365757655479
 20
-3.495376619413744
 30
0.0
 10
0.7314439371599898
 20
-3.467254158261249
 30
0.0
 10
0.7059679295894562
 20
-3.440727352945007
 30
0.0
 10
0.691221734556671
 20
-3.411032587017214
 30
0.0
 10
0.6755687399877893
 20
-3.379578707826251
 30
0.0
 10
0.6676644058331931
 20
-3.346548632016392
 30
0.0
 10
0.659915745418756
 20
-3.314538219204451
 30
0.0
 10
0.6523577853359812
 20
-3.283088231856949
 30
0.0
 10
0.644469018555406
 20
-3.250567987545967
 30
0.0
 10
0.6291662899016551
 20
-3.221237108985835
 30
0.0
 10
0.6261695704044491
 20
-3.215434370322921
 30
0.0
 10
0.6228537197398509
 20
-3.209983843496944
 30
0.0
 10
0.6191681439425135
 20
-3.204706503706941
 30
0.0
 10
0.4961547545004173
 20
-2.64184474524542
 30
0.0
 10
1.770367668436115
 20
-3.061842766477917
 30
0.0
 10
2.114289878794176
 20
-3.703613597884024
 30
0.0
 10
2.17544241575653
 20
-3.81784698838347
 30
0.0
 10
1.862106203488338
 20
-3.551247924742496
 30
0.0
 10
1.739824480624722
 20
-3.484471673918468
 30
0.0
 10
1.619434193703607
 20
-3.418746220840136
 30
0.0
 10
1.350239270446258
 20
-3.337208207609301
 30
0.0
 10
1.333165752998765
 20
-3.429806840075558
 30
0.0
 10
1.303486554444993
 20
-3.590956404003337
 30
0.0
 10
1.617492163795709
 20
-3.675475569357495
 30
0.0
 10
1.742435907615269
 20
-3.71677970445459
 30
0.0
 10
2.003407365550831
 20
-3.803244791560271
 30
0.0
 10
2.219533110801674
 20
-3.844704600397499
 30
0.0
 10
2.114289878794176
 20
-3.960693212316666
 30
0.0
 10
2.008665246123327
 20
-4.077028198307643
 30
0.0
 10
1.624520833162074
 20
-3.936447027293196
 30
0.0
 10
1.719769811053892
 20
-4.213390610965007
 30
0.0
 10
1.781268722087917
 20
-4.392104064621662
 30
0.0
 10
1.985473750689178
 20
-4.271382971002772
 30
0.0
 10
1.976864992860556
 20
-4.309690386602647
 30
0.0
 10
1.968065534700271
 20
-4.347993910358885
 30
0.0
 10
1.84452285454179
 20
-4.517748340271813
 30
0.0
 10
1.92239475119292
 20
-4.643762341054727
 30
0.0
 10
2.001842844462645
 20
-4.772216527713883
 30
0.0
 10
2.147160389020276
 20
-4.748336175979577
 30
0.0
 10
2.212710709140967
 20
-4.40284555268987
 30
0.0
 10
2.263977963605687
 20
-4.133475496474855
 30
0.0
 10
2.572180834293476
 20
-4.03401943575625
 30
0.0
 10
2.460068498503208
 20
-4.177570083363611
 30
0.0
 10
2.206861268355977
 20
-4.501986374084721
 30
0.0
 10
2.382387302183765
 20
-4.747651211523058
 30
0.0
 10
2.321254224439043
 20
-5.134426510692492
 30
0.0
  0
SPLINE
  5
4A
330
1F
100
AcDbEntity
  8
Layer 1
370
     0
100
AcDbSpline
210
0.0
220
0.0
230
1.0
 70
    11
 71
     3
 72
    44
 73
    40
 74
     0
 42
0.0000000001
 43
0.0000000001
 12
1.0
 22
0.0
 32
0.0
 13
1.0
 23
0.0
 33
0.0
 40
0.0
 40
0.0
 40
0.0
 40
0.0
 40
1.0
 40
1.0
 40
1.0
 40
2.0
 40
2.0
 40
2.0
 40
3.0
 40
3.0
 40
3.0
 40
4.0
 40
4.0
 40
4.0
 40
5.0
 40
5.0
 40
5.0
 40
6.0
 40
6.0
 40
6.0
 40
7.0
 40
7.0
 40
7.0
 40
8.0
 40
8.0
 40
8.0
 40
9.0
 40
9.0
 40
9.0
 40
10.0
 40
10.0
 40
10.0
 40
11.0
 40
11.0
 40
11.0
 40
12.0
 40
12.0
 40
12.0
 40
13.0
 40
13.0
 40
13.0
 40
13.0
 10
2.864921410743894
 20
-5.619303509041388
 30
0.0
 10
2.490833521394153
 20
-5.416487868570685
 30
0.0
 10
2.425987624947639
 20
-4.724374095531807
 30
0.0
 10
2.437526940933897
 20
-4.609455740575968
 30
0.0
 10
2.471385979409863
 20
-4.271285674915285
 30
0.0
 10
2.705398637400271
 20
-4.070092933185416
 30
0.0
 10
2.677661468754574
 20
-4.210724698165424
 30
0.0
 10
2.641907102492774
 20
-4.392964162035835
 30
0.0
 10
2.669294005223188
 20
-4.76194984455305
 30
0.0
 10
2.905174748095154
 20
-4.864052358853617
 30
0.0
 10
3.147605463582497
 20
-4.968925865728326
 30
0.0
 10
3.0458999173193
 20
-4.630148672481255
 30
0.0
 10
3.044304261483047
 20
-4.559165338830414
 30
0.0
 10
3.042517905315132
 20
-4.490345870167352
 30
0.0
 10
3.243200815546263
 20
-5.032102161312221
 30
0.0
 10
3.552808641738466
 20
-5.028673447186116
 30
0.0
 10
3.838357091395412
 20
-5.025392623113046
 30
0.0
 10
3.553061611566237
 20
-4.667946256582227
 30
0.0
 10
3.248061728081388
 20
-4.463978630434591
 30
0.0
 10
3.13907454262403
 20
-4.391146671119865
 30
0.0
 10
3.562324199103336
 20
-4.593164483672505
 30
0.0
 10
3.540611604200143
 20
-4.47875985205888
 30
0.0
 10
3.522183725213608
 20
-4.382666344126948
 30
0.0
 10
3.315939370616813
 20
-4.253429896923611
 30
0.0
 10
2.896215724351249
 20
-4.119717829691808
 30
0.0
 10
2.707550826857489
 20
-4.059639441536395
 30
0.0
 10
3.402054191807211
 20
-4.049785293786802
 30
0.0
 10
3.821509300870982
 20
-4.218983190078752
 30
0.0
 10
4.262085444625553
 20
-4.396564117276108
 30
0.0
 10
4.646965416008899
 20
-4.871719290554589
 30
0.0
 10
4.387651883405548
 20
-4.969007594441942
 30
0.0
 10
4.686323629354572
 20
-5.419753125269722
 30
0.0
 10
4.564357145814736
 20
-5.701577080694303
 30
0.0
 10
4.321782432117642
 20
-5.754420531777643
 30
0.0
 10
4.023017281924593
 20
-5.819569992017502
 30
0.0
 10
3.681928333636809
 20
-5.623849182252772
 30
0.0
 10
3.531765443917922
 20
-5.529985700648063
 30
0.0
 10
3.531765443917922
 20
-5.529985700648063
 30
0.0
 10
3.317231462659846
 20
-5.864493541572352
 30
0.0
 10
2.864921410743894
 20
-5.619303509041388
 30
0.0
  0
SPLINE
  5
4B
330
1F
100
AcDbEntity
  8
Layer 1
370
     0
100
AcDbSpline
210
0.0
220
0.0
230
1.0
 70
    11
 71
     3
 72
   182
 73
   178
 74
     0
 42
0.0000000001
 43
0.0000000001
 12
1.0
 22
0.0
 32
0.0
 13
1.0
 23
0.0
 33
0.0
 40
0.0
 40
0.0
 40
0.0
 40
0.0
 40
1.0
 40
1.0
 40
1.0
 40
2.0
 40
2.0
 40
2.0
 40
3.0
 40
3.0
 40
3.0
 40
4.0
 40
4.0
 40
4.0
 40
5.0
 40
5.0
 40
5.0
 40
6.0
 40
6.0
 40
6.0
 40
7.0
 40
7.0
 40
7.0
 40
8.0
 40
8.0
 40
8.0
 40
9.0
 40
9.0
 40
9.0
 40
10.0
 40
10.0
 40
10.0
 40
11.0
 40
11.0
 40
11.0
 40
12.0
 40
12.0
 40
12.0
 40
13.0
 40
13.0
 40
13.0
 40
14.0
 40
14.0
 40
14.0
 40
15.0
 40
15.0
 40
15.0
 40
16.0
 40
16.0
 40
16.0
 40
17.0
 40
17.0
 40
17.0
 40
18.0
 40
18.0
 40
18.0
 40
19.0
 40
19.0
 40
19.0
 40
20.0
 40
20.0
 40
20.0
 40
21.0
 40
21.0
 40
21.0
 40
22.0
 40
22.0
 40
22.0
 40
23.0
 40
23.0
 40
23.0
 40
24.0
 40
24.0
 40
24.0
 40
25.0
 40
25.0
 40
25.0
 40
26.0
 40
26.0
 40
26.0
 40
27.0
 40
27.0
 40
27.0
 40
28.0
 40
28.0
 40
28.0
 40
29.0
 40
29.0
 40
29.0
 40
30.0
 40
30.0
 40
30.0
 40
31.0
 40
31.0
 40
31.0
 40
32.0
 40
32.0
 40
32.0
 40
33.0
 40
33.0
 40
33.0
 40
34.0
 40
34.0
 40
34.0
 40
35.0
 40
35.0
 40
35.0
 40
36.0
 40
36.0
 40
36.0
 40
37.0
 40
37.0
 40
37.0
 40
38.0
 40
38.0
 40
38.0
 40
39.0
 40
39.0
 40
39.0
 40
40.0
 40
40.0
 40
40.0
 40
41.0
 40
41.0
 40
41.0
 40
42.0
 40
42.0
 40
42.0
 40
43.0
 40
43.0
 40
43.0
 40
44.0
 40
44.0
 40
44.0
 40
45.0
 40
45.0
 40
45.0
 40
46.0
 40
46.0
 40
46.0
 40
47.0
 40
47.0
 40
47.0
 40
48.0
 40
48.0
 40
48.0
 40
49.0
 40
49.0
 40
49.0
 40
50.0
 40
50.0
 40
50.0
 40
51.0
 40
51.0
 40
51.0
 40
52.0
 40
52.0
 40
52.0
 40
53.0
 40
53.0
 40
53.0
 40
54.0
 40
54.0
 40
54.0
 40
55.0
 40
55.0
 40
55.0
 40
56.0
 40
56.0
 40
56.0
 40
57.0
 40
57.0
 40
57.0
 40
58.0
 40
58.0
 40
58.0
 40
59.0
 40
59.0
 40
59.0
 40
59.0
 10
5.290166499902372
 20
-6.993673015526105
 30
0.0
 10
5.249757488810979
 20
-6.970271360542634
 30
0.0
 10
5.290166499902372
 20
-6.993673015526105
 30
0.0
 10
4.972989038096809
 20
-7.115273665776536
 30
0.0
 10
4.655620875959585
 20
-7.236870424183608
 30
0.0
 10
4.399401358941102
 20
-7.084154485126797
 30
0.0
 10
4.353189609186655
 20
-6.98415745816126
 30
0.0
 10
4.307133533172494
 20
-6.88419156594389
 30
0.0
 10
4.245984888053751
 20
-6.870480601282907
 30
0.0
 10
4.166552362157922
 20
-6.924616144409305
 30
0.0
 10
4.08695637883501
 20
-6.978736120161657
 30
0.0
 10
4.123508573014988
 20
-7.06063996668182
 30
0.0
 10
4.196247128085689
 20
-7.116865429769303
 30
0.0
 10
4.284642569568758
 20
-7.185396902013204
 30
0.0
 10
4.679166529152503
 20
-7.17501735539084
 30
0.0
 10
4.876498562127507
 20
-7.338618780725432
 30
0.0
 10
5.073671029518764
 20
-7.502064532319991
 30
0.0
 10
4.834844161115143
 20
-7.900620441772793
 30
0.0
 10
4.834844161115143
 20
-7.900620441772793
 30
0.0
 10
4.84189228969904
 20
-7.734929096477091
 30
0.0
 10
4.110502032028054
 20
-7.994129765618886
 30
0.0
 10
3.993287489405424
 20
-7.493105508576112
 30
0.0
 10
3.957085561140704
 20
-7.337778142528754
 30
0.0
 10
3.891710373977781
 20
-7.293477287934441
 30
0.0
 10
3.833017482109299
 20
-7.301031356173755
 30
0.0
 10
3.728284081600703
 20
-7.314742320834713
 30
0.0
 10
3.699624546044864
 20
-7.589564849797372
 30
0.0
 10
3.804898912800278
 20
-7.678851523442644
 30
0.0
 10
3.923514519084013
 20
-7.779549082238746
 30
0.0
 10
4.300455129721387
 20
-7.828566851158737
 30
0.0
 10
4.37988765561709
 20
-7.973724830132773
 30
0.0
 10
4.459483638940001
 20
-8.118707676149167
 30
0.0
 10
4.404133840640699
 20
-8.27053238304375
 30
0.0
 10
4.366355715757233
 20
-8.430802390339876
 30
0.0
 10
4.018588364018342
 20
-8.400033475605293
 30
0.0
 10
3.762368846999733
 20
-8.572084093184861
 30
0.0
 10
3.590859195667083
 20
-8.046128686662087
 30
0.0
 10
3.569594162766811
 20
-7.981123224631952
 30
0.0
 10
3.43584706894348
 20
-7.985680573373884
 30
0.0
 10
3.442879630153483
 20
-8.144868648176118
 30
0.0
 10
3.455711038182774
 20
-8.435729464214596
 30
0.0
 10
3.76129859003653
 20
-8.559941541455702
 30
0.0
 10
3.721765243733191
 20
-8.8581812927757
 30
0.0
 10
3.694713039544038
 20
-9.061491197371247
 30
0.0
 10
3.783618312525959
 20
-9.389764305003887
 30
0.0
 10
3.729673469731248
 20
-9.480086209020959
 30
0.0
 10
3.629867143097499
 20
-9.485713814726244
 30
0.0
 10
3.036606195034159
 20
-9.254616147519451
 30
0.0
 10
2.939605887565979
 20
-9.071516586234868
 30
0.0
 10
2.798670558792638
 20
-8.805477948058472
 30
0.0
 10
3.16840736710598
 20
-8.42184336659597
 30
0.0
 10
3.109535450436397
 20
-8.303737591811114
 30
0.0
 10
3.096178643534308
 20
-8.276685387621935
 30
0.0
 10
3.042743632238348
 20
-8.231859134154723
 30
0.0
 10
2.928000410240151
 20
-8.486323429753332
 30
0.0
 10
2.761752531323459
 20
-8.854655282562083
 30
0.0
 10
2.498325320137509
 20
-8.813020340767228
 30
0.0
 10
2.498325320137509
 20
-8.813020340767228
 30
0.0
 10
2.337720614300148
 20
-8.296004498770698
 30
0.0
 10
2.853125233086252
 20
-8.151037220128323
 30
0.0
 10
3.105838199108601
 20
-7.908353534813209
 30
0.0
 10
3.358535597756953
 20
-7.665650390280562
 30
0.0
 10
3.180172410015428
 20
-7.612246513732771
 30
0.0
 10
2.961205619007513
 20
-7.807986782715008
 30
0.0
 10
2.742238827999447
 20
-8.003614188235563
 30
0.0
 10
2.432424734101535
 20
-7.930669365459304
 30
0.0
 10
2.263900126735557
 20
-7.839997195526949
 30
0.0
 10
2.463178081462097
 20
-6.994883378855548
 30
0.0
 10
3.22654372535347
 20
-7.221598830277925
 30
0.0
 10
3.381010993986516
 20
-7.211589008788324
 30
0.0
 10
3.535478262619714
 20
-7.201400162497495
 30
0.0
 10
3.634949890712353
 20
-7.106840040905707
 30
0.0
 10
3.58556628850306
 20
-7.04376104140945
 30
0.0
 10
3.504553674145124
 20
-6.940257463447779
 30
0.0
 10
2.996337290308879
 20
-7.171176105853343
 30
0.0
 10
2.697253008948615
 20
-7.11351844435679
 30
0.0
 10
2.571083334425566
 20
-7.089256691959159
 30
0.0
 10
2.313984260775416
 20
-6.836734426268625
 30
0.0
 10
2.263900126735557
 20
-6.650992303245403
 30
0.0
 10
2.757525989279151
 20
-6.267388856531119
 30
0.0
 10
3.152913938120542
 20
-6.463156368417786
 30
0.0
 10
3.586617086248882
 20
-6.639052127378338
 30
0.0
 10
3.763053811456252
 20
-6.710755452077213
 30
0.0
 10
3.759527801242636
 20
-6.705112278997906
 30
0.0
 10
3.91839674487763
 20
-6.688785995502914
 30
0.0
 10
4.077074988180962
 20
-6.672432469103342
 30
0.0
 10
4.042449256534988
 20
-6.507776354179441
 30
0.0
 10
3.921903295873765
 20
-6.523238648416812
 30
0.0
 10
3.368004452999584
 20
-6.59369658319459
 30
0.0
 10
3.321613678444161
 20
-6.373153595567904
 30
0.0
 10
3.321613678444161
 20
-6.373153595567904
 30
0.0
 10
3.207750013077505
 20
-6.296192390296532
 30
0.0
 10
3.259223535247909
 20
-5.985327498652774
 30
0.0
 10
3.295090764971393
 20
-5.907646302333331
 30
0.0
 10
3.342528445429151
 20
-5.909572764867359
 30
0.0
 10
3.716487903943188
 20
-5.863185882155423
 30
0.0
 10
3.716487903943188
 20
-5.863185882155423
 30
0.0
 10
4.021884755465281
 20
-5.846143499455833
 30
0.0
 10
4.103597901653757
 20
-5.905715947955969
 30
0.0
 10
4.181808388689584
 20
-6.004471476843896
 30
0.0
 10
4.236469330688881
 20
-6.073543915334867
 30
0.0
 10
4.25035153646402
 20
-6.144017417486666
 30
0.0
 10
4.241727211261402
 20
-6.242056847170134
 30
0.0
 10
4.223108631943179
 20
-6.457147362049151
 30
0.0
 10
4.388815544612902
 20
-6.437477984985131
 30
0.0
 10
4.374423507338886
 20
-6.465421421336536
 30
0.0
 10
4.359836877889848
 20
-6.493524423271538
 30
0.0
 10
4.240341714974445
 20
-6.469278238247928
 30
0.0
 10
4.143516540463881
 20
-6.348732277586805
 30
0.0
 10
3.953022476523604
 20
-6.111497173175849
 30
0.0
 10
3.635650422542918
 20
-6.089006209572087
 30
0.0
 10
3.604535133736539
 20
-6.120471764293598
 30
0.0
 10
3.536003661492638
 20
-6.19007349350098
 30
0.0
 10
3.749697004554037
 20
-6.398820303470124
 30
0.0
 10
4.091486484672512
 20
-6.463491066959023
 30
0.0
 10
4.332399381193757
 20
-6.509196877058052
 30
0.0
 10
4.205015451497931
 20
-6.650828845818321
 30
0.0
 10
4.08287772684389
 20
-6.730440396515278
 30
0.0
 10
3.960560977388897
 20
-6.81022318832624
 30
0.0
 10
3.720344720854579
 20
-6.856454397298067
 30
0.0
 10
3.416337257463056
 20
-6.775251082608469
 30
0.0
 10
3.112325902228046
 20
-6.694238468250559
 30
0.0
 10
2.830264544349852
 20
-6.814799996285829
 30
0.0
 10
2.807598447788476
 20
-6.889134207192632
 30
0.0
 10
2.782472706133325
 20
-6.971882583752908
 30
0.0
 10
3.255713092408187
 20
-7.00739954756111
 30
0.0
 10
3.399279307389583
 20
-6.962763994425408
 30
0.0
 10
3.830005195238047
 20
-6.829036359819737
 30
0.0
 10
3.896256047189177
 20
-6.959066743097638
 30
0.0
 10
3.832636081445975
 20
-7.031311034043331
 30
0.0
 10
3.477310769624308
 20
-7.434428184081652
 30
0.0
 10
3.165391188391115
 20
-7.388722373982773
 30
0.0
 10
2.994745526316112
 20
-7.436195081032085
 30
0.0
 10
2.824130998989176
 20
-7.483445953001667
 30
0.0
 10
2.616228719060144
 20
-7.724728574655829
 30
0.0
 10
2.646624016818325
 20
-7.751605645887366
 30
0.0
 10
2.676863640836523
 20
-7.778513851866945
 30
0.0
 10
2.898811583967775
 20
-7.674624981398463
 30
0.0
 10
2.898811583967775
 20
-7.674624981398463
 30
0.0
 10
3.004786482553754
 20
-7.631935350014297
 30
0.0
 10
3.433570340494295
 20
-7.274504550857373
 30
0.0
 10
3.494368719697781
 20
-7.453922428188181
 30
0.0
 10
3.555167098901241
 20
-7.633161280717786
 30
0.0
 10
3.243792375758605
 20
-7.920145820627213
 30
0.0
 10
3.131664472594315
 20
-8.015013397855833
 30
0.0
 10
3.019563812334582
 20
-8.109908217988883
 30
0.0
 10
2.716241313399577
 20
-8.350665440769994
 30
0.0
 10
2.787590480339734
 20
-8.397931880113749
 30
0.0
 10
2.8589435391232
 20
-8.445209994987913
 30
0.0
 10
3.098295806399872
 20
-8.15067138683902
 30
0.0
 10
3.14486171391291
 20
-8.103580080453058
 30
0.0
 10
3.191264163998893
 20
-8.05631364110943
 30
0.0
 10
3.28053527027027
 20
-7.996028985248333
 30
0.0
 10
3.258744838497073
 20
-8.088468052130969
 30
0.0
 10
3.094438989488329
 20
-8.788579563568469
 30
0.0
 10
3.281936333931248
 20
-8.970819027438893
 30
0.0
 10
3.303364824258753
 20
-8.957983727566114
 30
0.0
 10
3.324629857158874
 20
-8.945167886910843
 30
0.0
 10
3.10215651515485
 20
-8.708621638799867
 30
0.0
 10
3.437442724779733
 20
-7.832454802818195
 30
0.0
 10
3.745661162841518
 20
-7.026878224293467
 30
0.0
 10
4.43909427082791
 20
-6.568049334510002
 30
0.0
 10
4.625381251941386
 20
-6.449974694473187
 30
0.0
 10
4.71026625058486
 20
-6.395839151346813
 30
0.0
 10
4.775991703663041
 20
-6.479657784870419
 30
0.0
 10
4.720626337989718
 20
-6.505495733886669
 30
0.0
 10
4.698660773259032
 20
-6.515859713135139
 30
0.0
 10
4.640508847637496
 20
-6.562756427345978
 30
0.0
 10
4.71026625058486
 20
-6.600904277362234
 30
0.0
 10
4.779864087948605
 20
-6.63903266816083
 30
0.0
 10
4.940663385961114
 20
-6.466297086124718
 30
0.0
 10
5.115679588289873
 20
-6.501607782227236
 30
0.0
 10
5.115679588289873
 20
-6.501607782227236
 30
0.0
 10
5.115679588289873
 20
-6.501607782227236
 30
0.0
 10
5.115679588289873
 20
-6.501607782227236
 30
0.0
 10
5.5042256762532
 20
-6.579989510377218
 30
0.0
 10
5.342184880163182
 20
-6.878914226153736
 30
0.0
 10
5.290166499902372
 20
-6.993673015526105
 30
0.0
  0
SPLINE
  5
4C
330
1F
100
AcDbEntity
  8
Layer 1
370
     0
100
AcDbSpline
210
0.0
220
0.0
230
1.0
 70
    11
 71
     3
 72
    74
 73
    70
 74
     0
 42
0.0000000001
 43
0.0000000001
 12
1.0
 22
0.0
 32
0.0
 13
1.0
 23
0.0
 33
0.0
 40
0.0
 40
0.0
 40
0.0
 40
0.0
 40
1.0
 40
1.0
 40
1.0
 40
2.0
 40
2.0
 40
2.0
 40
3.0
 40
3.0
 40
3.0
 40
4.0
 40
4.0
 40
4.0
 40
5.0
 40
5.0
 40
5.0
 40
6.0
 40
6.0
 40
6.0
 40
7.0
 40
7.0
 40
7.0
 40
8.0
 40
8.0
 40
8.0
 40
9.0
 40
9.0
 40
9.0
 40
10.0
 40
10.0
 40
10.0
 40
11.0
 40
11.0
 40
11.0
 40
12.0
 40
12.0
 40
12.0
 40
13.0
 40
13.0
 40
13.0
 40
14.0
 40
14.0
 40
14.0
 40
15.0
 40
15.0
 40
15.0
 40
16.0
 40
16.0
 40
16.0
 40
17.0
 40
17.0
 40
17.0
 40
18.0
 40
18.0
 40
18.0
 40
19.0
 40
19.0
 40
19.0
 40
20.0
 40
20.0
 40
20.0
 40
21.0
 40
21.0
 40
21.0
 40
22.0
 40
22.0
 40
22.0
 40
23.0
 40
23.0
 40
23.0
 40
23.0
 10
5.907307799699993
 20
-5.930074996441109
 30
0.0
 10
5.903738979207648
 20
-5.949888371714729
 30
0.0
 10
5.864618168315827
 20
-5.955753379873752
 30
0.0
 10
5.849774677195405
 20
-5.958528264291241
 30
0.0
 10
5.810070089778062
 20
-5.965942226164442
 30
0.0
 10
5.769610484721119
 20
-5.963311339956527
 30
0.0
 10
5.729485578205413
 20
-5.963007776163193
 30
0.0
 10
5.697763161812645
 20
-5.962766481866108
 30
0.0
 10
5.668095638789459
 20
-5.954815445589449
 30
0.0
 10
5.636073550446932
 20
-5.954239452750977
 30
0.0
 10
5.554901370505427
 20
-5.952787795124449
 30
0.0
 10
5.473822594807921
 20
-5.948565144923754
 30
0.0
 10
5.392669874083746
 20
-5.946973380930975
 30
0.0
 10
5.29675149910943
 20
-5.945105296049582
 30
0.0
 10
5.199704489519162
 20
-5.940579082055554
 30
0.0
 10
5.104439944253348
 20
-5.955784514621667
 30
0.0
 10
5.023921594020268
 20
-5.9686509492425
 30
0.0
 10
4.941363917791679
 20
-5.995049323723202
 30
0.0
 10
4.879833872009587
 20
-6.050683226598342
 30
0.0
 10
4.783643067989993
 20
-6.137627010454858
 30
0.0
 10
5.143432324309591
 20
-6.075520971834319
 30
0.0
 10
5.277175526289435
 20
-6.061222338804302
 30
0.0
 10
5.439407022711117
 20
-6.043989255773188
 30
0.0
 10
5.678603616247503
 20
-6.035076934151397
 30
0.0
 10
5.74667195911459
 20
-6.140047737113617
 30
0.0
 10
5.814674140642081
 20
-6.245018540075963
 30
0.0
 10
5.490277309138466
 20
-6.401307191468478
 30
0.0
 10
5.24987035227251
 20
-6.383260713145141
 30
0.0
 10
4.865581941101659
 20
-6.354309289326515
 30
0.0
 10
4.788488413151097
 20
-6.197993395029445
 30
0.0
 10
4.54943970966777
 20
-6.20679285318973
 30
0.0
 10
4.572568935605987
 20
-6.075217408041125
 30
0.0
 10
4.80757012184626
 20
-5.825804725309303
 30
0.0
 10
5.192434525855687
 20
-5.800714010245555
 30
0.0
 10
5.209971172679994
 20
-5.799565916412221
 30
0.0
 10
5.226484264663187
 20
-5.799087219661386
 30
0.0
 10
5.242506984365011
 20
-5.798865384581669
 30
0.0
 10
5.173434545874039
 20
-5.752186613606947
 30
0.0
 10
5.107008560965268
 20
-5.693766150783757
 30
0.0
 10
5.047930376590153
 20
-5.621187161296803
 30
0.0
 10
4.634242979597628
 20
-5.112733375006806
 30
0.0
 10
4.82129665388124
 20
-4.929489815512637
 30
0.0
 10
4.840888194075281
 20
-4.942227819297917
 30
0.0
 10
4.860573138513346
 20
-4.955090362075276
 30
0.0
 10
4.909528637937228
 20
-4.974187638144447
 30
0.0
 10
5.131873549105825
 20
-5.010502429870686
 30
0.0
 10
5.55837678675362
 20
-5.079956269024857
 30
0.0
 10
5.785423044873747
 20
-5.389739228174727
 30
0.0
 10
5.792564577701669
 20
-5.425478027062632
 30
0.0
 10
5.799067848195136
 20
-5.457566276744577
 30
0.0
 10
5.735494584574022
 20
-5.49343350646806
 30
0.0
 10
5.733104992663205
 20
-5.580027024409307
 30
0.0
 10
5.728960179332514
 20
-5.730045915918607
 30
0.0
 10
5.9009485274161
 20
-5.836880911918747
 30
0.0
 10
5.825676382225007
 20
-5.808602777026104
 30
0.0
 10
5.484299437517923
 20
-5.680358749916119
 30
0.0
 10
5.361535126060011
 20
-5.460166028204589
 30
0.0
 10
5.247986700017084
 20
-5.321079325095272
 30
0.0
 10
5.183300369154166
 20
-5.241821932157083
 30
0.0
 10
4.949591274956952
 20
-5.052970226175148
 30
0.0
 10
5.089359050679301
 20
-5.3328288006307
 30
0.0
 10
5.225686436744986
 20
-5.605736542589991
 30
0.0
 10
5.654579266303598
 20
-5.81880719069098
 30
0.0
 10
5.861714853062646
 20
-5.893297075337917
 30
0.0
 10
5.861714853062646
 20
-5.893297075337917
 30
0.0
 10
5.861714853062646
 20
-5.893297075337917
 30
0.0
 10
5.861714853062646
 20
-5.893297075337917
 30
0.0
 10
5.8752039826439
 20
-5.898142420499172
 30
0.0
 10
5.910958348905701
 20
-5.909779032573056
 30
0.0
 10
5.907307799699993
 20
-5.930074996441109
 30
0.0
  0
SPLINE
  5
4D
330
1F
100
AcDbEntity
  8
Layer 1
370
     0
100
AcDbSpline
210
0.0
220
0.0
230
1.0
 70
    11
 71
     3
 72
    29
 73
    25
 74
     0
 42
0.0000000001
 43
0.0000000001
 12
1.0
 22
0.0
 32
0.0
 13
1.0
 23
0.0
 33
0.0
 40
0.0
 40
0.0
 40
0.0
 40
0.0
 40
1.0
 40
1.0
 40
1.0
 40
2.0
 40
2.0
 40
2.0
 40
3.0
 40
3.0
 40
3.0
 40
4.0
 40
4.0
 40
4.0
 40
5.0
 40
5.0
 40
5.0
 40
6.0
 40
6.0
 40
6.0
 40
7.0
 40
7.0
 40
7.0
 40
8.0
 40
8.0
 40
8.0
 40
8.0
 10
9.930606100676817
 20
-2.247881211126115
 30
0.0
 10
9.954517587159165
 20
-2.278805799600693
 30
0.0
 10
9.973486432392646
 20
-2.322036397231803
 30
0.0
 10
9.987388097385265
 20
-2.377927161778062
 30
0.0
 10
10.10264115088236
 20
-2.839052239228193
 30
0.0
 10
9.22961503260765
 20
-3.647929101043474
 30
0.0
 10
9.460012167983878
 20
-3.269585480823328
 30
0.0
 10
9.626598637285294
 20
-2.995990828485838
 30
0.0
 10
9.546457795871952
 20
-2.582307323336813
 30
0.0
 10
9.449286247289718
 20
-2.593910854740973
 30
0.0
 10
9.352807446850823
 20
-2.605516332066802
 30
0.0
 10
9.22802716045847
 20
-2.659459228939858
 30
0.0
 10
9.254227050920411
 20
-2.958561023595836
 30
0.0
 10
9.281135256900143
 20
-3.267306806452363
 30
0.0
 10
9.296741549346935
 20
-3.444268930532644
 30
0.0
 10
9.267568290448757
 20
-3.488024927036665
 30
0.0
 10
9.213977605412639
 20
-3.569212674352229
 30
0.0
 10
9.262314301719572
 20
-3.309311473379997
 30
0.0
 10
9.017525129069428
 20
-2.999322246524305
 30
0.0
 10
8.972348609686806
 20
-2.942030418316941
 30
0.0
 10
8.852168482314987
 20
-2.902847337929024
 30
0.0
 10
8.791191078310273
 20
-2.800744823628469
 30
0.0
 10
8.74826404447251
 20
-2.60462315398292
 30
0.0
 10
9.653281116341683
 20
-2.086221815699446
 30
0.0
 10
9.930606100676817
 20
-2.247881211126115
 30
0.0
  0
SPLINE
  5
4E
330
1F
100
AcDbEntity
  8
Layer 1
370
     0
100
AcDbSpline
210
0.0
220
0.0
230
1.0
 70
    11
 71
     3
 72
    38
 73
    34
 74
     0
 42
0.0000000001
 43
0.0000000001
 12
1.0
 22
0.0
 32
0.0
 13
1.0
 23
0.0
 33
0.0
 40
0.0
 40
0.0
 40
0.0
 40
0.0
 40
1.0
 40
1.0
 40
1.0
 40
2.0
 40
2.0
 40
2.0
 40
3.0
 40
3.0
 40
3.0
 40
4.0
 40
4.0
 40
4.0
 40
5.0
 40
5.0
 40
5.0
 40
6.0
 40
6.0
 40
6.0
 40
7.0
 40
7.0
 40
7.0
 40
8.0
 40
8.0
 40
8.0
 40
9.0
 40
9.0
 40
9.0
 40
10.0
 40
10.0
 40
10.0
 40
11.0
 40
11.0
 40
11.0
 40
11.0
 10
7.361012535992914
 20
-3.890406518652917
 30
0.0
 10
7.357696685328341
 20
-3.889705986822365
 30
0.0
 10
7.354174566958186
 20
-3.888989887617779
 30
0.0
 10
7.350827581545546
 20
-3.887939089872083
 30
0.0
 10
7.752029944580423
 20
-3.529457492969312
 30
0.0
 10
7.953012526761237
 20
-3.13177724830459
 30
0.0
 10
8.512418328192073
 20
-2.978185644459725
 30
0.0
 10
9.128917473811674
 20
-2.987144668203478
 30
0.0
 10
9.247665402774448
 20
-4.034498132507085
 30
0.0
 10
9.12799121505792
 20
-3.690062198806673
 30
0.0
 10
9.032391971250844
 20
-3.415224102469993
 30
0.0
 10
8.665289940989016
 20
-3.331214768614725
 30
0.0
 10
8.60570581695846
 20
-3.385000045825829
 30
0.0
 10
8.536135222499171
 20
-3.44772488756333
 30
0.0
 10
8.642078986337209
 20
-3.536470594961669
 30
0.0
 10
8.60835227054041
 20
-3.579175793719868
 30
0.0
 10
8.578844313100843
 20
-3.61642851973041
 30
0.0
 10
8.182911506169022
 20
-3.52135856663958
 30
0.0
 10
8.136863213841808
 20
-3.732066865734307
 30
0.0
 10
8.077644923100554
 20
-4.002507178912639
 30
0.0
 10
8.707119474959022
 20
-3.686380514852923
 30
0.0
 10
9.041350994994596
 20
-3.945581183994591
 30
0.0
 10
9.103908487461517
 20
-3.993898421084029
 30
0.0
 10
8.787236965311244
 20
-3.919930043466529
 30
0.0
 10
8.31084418579889
 20
-4.064196790278325
 30
0.0
 10
7.862916349667203
 20
-4.199839211887643
 30
0.0
 10
7.530961558080839
 20
-4.426200505551252
 30
0.0
 10
7.302144511166817
 20
-4.267156428958616
 30
0.0
 10
7.302144511166817
 20
-4.267156428958616
 30
0.0
 10
7.302144511166817
 20
-4.267156428958616
 30
0.0
 10
7.302144511166817
 20
-4.267156428958616
 30
0.0
 10
7.087404262203058
 20
-4.117616234200138
 30
0.0
 10
7.338521572389153
 20
-3.914462003344852
 30
0.0
 10
7.361012535992914
 20
-3.890406518652917
 30
0.0
  0
SPLINE
  5
4F
330
1F
100
AcDbEntity
  8
Layer 1
370
     0
100
AcDbSpline
210
0.0
220
0.0
230
1.0
 70
    11
 71
     3
 72
    74
 73
    70
 74
     0
 42
0.0000000001
 43
0.0000000001
 12
1.0
 22
0.0
 32
0.0
 13
1.0
 23
0.0
 33
0.0
 40
0.0
 40
0.0
 40
0.0
 40
0.0
 40
1.0
 40
1.0
 40
1.0
 40
2.0
 40
2.0
 40
2.0
 40
3.0
 40
3.0
 40
3.0
 40
4.0
 40
4.0
 40
4.0
 40
5.0
 40
5.0
 40
5.0
 40
6.0
 40
6.0
 40
6.0
 40
7.0
 40
7.0
 40
7.0
 40
8.0
 40
8.0
 40
8.0
 40
9.0
 40
9.0
 40
9.0
 40
10.0
 40
10.0
 40
10.0
 40
11.0
 40
11.0
 40
11.0
 40
12.0
 40
12.0
 40
12.0
 40
13.0
 40
13.0
 40
13.0
 40
14.0
 40
14.0
 40
14.0
 40
15.0
 40
15.0
 40
15.0
 40
16.0
 40
16.0
 40
16.0
 40
17.0
 40
17.0
 40
17.0
 40
18.0
 40
18.0
 40
18.0
 40
19.0
 40
19.0
 40
19.0
 40
20.0
 40
20.0
 40
20.0
 40
21.0
 40
21.0
 40
21.0
 40
22.0
 40
22.0
 40
22.0
 40
23.0
 40
23.0
 40
23.0
 40
23.0
 10
6.174782528129021
 20
-6.140047737113617
 30
0.0
 10
6.242850870996108
 20
-6.035076934151397
 30
0.0
 10
6.482059140063054
 20
-6.043989255773188
 30
0.0
 10
6.644275069110689
 20
-6.061222338804302
 30
0.0
 10
6.778018271090407
 20
-6.075520971834319
 30
0.0
 10
7.137807527410132
 20
-6.137627010454858
 30
0.0
 10
7.041620615234024
 20
-6.050683226598342
 30
0.0
 10
6.980090569451932
 20
-5.995049323723202
 30
0.0
 10
6.897529001379856
 20
-5.9686509492425
 30
0.0
 10
6.817010651146802
 20
-5.955784514621667
 30
0.0
 10
6.721749997724449
 20
-5.940579082055554
 30
0.0
 10
6.624699096290694
 20
-5.945105296049582
 30
0.0
 10
6.528784613159864
 20
-5.946973380930975
 30
0.0
 10
6.447628000592228
 20
-5.948565144923754
 30
0.0
 10
6.366549224894722
 20
-5.952787795124449
 30
0.0
 10
6.285380936796678
 20
-5.954239452750977
 30
0.0
 10
6.253354956610565
 20
-5.954815445589449
 30
0.0
 10
6.223687433587505
 20
-5.962766481866108
 30
0.0
 10
6.191980584568758
 20
-5.963007776163193
 30
0.0
 10
6.151844002522491
 20
-5.963311339956527
 30
0.0
 10
6.111384397465549
 20
-5.965942226164442
 30
0.0
 10
6.071675918204719
 20
-5.958528264291241
 30
0.0
 10
6.056832427084297
 20
-5.955753379873752
 30
0.0
 10
6.017715508035836
 20
-5.949888371714729
 30
0.0
 10
6.014158363074178
 20
-5.930074996441109
 30
0.0
 10
6.010461111746381
 20
-5.909779032573056
 30
0.0
 10
6.046199910634161
 20
-5.898142420499172
 30
0.0
 10
6.059700715745976
 20
-5.893297075337917
 30
0.0
 10
6.059700715745976
 20
-5.893297075337917
 30
0.0
 10
6.059704607589588
 20
-5.893297075337917
 30
0.0
 10
6.059704607589588
 20
-5.893297075337917
 30
0.0
 10
6.266840194348484
 20
-5.81880719069098
 30
0.0
 10
6.695717456532924
 20
-5.605736542589991
 30
0.0
 10
6.832060409972781
 20
-5.3328288006307
 30
0.0
 10
6.971816510164722
 20
-5.052970226175148
 30
0.0
 10
6.738103524123895
 20
-5.241821932157083
 30
0.0
 10
6.673413301417364
 20
-5.321079325095272
 30
0.0
 10
6.559884334592071
 20
-5.460166028204589
 30
0.0
 10
6.437123914977645
 20
-5.680358749916119
 30
0.0
 10
6.095731402896541
 20
-5.808602777026104
 30
0.0
 10
6.020470933235982
 20
-5.836880911918747
 30
0.0
 10
6.192459281319568
 20
-5.730045915918607
 30
0.0
 10
6.188314467988877
 20
-5.580027024409307
 30
0.0
 10
6.18592487607806
 20
-5.49343350646806
 30
0.0
 10
6.122336045082926
 20
-5.457566276744577
 30
0.0
 10
6.128854882950413
 20
-5.425478027062632
 30
0.0
 10
6.135996415778335
 20
-5.389739228174727
 30
0.0
 10
6.363062133116121
 20
-5.079956269024857
 30
0.0
 10
6.789545911546257
 20
-5.010502429870686
 30
0.0
 10
7.011875255340833
 20
-4.974187638144447
 30
0.0
 10
7.060846322138736
 20
-4.955090362075276
 30
0.0
 10
7.080531266576801
 20
-4.942227819297917
 30
0.0
 10
7.100122806770842
 20
-4.929489815512637
 30
0.0
 10
7.287192048428475
 20
-5.112733375006806
 30
0.0
 10
6.873508543279437
 20
-5.621187161296803
 30
0.0
 10
6.814430358904296
 20
-5.693766150783757
 30
0.0
 10
6.748004373995425
 20
-5.752186613606947
 30
0.0
 10
6.67893193550473
 20
-5.798865384581669
 30
0.0
 10
6.694950763362916
 20
-5.799087219661386
 30
0.0
 10
6.711467747189594
 20
-5.799565916412221
 30
0.0
 10
6.729000502170416
 20
-5.800714010245555
 30
0.0
 10
7.113880473553889
 20
-5.825804725309303
 30
0.0
 10
7.348866092420141
 20
-6.075217408041125
 30
0.0
 10
7.37201477757584
 20
-6.20679285318973
 30
0.0
 10
7.132946614875006
 20
-6.197993395029445
 30
0.0
 10
7.055872546141952
 20
-6.354309289326515
 30
0.0
 10
6.671568567596952
 20
-6.383260713145141
 30
0.0
 10
6.431177178105145
 20
-6.401307191468478
 30
0.0
 10
6.106776454758043
 20
-6.245018540075963
 30
0.0
 10
6.174782528129021
 20
-6.140047737113617
 30
0.0
  0
SPLINE
  5
50
330
1F
100
AcDbEntity
  8
Layer 1
370
     0
100
AcDbSpline
210
0.0
220
0.0
230
1.0
 70
    11
 71
     3
 72
   182
 73
   178
 74
     0
 42
0.0000000001
 43
0.0000000001
 12
1.0
 22
0.0
 32
0.0
 13
1.0
 23
0.0
 33
0.0
 40
0.0
 40
0.0
 40
0.0
 40
0.0
 40
1.0
 40
1.0
 40
1.0
 40
2.0
 40
2.0
 40
2.0
 40
3.0
 40
3.0
 40
3.0
 40
4.0
 40
4.0
 40
4.0
 40
5.0
 40
5.0
 40
5.0
 40
6.0
 40
6.0
 40
6.0
 40
7.0
 40
7.0
 40
7.0
 40
8.0
 40
8.0
 40
8.0
 40
9.0
 40
9.0
 40
9.0
 40
10.0
 40
10.0
 40
10.0
 40
11.0
 40
11.0
 40
11.0
 40
12.0
 40
12.0
 40
12.0
 40
13.0
 40
13.0
 40
13.0
 40
14.0
 40
14.0
 40
14.0
 40
15.0
 40
15.0
 40
15.0
 40
16.0
 40
16.0
 40
16.0
 40
17.0
 40
17.0
 40
17.0
 40
18.0
 40
18.0
 40
18.0
 40
19.0
 40
19.0
 40
19.0
 40
20.0
 40
20.0
 40
20.0
 40
21.0
 40
21.0
 40
21.0
 40
22.0
 40
22.0
 40
22.0
 40
23.0
 40
23.0
 40
23.0
 40
24.0
 40
24.0
 40
24.0
 40
25.0
 40
25.0
 40
25.0
 40
26.0
 40
26.0
 40
26.0
 40
27.0
 40
27.0
 40
27.0
 40
28.0
 40
28.0
 40
28.0
 40
29.0
 40
29.0
 40
29.0
 40
30.0
 40
30.0
 40
30.0
 40
31.0
 40
31.0
 40
31.0
 40
32.0
 40
32.0
 40
32.0
 40
33.0
 40
33.0
 40
33.0
 40
34.0
 40
34.0
 40
34.0
 40
35.0
 40
35.0
 40
35.0
 40
36.0
 40
36.0
 40
36.0
 40
37.0
 40
37.0
 40
37.0
 40
38.0
 40
38.0
 40
38.0
 40
39.0
 40
39.0
 40
39.0
 40
40.0
 40
40.0
 40
40.0
 40
41.0
 40
41.0
 40
41.0
 40
42.0
 40
42.0
 40
42.0
 40
43.0
 40
43.0
 40
43.0
 40
44.0
 40
44.0
 40
44.0
 40
45.0
 40
45.0
 40
45.0
 40
46.0
 40
46.0
 40
46.0
 40
47.0
 40
47.0
 40
47.0
 40
48.0
 40
48.0
 40
48.0
 40
49.0
 40
49.0
 40
49.0
 40
50.0
 40
50.0
 40
50.0
 40
51.0
 40
51.0
 40
51.0
 40
52.0
 40
52.0
 40
52.0
 40
53.0
 40
53.0
 40
53.0
 40
54.0
 40
54.0
 40
54.0
 40
55.0
 40
55.0
 40
55.0
 40
56.0
 40
56.0
 40
56.0
 40
57.0
 40
57.0
 40
57.0
 40
58.0
 40
58.0
 40
58.0
 40
59.0
 40
59.0
 40
59.0
 40
59.0
 10
9.657647764752078
 20
-6.65097284402792
 30
0.0
 10
9.60757530624278
 20
-6.836734426268625
 30
0.0
 10
9.350293315947914
 20
-7.089256691959159
 30
0.0
 10
9.2241353169554
 20
-7.113502876982769
 30
0.0
 10
8.925031576377629
 20
-7.171160538479297
 30
0.0
 10
8.416803517010976
 20
-6.940238004230271
 30
0.0
 10
8.335790902652914
 20
-7.043741582191942
 30
0.0
 10
8.286418975974154
 20
-7.1068205816882
 30
0.0
 10
8.38589449591028
 20
-7.201369027749453
 30
0.0
 10
8.54033062979541
 20
-7.21156954957069
 30
0.0
 10
8.694813465802628
 20
-7.221583262903904
 30
0.0
 10
9.458198568911534
 20
-6.994867811481527
 30
0.0
 10
9.657647764752078
 20
-7.839981628152903
 30
0.0
 10
9.488944132584997
 20
-7.930638230711237
 30
0.0
 10
9.179114471313065
 20
-8.003583053487647
 30
0.0
 10
8.960167139522481
 20
-7.807971215340987
 30
0.0
 10
8.960167139522481
 20
-7.807971215340987
 30
0.0
 10
8.960167139522481
 20
-7.807967323497349
 30
0.0
 10
8.960167139522481
 20
-7.807967323497349
 30
0.0
 10
8.741375481472208
 20
-7.61223094635875
 30
0.0
 10
8.56284105261668
 20
-7.665630931063055
 30
0.0
 10
8.815538451264981
 20
-7.908318508221681
 30
0.0
 10
9.06822806622626
 20
-8.151002193536796
 30
0.0
 10
9.583632685012516
 20
-8.29596947217917
 30
0.0
 10
9.423203112132796
 20
-8.812985314175698
 30
0.0
 10
9.423203112132796
 20
-8.812985314175698
 30
0.0
 10
9.159608551676127
 20
-8.854624147814016
 30
0.0
 10
8.993372348289995
 20
-8.486292295005265
 30
0.0
 10
8.878788691875291
 20
-8.231824107563195
 30
0.0
 10
8.825369247953454
 20
-8.276650361030407
 30
0.0
 10
8.811833416250137
 20
-8.303702565219584
 30
0.0
 10
8.752965391424015
 20
-8.421808340004443
 30
0.0
 10
9.122698307893895
 20
-8.80544681331043
 30
0.0
 10
8.981751303590146
 20
-9.071485451486952
 30
0.0
 10
8.884766563495834
 20
-9.254581120927924
 30
0.0
 10
8.291525074650155
 20
-9.485694355508762
 30
0.0
 10
8.191668154050705
 20
-9.480051182429431
 30
0.0
 10
8.137742770473475
 20
-9.389729278412359
 30
0.0
 10
8.226655827142496
 20
-9.061456170779719
 30
0.0
 10
8.199770972223885
 20
-8.858146266184171
 30
0.0
 10
8.160043033745549
 20
-8.559906514864172
 30
0.0
 10
8.465630585599303
 20
-8.435694437623068
 30
0.0
 10
8.478481452846102
 20
-8.14483362158459
 30
0.0
 10
8.485494554838471
 20
-7.985645546782355
 30
0.0
 10
8.35195762056431
 20
-7.981088198040425
 30
0.0
 10
8.330692587664037
 20
-8.046093660070557
 30
0.0
 10
8.159023370747793
 20
-8.572052958436819
 30
0.0
 10
7.90279996188585
 20
-8.400002340857226
 30
0.0
 10
7.555192175730402
 20
-8.430767363748348
 30
0.0
 10
7.517254485263341
 20
-8.270497356452223
 30
0.0
 10
7.462079819921655
 20
-8.118676541401125
 30
0.0
 10
7.54150067028695
 20
-7.973689803541244
 30
0.0
 10
7.62110832914027
 20
-7.828531824567208
 30
0.0
 10
7.998048939777643
 20
-7.779514055647218
 30
0.0
 10
8.116664546061404
 20
-7.678816496851115
 30
0.0
 10
8.221752104328768
 20
-7.589545390579865
 30
0.0
 10
8.193279377260978
 20
-7.314707294243185
 30
0.0
 10
8.088370843794715
 20
-7.301000221425688
 30
0.0
 10
8.02968962745682
 20
-7.293457828716933
 30
0.0
 10
7.964314440293896
 20
-7.337743115937226
 30
0.0
 10
7.928116403872637
 20
-7.493070481984583
 30
0.0
 10
7.810886293875986
 20
-7.994083063496797
 30
0.0
 10
7.079675061006254
 20
-7.734878502511542
 30
0.0
 10
7.086528597415003
 20
-7.900585415181265
 30
0.0
 10
7.086528597415003
 20
-7.900585415181265
 30
0.0
 10
6.847907996716938
 20
-7.502029505728463
 30
0.0
 10
7.044889763776533
 20
-7.338587645977364
 30
0.0
 10
7.242237364125558
 20
-7.174986220642772
 30
0.0
 10
7.636940348510405
 20
-7.185361875421677
 30
0.0
 10
7.725156765192373
 20
-7.116830403177775
 30
0.0
 10
7.797895320263049
 20
-7.060593264559732
 30
0.0
 10
7.83443194706903
 20
-6.978701093570129
 30
0.0
 10
7.755011096703734
 20
-6.924585009661263
 30
0.0
 10
7.67541900522431
 20
-6.870430007317357
 30
0.0
 10
7.614270360105567
 20
-6.884156539352362
 30
0.0
 10
7.568218175934867
 20
-6.984122431569731
 30
0.0
 10
7.52201810171098
 20
-7.084138917752776
 30
0.0
 10
7.265783017318476
 20
-7.23683539759208
 30
0.0
 10
6.948574420764847
 20
-7.115238639185009
 30
0.0
 10
6.631237393375689
 20
-6.993637988934577
 30
0.0
 10
6.671646404467083
 20
-6.970240225794718
 30
0.0
 10
6.631237393375689
 20
-6.993637988934577
 30
0.0
 10
6.579207337584294
 20
-6.878898658779867
 30
0.0
 10
6.417357241826115
 20
-6.579970051159584
 30
0.0
 10
6.805712629457654
 20
-6.501588323009728
 30
0.0
 10
6.980744399160559
 20
-6.466297086124718
 30
0.0
 10
7.141539805329456
 20
-6.63903266816083
 30
0.0
 10
7.211297208276796
 20
-6.600884818144727
 30
0.0
 10
7.28089504564054
 20
-6.562756427345978
 30
0.0
 10
7.222727552645134
 20
-6.515840253917632
 30
0.0
 10
7.200937120871938
 20
-6.505480166512623
 30
0.0
 10
7.145396622240973
 20
-6.479638325652912
 30
0.0
 10
7.211122075319154
 20
-6.395819692129306
 30
0.0
 10
7.296007073962654
 20
-6.449955235255705
 30
0.0
 10
7.482278487702084
 20
-6.568049334510002
 30
0.0
 10
8.1759061878636
 20
-7.026878224293467
 30
0.0
 10
8.483945601124308
 20
-7.832439235444174
 30
0.0
 10
8.819235702592778
 20
-8.70858661220834
 30
0.0
 10
8.596762360588603
 20
-8.945136752162776
 30
0.0
 10
8.618214201976949
 20
-8.957968160192094
 30
0.0
 10
8.639479234877221
 20
-8.970803460064872
 30
0.0
 10
8.826980471163754
 20
-8.788563996194448
 30
0.0
 10
8.66267462215501
 20
-8.088452484756948
 30
0.0
 10
8.640888082225274
 20
-7.996009526030825
 30
0.0
 10
8.730151404809577
 20
-8.056298073735409
 30
0.0
 10
8.776721204166254
 20
-8.10356451307901
 30
0.0
 10
8.82311976240875
 20
-8.150651927621514
 30
0.0
 10
9.062444786780816
 20
-8.445194427613892
 30
0.0
 10
9.133797845564306
 20
-8.397916312739728
 30
0.0
 10
9.205135336973903
 20
-8.350665440769994
 30
0.0
 10
8.901820621725973
 20
-8.109892650614862
 30
0.0
 10
8.789727745153211
 20
-8.014997830481812
 30
0.0
 10
8.67761151751943
 20
-7.920130253253192
 30
0.0
 10
8.366380792586394
 20
-7.633145713343765
 30
0.0
 10
8.4270079306757
 20
-7.453902968970699
 30
0.0
 10
8.48780630987931
 20
-7.274488983483328
 30
0.0
 10
8.91658627597624
 20
-7.63191589079679
 30
0.0
 10
9.022716848302379
 20
-7.674609414024442
 30
0.0
 10
9.022716848302379
 20
-7.674609414024442
 30
0.0
 10
9.244505225849984
 20
-7.778494392649438
 30
0.0
 10
9.274729282494162
 20
-7.751586186669859
 30
0.0
 10
9.305147931313462
 20
-7.724728574655829
 30
0.0
 10
9.09724565138443
 20
-7.48342649378416
 30
0.0
 10
8.92661166483986
 20
-7.436179513658064
 30
0.0
 10
8.755962110921397
 20
-7.388722373982773
 30
0.0
 10
8.444225446332918
 20
-7.43440872486417
 30
0.0
 10
8.088721109709997
 20
-7.03129546666931
 30
0.0
 10
8.025097252123334
 20
-6.959047283880131
 30
0.0
 10
8.091351995918052
 20
-6.829001333228208
 30
0.0
 10
8.522077883766542
 20
-6.962748427051388
 30
0.0
 10
8.665834799079448
 20
-7.007383980187089
 30
0.0
 10
9.138896160553182
 20
-6.971867016378887
 30
0.0
 10
9.113762635210959
 20
-6.889118639818611
 30
0.0
 10
9.091088754962634
 20
-6.814768861537787
 30
0.0
 10
8.809031288927901
 20
-6.694222900876512
 30
0.0
 10
8.505016041849457
 20
-6.775235515234448
 30
0.0
 10
8.201172035885014
 20
-6.856419370706539
 30
0.0
 10
7.960780646393181
 20
-6.810207620952219
 30
0.0
 10
7.838639029895703
 20
-6.730424829141257
 30
0.0
 10
7.716337847814732
 20
-6.6508132784443
 30
0.0
 10
7.588938350744733
 20
-6.50917741784057
 30
0.0
 10
7.829855139109441
 20
-6.463475499585002
 30
0.0
 10
8.171679645819443
 20
-6.398800844252643
 30
0.0
 10
8.385349637819875
 20
-6.190038466909451
 30
0.0
 10
8.316806490045412
 20
-6.120456196919728
 30
0.0
 10
8.285881901570821
 20
-6.088990642198041
 30
0.0
 10
7.968315255414861
 20
-6.111466038427781
 30
0.0
 10
7.777840650692219
 20
-6.348716710212784
 30
0.0
 10
7.6810310435557
 20
-6.469262670874033
 30
0.0
 10
7.561535880640273
 20
-6.493508855897491
 30
0.0
 10
7.546933683817088
 20
-6.465405853962491
 30
0.0
 10
7.532506619951517
 20
-6.43746241761111
 30
0.0
 10
7.698229099995286
 20
-6.45713179467513
 30
0.0
 10
7.679594953303067
 20
-6.242037387952627
 30
0.0
 10
7.670986195474446
 20
-6.144001850112645
 30
0.0
 10
7.684887860467092
 20
-6.073528347960846
 30
0.0
 10
7.739708368049984
 20
-6.004455909470001
 30
0.0
 10
7.817930530616397
 20
-5.905684813207913
 30
0.0
 10
7.899468543847231
 20
-5.846127932081799
 30
0.0
 10
8.204884854586806
 20
-5.86317031478139
 30
0.0
 10
8.204884854586806
 20
-5.86317031478139
 30
0.0
 10
8.578828745726948
 20
-5.909557197493339
 30
0.0
 10
8.62630145277626
 20
-5.907630734959437
 30
0.0
 10
8.662153115125571
 20
-5.98530803943528
 30
0.0
 10
8.71379787841013
 20
-6.296172931079026
 30
0.0
 10
8.599930321199988
 20
-6.373138028193883
 30
0.0
 10
8.599930321199988
 20
-6.373138028193883
 30
0.0
 10
8.55335273815639
 20
-6.593681015820695
 30
0.0
 10
7.999465570812794
 20
-6.523223081042791
 30
0.0
 10
7.879067500204579
 20
-6.507776354179441
 30
0.0
 10
7.844282202974985
 20
-6.672428577259855
 30
0.0
 10
8.003147254766544
 20
-6.688770428128893
 30
0.0
 10
8.16182549806985
 20
-6.705108387154318
 30
0.0
 10
8.15833840629125
 20
-6.710735992859731
 30
0.0
 10
8.334755672281265
 20
-6.639036560004317
 30
0.0
 10
8.768447144878893
 20
-6.463140801043765
 30
0.0
 10
9.163827310033335
 20
-6.26736939731346
 30
0.0
 10
9.657647764752078
 20
-6.65097284402792
 30
0.0
  0
SPLINE
  5
51
330
1F
100
AcDbEntity
  8
Layer 1
370
     0
100
AcDbSpline
210
0.0
220
0.0
230
1.0
 70
    11
 71
     3
 72
    47
 73
    43
 74
     0
 42
0.0000000001
 43
0.0000000001
 12
1.0
 22
0.0
 32
0.0
 13
1.0
 23
0.0
 33
0.0
 40
0.0
 40
0.0
 40
0.0
 40
0.0
 40
1.0
 40
1.0
 40
1.0
 40
2.0
 40
2.0
 40
2.0
 40
3.0
 40
3.0
 40
3.0
 40
4.0
 40
4.0
 40
4.0
 40
5.0
 40
5.0
 40
5.0
 40
6.0
 40
6.0
 40
6.0
 40
7.0
 40
7.0
 40
7.0
 40
8.0
 40
8.0
 40
8.0
 40
9.0
 40
9.0
 40
9.0
 40
10.0
 40
10.0
 40
10.0
 40
11.0
 40
11.0
 40
11.0
 40
12.0
 40
12.0
 40
12.0
 40
13.0
 40
13.0
 40
13.0
 40
14.0
 40
14.0
 40
14.0
 40
14.0
 10
9.056544752030277
 20
-5.619303509041388
 30
0.0
 10
8.604219132740278
 20
-5.864493541572352
 30
0.0
 10
8.389685151482228
 20
-5.529985700648063
 30
0.0
 10
8.389685151482228
 20
-5.529985700648063
 30
0.0
 10
8.23952226176334
 20
-5.623849182252772
 30
0.0
 10
7.898433313475429
 20
-5.819569992017502
 30
0.0
 10
7.599648704064848
 20
-5.754420531777643
 30
0.0
 10
7.357058422993886
 20
-5.701577080694303
 30
0.0
 10
7.235111398671531
 20
-5.419753125269722
 30
0.0
 10
7.533783144620555
 20
-4.969007594441942
 30
0.0
 10
7.274485179391124
 20
-4.871719290554589
 30
0.0
 10
7.65934958340055
 20
-4.396564117276108
 30
0.0
 10
8.099921835311534
 20
-4.218983190078752
 30
0.0
 10
8.5194002954364
 20
-4.049785293786802
 30
0.0
 10
9.213899768542634
 20
-4.059639441536395
 30
0.0
 10
9.02523876289236
 20
-4.119717829691808
 30
0.0
 10
8.605511224783337
 20
-4.253429896923611
 30
0.0
 10
8.399251302812495
 20
-4.382666344126948
 30
0.0
 10
8.380819531982372
 20
-4.47875985205888
 30
0.0
 10
8.359110828922793
 20
-4.593164483672505
 30
0.0
 10
8.782379944619581
 20
-4.391146671119865
 30
0.0
 10
8.673384975475123
 20
-4.463978630434591
 30
0.0
 10
8.368373416459866
 20
-4.667946256582227
 30
0.0
 10
8.083093504004712
 20
-5.025392623113046
 30
0.0
 10
8.368630278131098
 20
-5.028673447186116
 30
0.0
 10
8.678218645105819
 20
-5.032102161312221
 30
0.0
 10
8.878913230867358
 20
-4.490345870167352
 30
0.0
 10
8.877130766543056
 20
-4.559165338830414
 30
0.0
 10
8.875550678080849
 20
-4.630148672481255
 30
0.0
 10
8.773833456287068
 20
-4.968925865728326
 30
0.0
 10
9.016264171774461
 20
-4.864052358853617
 30
0.0
 10
9.252125455428894
 20
-4.76194984455305
 30
0.0
 10
9.279531817376816
 20
-4.392964162035835
 30
0.0
 10
9.243757991897484
 20
-4.210724698165424
 30
0.0
 10
9.243757991897484
 20
-4.210724698165424
 30
0.0
 10
9.243757991897484
 20
-4.210724698165424
 30
0.0
 10
9.243757991897484
 20
-4.210724698165424
 30
0.0
 10
9.21603249878222
 20
-4.070092933185416
 30
0.0
 10
9.450033481242219
 20
-4.271285674915285
 30
0.0
 10
9.483923654466253
 20
-4.609455740575968
 30
0.0
 10
9.495466862295972
 20
-4.724374095531807
 30
0.0
 10
9.43062874953638
 20
-5.416487868570685
 30
0.0
 10
9.056544752030277
 20
-5.619303509041388
 30
0.0
  0
SPLINE
  5
52
330
1F
100
AcDbEntity
  8
Layer 1
370
     0
100
AcDbSpline
210
0.0
220
0.0
230
1.0
 70
    11
 71
     3
 72
    95
 73
    91
 74
     0
 42
0.0000000001
 43
0.0000000001
 12
1.0
 22
0.0
 32
0.0
 13
1.0
 23
0.0
 33
0.0
 40
0.0
 40
0.0
 40
0.0
 40
0.0
 40
1.0
 40
1.0
 40
1.0
 40
2.0
 40
2.0
 40
2.0
 40
3.0
 40
3.0
 40
3.0
 40
4.0
 40
4.0
 40
4.0
 40
5.0
 40
5.0
 40
5.0
 40
6.0
 40
6.0
 40
6.0
 40
7.0
 40
7.0
 40
7.0
 40
8.0
 40
8.0
 40
8.0
 40
9.0
 40
9.0
 40
9.0
 40
10.0
 40
10.0
 40
10.0
 40
11.0
 40
11.0
 40
11.0
 40
12.0
 40
12.0
 40
12.0
 40
13.0
 40
13.0
 40
13.0
 40
14.0
 40
14.0
 40
14.0
 40
15.0
 40
15.0
 40
15.0
 40
16.0
 40
16.0
 40
16.0
 40
17.0
 40
17.0
 40
17.0
 40
18.0
 40
18.0
 40
18.0
 40
19.0
 40
19.0
 40
19.0
 40
20.0
 40
20.0
 40
20.0
 40
21.0
 40
21.0
 40
21.0
 40
22.0
 40
22.0
 40
22.0
 40
23.0
 40
23.0
 40
23.0
 40
24.0
 40
24.0
 40
24.0
 40
25.0
 40
25.0
 40
25.0
 40
26.0
 40
26.0
 40
26.0
 40
27.0
 40
27.0
 40
27.0
 40
28.0
 40
28.0
 40
28.0
 40
29.0
 40
29.0
 40
29.0
 40
30.0
 40
30.0
 40
30.0
 40
30.0
 10
11.30215402062196
 20
-3.204706503706941
 30
0.0
 10
11.29845676929401
 20
-3.209983843496944
 30
0.0
 10
11.29514091862959
 20
-3.215434370322921
 30
0.0
 10
11.2921441991322
 20
-3.221237108985835
 30
0.0
 10
11.2768414704786
 20
-3.250567987545967
 30
0.0
 10
11.26894881185459
 20
-3.283088231856949
 30
0.0
 10
11.26139085177182
 20
-3.314538219204451
 30
0.0
 10
11.25366165057486
 20
-3.346548632016392
 30
0.0
 10
11.24572228982874
 20
-3.379578707826251
 30
0.0
 10
11.23008486263375
 20
-3.411032587017214
 30
0.0
 10
11.21532699207056
 20
-3.440727352945007
 30
0.0
 10
11.18986655187402
 20
-3.467254158261249
 30
0.0
 10
11.16297391326846
 20
-3.495376619413744
 30
0.0
 10
11.15505011989639
 20
-3.503806352441251
 30
0.0
 10
11.14697065278415
 20
-3.51223997731222
 30
0.0
 10
11.1392336679003
 20
-3.520673602183049
 30
0.0
 10
11.12379083288056
 20
-3.526301207888473
 30
0.0
 10
11.10161510860055
 20
-3.568656140731251
 30
0.0
 10
11.09723289281626
 20
-3.578140563348054
 30
0.0
 10
11.09379250315957
 20
-3.585585659969309
 30
0.0
 10
11.09039103193792
 20
-3.593061891338468
 30
0.0
 10
11.08714523445653
 20
-3.600584824829714
 30
0.0
 10
11.06004243630165
 20
-3.663169560201115
 30
0.0
 10
11.03841157011223
 20
-3.728128320109312
 30
0.0
 10
11.01773031373735
 20
-3.793055945269442
 30
0.0
 10
11.00793065179682
 20
-3.82385599475208
 30
0.0
 10
10.99089216094083
 20
-3.85954419967431
 30
0.0
 10
10.98903964343347
 20
-3.891827041531529
 30
0.0
 10
10.98739728547515
 20
-3.919852206596387
 30
0.0
 10
10.96275413241432
 20
-3.934578942411665
 30
0.0
 10
10.93793195455237
 20
-3.944160661115979
 30
0.0
 10
10.90911674525624
 20
-3.955287441691111
 30
0.0
 10
10.87946089776362
 20
-3.952944551902217
 30
0.0
 10
10.8490111141964
 20
-3.949850536317361
 30
0.0
 10
10.78330901217901
 20
-3.94315656549222
 30
0.0
 10
10.71928818655513
 20
-3.924043722049166
 30
0.0
 10
10.65844310522958
 20
-3.898855710897919
 30
0.0
 10
10.50518230808236
 20
-3.835410878112359
 30
0.0
 10
10.20362670609764
 20
-3.720301822824859
 30
0.0
 10
10.08292507169638
 20
-3.836115301786385
 30
0.0
 10
9.959382391537929
 20
-3.954730908070133
 30
0.0
 10
10.44105251084026
 20
-3.931010121919447
 30
0.0
 10
10.5965861445932
 20
-3.946472416156805
 30
0.0
 10
10.94996553466348
 20
-3.981973812590973
 30
0.0
 10
11.08474785885861
 20
-4.374201584507924
 30
0.0
 10
10.65631815867694
 20
-4.581562898190137
 30
0.0
 10
10.65631815867694
 20
-4.581562898190137
 30
0.0
 10
10.7757043499743
 20
-4.948396391250147
 30
0.0
 10
10.57337518994154
 20
-5.242491329239581
 30
0.0
 10
10.55527033396568
 20
-5.256727692773463
 30
0.0
 10
10.31659913930207
 20
-5.455830514542362
 30
0.0
 10
10.14267265315402
 20
-5.319117835969715
 30
0.0
 10
10.05266988030417
 20
-5.394327711664724
 30
0.0
 10
9.683295013436664
 20
-5.660751642348057
 30
0.0
 10
9.60000956247293
 20
-5.134426510692492
 30
0.0
 10
9.538837566293195
 20
-4.747651211523058
 30
0.0
 10
9.71439862671251
 20
-4.501986374084721
 30
0.0
 10
9.461195288408765
 20
-4.177570083363611
 30
0.0
 10
9.461195288408765
 20
-4.177570083363611
 30
0.0
 10
9.461195288408765
 20
-4.177570083363611
 30
0.0
 10
9.461195288408765
 20
-4.177570083363611
 30
0.0
 10
9.34906349340099
 20
-4.03401943575625
 30
0.0
 10
9.657281931462775
 20
-4.133475496474855
 30
0.0
 10
9.708615347267065
 20
-4.40284555268987
 30
0.0
 10
9.774161775544169
 20
-4.748336175979577
 30
0.0
 10
9.919498779319307
 20
-4.772216527713883
 30
0.0
 10
9.998931305215137
 20
-4.643762341054727
 30
0.0
 10
10.07679931002263
 20
-4.517748340271813
 30
0.0
 10
9.953256629864173
 20
-4.347993910358885
 30
0.0
 10
9.944461063547502
 20
-4.309690386602647
 30
0.0
 10
9.93585230571888
 20
-4.271382971002772
 30
0.0
 10
10.14005733432001
 20
-4.392104064621662
 30
0.0
 10
10.20155624535401
 20
-4.213390610965007
 30
0.0
 10
10.29682079062001
 20
-3.936447027293196
 30
0.0
 10
9.912656918441117
 20
-4.077028198307643
 30
0.0
 10
9.80703228577027
 20
-3.960693212316666
 30
0.0
 10
9.701773486388749
 20
-3.844704600397499
 30
0.0
 10
9.917903123483054
 20
-3.803244791560271
 30
0.0
 10
10.17889014879276
 20
-3.71677970445459
 30
0.0
 10
10.30383389261235
 20
-3.675475569357495
 30
0.0
 10
10.61783561011943
 20
-3.590956404003337
 30
0.0
 10
10.58815641156583
 20
-3.429806840075558
 30
0.0
 10
10.57108678596165
 20
-3.337208207609301
 30
0.0
 10
10.30190353823486
 20
-3.418746220840136
 30
0.0
 10
10.18150546762682
 20
-3.484471673918468
 30
0.0
 10
10.05921596107626
 20
-3.551247924742496
 30
0.0
 10
9.745883640651527
 20
-3.81784698838347
 30
0.0
 10
9.80703228577027
 20
-3.703613597884024
 30
0.0
 10
10.15094671244138
 20
-3.061842766477917
 30
0.0
 10
11.42515184269001
 20
-2.64184474524542
 30
0.0
 10
11.30215402062196
 20
-3.204706503706941
 30
0.0
  0
SPLINE
  5
53
330
1F
100
AcDbEntity
  8
Layer 1
370
     0
100
AcDbSpline
210
0.0
220
0.0
230
1.0
 70
    11
 71
     3
 72
   170
 73
   166
 74
     0
 42
0.0000000001
 43
0.0000000001
 12
1.0
 22
0.0
 32
0.0
 13
1.0
 23
0.0
 33
0.0
 40
0.0
 40
0.0
 40
0.0
 40
0.0
 40
1.0
 40
1.0
 40
1.0
 40
2.0
 40
2.0
 40
2.0
 40
3.0
 40
3.0
 40
3.0
 40
4.0
 40
4.0
 40
4.0
 40
5.0
 40
5.0
 40
5.0
 40
6.0
 40
6.0
 40
6.0
 40
7.0
 40
7.0
 40
7.0
 40
8.0
 40
8.0
 40
8.0
 40
9.0
 40
9.0
 40
9.0
 40
10.0
 40
10.0
 40
10.0
 40
11.0
 40
11.0
 40
11.0
 40
12.0
 40
12.0
 40
12.0
 40
13.0
 40
13.0
 40
13.0
 40
14.0
 40
14.0
 40
14.0
 40
15.0
 40
15.0
 40
15.0
 40
16.0
 40
16.0
 40
16.0
 40
17.0
 40
17.0
 40
17.0
 40
18.0
 40
18.0
 40
18.0
 40
19.0
 40
19.0
 40
19.0
 40
20.0
 40
20.0
 40
20.0
 40
21.0
 40
21.0
 40
21.0
 40
22.0
 40
22.0
 40
22.0
 40
23.0
 40
23.0
 40
23.0
 40
24.0
 40
24.0
 40
24.0
 40
25.0
 40
25.0
 40
25.0
 40
26.0
 40
26.0
 40
26.0
 40
27.0
 40
27.0
 40
27.0
 40
28.0
 40
28.0
 40
28.0
 40
29.0
 40
29.0
 40
29.0
 40
30.0
 40
30.0
 40
30.0
 40
31.0
 40
31.0
 40
31.0
 40
32.0
 40
32.0
 40
32.0
 40
33.0
 40
33.0
 40
33.0
 40
34.0
 40
34.0
 40
34.0
 40
35.0
 40
35.0
 40
35.0
 40
36.0
 40
36.0
 40
36.0
 40
37.0
 40
37.0
 40
37.0
 40
38.0
 40
38.0
 40
38.0
 40
39.0
 40
39.0
 40
39.0
 40
40.0
 40
40.0
 40
40.0
 40
41.0
 40
41.0
 40
41.0
 40
42.0
 40
42.0
 40
42.0
 40
43.0
 40
43.0
 40
43.0
 40
44.0
 40
44.0
 40
44.0
 40
45.0
 40
45.0
 40
45.0
 40
46.0
 40
46.0
 40
46.0
 40
47.0
 40
47.0
 40
47.0
 40
48.0
 40
48.0
 40
48.0
 40
49.0
 40
49.0
 40
49.0
 40
50.0
 40
50.0
 40
50.0
 40
51.0
 40
51.0
 40
51.0
 40
52.0
 40
52.0
 40
52.0
 40
53.0
 40
53.0
 40
53.0
 40
54.0
 40
54.0
 40
54.0
 40
55.0
 40
55.0
 40
55.0
 40
55.0
 10
11.19537740227431
 20
-2.563861931054437
 30
0.0
 10
11.19899681673193
 20
-2.686958995131944
 30
0.0
 10
11.03619321931557
 20
-2.692888218708756
 30
0.0
 10
11.02878314928583
 20
-2.632951882841111
 30
0.0
 10
11.10287606589554
 20
-2.594181337864446
 30
0.0
 10
11.07079949174403
 20
-2.464851486417084
 30
0.0
 10
10.9163633578589
 20
-2.48442745923694
 30
0.0
 10
10.85556497865526
 20
-2.492047688815837
 30
0.0
 10
10.7735327012996
 20
-2.527899351165274
 30
0.0
 10
10.68850370444652
 20
-2.5749400635857
 30
0.0
 10
10.71548974729623
 20
-2.584074220287221
 30
0.0
 10
10.74769086043986
 20
-2.598279449073061
 30
0.0
 10
10.77780594546584
 20
-2.614490923184727
 30
0.0
 10
10.79777888632321
 20
-2.594979165782497
 30
0.0
 10
10.82632945026098
 20
-2.584809778709301
 30
0.0
 10
10.85253712440999
 20
-2.590468519162641
 30
0.0
 10
10.88989103835153
 20
-2.598470149404723
 30
0.0
 10
10.90840842973876
 20
-2.635181909168333
 30
0.0
 10
10.89407866196082
 20
-2.672261448142914
 30
0.0
 10
10.87958543675571
 20
-2.709786603198609
 30
0.0
 10
10.83729666525237
 20
-2.733968572804302
 30
0.0
 10
10.79949908115138
 20
-2.726062292728051
 30
0.0
 10
10.76167814598959
 20
-2.718091797234024
 30
0.0
 10
10.74312183616737
 20
-2.680916908093473
 30
0.0
 10
10.75800424572278
 20
-2.643376185663884
 30
0.0
 10
10.75845569956901
 20
-2.642276739874167
 30
0.0
 10
10.75915623139958
 20
-2.641223996206665
 30
0.0
 10
10.75966217105499
 20
-2.640171252539163
 30
0.0
 10
10.72324229955418
 20
-2.623449946928607
 30
0.0
 10
10.67531813865849
 20
-2.607699656272088
 30
0.0
 10
10.63540339169195
 20
-2.609820710981113
 30
0.0
 10
10.63284255866695
 20
-2.609931628520977
 30
0.0
 10
10.63042961569514
 20
-2.609962763269032
 30
0.0
 10
10.62820348121138
 20
-2.609931628520977
 30
0.0
 10
10.57304049140028
 20
-2.643216620080137
 30
0.0
 10
10.51853911498458
 20
-2.679467196388613
 30
0.0
 10
10.4693306457329
 20
-2.714567732942088
 30
0.0
 10
10.49453422425818
 20
-2.723686322269448
 30
0.0
 10
10.52290576339485
 20
-2.736295895219162
 30
0.0
 10
10.54972056513043
 20
-2.750643176292922
 30
0.0
 10
10.57051079312335
 20
-2.730637154765835
 30
0.0
 10
10.60000318318887
 20
-2.719860640106112
 30
0.0
 10
10.62694252391652
 20
-2.725519380559439
 30
0.0
 10
10.66516821080262
 20
-2.73348987605348
 30
0.0
 10
10.68372452062487
 20
-2.770983896361245
 30
0.0
 10
10.66845292671916
 20
-2.809258231291248
 30
0.0
 10
10.65309571225652
 20
-2.847803049344722
 30
0.0
 10
10.60916458279487
 20
-2.872911277704159
 30
0.0
 10
10.57040182150528
 20
-2.865051699749857
 30
0.0
 10
10.53163127652862
 20
-2.85708120425583
 30
0.0
 10
10.51302826458429
 20
-2.819141567867089
 30
0.0
 10
10.52885250026737
 20
-2.780421616855834
 30
0.0
 10
10.52935065623584
 20
-2.779289090396535
 30
0.0
 10
10.53003562069236
 20
-2.778189644606944
 30
0.0
 10
10.5306271809047
 20
-2.777168035687358
 30
0.0
 10
10.49963253924708
 20
-2.763013400867079
 30
0.0
 10
10.46056621416417
 20
-2.749893996418614
 30
0.0
 10
10.42466784969277
 20
-2.74710354462694
 30
0.0
 10
10.40383091957776
 20
-2.76267870232583
 30
0.0
 10
10.38454294317707
 20
-2.77751830160264
 30
0.0
 10
10.36738769701596
 20
-2.791388831847219
 30
0.0
 10
10.22840218183764
 20
-2.903294899931943
 30
0.0
 10
9.916245198150843
 20
-3.242963325341255
 30
0.0
 10
9.685388825241262
 20
-3.771028111042634
 30
0.0
 10
9.566672031026377
 20
-4.042597058836805
 30
0.0
 10
9.40399297260208
 20
-4.005854164325279
 30
0.0
 10
9.360746807596948
 20
-4.006138268900965
 30
0.0
 10
9.317228213546665
 20
-4.00644183269416
 30
0.0
 10
9.249658026647921
 20
-3.930834988961806
 30
0.0
 10
9.349717323109568
 20
-3.721418781910137
 30
0.0
 10
9.441237914925548
 20
-3.529710462797084
 30
0.0
 10
9.666381061572793
 20
-3.142409764754726
 30
0.0
 10
10.24502813728236
 20
-2.761643471954029
 30
0.0
 10
10.25784008609417
 20
-2.724579500353469
 30
0.0
 10
10.25871964272584
 20
-2.677776190386667
 30
0.0
 10
10.25531038781724
 20
-2.640202387287079
 30
0.0
 10
10.25408056527026
 20
-2.640299683374729
 30
0.0
 10
10.25280404060125
 20
-2.640665516664032
 30
0.0
 10
10.25159756911542
 20
-2.640778380125552
 30
0.0
 10
10.20922317705501
 20
-2.64344040108166
 30
0.0
 10
10.17919371258596
 20
-2.613854606771939
 30
0.0
 10
10.18454888924612
 20
-2.574846659341663
 30
0.0
 10
10.18996633540221
 20
-2.536044979616943
 30
0.0
 10
10.22857342295179
 20
-2.50283977084958
 30
0.0
 10
10.2704807937918
 20
-2.50051244843486
 30
0.0
 10
10.3122480582657
 20
-2.49818512602
 30
0.0
 10
10.34196617525443
 20
-2.527309736874586
 30
0.0
 10
10.33705466875376
 20
-2.565805906884306
 30
0.0
 10
10.33348195641805
 20
-2.59295540716097
 30
0.0
 10
10.31341561131666
 20
-2.617423427264169
 30
0.0
 10
10.28725463928959
 20
-2.63060704713055
 30
0.0
 10
10.29260981594972
 20
-2.664674299233891
 30
0.0
 10
10.29552869857695
 20
-2.700189317120274
 30
0.0
 10
10.29508502841764
 20
-2.729282793226806
 30
0.0
 10
10.31294859009626
 20
-2.718027581816108
 30
0.0
 10
10.3310300950111
 20
-2.706661452865698
 30
0.0
 10
10.34948521690222
 20
-2.695439322124861
 30
0.0
 10
10.37754540855874
 20
-2.678287967807225
 30
0.0
 10
10.40580797607736
 20
-2.66217184386139
 30
0.0
 10
10.43399270672583
 20
-2.646707603702364
 30
0.0
 10
10.43472437330446
 20
-2.645368809537356
 30
0.0
 10
10.43530036614291
 20
-2.6442849311218
 30
0.0
 10
10.43621105752264
 20
-2.642946136956804
 30
0.0
 10
10.45851132079456
 20
-2.607763871689864
 30
0.0
 10
10.46966534427416
 20
-2.556640615434718
 30
0.0
 10
10.47413318061555
 20
-2.515737340218468
 30
0.0
 10
10.47279438645056
 20
-2.515593342008894
 30
0.0
 10
10.4716891028957
 20
-2.515815177088471
 30
0.0
 10
10.47049819878374
 20
-2.515624476756809
 30
0.0
 10
10.43101155460264
 20
-2.510539783220274
 30
0.0
 10
10.40912382674181
 20
-2.47575643191236
 30
0.0
 10
10.4217956691875
 20
-2.438200142108611
 30
0.0
 10
10.43428070314515
 20
-2.400674987052917
 30
0.0
 10
10.47617250661112
 20
-2.374626878487498
 30
0.0
 10
10.51523104800693
 20
-2.379888650903467
 30
0.0
 10
10.55417283409777
 20
-2.385020046562229
 30
0.0
 10
10.57604499458459
 20
-2.419309133745135
 30
0.0
 10
10.56398806341238
 20
-2.456690290591243
 30
0.0
 10
10.56398806341238
 20
-2.456690290591243
 30
0.0
 10
10.56398806341238
 20
-2.456690290591243
 30
0.0
 10
10.56398806341238
 20
-2.456690290591243
 30
0.0
 10
10.5554104403318
 20
-2.482993314906114
 30
0.0
 10
10.53202824456583
 20
-2.50368430088972
 30
0.0
 10
10.5053146307614
 20
-2.51203814296889
 30
0.0
 10
10.50360221962013
 20
-2.548366556147357
 30
0.0
 10
10.49906433009568
 20
-2.586099924830553
 30
0.0
 10
10.49252603301069
 20
-2.615384101268609
 30
0.0
 10
10.55308311791694
 20
-2.58426686654055
 30
0.0
 10
10.61199006117805
 20
-2.556879963810136
 30
0.0
 10
10.66666267870778
 20
-2.533112475537501
 30
0.0
 10
10.68909526465904
 20
-2.501644974894159
 30
0.0
 10
10.70482609609806
 20
-2.45785395179861
 30
0.0
 10
10.71416652050513
 20
-2.421508025324303
 30
0.0
 10
10.7130845880114
 20
-2.421270622870692
 30
0.0
 10
10.71194038602152
 20
-2.421239488122637
 30
0.0
 10
10.71085066984071
 20
-2.420887276285687
 30
0.0
 10
10.67457090470584
 20
-2.41023919246153
 30
0.0
 10
10.65925260867819
 20
-2.372714037405836
 30
0.0
 10
10.67656352857946
 20
-2.337214586893336
 30
0.0
 10
10.6939912037857
 20
-2.30184162129486
 30
0.0
 10
10.73701164186764
 20
-2.282090515517224
 30
0.0
 10
10.77292557371306
 20
-2.292754166715415
 30
0.0
 10
10.80869939919249
 20
-2.303322467747774
 30
0.0
 10
10.82411109946431
 20
-2.340386439348334
 30
0.0
 10
10.80715044547833
 20
-2.375662108859312
 30
0.0
 10
10.79521026961111
 20
-2.400659419678883
 30
0.0
 10
10.77039587543625
 20
-2.417826341370553
 30
0.0
 10
10.74396247436403
 20
-2.422354501286248
 30
0.0
 10
10.73806243961346
 20
-2.452705042844173
 30
0.0
 10
10.73006080937138
 20
-2.483839790868059
 30
0.0
 10
10.72137421467263
 20
-2.509901520885693
 30
0.0
 10
10.84453549416791
 20
-2.458922262840284
 30
0.0
 10
10.93802535879639
 20
-2.427980161069854
 30
0.0
 10
10.96112734183013
 20
-2.41522853583236
 30
0.0
 10
11.03090031215139
 20
-2.37653971956916
 30
0.0
 10
11.0713910519564
 20
-2.244102231084728
 30
0.0
 10
10.90931912111849
 20
-2.22922760521625
 30
0.0
 10
10.97755870509958
 20
-2.109670172804865
 30
0.0
 10
11.15305749602291
 20
-2.154831124813326
 30
0.0
 10
11.13675067174543
 20
-2.273433109644859
 30
0.0
 10
11.22993697258069
 20
-2.170581415469997
 30
0.0
 10
11.37092289531958
 20
-2.298157991419303
 30
0.0
 10
11.23574360308708
 20
-2.401153683803753
 30
0.0
 10
11.39693597729347
 20
-2.410988372335825
 30
0.0
 10
11.29349856067125
 20
-2.577236251252493
 30
0.0
 10
11.19537740227431
 20
-2.563861931054437
 30
0.0
  0
SPLINE
  5
54
330
1F
100
AcDbEntity
  8
Layer 1
370
     0
100
AcDbSpline
210
0.0
220
0.0
230
1.0
 70
    11
 71
     3
 72
    17
 73
    13
 74
     0
 42
0.0000000001
 43
0.0000000001
 12
1.0
 22
0.0
 32
0.0
 13
1.0
 23
0.0
 33
0.0
 40
0.0
 40
0.0
 40
0.0
 40
0.0
 40
1.0
 40
1.0
 40
1.0
 40
2.0
 40
2.0
 40
2.0
 40
3.0
 40
3.0
 40
3.0
 40
4.0
 40
4.0
 40
4.0
 40
4.0
 10
8.255673412300691
 20
-7.709931785657495
 30
0.0
 10
8.180973368104585
 20
-7.89041602810807
 30
0.0
 10
7.963248075174028
 20
-7.910964961803757
 30
0.0
 10
7.903309793384728
 20
-8.022727031678743
 30
0.0
 10
7.843581671144445
 20
-8.134679801885289
 30
0.0
 10
7.971856833002625
 20
-8.180350585392766
 30
0.0
 10
8.041614235950014
 20
-8.12149812794069
 30
0.0
 10
8.041614235950014
 20
-8.12149812794069
 30
0.0
 10
8.041614235950014
 20
-8.12149812794069
 30
0.0
 10
8.041614235950014
 20
-8.12149812794069
 30
0.0
 10
8.340717976527786
 20
-7.868610028960827
 30
0.0
 10
8.295907290434444
 20
-7.612931478189314
 30
0.0
 10
8.255673412300691
 20
-7.709931785657495
 30
0.0
  0
SPLINE
  5
55
330
1F
100
AcDbEntity
  8
Layer 1
370
     0
100
AcDbSpline
210
0.0
220
0.0
230
1.0
 70
    11
 71
     3
 72
    14
 73
    10
 74
     0
 42
0.0000000001
 43
0.0000000001
 12
1.0
 22
0.0
 32
0.0
 13
1.0
 23
0.0
 33
0.0
 40
0.0
 40
0.0
 40
0.0
 40
0.0
 40
1.0
 40
1.0
 40
1.0
 40
2.0
 40
2.0
 40
2.0
 40
3.0
 40
3.0
 40
3.0
 40
3.0
 10
4.783195505987098
 20
-6.764680835654442
 30
0.0
 10
4.582866753514862
 20
-6.800516930629859
 30
0.0
 10
4.524524127561815
 20
-6.679270438138044
 30
0.0
 10
4.457919117851816
 20
-6.696308928994161
 30
0.0
 10
4.391317999985404
 20
-6.713366879067634
 30
0.0
 10
4.542278717622366
 20
-7.012992126674867
 30
0.0
 10
4.840837600109706
 20
-6.907192361046377
 30
0.0
 10
4.891275891908334
 20
-6.889258746184724
 30
0.0
 10
4.983703283260562
 20
-6.728829173305004
 30
0.0
 10
4.783195505987098
 20
-6.764680835654442
 30
0.0
  0
ENDSEC
  0
SECTION
  2
OBJECTS
  0
DICTIONARY
  5
C
330
0
100
AcDbDictionary
281
     1
  3
ACAD_GROUP
350
D
  3
ACAD_LAYOUT
350
1A
  3
ACAD_MATERIAL
350
3B
  3
ACAD_MLEADERSTYLE
350
57
  3
ACAD_MLINESTYLE
350
17
  3
ACAD_PLOTSETTINGS
350
19
  3
ACAD_PLOTSTYLENAME
350
E
  3
ACAD_TABLESTYLE
350
56
  3
ACAD_VISUALSTYLE
350
2A
  0
SUN
  5
3F
330
29
100
AcDbSun
 90
        1
290
     0
 63
     7
421
 16777215
 40
1.0
291
     1
 91
  2455826
 92
 54000000
292
     0
 70
     2
 71
   256
280
     1
  0
DICTIONARY
  5
D
102
{ACAD_REACTORS
330
C
102
}
330
C
100
AcDbDictionary
281
     1
  0
DICTIONARY
  5
1A
102
{ACAD_REACTORS
330
C
102
}
330
C
100
AcDbDictionary
281
     1
  3
Layout1
350
1E
  3
Layout2
350
26
  3
Model
350
22
  0
DICTIONARY
  5
3B
102
{ACAD_REACTORS
330
C
102
}
330
C
100
AcDbDictionary
281
     1
  3
ByBlock
350
3D
  3
ByLayer
350
3C
  3
Global
350
3E
  0
DICTIONARY
  5
57
102
{ACAD_REACTORS
330
C
102
}
330
C
100
AcDbDictionary
281
     1
  0
DICTIONARY
  5
17
102
{ACAD_REACTORS
330
C
102
}
330
C
100
AcDbDictionary
281
     1
  3
Standard
350
18
  0
DICTIONARY
  5
19
102
{ACAD_REACTORS
330
C
102
}
330
C
100
AcDbDictionary
281
     1
  0
ACDBDICTIONARYWDFLT
  5
E
102
{ACAD_REACTORS
330
C
102
}
330
C
100
AcDbDictionary
281
     1
  3
Normal
350
F
100
AcDbDictionaryWithDefault
340
F
  0
DICTIONARY
  5
56
102
{ACAD_REACTORS
330
C
102
}
330
C
100
AcDbDictionary
281
     1
  0
DICTIONARY
  5
2A
102
{ACAD_REACTORS
330
C
102
}
330
C
100
AcDbDictionary
281
     1
  3
2dWireframe
350
2F
  3
3D Hidden
350
31
  3
3dWireframe
350
30
  3
Basic
350
32
  3
Brighten
350
36
  3
ColorChange
350
3A
  3
Conceptual
350
34
  3
Dim
350
35
  3
Facepattern
350
39
  3
Flat
350
2B
  3
FlatWithEdges
350
2C
  3
Gouraud
350
2D
  3
GouraudWithEdges
350
2E
  3
Linepattern
350
38
  3
Realistic
350
33
  3
Thicken
350
37
  0
LAYOUT
  5
1E
102
{ACAD_REACTORS
330
1A
102
}
330
1A
100
AcDbPlotSettings
  1

  2
none_device
  4

  6

 40
0.0
 41
0.0
 42
0.0
 43
0.0
 44
0.0
 45
0.0
 46
0.0
 47
0.0
 48
0.0
 49
0.0
140
0.0
141
0.0
142
1.0
143
1.0
 70
   688
 72
     0
 73
     0
 74
     5
  7

 75
    16
 76
     0
 77
     2
 78
   300
147
1.0
148
0.0
149
0.0
100
AcDbLayout
  1
Layout1
 70
     1
 71
     1
 10
0.0
 20
0.0
 11
12.0
 21
9.0
 12
0.0
 22
0.0
 32
0.0
 14
1.000000000000000E+20
 24
1.000000000000000E+20
 34
1.000000000000000E+20
 15
-1.000000000000000E+20
 25
-1.000000000000000E+20
 35
-1.000000000000000E+20
146
0.0
 13
0.0
 23
0.0
 33
0.0
 16
1.0
 26
0.0
 36
0.0
 17
0.0
 27
1.0
 37
0.0
 76
     0
330
1B
  0
LAYOUT
  5
26
102
{ACAD_REACTORS
330
1A
102
}
330
1A
100
AcDbPlotSettings
  1

  2
none_device
  4

  6

 40
0.0
 41
0.0
 42
0.0
 43
0.0
 44
0.0
 45
0.0
 46
0.0
 47
0.0
 48
0.0
 49
0.0
140
0.0
141
0.0
142
1.0
143
1.0
 70
   688
 72
     0
 73
     0
 74
     5
  7

 75
    16
 76
     0
 77
     2
 78
   300
147
1.0
148
0.0
149
0.0
100
AcDbLayout
  1
Layout2
 70
     1
 71
     2
 10
0.0
 20
0.0
 11
0.0
 21
0.0
 12
0.0
 22
0.0
 32
0.0
 14
0.0
 24
0.0
 34
0.0
 15
0.0
 25
0.0
 35
0.0
146
0.0
 13
0.0
 23
0.0
 33
0.0
 16
1.0
 26
0.0
 36
0.0
 17
0.0
 27
1.0
 37
0.0
 76
     0
330
23
  0
LAYOUT
  5
22
102
{ACAD_REACTORS
330
1A
102
}
330
1A
100
AcDbPlotSettings
  1

  2
none_device
  4

  6

 40
0.0
 41
0.0
 42
0.0
 43
0.0
 44
0.0
 45
0.0
 46
0.0
 47
0.0
 48
0.0
 49
0.0
140
0.0
141
0.0
142
1.0
143
1.0
 70
  1712
 72
     0
 73
     0
 74
     0
  7

 75
     0
 76
     0
 77
     2
 78
   300
147
1.0
148
0.0
149
0.0
100
AcDbLayout
  1
Model
 70
     1
 71
     0
 10
0.0
 20
0.0
 11
12.0
 21
9.0
 12
0.0
 22
0.0
 32
0.0
 14
1.000000000000000E+20
 24
1.000000000000000E+20
 34
1.000000000000000E+20
 15
-1.000000000000000E+20
 25
-1.000000000000000E+20
 35
-1.000000000000000E+20
146
0.0
 13
0.0
 23
0.0
 33
0.0
 16
1.0
 26
0.0
 36
0.0
 17
0.0
 27
1.0
 37
0.0
 76
     0
330
1F
331
29
  0
MATERIAL
  5
3D
102
{ACAD_REACTORS
330
3B
102
}
330
3B
100
AcDbMaterial
  1
ByBlock
 72
     1
 94
      127
  0
MATERIAL
  5
3C
102
{ACAD_REACTORS
330
3B
102
}
330
3B
100
AcDbMaterial
  1
ByLayer
 72
     1
 94
      127
  0
MATERIAL
  5
3E
102
{ACAD_REACTORS
330
3B
102
}
330
3B
100
AcDbMaterial
  1
Global
 72
     1
 94
      127
  0
MLINESTYLE
  5
18
102
{ACAD_REACTORS
330
17
102
}
330
17
100
AcDbMlineStyle
  2
Standard
 70
     0
  3

 62
   256
 51
90.0
 52
90.0
 71
     2
 49
0.5
 62
   256
  6
BYLAYER
 49
-0.5
 62
   256
  6
BYLAYER
  0
ACDBPLACEHOLDER
  5
F
102
{ACAD_REACTORS
330
E
102
}
330
E
  0
VISUALSTYLE
  5
2F
102
{ACAD_REACTORS
330
2A
102
}
330
2A
100
AcDbVisualStyle
  2
2dWireframe
 70
     4
177
     2
291
     0
 71
     0
176
     1
 72
     2
176
     1
 73
     0
176
     1
 90
        0
176
     1
 40
-0.6
176
     1
 41
-30.0
176
     1
 62
     5
 63
     7
421
 16777215
176
     1
 74
     1
176
     1
 91
        4
176
     1
 64
     7
176
     1
 65
   257
176
     1
 75
     1
176
     1
175
     1
176
     1
 42
1.0
176
     1
 92
        0
176
     1
 66
   257
176
     1
 43
1.0
176
     1
 76
     1
176
     1
 77
     6
176
     1
 78
     2
176
     1
 67
     7
176
     1
 79
     5
176
     1
170
     0
176
     1
171
     0
176
     1
290
     0
176
     1
 93
        1
176
     1
 44
0.0
176
     1
173
     0
176
     1
  0
VISUALSTYLE
  5
31
102
{ACAD_REACTORS
330
2A
102
}
330
2A
100
AcDbVisualStyle
  2
3D Hidden
 70
     6
177
     2
291
     0
 71
     1
176
     1
 72
     2
176
     1
 73
     2
176
     1
 90
        0
176
     1
 40
-0.6
176
     1
 41
-30.0
176
     1
 62
     5
 63
     7
421
 16777215
176
     1
 74
     2
176
     1
 91
        2
176
     1
 64
     7
176
     1
 65
   257
176
     1
 75
     2
176
     1
175
     1
176
     1
 42
40.0
176
     1
 92
        0
176
     1
 66
   257
176
     1
 43
1.0
176
     1
 76
     1
176
     1
 77
     6
176
     1
 78
     2
176
     1
 67
     7
176
     1
 79
     3
176
     1
170
     0
176
     1
171
     0
176
     1
290
     0
176
     1
 93
        1
176
     1
 44
0.0
176
     1
173
     0
176
     1
  0
VISUALSTYLE
  5
30
102
{ACAD_REACTORS
330
2A
102
}
330
2A
100
AcDbVisualStyle
  2
3dWireframe
 70
     5
177
     2
291
     0
 71
     0
176
     1
 72
     2
176
     1
 73
     0
176
     1
 90
        0
176
     1
 40
-0.6
176
     1
 41
-30.0
176
     1
 62
     5
 63
     7
421
 16777215
176
     1
 74
     1
176
     1
 91
        4
176
     1
 64
     7
176
     1
 65
   257
176
     1
 75
     1
176
     1
175
     1
176
     1
 42
1.0
176
     1
 92
        0
176
     1
 66
   257
176
     1
 43
1.0
176
     1
 76
     1
176
     1
 77
     6
176
     1
 78
     2
176
     1
 67
     7
176
     1
 79
     5
176
     1
170
     0
176
     1
171
     0
176
     1
290
     0
176
     1
 93
        1
176
     1
 44
0.0
176
     1
173
     0
176
     1
  0
VISUALSTYLE
  5
32
102
{ACAD_REACTORS
330
2A
102
}
330
2A
100
AcDbVisualStyle
  2
Basic
 70
     7
177
     2
291
     1
 71
     1
176
     1
 72
     0
176
     1
 73
     1
176
     1
 90
        0
176
     1
 40
-0.6
176
     1
 41
-30.0
176
     1
 62
     5
 63
     7
421
 16777215
176
     1
 74
     0
176
     1
 91
        4
176
     1
 64
     7
176
     1
 65
   257
176
     1
 75
     1
176
     1
175
     1
176
     1
 42
1.0
176
     1
 92
        8
176
     1
 66
     7
176
     1
 43
1.0
176
     1
 76
     1
176
     1
 77
     6
176
     1
 78
     2
176
     1
 67
     7
176
     1
 79
     5
176
     1
170
     0
176
     1
171
     0
176
     1
290
     0
176
     1
 93
        1
176
     1
 44
0.0
176
     1
173
     0
176
     1
  0
VISUALSTYLE
  5
36
102
{ACAD_REACTORS
330
2A
102
}
330
2A
100
AcDbVisualStyle
  2
Brighten
 70
    12
177
     2
291
     1
 71
     2
176
     1
 72
     2
176
     1
 73
     0
176
     1
 90
        0
176
     1
 40
-0.6
176
     1
 41
-30.0
176
     1
 62
     5
 63
     7
421
 16777215
176
     1
 74
     1
176
     1
 91
        4
176
     1
 64
     7
176
     1
 65
   257
176
     1
 75
     1
176
     1
175
     1
176
     1
 42
1.0
176
     1
 92
        8
176
     1
 66
     7
176
     1
 43
1.0
176
     1
 76
     1
176
     1
 77
     6
176
     1
 78
     2
176
     1
 67
     7
176
     1
 79
     5
176
     1
170
     0
176
     1
171
     0
176
     1
290
     0
176
     1
 93
        1
176
     1
 44
50.0
176
     1
173
     0
176
     1
  0
VISUALSTYLE
  5
3A
102
{ACAD_REACTORS
330
2A
102
}
330
2A
100
AcDbVisualStyle
  2
ColorChange
 70
    16
177
     2
291
     1
 71
     2
176
     1
 72
     2
176
     1
 73
     3
176
     1
 90
        0
176
     1
 40
-0.6
176
     1
 41
-30.0
176
     1
 62
     5
 63
     8
421
  8421504
176
     1
 74
     1
176
     1
 91
        4
176
     1
 64
     7
176
     1
 65
   257
176
     1
 75
     1
176
     1
175
     1
176
     1
 42
1.0
176
     1
 92
        8
176
     1
 66
     8
424
  8421504
176
     1
 43
1.0
176
     1
 76
     1
176
     1
 77
     6
176
     1
 78
     2
176
     1
 67
     7
176
     1
 79
     5
176
     1
170
     0
176
     1
171
     0
176
     1
290
     0
176
     1
 93
        1
176
     1
 44
0.0
176
     1
173
     0
176
     1
  0
VISUALSTYLE
  5
34
102
{ACAD_REACTORS
330
2A
102
}
330
2A
100
AcDbVisualStyle
  2
Conceptual
 70
     9
177
     2
291
     0
 71
     3
176
     1
 72
     2
176
     1
 73
     0
176
     1
 90
        0
176
     1
 40
-0.6
176
     1
 41
-30.0
176
     1
 62
     5
 63
     7
421
 16777215
176
     1
 74
     2
176
     1
 91
        2
176
     1
 64
     7
176
     1
 65
   257
176
     1
 75
     1
176
     1
175
     1
176
     1
 42
40.0
176
     1
 92
        8
176
     1
 66
     7
176
     1
 43
1.0
176
     1
 76
     1
176
     1
 77
     6
176
     1
 78
     2
176
     1
 67
     7
176
     1
 79
     3
176
     1
170
     0
176
     1
171
     0
176
     1
290
     0
176
     1
 93
        1
176
     1
 44
0.0
176
     1
173
     0
176
     1
  0
VISUALSTYLE
  5
35
102
{ACAD_REACTORS
330
2A
102
}
330
2A
100
AcDbVisualStyle
  2
Dim
 70
    11
177
     2
291
     1
 71
     2
176
     1
 72
     2
176
     1
 73
     0
176
     1
 90
        0
176
     1
 40
-0.6
176
     1
 41
-30.0
176
     1
 62
     5
 63
     7
421
 16777215
176
     1
 74
     1
176
     1
 91
        4
176
     1
 64
     7
176
     1
 65
   257
176
     1
 75
     1
176
     1
175
     1
176
     1
 42
1.0
176
     1
 92
        8
176
     1
 66
     7
176
     1
 43
1.0
176
     1
 76
     1
176
     1
 77
     6
176
     1
 78
     2
176
     1
 67
     7
176
     1
 79
     5
176
     1
170
     0
176
     1
171
     0
176
     1
290
     0
176
     1
 93
        1
176
     1
 44
-50.0
176
     1
173
     0
176
     1
  0
VISUALSTYLE
  5
39
102
{ACAD_REACTORS
330
2A
102
}
330
2A
100
AcDbVisualStyle
  2
Facepattern
 70
    15
177
     2
291
     1
 71
     2
176
     1
 72
     2
176
     1
 73
     0
176
     1
 90
        0
176
     1
 40
-0.6
176
     1
 41
-30.0
176
     1
 62
     5
 63
     7
421
 16777215
176
     1
 74
     1
176
     1
 91
        4
176
     1
 64
     7
176
     1
 65
   257
176
     1
 75
     1
176
     1
175
     1
176
     1
 42
1.0
176
     1
 92
        8
176
     1
 66
     7
176
     1
 43
1.0
176
     1
 76
     1
176
     1
 77
     6
176
     1
 78
     2
176
     1
 67
     7
176
     1
 79
     5
176
     1
170
     0
176
     1
171
     0
176
     1
290
     0
176
     1
 93
        1
176
     1
 44
0.0
176
     1
173
     0
176
     1
  0
VISUALSTYLE
  5
2B
102
{ACAD_REACTORS
330
2A
102
}
330
2A
100
AcDbVisualStyle
  2
Flat
 70
     0
177
     2
291
     1
 71
     2
176
     1
 72
     1
176
     1
 73
     1
176
     1
 90
        2
176
     1
 40
-0.6
176
     1
 41
30.0
176
     1
 62
     5
 63
     7
421
 16777215
176
     1
 74
     0
176
     1
 91
        4
176
     1
 64
     7
176
     1
 65
   257
176
     1
 75
     1
176
     1
175
     1
176
     1
 42
1.0
176
     1
 92
        8
176
     1
 66
     7
176
     1
 43
1.0
176
     1
 76
     1
176
     1
 77
     6
176
     1
 78
     2
176
     1
 67
     7
176
     1
 79
     5
176
     1
170
     0
176
     1
171
     0
176
     1
290
     0
176
     1
 93
       13
176
     1
 44
0.0
176
     1
173
     0
176
     1
  0
VISUALSTYLE
  5
2C
102
{ACAD_REACTORS
330
2A
102
}
330
2A
100
AcDbVisualStyle
  2
FlatWithEdges
 70
     1
177
     2
291
     1
 71
     2
176
     1
 72
     1
176
     1
 73
     1
176
     1
 90
        2
176
     1
 40
-0.6
176
     1
 41
30.0
176
     1
 62
     5
 63
     7
421
 16777215
176
     1
 74
     1
176
     1
 91
        4
176
     1
 64
     7
176
     1
 65
   257
176
     1
 75
     1
176
     1
175
     1
176
     1
 42
1.0
176
     1
 92
        0
176
     1
 66
   257
176
     1
 43
1.0
176
     1
 76
     1
176
     1
 77
     6
176
     1
 78
     2
176
     1
 67
     7
176
     1
 79
     5
176
     1
170
     0
176
     1
171
     0
176
     1
290
     0
176
     1
 93
       13
176
     1
 44
0.0
176
     1
173
     0
176
     1
  0
VISUALSTYLE
  5
2D
102
{ACAD_REACTORS
330
2A
102
}
330
2A
100
AcDbVisualStyle
  2
Gouraud
 70
     2
177
     2
291
     1
 71
     2
176
     1
 72
     2
176
     1
 73
     1
176
     1
 90
        2
176
     1
 40
-0.6
176
     1
 41
30.0
176
     1
 62
     5
 63
     7
421
 16777215
176
     1
 74
     0
176
     1
 91
        4
176
     1
 64
     7
176
     1
 65
   257
176
     1
 75
     1
176
     1
175
     1
176
     1
 42
1.0
176
     1
 92
        0
176
     1
 66
     7
176
     1
 43
1.0
176
     1
 76
     1
176
     1
 77
     6
176
     1
 78
     2
176
     1
 67
     7
176
     1
 79
     5
176
     1
170
     0
176
     1
171
     0
176
     1
290
     0
176
     1
 93
       13
176
     1
 44
0.0
176
     1
173
     0
176
     1
  0
VISUALSTYLE
  5
2E
102
{ACAD_REACTORS
330
2A
102
}
330
2A
100
AcDbVisualStyle
  2
GouraudWithEdges
 70
     3
177
     2
291
     1
 71
     2
176
     1
 72
     2
176
     1
 73
     1
176
     1
 90
        2
176
     1
 40
-0.6
176
     1
 41
30.0
176
     1
 62
     5
 63
     7
421
 16777215
176
     1
 74
     1
176
     1
 91
        4
176
     1
 64
     7
176
     1
 65
   257
176
     1
 75
     1
176
     1
175
     1
176
     1
 42
1.0
176
     1
 92
        0
176
     1
 66
   257
176
     1
 43
1.0
176
     1
 76
     1
176
     1
 77
     6
176
     1
 78
     2
176
     1
 67
     7
176
     1
 79
     5
176
     1
170
     0
176
     1
171
     0
176
     1
290
     0
176
     1
 93
       13
176
     1
 44
0.0
176
     1
173
     0
176
     1
  0
VISUALSTYLE
  5
38
102
{ACAD_REACTORS
330
2A
102
}
330
2A
100
AcDbVisualStyle
  2
Linepattern
 70
    14
177
     2
291
     1
 71
     2
176
     1
 72
     2
176
     1
 73
     0
176
     1
 90
        0
176
     1
 40
-0.6
176
     1
 41
-30.0
176
     1
 62
     5
 63
     7
421
 16777215
176
     1
 74
     1
176
     1
 91
        4
176
     1
 64
     7
176
     1
 65
   257
176
     1
 75
     7
176
     1
175
     7
176
     1
 42
1.0
176
     1
 92
        8
176
     1
 66
     7
176
     1
 43
1.0
176
     1
 76
     1
176
     1
 77
     6
176
     1
 78
     2
176
     1
 67
     7
176
     1
 79
     5
176
     1
170
     0
176
     1
171
     0
176
     1
290
     0
176
     1
 93
        1
176
     1
 44
0.0
176
     1
173
     0
176
     1
  0
VISUALSTYLE
  5
33
102
{ACAD_REACTORS
330
2A
102
}
330
2A
100
AcDbVisualStyle
  2
Realistic
 70
     8
177
     2
291
     0
 71
     2
176
     1
 72
     2
176
     1
 73
     0
176
     1
 90
        0
176
     1
 40
-0.6
176
     1
 41
-30.0
176
     1
 62
     5
 63
     7
421
 16777215
176
     1
 74
     1
176
     1
 91
        0
176
     1
 64
     7
176
     1
 65
   257
176
     1
 75
     1
176
     1
175
     1
176
     1
 42
1.0
176
     1
 92
        8
176
     1
 66
     8
424
  7895160
176
     1
 43
1.0
176
     1
 76
     1
176
     1
 77
     6
176
     1
 78
     2
176
     1
 67
     7
176
     1
 79
     5
176
     1
170
     0
176
     1
171
     0
176
     1
290
     0
176
     1
 93
       13
176
     1
 44
0.0
176
     1
173
     0
176
     1
  0
VISUALSTYLE
  5
37
102
{ACAD_REACTORS
330
2A
102
}
330
2A
100
AcDbVisualStyle
  2
Thicken
 70
    13
177
     2
291
     1
 71
     2
176
     1
 72
     2
176
     1
 73
     0
176
     1
 90
        0
176
     1
 40
-0.6
176
     1
 41
-30.0
176
     1
 62
     5
 63
     7
421
 16777215
176
     1
 74
     1
176
     1
 91
        4
176
     1
 64
     7
176
     1
 65
   257
176
     1
 75
     1
176
     1
175
     1
176
     1
 42
1.0
176
     1
 92
       12
176
     1
 66
     7
176
     1
 43
1.0
176
     1
 76
     1
176
     1
 77
     6
176
     1
 78
     2
176
     1
 67
     7
176
     1
 79
     5
176
     1
170
     0
176
     1
171
     0
176
     1
290
     0
176
     1
 93
        1
176
     1
 44
0.0
176
     1
173
     0
176
     1
  0
ENDSEC
  0
EOF
